<?xml version="1.0" encoding="utf-8"?>
<!-- Generator: Adobe Illustrator 21.0.2, SVG Export Plug-In . SVG Version: 6.00 Build 0)  -->
<svg version="1.1" id="coworking_space" xmlns="http://www.w3.org/2000/svg" xmlns:xlink="http://www.w3.org/1999/xlink" x="0px"
	 y="0px" viewBox="0 0 1000 400" style="enable-background:new 0 0 1000 400;" xml:space="preserve">
<style type="text/css">
	.st0{fill:#F4CA60;}
	.st1{fill:#FFFFE5;}
	.st2{opacity:0.22;fill:#BE0000;}
	.st3{opacity:0.58;fill:#EFA31D;}
	.st4{opacity:0.58;fill:#EFB930;}
	.st5{opacity:0.38;fill:#F9D98A;}
	.st6{opacity:0.58;fill:#5FBBC4;}
	.st7{opacity:0.15;fill:#F0BA1B;}
	.st8{fill:#D8FFF2;}
	.st9{fill:#FFFFFF;}
	.st10{opacity:0.58;fill:#AE3926;}
	.st11{fill:#E5BC55;}
	.st12{fill:#FCF997;}
	.st13{fill:#F0BA1B;}
	.st14{opacity:0.38;fill:#F4D076;}
	.st15{opacity:0.38;fill:#F7D589;}
	.st16{opacity:0.41;fill:#FFFFFF;}
	.st17{fill:#F4C44E;}
	.st18{fill:#FFE8B6;}
	.st19{opacity:0.22;fill:#F0BA1B;}
	.st20{fill:#5B1800;}
	.st21{fill:#9B9605;}
	.st22{fill:#667212;}
	.st23{fill:#9BAE05;}
	.st24{fill:#D6C822;}
	.st25{fill:#D3D3D3;}
	.st26{fill:#094242;}
	.st27{fill:#0E5860;}
	.st28{fill:#2C9499;}
	.st29{fill:#0D5154;}
	.st30{fill:#48B7B4;}
	.st31{fill:#C0C0C0;}
	.st32{fill:#4A0E1F;}
	.st33{fill:#FFC256;}
	.st34{fill:#FFA244;}
	.st35{fill:#B70400;}
	.st36{fill:#F93D31;}
	.st37{fill:#FFF9BD;}
	.st38{opacity:0.15;fill:#FF0000;}
	.st39{fill:#E28813;}
	.st40{fill:#FAB945;}
	.st41{fill:#D50000;}
	.st42{fill:#009578;}
	.st43{fill:#91678A;}
	.st44{fill:#668D12;}
	.st45{fill:#240000;}
	.st46{fill:#552913;}
</style>
<rect class="st0" width="1000" height="341.7"/>
<polygon class="st1" points="471.7,329.7 463.7,0 575.4,0 569,329 "/>
<polygon class="st2" points="575.4,0 639.1,0 623.5,328.6 615.5,341.7 568.6,341.7 "/>
<polygon class="st3" points="0,285.6 470.5,279.9 471.7,329.7 0,332.3 "/>
<polygon class="st4" points="470.2,268.9 570,276.3 569,329 471.7,329.7 "/>
<polygon class="st3" points="569.8,283.5 1000,286.3 1000,326.6 569,329 "/>
<polygon class="st5" points="470.1,265.1 0,272.7 0,275.9 470.4,275.9 "/>
<polygon class="st6" points="469.8,254.7 570.3,257.6 570,268.9 470,263 "/>
<polygon class="st5" points="1000,275.7 570,268.9 570,277.8 1000,279.9 "/>
<path class="st7" d="M0,130.5c0,0,165.2-63.9,265.5-66c100.3-2,200.6,37.6,200.6,37.6l0.7,29.4l106.1-4.5l0.9-44.3
	c0,0,102.6,10.7,186.9,22.5c120.9,17,239.3,73.6,239.3,73.6V0H0V130.5z"/>
<g>
	<polygon class="st8" points="435.8,252.2 450,35.3 137.7,42.8 145.7,252.2 	"/>
	<polygon class="st9" points="142.7,174 270,39.6 350.7,37.7 260,147.4 384.3,36.9 435,35.7 259.5,251.5 145.7,252.2 	"/>
	<path class="st10" d="M449.9,115.8l4.1-84.5L130,37.7l12,219.9h301L449.9,115.8L449.9,115.8L449.9,115.8z M445.2,108.1h-74.6V37.2
		l79.3-1.9L445.2,108.1z M140.3,112.1l59.4,0.7l2.4,78.8l-58.6,2.3L140.3,112.1z M203.5,112.9l80.8,1l0.9,74.5l-80,3.1L203.5,112.9z
		 M203.4,108.1l-1.4-66.9l81.3-2l0.8,68.8H203.4z M285.2,192.2l0.7,60h-79.5l-1.2-56.5L285.2,192.2z M288.3,192.1l78.4-3.4l0.4,63.5
		h-78.7V192.1z M288.3,188.2v-74.4l77.9,0.9l0.4,70.4L288.3,188.2z M288.3,108.1v-69l77.4-1.9l0.4,70.8H288.3z M197.6,41.4l2,66.8
		h-59.4l-2.5-65.3L197.6,41.4z M143.6,198.4l58.6-2.5l1.7,56.4h-58.3L143.6,198.4z M370.7,252.2v-63.7l69.5-3l-4.4,66.7H370.7z
		 M440.4,182.3l-69.7,2.7v-70.2l74.1,0.9L440.4,182.3z"/>
</g>
<g>
	<polygon class="st8" points="853.8,253.6 870.8,46.8 588.3,39.6 601.1,253.6 	"/>
	<polygon class="st9" points="598.3,207.1 704.1,42.5 787,44.6 722.5,145.9 817,45.4 870.8,46.8 700,253.6 601.1,253.6 	"/>
	<path class="st10" d="M585.3,35.2l8.5,224.5H861L875,41L585.3,35.2z M725.2,106.3l-71,2.1l-3-67.2l71.5,1.8L725.2,106.3z
		 M728.6,43.1l75.2,1.9l-4,59.1l-70.1,2L728.6,43.1z M725.4,110.8l3.4,84.5l-70.8-1.4l-3.6-81.3L725.4,110.8z M728.9,199.6l2.2,54
		h-70.5l-2.5-56.2L728.9,199.6z M731.5,199.7l61.8,1.9l-3.5,52h-57.3L731.5,199.7z M731.4,195.3l-1.6-84.7l69.7-1.7l-5.9,87.6
		L731.4,195.3z M802.2,108.9l63.6-1.6l-7.5,90.6l-62.5-1.3L802.2,108.9z M802.5,104.1l4.2-58.9l64,1.6l-4.6,55.4L802.5,104.1z
		 M647.8,41.1l3.1,67.4l-58.4,1.7l-4.2-70.6L647.8,41.1z M592.8,114l58.4-1.4l3.7,81.2l-57.4-1.2L592.8,114z M597.6,195.5l57.4,1.8
		l2.6,56.3h-56.5L597.6,195.5z M791.7,253.6l3.7-51.9l62.4,2l-4.1,50H791.7z"/>
</g>
<rect y="335.8" class="st11" width="1000" height="64.2"/>
<polygon class="st12" points="1000,335.8 1000,325 0,329.1 0,335.8 "/>
<polygon class="st13" points="551.3,118.2 487.3,118.2 480.7,22.5 556.7,22.5 "/>
<polygon class="st14" points="548.5,114 490.1,114 484,26.7 553.3,26.7 "/>
<polygon class="st15" points="530.1,96.2 507.7,96.2 505.3,44.5 532,44.5 "/>
<polygon class="st15" points="556.7,22.5 558.3,23.8 555.5,122.3 492.5,120.3 487.3,118.2 551.3,118.2 "/>
<polygon class="st16" points="488.5,90.8 551.8,54.8 553.3,29.8 486.9,68.8 "/>
<polygon class="st16" points="489.2,101.7 551.1,67.4 549.9,88.5 497.3,114 490.1,114 "/>
<polygon class="st17" points="97.2,145.4 31.7,145.4 24.8,73 102.7,73 "/>
<polygon class="st13" points="94.3,142.2 34.5,142.2 28.2,76.2 99.3,76.2 "/>
<polygon class="st0" points="75.5,128.8 52.5,128.8 50.1,89.6 77.4,89.6 "/>
<polygon class="st18" points="102.7,73 104.3,73.9 101.5,148.5 37,147 31.7,145.4 97.2,145.4 "/>
<polygon class="st16" points="32.8,124.6 97.7,97.4 99.3,78.5 31.2,108 "/>
<polygon class="st16" points="33.6,132.9 97,107 95.8,122.9 41.8,142.2 34.5,142.2 "/>
<ellipse class="st19" cx="333.5" cy="340.8" rx="305.9" ry="3.8"/>
<path class="st19" d="M1000,352.3c-42.5,1.5-120.3,2.6-209.3,2.6c-134.5,0-243.5-2.4-243.5-5.3c0-2.9,109-5.3,243.5-5.3
	c89,0,166.8,1,209.3,2.6V352.3z"/>
<g>
	<polygon class="st20" points="73.3,312.4 72.3,274.5 55.2,265.5 44.8,251.1 40.3,251.1 45.7,250.5 53.9,262 58.6,250.5 44.2,237.3 
		59.7,250.3 54.9,262.7 56.8,265.4 72.8,272.8 77.8,260.8 90.8,252.7 89.4,239 107.2,232.3 90.7,239.6 91.7,253.4 79.2,261.5 
		90.2,260.3 96.9,253.4 90.7,261.2 78.4,262.2 74.2,275.1 75.4,312.6 	"/>
	<path class="st21" d="M98,236.4c0,0,2.4-8.6,8.4-12.4s16-1.3,16-1.3s-2.3,7.6-9.1,11.8C106.5,238.6,98,236.4,98,236.4z"/>
	<path class="st22" d="M91.3,259.2c0,0,1.6-4.9,6.7-6.7c5.1-1.8,15.9,0,15.9,0s-2.1,4.8-7.2,6.7C101.5,261,91.3,259.2,91.3,259.2z"
		/>
	<path class="st22" d="M89.7,239.7c0,0,1.6-4.9,6.7-6.7c5.1-1.8,15.9,0,15.9,0s-2.1,4.8-7.2,6.7C99.9,241.6,89.7,239.7,89.7,239.7z"
		/>
	<path class="st23" d="M116,246.1L116,246.1L116,246.1c-0.1,0.2-0.3,0.4-0.5,0.7l-0.2,0.2c-0.7,0.8-1.8,2.2-3.3,3.5
		c-1.7,1.5-3.9,3-6.5,4c-6.8,2.7-15.1-1.6-15.1-1.6s1.9-4.1,9.5-6.8C107.5,243.4,116,246.1,116,246.1z"/>
	<path class="st21" d="M42.7,251.1c0,0-6.9-4.7-14.5-4.6c-7.6,0.2-12.1,9.3-12.1,9.3s9.5,2.3,17.4,1.5S42.7,251.1,42.7,251.1z"/>
	<path class="st21" d="M50.4,242.5l-0.1,0c-1,0.2-7.9,1.2-13.5-3c-6.1-4.5-10.9-13.6-10.9-13.6s0,0,0,0c0,0,0,0,0,0
		c0.8-0.1,13.3-2.2,17.9,1.6C48.4,231.4,50.4,242.5,50.4,242.5z"/>
	<path class="st21" d="M56.4,266.1c0,0-0.1,1.5-1.2,3.3c-1,1.8-3,3.8-6.6,5.1c-7.3,2.5-15.6-0.7-15.6-0.7s2.4-4.7,8.6-7
		C47.8,264.6,56.4,266.1,56.4,266.1z"/>
	<path class="st22" d="M58.6,250.5c0,0-3-8-0.7-16.5s11.6-12.7,11.6-12.7s2.1,11.3,0,19.5C67.4,248.9,58.6,250.5,58.6,250.5z"/>
	<path class="st21" d="M76.6,263.8c-0.1,0.1-0.1,0.1-0.1,0.1s-5.3-2-8.5-8.4c-3.2-6.4,0-19.1,0-19.1s10.5,7.2,12.2,13.8
		C81.9,256.3,77.4,262.8,76.6,263.8z"/>
	<path class="st21" d="M73.3,277.4c0,0,0.5-4.6,4.5-7.1c4.1-2.5,8.6-2.2,8.6-2.2s-1.9,4.9-4,7.3C80.4,277.9,73.3,277.4,73.3,277.4z"
		/>
	<path class="st21" d="M55.1,261.8c0,0-2.7-3.8-1.2-8.3c1.5-4.5,5-7.3,5-7.3s1.7,4.9,1.8,8.1C60.8,257.5,55.1,261.8,55.1,261.8z"/>
	<path class="st21" d="M90.7,239.6c0,0-5.6,0.8-10.1-2.6c-4.5-3.4-6.8-11.3-6.8-11.3s9.4,2.5,13.1,4.2
		C90.7,231.7,90.7,239.6,90.7,239.6z"/>
	<path class="st24" d="M116,246.1L116,246.1L116,246.1l-0.5,0.7l-0.2,0.2c-0.7,0.8-1.8,2.2-3.3,3.5c-1.7,1.5-3.9,3-6.5,4
		c-6.8,2.7-15.1-1.6-15.1-1.6L116,246.1z"/>
	<path class="st24" d="M76.6,263.8c-0.1,0.1-0.1,0.1-0.1,0.1s-5.3-2-8.5-8.4c-3.2-6.4,0-19.1,0-19.1L76.6,263.8z"/>
	<path class="st24" d="M56.4,266.1l-1.2,3.3c-1,1.8-3,3.8-6.6,5.1c-7.3,2.5-15.6-0.7-15.6-0.7L56.4,266.1z"/>
	<path class="st24" d="M50.4,242.5l-0.1,0c-1,0.2-7.9,1.2-13.5-3c-6.1-4.5-10.9-13.6-10.9-13.6s0,0,0,0c0,0,0,0,0,0
		c2.1,0.6,10.4,3.1,15.1,6.4C46.3,236.1,50.4,242.5,50.4,242.5z"/>
</g>
<polygon class="st9" points="62,341.1 57.3,308.9 95.2,311.7 87.6,341.5 "/>
<path class="st25" d="M67.5,309.7c0,0,9.8,12.3,11.9,20.1c2.1,7.9-2.2,11.5-2.2,11.5l10.4,0.2l7.6-29.8L67.5,309.7z"/>
<polygon class="st26" points="438.7,281.5 438.2,282.8 434.8,291.3 414.4,341.4 411.3,341.4 429,286.9 430.3,282.6 430.7,281.4 "/>
<polygon class="st26" points="486.6,339.8 483.9,339.5 471.1,286.3 470.4,283.3 469.9,281.3 477.9,281.4 478.2,283.5 479.5,292.1 
	"/>
<polygon class="st27" points="453.7,283.1 450.1,293.8 433.5,343 430.2,343 444.8,286.3 445.7,283 "/>
<polygon class="st27" points="508.7,343 505.3,343 485.5,288 485.4,288 483.9,283.6 491.9,283.7 494,291.3 494,291.3 "/>
<polygon class="st28" points="427.6,281.4 426.7,272.1 500.4,275.5 499.8,281.4 "/>
<polygon class="st26" points="427.6,281.4 427.6,282.9 499.6,283.8 499.8,281.4 "/>
<path class="st29" d="M509.5,218c-1.3,11.3-14.6,37.8-21.2,50.2c-1.9,3.5-3.2,5.9-3.5,6.5c-0.1,0.1-0.1,0.1-0.1,0.1l-40-1.3l0.1-0.5
	c0.8-3.4,5.6-23.6,10.8-38.9c2.4-7.1,4.9-13.1,7.1-16C472.1,206,510.8,207.4,509.5,218z"/>
<path class="st26" d="M489,274.8l-4.1-0.1l-40.1-1.2l0.1-0.5c0.8-3.4,5.6-23.6,10.8-38.9c4.4,1.3,15.1,5.2,23.5,15.6
	c5.8,7.2,8.2,13.9,9.2,18.6C489.2,272.2,489,274.8,489,274.8z"/>
<path class="st29" d="M477.5,283.5c0,0,13.7-20.1,22.2-39.3c8.6-19.2,9.8-26.2,9.8-26.2l-10,65.8L477.5,283.5z"/>
<polygon class="st29" points="430.3,282.6 438.2,282.8 434.8,291.3 429,286.9 430.3,282.6 "/>
<polygon class="st29" points="445.7,283 453.7,283.1 450.1,293.8 444.8,286.3 "/>
<polygon class="st29" points="478.2,283.5 479.5,292.1 471.1,286.3 470.4,283.3 "/>
<polygon class="st29" points="494,291.3 494,291.3 485.5,288 485.4,288 483.9,283.6 491.9,283.7 "/>
<path class="st30" d="M477.5,283.5l-1.2-0.1c0,0,9.5-14.4,19.3-32.5s13.9-32.9,13.9-32.9s-1.6,10.8-12.4,32.9
	S477.5,283.5,477.5,283.5z"/>
<polygon class="st30" points="426.7,272.1 426.8,273.2 481.9,274.6 482.8,273.4 "/>
<path class="st30" d="M443.9,272.5c0,0,9.1-34,13.8-45.7s9.8-12.7,9.8-12.7s-5.4,3.4-10.7,17.6s-11.7,40.8-11.7,40.8L443.9,272.5z"
	/>
<path class="st27" d="M325.6,282.8l-70.7,0.1c0,0-0.2-3-0.3-7.8c-0.3-13.3-0.2-40.2,5.2-53c5.9-13.9,31.5-17.6,48.6-11.2v0
	c5.1,1.9,9.5,4.8,12.3,8.5C329.3,231.1,325.6,282.8,325.6,282.8z"/>
<path class="st29" d="M308.4,210.8L308.4,210.8c0,0-9.6,7.3-20.2,27.1c-10.6,19.8-15.2,36.9-15.2,36.9l-18.4,0.3
	c-0.3-13.3-0.2-40.2,5.2-53C265.7,208.1,291.4,204.4,308.4,210.8z"/>
<path class="st28" d="M320.7,219.3c-2.8-3.8-7.1-6.6-12.3-8.5v0c-17-6.4-42.7-2.6-48.6,11.2c-5.4,12.9-5.6,39.8-5.2,53
	c0.1,4.8,0.3,7.8,0.3,7.8l70.7-0.1C325.6,282.8,329.3,231.1,320.7,219.3z M324.3,281.4l-68.1,0.1c0,0-0.2-2.9-0.3-7.5
	c-0.3-12.8-0.2-38.7,5-51.1c5.7-13.4,30.4-17,46.8-10.8v0c5,1.9,9.2,4.6,11.8,8.2C327.9,231.6,324.3,281.4,324.3,281.4z"/>
<polygon class="st26" points="278.3,281.9 277.9,283.1 275.2,291.7 259.3,342.8 256.8,342.5 269.2,287.9 270.2,283.7 270.5,282.5 
	"/>
<polygon class="st26" points="316.5,339.9 313.9,339.6 301.4,287.6 300.7,284.7 300.2,282.7 308.1,282.8 308.4,284.8 309.6,293.3 
	"/>
<polygon class="st27" points="269.4,284.5 265.9,294.9 249.7,343 246.4,343 260.7,287.6 261.6,284.4 "/>
<polygon class="st27" points="331.7,343 328.3,343 309,289.2 309,289.2 307.4,285 315.3,285.1 317.4,292.5 317.4,292.5 "/>
<polygon class="st29" points="270.2,283.7 277.9,283.1 275.2,291.7 269.2,287.9 270.2,283.7 "/>
<polygon class="st29" points="261.6,284.4 269.4,284.5 265.9,294.9 260.7,287.6 "/>
<polygon class="st29" points="308.4,284.8 309.6,293.3 301.4,287.6 300.7,284.7 "/>
<polygon class="st29" points="317.4,292.5 317.4,292.5 309,289.2 309,289.2 307.4,285 315.3,285.1 "/>
<polygon class="st28" points="254.9,282.9 254.2,275.1 326.2,275.9 325.4,282.9 "/>
<polygon class="st27" points="254.9,282.9 254.9,284.3 325.2,285.1 325.4,282.9 "/>
<path class="st31" d="M376.3,203.9l-43.8,1.3c-1.8,0.1-3.1,1.9-2.5,3.6l11.1,31.4c0.4,1.1,1.4,1.8,2.5,1.8l45.2,0.1
	c1.9,0,3.2-1.9,2.5-3.7l-12.5-32.8C378.5,204.6,377.4,203.9,376.3,203.9z"/>
<path class="st9" d="M354.8,223.5c0.2,0.1,0.5,0.1,0.7,0c0.9-0.2,1.6-1.2,1.6-2.6c1,0.3,1.9,1.4,2.2,3c0.4,1.9-0.3,3.7-1.6,3.9
	c-1.2,0.2-2.5-1.1-2.9-3C354.8,224.4,354.8,223.9,354.8,223.5z"/>
<path class="st25" d="M390.7,241.1c0.4-0.3,0.7-1,0.6-1.4l-13-33.9c-0.3-0.9-1.2-1.4-2.1-1.4l-44,0.9l43.7-2.1c1.7-0.1,3.3,1,4,2.6
	l13.2,34.3l15.7,0.9v1.2h-16.2h-49.8l0-0.6l46.6,0.1C389.7,241.7,390.3,241.5,390.7,241.1z"/>
<path class="st31" d="M258.7,239.7l-3.5-33.4c-0.2-1.6,1.1-3.1,2.8-3l62.5,1.4c1.6,0,2.8,1.4,2.7,3l-3.4,32
	c-0.1,1.4-1.3,2.5-2.7,2.5l-55.6,0.1C260.1,242.2,258.9,241.1,258.7,239.7z"/>
<path class="st9" d="M286.6,223.4c0.3,0.1,0.5,0.1,0.8,0.1c1-0.2,1.6-1.2,1.7-2.6c1.1,0.3,2.1,1.5,2.4,3.1c0.5,1.9-0.2,3.7-1.6,3.9
	c-1.3,0.2-2.8-1.2-3.2-3.1C286.6,224.2,286.6,223.8,286.6,223.4z"/>
<polygon class="st25" points="258.9,242.2 258.7,239.7 319.5,240.6 319.5,242.2 "/>
<polygon class="st32" points="216.4,242.1 203.1,238.8 201.3,238.8 187.1,242.1 "/>
<polygon class="st27" points="201.3,238.8 197.6,213.4 215.6,197.7 219.4,197 222.1,200.4 217.6,201 214.7,200.4 199.9,214 
	202.9,238.8 "/>
<polygon class="st28" points="222.1,200.4 233.4,214.1 212.9,215.7 217.6,201 "/>
<path class="st27" d="M216.9,203.1c0,0,3.6,0.9,7.4,3.3s7.2,7.8,7.2,7.8l1.9-0.1l-11.3-13.8l-4.5,0.7L216.9,203.1z"/>
<g>
	<polygon class="st33" points="236.6,242.2 239,241.6 244.2,241.6 246.5,242.3 	"/>
	<path class="st33" d="M254.2,232.6c-0.9-1.4-3.1-1.1-4.5-0.7c0-0.6,0-1,0-1l-16.4,0.2c0,0-0.8,11,8.3,10.9c2.9,0,4.7-1.2,5.9-2.7
		c0.9-0.1,2.3-0.4,3.7-0.9C253.6,237.6,256.1,235.4,254.2,232.6z M251.1,237.6c-1.1,0.4-2.2,0.6-2.8,0.6c1-1.8,1.3-3.8,1.4-5.3
		c0.9-0.3,2.8-0.7,3.5,0.4C254.6,235.4,252.8,237,251.1,237.6z"/>
	<path class="st34" d="M246.7,230.9l3.1,0c0,0,1.1,11-8.1,11.1c-2.6,0-4.4-0.8-5.6-2c0,0,3.8-0.1,7.5-2.9
		C247.3,234.3,246.7,230.9,246.7,230.9z"/>
</g>
<g>
	<polygon class="st35" points="217.3,243 215.4,231.2 229.8,237.3 229.9,243 	"/>
	<polygon class="st36" points="197.5,235 215.4,231.2 217.3,243 198.3,243 198.4,241.4 215.8,241.2 214.3,232.4 197.7,236.3 	"/>
	<polygon class="st36" points="217.4,233.2 218.9,239.6 220.4,239.8 219.2,233.9 	"/>
	<polygon class="st8" points="215.8,241.2 214.3,232.4 197.5,236.3 198.4,241.4 	"/>
</g>
<polygon class="st28" points="168,248.2 167.7,242.1 415.4,242.1 415.4,248.8 "/>
<polygon class="st27" points="168,248.2 168,256.9 414.5,256.9 415.4,248.8 "/>
<polygon class="st29" points="193,343 188,256.9 198,256.9 195.8,343 "/>
<polygon class="st27" points="168,256.9 172.7,343 176,343 178.8,256.9 "/>
<polygon class="st29" points="389.5,343 394.5,256.9 384.5,256.9 386.8,343 "/>
<polygon class="st27" points="414.5,256.9 409.8,343 406.5,343 402.8,256.9 "/>
<polygon class="st29" points="178.5,266.7 193,266.7 192,270.4 178.4,271.1 "/>
<polygon class="st29" points="389.5,266.7 403.2,266.7 403.4,271.2 389.5,270.6 "/>
<polygon class="st13" points="478.1,178.2 478.1,183.7 549.9,183.7 549.9,180.2 "/>
<polygon class="st13" points="478.1,183.7 475.7,141.1 555.7,144.2 549.9,183.7 546.2,180.2 552,146.4 478.1,144.2 483.2,178.2 "/>
<polygon class="st37" points="483.2,178.2 478.1,144.2 552,146.4 546.2,180.2 "/>
<polygon class="st38" points="499.1,178.8 489.4,150.5 549.9,158.7 552,146.4 478.1,144.2 483.2,178.2 "/>
<polygon class="st14" points="555.7,144.2 568,161.5 564.6,201.4 493,192.4 478.1,183.7 549.9,183.7 "/>
<polygon class="st39" points="551.6,148.7 544.8,147.7 539.1,179.5 544.8,180.2 "/>
<polygon class="st39" points="544.5,149.6 538.7,148.6 532.7,179.6 539.1,180.2 "/>
<polygon class="st39" points="495.3,179.1 494.6,175.6 524.4,177.3 524.4,179.8 "/>
<polygon class="st40" points="537.8,153.1 543.6,154.5 543.3,156.5 537.4,155.2 "/>
<polygon class="st40" points="543.9,152.8 550.4,154.4 549.9,156.7 543.6,154.8 "/>
<polygon class="st40" points="539.9,175.5 545.7,176.2 545.4,177.7 539.7,176.6 "/>
<polygon class="st40" points="533.4,175.7 539.7,176.6 539.5,177.7 533.4,176.6 "/>
<polygon class="st40" points="498.7,174.7 499.1,178.8 500.2,178.8 500.5,174.7 "/>
<polygon class="st40" points="517.6,176 517.8,179.4 518.8,179.4 519.4,176.1 "/>
<polygon class="st13" points="164.4,0 166.9,67.5 169.4,67.5 169.4,0 "/>
<polygon class="st13" points="154.8,66.8 159.2,118.2 178.2,118.2 182,66.8 "/>
<polygon class="st14" points="161.7,118.2 158.7,66.8 164.4,66.8 164.4,118.2 "/>
<polygon class="st13" points="389,0 391.5,67.5 394,67.5 394,0 "/>
<polygon class="st13" points="379.4,66.8 383.8,118.2 402.8,118.2 406.7,66.8 "/>
<polygon class="st14" points="386.4,118.2 383.3,66.8 389,66.8 389,118.2 "/>
<polygon class="st13" points="627,0 629.4,67.5 632,67.5 632,0 "/>
<polygon class="st13" points="617.3,66.8 621.7,118.2 640.7,118.2 644.6,66.8 "/>
<polygon class="st5" points="624.3,118.2 621.2,66.8 627,66.8 627,118.2 "/>
<polygon class="st13" points="825.7,0 828.1,67.5 830.7,67.5 830.7,0 "/>
<polygon class="st13" points="816,66.8 820.4,118.2 839.5,118.2 843.3,66.8 "/>
<polygon class="st5" points="823,118.2 819.9,66.8 825.7,66.8 825.7,118.2 "/>
<polygon class="st27" points="711.9,284.4 711.4,285.6 707.8,294.5 686.7,346.5 683.5,346.5 701.8,289.9 703.3,285.5 703.7,284.3 
	"/>
<polygon class="st26" points="764.7,344.8 761.9,344.5 748.6,289.3 747.9,286.2 747.4,284.1 755.7,284.2 756,286.4 757.4,295.4 "/>
<polygon class="st26" points="727.5,286 723.7,297 706.5,348.1 703.1,348.1 718.3,289.3 719.2,285.9 "/>
<polygon class="st27" points="784.5,348.1 781,348.1 760.4,291 760.4,291 758.8,286.5 767.1,286.6 769.3,294.5 769.3,294.5 "/>
<polygon class="st27" points="700.4,284.3 699.9,278.7 775.9,278.1 775.3,284.3 "/>
<polygon class="st26" points="700.4,284.3 700.4,285.8 775.1,286.7 775.3,284.3 "/>
<path class="st29" d="M785.4,218.5c-1.3,11.7-15.2,39.2-21.9,52c-1.9,3.7-3.3,6.2-3.6,6.7c-0.1,0.1-0.1,0.1-0.1,0.1l-41.5-0.5
	l0.1-1.4c0.8-3.6,5.8-24.5,11.2-40.4c2.5-7.3,5.1-13.6,7.4-16.6C746.6,206,786.7,207.5,785.4,218.5z"/>
<path class="st26" d="M764.1,277.4l-4.2-0.1l-41.9-0.4l0.5-1.4c0.8-3.6,5.8-24.5,11.2-40.4c4.6,1.3,15.6,5.4,24.3,16.2
	c6,7.5,8.5,14.4,9.5,19.2C764.4,274.7,764.1,277.4,764.1,277.4z"/>
<path class="st29" d="M752.2,286.4c0,0,14.2-20.9,23.1-40.8c8.9-19.9,10.1-27.2,10.1-27.2l-10.4,68.2L752.2,286.4z"/>
<polygon class="st26" points="703.3,285.5 711.4,285.6 707.8,294.5 701.8,289.9 703.2,285.5 "/>
<polygon class="st26" points="719.2,285.9 727.5,286 723.7,297 718.3,289.3 "/>
<polygon class="st29" points="756,286.4 757.4,295.4 748.6,289.3 747.9,286.2 "/>
<polygon class="st26" points="769.3,294.5 769.3,294.5 760.4,291 760.4,291 758.8,286.5 767.1,286.6 "/>
<path class="st30" d="M752.2,286.4l-1.2-0.1c0,0,9.9-14.9,20-33.7s14.4-34.1,14.4-34.1s-1.6,11.2-12.9,34.1S752.2,286.4,752.2,286.4
	z"/>
<polygon class="st30" points="699.8,277.2 699.9,278.7 756,278.3 757.7,276 "/>
<path class="st30" d="M716.6,276.9c0,0,10.2-37.2,15.1-49.2c4.9-12.1,10.2-13.2,10.2-13.2s-5.6,3.5-11.1,18.3
	c-5.4,14.8-12.5,44.1-12.5,44.1L716.6,276.9z"/>
<path class="st31" d="M668.9,206.8l-45.4,1.4c-1.9,0.1-3.2,2-2.6,3.7l11.5,32.5c0.4,1.1,1.5,1.9,2.6,1.9l46.9,0.1c2,0,3.3-2,2.6-3.8
	l-13-34C671.1,207.5,670.1,206.7,668.9,206.8z"/>
<path class="st9" d="M646.6,227.1c0.3,0.1,0.5,0.1,0.8,0.1c1-0.2,1.6-1.3,1.7-2.7c1,0.3,1.9,1.5,2.2,3.1c0.4,2-0.3,3.8-1.6,4
	c-1.3,0.3-2.6-1.1-3-3.1C646.6,228,646.6,227.5,646.6,227.1z"/>
<path class="st25" d="M683.8,245.3c0.4-0.3,0.7-1.1,0.6-1.4L671,208.8c-0.3-0.9-1.2-1.5-2.2-1.5l-45.7,0.9l45.3-2.2
	c1.8-0.1,3.5,1,4.1,2.7l13.7,35.6l16.2,0.9v1.3h-16.8H634l-0.1-0.7l48.4,0.1C682.8,245.9,683.4,245.7,683.8,245.3z"/>
<g>
	<g>
		<polygon class="st33" points="806.3,246.3 803.3,228.1 818.8,228.1 816.1,246.5 		"/>
		<path class="st34" d="M806.1,245c0,0,3.5-2.5,6.3-6.6c2.9-4.1,3.7-10.3,3.7-10.3h2.6l-2.6,18.3l-9.8,0L806.1,245z"/>
		<polygon class="st41" points="804.5,235 817.8,234.8 817.2,239.1 805.1,239.1 		"/>
	</g>
	<polygon class="st42" points="815.1,228.1 816.4,220.1 817.8,220.1 816.1,228.1 	"/>
	<polygon class="st41" points="806.1,228.1 805.6,225 806.6,225 807.2,228.1 	"/>
	<polygon class="st41" points="816.1,228.1 818.3,216.7 819.4,216.7 817.4,228.1 	"/>
	<polygon class="st43" points="804.5,228.1 802,217.9 803.9,217.9 806.4,228.1 	"/>
</g>
<path class="st44" d="M848.3,228.2l1.8-12.5l-2.2,5.9l0.6-9.8l-1.3,6.7l0.2-5.4l-3.1,8.4l0.6-6.1l-3,7.9l-0.1-12.2l-1.8,8.2l-1-7.4
	l-1.2,10.6l-1.7-13.5l-0.6,11.1l-3.4-9.7l1.7,15.4l-4-9.2l1.9,11.3c0,0,3.9,0.8,8.3,0.9C844.4,228.9,848.3,228.2,848.3,228.2z"/>
<polygon class="st23" points="833,228 829.5,209.3 834.9,228.5 "/>
<polygon class="st23" points="836.2,228.6 838.2,212.1 837.6,228.8 "/>
<polygon class="st23" points="832.5,228.1 829,218.2 831.6,228 "/>
<polygon class="st23" points="839.3,228.8 844.9,212.5 841.5,228.9 "/>
<polygon class="st23" points="844,228.7 849.9,213.1 847,228.5 "/>
<polygon class="st23" points="847.5,228.4 849.9,218 848.6,228.4 "/>
<polygon class="st23" points="842.2,228.8 846.6,212.2 844,228.8 "/>
<path class="st29" d="M850,228l-4.5,20c0,0-4.7,0.7-9.3,0.2l-0.1,0c-0.8-0.1-1.6-0.2-2.4-0.4l0,0c-0.5-0.1-1-0.3-1.5-0.4l-2-19.6
	l15.3,0.2c0,0,0,0,0,0L850,228z"/>
<path class="st26" d="M845.6,227.9c-0.2,0.1-4.8,2.3-7.3,6.8c-2.5,4.6-2.1,13.4-2.1,13.4l-0.1,0l-2.4-0.4l0,0
	c-0.5-0.1-1-0.3-1.5-0.4l-2-19.6L845.6,227.9z"/>
<polygon class="st28" points="611,252.7 610.6,246.4 867.5,246.4 867.5,253.3 "/>
<polygon class="st26" points="611,252.7 611,261.7 866.6,261.7 867.5,253.3 "/>
<polygon class="st27" points="636.9,351 631.7,261.7 642.1,261.7 639.7,351 "/>
<polygon class="st27" points="611,261.7 615.8,351 619.3,351 622.2,261.7 "/>
<polygon class="st27" points="840.7,351 845.9,261.7 835.5,261.7 837.8,351 "/>
<polygon class="st27" points="866.6,261.7 861.8,351 858.3,351 854.5,261.7 "/>
<polygon class="st27" points="621.9,271.8 636.9,271.8 635.9,275.7 621.7,276.4 "/>
<polygon class="st27" points="840.7,271.8 854.9,271.8 855.1,276.5 840.7,275.9 "/>
<polygon class="st45" points="937.9,160.3 936.8,188.8 944.3,350 946.4,350 "/>
<polygon class="st26" points="897.4,350.3 900,350.3 915.4,142.3 912,142.3 "/>
<polygon class="st26" points="958.4,352.4 951,145 954.8,145 961.5,352.4 "/>
<polygon class="st9" points="956.3,280.5 903.8,280.5 913.8,147.6 953,148.8 "/>
<polygon class="st26" points="912.6,145.7 953.8,147.6 953.8,148.8 912.6,150.5 "/>
<polygon class="st46" points="903.8,280.5 902.2,280.2 900.1,281.8 957.6,282.3 957.6,280.5 "/>
<polygon class="st27" points="912.6,242 912.6,245 925.7,227.1 927.6,229.9 944.3,207.4 927.5,228 925.7,225.1 "/>
<polygon class="st26" points="915.4,196 910,246.3 950.2,246.3 912.6,245 "/>
<path class="st13" d="M913.7,212.2c0,0,16.7,0.6,24.1,10.7c7.3,10.1,10.1,23.4,10.1,23.4l0.7-0.1c0,0-2.1-15.2-10.1-24.1
	c-8.6-9.5-23.9-10.7-23.9-10.7L913.7,212.2z"/>
<polygon class="st26" points="911.2,253.2 911.2,255.2 946.4,256.5 946.4,254.8 "/>
<polygon class="st26" points="911.2,263.5 947.8,263.2 947.8,264.5 911.6,264.5 "/>
<polygon class="st26" points="909,272.8 953.3,272.8 953.3,273.8 909,273.3 "/>
</svg>
