<?xml version="1.0" encoding="utf-8"?>
<!-- Generator: Adobe Illustrator 21.0.2, SVG Export Plug-In . SVG Version: 6.00 Build 0)  -->
<svg version="1.1" id="Layer_1" xmlns="http://www.w3.org/2000/svg" xmlns:xlink="http://www.w3.org/1999/xlink" x="0px" y="0px"
	 viewBox="0 0 792 612" style="enable-background:new 0 0 792 612;" xml:space="preserve">
<style type="text/css">
	.st0{display:none;}
	.st1{display:inline;fill:#1C798A;}
	.st2{display:inline;fill:#566463;}
	.st3{display:inline;}
	.st4{fill:#1C798A;}
	.st5{fill:#566463;}
	.st6{fill:#3D465A;}
	.st7{fill:#A0685D;}
	.st8{display:inline;fill:#3D465A;}
	.st9{display:inline;fill:#A0685D;}
	.st10{fill:#F7F8F8;}
	.st11{fill:#E3E3E3;}
	.st12{fill:#7EB5DB;}
	.st13{fill:#FFFFFF;}
	.st14{fill:#D7E7F3;}
	.st15{opacity:0.36;}
	.st16{fill:#EEB91D;}
	.st17{display:inline;fill:#282828;}
	.st18{font-family:'Calibri';}
	.st19{font-size:9.9942px;}
	.st20{font-family:'Raleway-Regular';}
	.st21{font-size:39.8419px;}
	.st22{fill:#204C61;}
	.st23{fill:#D2E6EE;}
	.st24{opacity:4.000000e-02;}
	.st25{fill:#010101;}
	.st26{fill:#F7ECE1;}
	.st27{fill:#97CBA2;}
	.st28{fill:#DC2228;}
	.st29{fill:#EC4843;}
	.st30{fill:#C92128;}
	.st31{fill:#FCC392;}
	.st32{fill:#CF7865;}
	.st33{fill:#C2705E;}
	.st34{fill:#DF8671;}
</style>
<g class="st0">
	<polygon class="st1" points="717.5,331.2 719.7,383.9 713.1,473.4 703.1,474.1 691,392.8 674.3,324 	"/>
	<polygon class="st2" points="703.5,478.3 714.6,482.9 719.6,477.2 713.9,472.2 703.1,472.9 	"/>
	<g class="st3">
		<polygon class="st4" points="647,312.6 644.8,352.4 651.3,470.7 661.3,471.2 676.2,393.6 689.4,308.5 		"/>
		<polygon class="st5" points="661,475.4 649.9,480.3 644.8,474.6 650.5,469.5 661.3,470 		"/>
	</g>
	<g class="st3">
		<path class="st6" d="M720.1,198.7l-30.1-8.5c0,0-17.4-1.1-35.8,37.5c-10.3,21.5-18.2,56.7-23.3,83.7c0.1,4,1.4,21.6,19.7,21.8
			c31.4,0.2,48.5-1.9,61.4,2.8c10.9,4.4,12.6-11.4,13.4-23.5l1.7-37.6L720.1,198.7z"/>
	</g>
	<g class="st3">
		<path class="st7" d="M720.6,159.5c-7.4-3-15.1-5.9-23.1-5.7c-1.8,0-3.7,0.3-4.8,1.6c-0.5,0.5-0.8,1.1-1,1.7
			c-3.2,6.9-7.5,17.3-3.8,24.8c0.7,1.4,1.7,2.7,2.9,3.7c1.6,1.4,3.4,2.5,5.3,3.2c-0.7,1.7-1.6,3.4-2.6,5c1.3,3,9.5,4.7,11.5,2.4
			c0.5-2.2,0.9-4.4,1.4-6.6c1.1-0.2,2.1-0.6,3.1-1c3.9-1.7,6.8-4.9,8.9-8.6c2.2-4,5-7.8,7-11.9c0.8-1.5,1.5-3.3,0.9-4.9
			c-0.6-1.7-2.5-2.5-4.1-3.2C721.6,159.8,721.1,159.7,720.6,159.5z"/>
		<path class="st6" d="M694.2,159.3c4.2-1.8,10.2-1.9,13.7-1c10.7,2.6,13.4,11.3,12.3,21.4c3.6-3.3,10.1-7.1,11.2-12
			c1-4,1.3-9.5-0.3-13.4c-1.6-3.6-6.6-6.3-9.5-8.7c-2.7-2.3-5.4-4.6-8.1-6.8c-0.6-0.5-1.1-1-1.8-1.2c-0.8-0.3-1.7-0.2-2.6-0.1
			c-7.4,0.6-14.9,1.3-22.3,1.9c-1.4,0.1-3.1,0.4-3.8,1.6c-0.4,0.8-0.4,1.7-0.4,2.5c0.2,3.8,1.1,7.9,0.8,11.7
			c0.1,2.2-0.5,13.6,3.5,13c1.4-1.7,2-3.9,3.2-5.7C691,161,692.5,160,694.2,159.3z"/>
	</g>
	<polygon class="st8" points="690,190.2 678,191.7 629.3,228.1 624.4,242 638.7,278 646,266.9 641.7,241.3 656.6,234.2 681.2,197.3 
			"/>
	<polygon class="st8" points="713.1,200.2 738.1,181 743.6,118.4 753.5,115.9 755.5,180.6 749,195.6 719.9,224.2 	"/>
	<polygon class="st9" points="751.4,116.4 752.4,110.8 747.3,101 742.2,104.3 743.8,112.4 741.5,114.7 743.6,118.4 	"/>
	<g class="st3">
		<path class="st10" d="M364.2,454.6c-22.6,0.1-45.2,0.8-67.7,3.9c-8.5,1.2-16.8,3.7-25.3,4.8c-17,2.1-33.7,5.9-50.8,7.7
			c-13.7,1.4-27.6,2.3-41.3,4.1c-12.9,1.7-27.1,1.3-39.8-1.5c-9.4-2.1-18.9-3.3-28.2-6.6c-10.4-3.8-21.7-6.4-32.5-6.3
			c-15.4,0.1-30.5,0.2-45.2,6.8c-5.2,2.3-11.5,6.2-15.5,11c-9,11.2-10.2,39.1-1.2,50.7c15.2,19.5,47.5,27.2,68.7,27.6
			c23.3,0.4,45.9-1.7,69.2-3c21.7-1.2,43.3-2.8,65-2.8c44.3,0.1,88.6,0,132.9-3.7c41.6-3.4,83.2-2.3,124.9-2.3
			c42.7,0,85.1,0.4,127.5,7.4c18.5,3.1,37.3,4.1,55.9,6.3c16.6,1.9,32.6,0,49.2-1.8c13.9-1.5,27.7-5.9,40.4-13.4
			c10-5.9,27.8-24.3,30.9-38.4c8.6-39.6-121.2-38.7-141.1-38.6c-22.3,0.1-44.8,1-67,0c-9.4-0.4-18.6-2.7-27.7-5.2
			c-9.1-2.5-18.3-1.8-27.5-2.9c-38.5-4.3-77.1-3.7-115.8-3.7C389.4,454.7,376.8,454.6,364.2,454.6z"/>
	</g>
	<g class="st3">
		<rect x="84.4" y="109.4" class="st11" width="586.5" height="370"/>
		<rect x="84.4" y="80.6" class="st4" width="586.5" height="22.2"/>
		<rect x="84.4" y="102.8" class="st12" width="586.5" height="29.1"/>
		<rect x="145.1" y="113.4" class="st13" width="498.8" height="12.4"/>
		<g>
			<ellipse class="st10" cx="105.2" cy="90.7" rx="3.7" ry="3.7"/>
			<ellipse class="st14" cx="116.1" cy="90.7" rx="3.7" ry="3.7"/>
			<ellipse class="st12" cx="127" cy="90.7" rx="3.7" ry="3.7"/>
		</g>
		<g class="st15">
			<polygon class="st13" points="124.8,113.7 124.8,125.6 129.2,119.7 			"/>
			<polygon class="st13" points="107.3,125.6 107.3,113.7 103,119.7 			"/>
		</g>
	</g>
	<g class="st3">
		<g id="XMLID_279_">
			<circle id="XMLID_294_" class="st16" cx="205.5" cy="278.9" r="44"/>
			<path id="XMLID_280_" class="st13" d="M237.4,265.4c-1.7-4.1-4.2-7.8-7.4-11c-3.2-3.2-6.9-5.7-11-7.4c-4.3-1.8-8.8-2.7-13.5-2.7
				c-4.7,0-9.2,0.9-13.5,2.7c-4.1,1.7-7.8,4.2-11,7.4c-3.2,3.2-5.7,6.9-7.4,11c-1.8,4.3-2.7,8.8-2.7,13.5c0,4.7,0.9,9.2,2.7,13.5
				c1.7,4.1,4.2,7.8,7.4,11c3.2,3.2,6.9,5.7,11,7.4c4.3,1.8,8.8,2.7,13.5,2.7c4.7,0,9.2-0.9,13.5-2.7c4.1-1.7,7.8-4.2,11-7.4
				c3.2-3.2,5.7-6.9,7.4-11c1.8-4.3,2.7-8.8,2.7-13.5C240.1,274.2,239.2,269.7,237.4,265.4z M188.7,277.8c0-2.7,0.3-5.4,0.9-7.9
				h14.2v16.5h-14.1C189,283.5,188.7,280.7,188.7,277.8z M214.2,255c2.5,2.9,4.5,6.1,5.9,9.5c0.3,0.6,0.5,1.2,0.7,1.9h-13.6v-17.8
				C208.9,249.8,211.5,251.9,214.2,255z M203.8,249v17.4h-13.1c0.2-0.6,0.4-1.2,0.7-1.8c1.4-3.3,3.4-6.5,5.9-9.4
				C199.6,252.3,202.1,250.2,203.8,249z M203.8,289.8v18.7c-1.7-1.4-4-3.7-6.4-6.8c-2.5-3.2-4.5-6.7-6-10.2
				c-0.2-0.5-0.4-1.1-0.6-1.6H203.8z M207.2,308.9v-19.1h13.5c-0.2,0.5-0.4,1.1-0.6,1.6c-1.4,3.5-3.4,7-5.9,10.2
				C211.6,305,208.9,307.5,207.2,308.9z M207.2,286.3v-16.5h14.6c0.6,2.6,0.9,5.2,0.9,7.9c0,2.9-0.3,5.7-1,8.5H207.2z M225.4,269.9
				h9.9c0.9,2.9,1.3,5.9,1.3,9c0,2.5-0.3,5-0.9,7.5h-10.4c0.6-2.8,0.9-5.7,0.9-8.5C226.3,275.1,226,272.4,225.4,269.9z M227.5,256.8
				c2.8,2.8,5,6,6.5,9.5h-9.5c-0.3-1.1-0.7-2.2-1.2-3.2c-1.6-3.7-3.7-7.2-6.5-10.4c-1.4-1.7-2.8-3-4.1-4.2
				C218.3,249.9,223.4,252.7,227.5,256.8z M183.5,256.8c4.3-4.3,9.6-7.2,15.4-8.4c-1.3,1.2-2.8,2.6-4.3,4.3
				c-2.7,3.2-4.9,6.7-6.5,10.4c-0.5,1.1-0.8,2.1-1.2,3.2h-10C178.5,262.9,180.7,259.6,183.5,256.8z M175.7,269.9H186
				c-0.6,2.6-0.8,5.2-0.8,7.9c0,2.9,0.3,5.7,0.9,8.5h-10.9c-0.6-2.4-0.9-4.9-0.9-7.5C174.4,275.8,174.8,272.7,175.7,269.9z
				 M183.5,300.9c-3.2-3.2-5.6-7-7.1-11.1h10.7c0.3,1,0.7,2,1.1,3c1.6,3.8,3.7,7.6,6.4,11.1c1.8,2.3,3.5,4.2,5.1,5.6
				C193.5,308.3,188,305.4,183.5,300.9z M227.5,300.9c-4.3,4.3-9.7,7.2-15.6,8.5c1.5-1.4,3.2-3.3,4.9-5.5c2.7-3.5,4.9-7.2,6.4-11.1
				c0.4-1,0.7-2,1.1-3h10.3C233.1,293.9,230.7,297.7,227.5,300.9z"/>
		</g>
	</g>
	<g id="arrow" class="st3">
		<g>
			<path class="st13" d="M667.1,376.9c-0.7,0-1.3-0.3-1.8-0.7l-17.8-18.2l-11,14c-0.4,0.6-1.1,0.9-1.8,0.9c-1.1,0-2.2-0.8-2.6-1.8
				l-26.4-71.2c-0.3-0.9-0.1-1.9,0.6-2.6c0.4-0.5,1.1-0.9,1.7-0.9c0.3,0,0.6,0.1,0.9,0.2l70.5,28.2c1,0.4,1.6,1.2,1.7,2.1
				c0.1,0.9-0.3,1.9-1.1,2.5l-14.1,10.4l17.7,18.2c0.5,0.5,0.7,1.1,0.7,1.8c0,0.7-0.3,1.4-0.7,1.8l-14.9,14.5
				C668.5,376.6,667.8,376.9,667.1,376.9L667.1,376.9z M647.3,351.5c0.7,0,1.4,0.3,1.9,0.8l18,18.5l11.2-10.9l-18-18.4
				c-0.5-0.5-0.8-1.2-0.7-2c0.1-0.8,0.5-1.5,1.1-2l12.7-9.5l-60.9-24.4l22.8,61.5l10-12.8C645.9,351.8,646.5,351.5,647.3,351.5z"/>
			<g>
				<path class="st13" d="M684.6,357.2l-6.5-6.6L667.8,340l13-9.7c1.1-0.9,1.7-2.2,1.6-3.5c-0.2-1.4-1.1-2.5-2.4-3l-24-9.6l-21-8.4
					l-16.8-6.7l-4.3-1.7l-4.3-1.7c-0.4-0.2-0.9-0.3-1.4-0.3c-1,0-1.9,0.4-2.6,1.2c-1,1-1.3,2.4-0.8,3.7l8.5,23l0.4,1.2l0.6,1.7
					l13.6,36.6l1.6,4.4l1.6,4.4c0.5,1.5,2.1,2.5,3.6,2.5c1,0,2-0.5,2.7-1.3l5.9-7.5l4.3-5.5l3.9,4l10.5,10.8l1.2,1.2l1.2,1.2
					c0.7,0.7,1.6,1.1,2.6,1.1c1,0,1.9-0.4,2.6-1.1l4.3-4.2l10.6-10.3c0.7-0.7,1.1-1.7,1.1-2.7C685.7,358.8,685.3,357.9,684.6,357.2z
					 M683,360.8c-5,4.8-9.9,9.7-14.9,14.5c-0.3,0.3-0.7,0.4-1,0.4c-0.4,0-0.7-0.1-1-0.4c-0.8-0.8-1.6-1.7-2.4-2.5
					c-5.4-5.5-10.8-11.1-16.2-16.6c-3.9,5-7.8,10-11.8,15.1c-0.3,0.3-0.6,0.5-0.9,0.5c-0.6,0-1.3-0.5-1.5-1.1
					c-1.1-2.9-2.2-5.8-3.3-8.8c-4.7-12.7-9.5-25.5-14.2-38.2c-3-8.1-6-16.1-9-24.2c-0.2-0.6,0-1.1,0.3-1.4c0.2-0.3,0.5-0.5,0.9-0.5
					c0.2,0,0.3,0,0.5,0.1c2.9,1.2,5.8,2.3,8.7,3.5c12.6,5,25.3,10.1,37.9,15.1c8,3.2,16,6.4,24,9.6c1.2,0.5,1.4,1.9,0.4,2.6
					c-5,3.7-10.1,7.5-15.1,11.2c0.4,0.4,0.8,0.9,1.3,1.3c5.8,5.9,11.6,11.9,17.3,17.8C683.5,359.3,683.6,360.3,683,360.8z"/>
				<path class="st13" d="M661.2,340.6c-0.7-0.7-0.5-1.7,0.3-2.3c4.8-3.6,9.6-7.1,14.4-10.7c-2-0.8-4.1-1.6-6.1-2.5
					c-12.6-5-25.3-10.1-37.9-15.1c-7-2.8-14.1-5.6-21.1-8.4c0.7,1.9,1.4,3.9,2.2,5.8c4.7,12.7,9.5,25.5,14.2,38.2
					c2.7,7.2,5.4,14.5,8.1,21.7c3.7-4.8,7.5-9.6,11.2-14.3c0.2-0.3,0.6-0.4,1-0.4c0.4,0,0.8,0.2,1.1,0.4c0.8,0.8,1.6,1.7,2.4,2.5
					c5.5,5.6,10.9,11.2,16.4,16.8c4.3-4.2,8.5-8.3,12.8-12.5c-0.5-0.5-0.9-1-1.4-1.4C672.8,352.4,667,346.5,661.2,340.6z
					 M667.2,369.1l-6.6-6.8l-8.2-8.4l-1.2-1.2l-1.2-1.2c-0.7-0.7-1.7-1.1-2.7-1.1c-1.1,0-2.1,0.5-2.7,1.3l-4.5,5.7l-4.2,5.4
					l-2.6-7.1l-4-10.8l-0.7-1.8L615,306.6l-0.4-1.1l11.6,4.6l4.8,1.9l18.9,7.6l18.9,7.6l2.4,1l-3.9,2.9l-7.2,5.3
					c-0.9,0.7-1.5,1.7-1.6,2.8c-0.1,1.1,0.3,2.1,1,2.8l8.2,8.4l9,9.2L667.2,369.1z"/>
			</g>
		</g>
		<polygon class="st4" points="608.2,299.1 634.7,370.3 647.4,354 667.1,374.3 674.6,367.1 682,359.8 662.2,339.5 678.7,327.3 		"/>
	</g>
	<text transform="matrix(1 0 0 1 148.287 123.0114)" class="st17 st18 st19">https://www.subletor.com</text>
	<text transform="matrix(1 0 0 1 261.0169 286.7077)" class="st1 st20 st21">www.subletor.com</text>
</g>
<g>
	<g>
		<g>
			<g>
				<g>
					<g>
						<path class="st22" d="M529,444.3H281.3c-5.3,0-9.7-4.3-9.7-9.7V28.7c0-5.3,4.3-9.7,9.7-9.7H529c5.3,0,9.7,4.3,9.7,9.7v405.9
							C538.7,439.9,534.4,444.3,529,444.3z"/>
					</g>
					<g>
						<rect x="285.4" y="41.6" class="st23" width="239" height="363.2"/>
					</g>
					<g>
						<rect x="390.8" y="421.8" class="st13" width="28.6" height="6.6"/>
					</g>
				</g>
				<g class="st24">
					<polygon class="st25" points="285.4,92 285.4,404.8 524.4,404.8 					"/>
				</g>
			</g>
		</g>
		<g>
			<g>
				<polygon class="st13" points="285.4,55.7 285.4,142.9 285.4,165 285.4,259.3 285.4,276.2 285.4,360.3 285.4,377.4 				"/>
			</g>
			<g>
				<polygon class="st26" points="285.4,377.4 285.4,404.8 287.3,404.8 292.1,379.8 				"/>
			</g>
			<g>
				<polygon class="st26" points="502.2,367.8 524.4,376.7 524.4,274.8 520.3,273 				"/>
			</g>
			<g>
				<polygon class="st26" points="356.9,41.6 305.2,41.6 352.5,64.8 				"/>
			</g>
			<g>
				<polygon class="st26" points="495.1,404.8 524.4,404.8 524.4,391.5 499.5,381.8 				"/>
			</g>
			<g>
				<polygon class="st26" points="329.4,185.2 285.4,165 285.4,259.3 314,265.6 				"/>
			</g>
			<g>
				<polygon class="st26" points="310.9,282 285.4,276.2 285.4,360.3 295.2,363.7 				"/>
			</g>
			<g>
				<polygon class="st26" points="349,83.1 285.4,55.7 285.4,142.9 333.3,165.1 				"/>
			</g>
			<g>
				<polygon class="st26" points="428,208.8 468.4,41.6 387.2,41.6 361,177.9 				"/>
			</g>
			<g>
				<polygon class="st26" points="510.2,246.8 524.4,173 524.4,41.6 496.8,41.6 451.2,219.6 				"/>
			</g>
			<g>
				<polygon class="st27" points="357.2,198 317.6,404.8 366.5,404.8 384.7,346.5 448.7,383.9 446.6,404.8 480,404.8 506.4,266.6 
									"/>
			</g>
			<g>
				<polygon class="st13" points="351.6,69.3 349,83.1 333.3,165.1 361,177.9 387.2,41.6 356.9,41.6 352.5,64.8 				"/>
			</g>
			<g>
				<polygon class="st13" points="352.5,64.8 356.9,41.6 356.9,41.6 352.5,64.8 				"/>
			</g>
			<g>
				<polygon class="st13" points="329.4,185.2 314,265.6 324.5,268 313.2,282.6 310.9,282 295.2,363.7 299.2,365.1 292.1,379.8 
					287.3,404.8 307.6,404.8 347.7,193.6 				"/>
			</g>
			<g>
				<polygon class="st13" points="347.7,193.6 307.6,404.8 317.6,404.8 357.2,198 				"/>
			</g>
			<g>
				<polygon class="st13" points="500,367 502.2,367.8 520.3,273 518.2,272 				"/>
			</g>
			<g>
				<polygon class="st13" points="497.4,381 492.8,404.8 495.1,404.8 499.5,381.8 				"/>
			</g>
			<g>
				<polygon class="st13" points="524.1,253.2 524.4,251.9 524.4,173 510.2,246.8 				"/>
			</g>
			<g>
				<polygon class="st13" points="496.3,380.6 496.7,365.6 500,367 518.2,272 506.4,266.6 480,404.8 492.8,404.8 497.4,381 				"/>
			</g>
			<g>
				<polygon class="st13" points="333.3,165.1 285.4,142.9 285.4,165 329.4,185.2 				"/>
			</g>
			<g>
				<polygon class="st13" points="507.7,259.9 510.2,246.8 451.2,219.6 450.3,223.1 424.8,222.4 428,208.8 361,177.9 358.3,192.4 
									"/>
			</g>
			<g>
				<polygon class="st13" points="524.1,253.2 520.3,273 524.4,274.8 524.4,253.3 				"/>
			</g>
			<g>
				<polygon class="st13" points="358.3,192.4 357.2,198 506.4,266.6 507.7,259.9 				"/>
			</g>
			<g>
				<polygon class="st13" points="358.3,192.4 361,177.9 333.3,165.1 329.4,185.2 347.7,193.6 348.8,188.1 				"/>
			</g>
			<g>
				<polygon class="st13" points="348.8,188.1 347.7,193.6 357.2,198 358.3,192.4 				"/>
			</g>
			<g>
				<polygon class="st13" points="507.7,259.9 519.5,265.2 518.2,272 520.3,273 524.1,253.2 510.2,246.8 				"/>
			</g>
			<g>
				<polygon class="st13" points="507.7,259.9 506.4,266.6 518.2,272 519.5,265.2 				"/>
			</g>
			<g>
				<polygon class="st13" points="499.5,381.8 524.4,391.5 524.4,376.7 502.2,367.8 				"/>
			</g>
			<g>
				<polygon class="st13" points="497.4,381 499.5,381.8 502.2,367.8 500,367 				"/>
			</g>
			<g>
				<polygon class="st13" points="496.7,365.6 496.3,380.6 497.4,381 500,367 				"/>
			</g>
			<g>
				<polygon class="st13" points="351.6,69.3 352.5,64.8 305.2,41.6 285.4,41.6 285.4,55.7 349,83.1 				"/>
			</g>
			<g>
				<polygon class="st13" points="352.5,64.8 351.6,69.3 352.5,64.8 				"/>
			</g>
			<g>
				<polygon class="st13" points="295.2,363.7 285.4,360.3 285.4,377.4 292.1,379.8 				"/>
			</g>
			<g>
				<polygon class="st13" points="299.2,365.1 295.2,363.7 292.1,379.8 				"/>
			</g>
			<g>
				<polygon class="st13" points="314,265.6 285.4,259.3 285.4,276.2 310.9,282 				"/>
			</g>
			<g>
				<polygon class="st13" points="313.2,282.6 324.5,268 314,265.6 310.9,282 				"/>
			</g>
			<g>
				<polygon class="st13" points="451.2,219.6 496.8,41.6 468.4,41.6 428,208.8 				"/>
			</g>
			<g>
				<polygon class="st13" points="450.3,223.1 451.2,219.6 428,208.8 424.8,222.4 				"/>
			</g>
			<g>
				<polygon class="st26" points="384.7,346.5 366.5,404.8 446.6,404.8 448.7,383.9 				"/>
			</g>
		</g>
		<g>
			<g>
				<g>
					<g>
						<path class="st28" d="M434.9,128.5c-0.1,16.3-30.5,59.1-30.5,59.1s-29.6-43.3-29.5-59.6c0.1-16.3,13.7-29.4,30.2-29.3
							C421.7,98.9,435,112.2,434.9,128.5z"/>
					</g>
					<g>
						
							<ellipse transform="matrix(8.247171e-03 -1 1 8.247171e-03 274.6183 530.8269)" class="st13" cx="404.9" cy="127" rx="13.9" ry="14.1"/>
					</g>
				</g>
				<g>
					<path class="st29" d="M380,130.7c0.1-14.2,11.9-25.5,26.3-25.4c8.4,0.1,15.8,4.1,20.6,10.2c-4.4-7.7-12.8-13-22.5-13
						c-14.4-0.1-26.1,11.3-26.3,25.4c0,5.9,1.9,11.3,5.3,15.7C381.2,139.7,380,135.3,380,130.7z"/>
				</g>
				<g>
					<path class="st30" d="M397.2,176.5c4,6.8,7.2,11.1,7.2,11.1s30.3-42.8,30.5-59.1c0-0.9,0-1.7-0.1-2.5c-1.2,4.5-2.9,8.9-5,13.1
						c-5.8,11.6-14.2,19-23.2,28.3C403.6,170.4,400.4,173.7,397.2,176.5z"/>
				</g>
			</g>
		</g>
	</g>
	<g>
		<polygon class="st31" points="672.6,474.9 556.2,276.6 545.1,216.7 529,201.5 498.1,192.3 487.1,195.1 451.6,152.4 440.8,157.7 
			473.9,239.2 463.5,228.2 453.9,233.3 466.7,266.5 503.5,286.2 504,286.1 561.7,474.9 590.1,541.2 685.8,525.8 		"/>
	</g>
	<g>
		<g>
			<polygon class="st32" points="606.9,358.3 536.2,411.8 549.5,446.2 626,392.1 			"/>
		</g>
		<g>
			<polygon class="st33" points="751,612 630.3,389.1 542.7,451.2 592.3,612 			"/>
		</g>
	</g>
	<g>
		<g>
			<polygon class="st34" points="541.2,408 552.3,444.4 558.6,439.9 544.5,405.5 			"/>
		</g>
		<g>
			<polygon class="st34" points="549.9,401.4 564.3,435.9 571.8,430.6 555.4,397.2 			"/>
		</g>
		<g>
			<polygon class="st34" points="560.8,393.6 575.4,428 583.9,422 566.2,389.1 			"/>
		</g>
		<g>
			<polygon class="st34" points="571.8,384.9 588.2,419 595.2,413.9 577.4,380.6 			"/>
		</g>
		<g>
			<polygon class="st34" points="583.5,376 600.7,410 607.2,405.5 589.2,371.7 			"/>
		</g>
		<g>
			<polygon class="st34" points="595.3,367.1 611.7,402.3 618.8,397.2 601.5,362.3 			"/>
		</g>
	</g>
	<g>
		<g>
			<polygon class="st31" points="239.2,270.9 241.6,212.9 271.3,173.6 271.3,314.3 245.5,454.5 149.8,453.3 			"/>
		</g>
		<g>
			<polygon class="st31" points="251.1,213.3 280.6,201.5 314.3,209.5 314.3,227.3 284.4,227.1 271.3,249.6 			"/>
		</g>
		<g>
			<g>
				<polygon class="st32" points="251.2,451.3 168.3,402.3 151.7,443.1 242.3,480 				"/>
			</g>
			<g>
				<polygon class="st33" points="147.7,441.6 65.7,612 232.7,612 247.7,481.8 				"/>
			</g>
		</g>
		<g>
			<polygon class="st34" points="159.5,446.2 176.9,407.4 184.1,411.6 168.7,450 			"/>
		</g>
		<g>
			<polygon class="st34" points="192.4,416.6 177.6,453.6 186.2,457.1 199.7,420.8 			"/>
		</g>
		<g>
			<polygon class="st34" points="206.6,424.9 194.1,460.6 201.5,463.4 214.8,429.8 			"/>
		</g>
		<g>
			<polygon class="st34" points="208.2,465.9 222.4,434.3 229.8,438.7 217,469.5 			"/>
		</g>
		<g>
			<polygon class="st34" points="223.1,471.9 234.7,441.6 242.6,446.2 232.8,476.2 			"/>
		</g>
	</g>
</g>
</svg>
