<?xml version="1.0" encoding="utf-8"?>
<!-- Generator: Adobe Illustrator 21.0.2, SVG Export Plug-In . SVG Version: 6.00 Build 0)  -->
<svg version="1.1" xmlns="http://www.w3.org/2000/svg" xmlns:xlink="http://www.w3.org/1999/xlink" x="0px" y="0px"
	 viewBox="0 0 500 500" style="enable-background:new 0 0 500 500;" xml:space="preserve">
<style type="text/css">
	.st0{display:none;}
	.st1{display:inline;fill:#68BFB9;}
	.st2{fill:#FFD87D;}
	.st3{fill:#EEAF22;}
	.st4{display:none;fill:#FFD87D;}
	.st5{font-family:'Raleway-Bold';}
	.st6{font-size:18.397px;}
	.st7{fill:#52AFA5;}
	.st8{clip-path:url(#SVGID_4_);fill:#019CDE;}
	.st9{fill:#333333;}
	.st10{fill:#F0F7FB;}
	.st11{fill:#0075AA;}
	.st12{fill:#5B5B5B;}
	.st13{opacity:0.1;fill:#FFFFFF;}
	.st14{opacity:0.1;}
	.st15{fill:none;}
	.st16{fill:#231F20;}
	.st17{font-family:'OpenSans-Bold';}
	.st18{font-size:14.2647px;}
	.st19{font-size:16.1666px;}
	.st20{opacity:0.1;fill:#231F20;}
	.st21{fill:#A9D3E1;}
	.st22{fill:#FFFFFF;}
	.st23{fill:#4A6E88;}
	.st24{fill:none;stroke:#A9D3E1;stroke-width:2;stroke-miterlimit:10;}
	.st25{fill:#BAD2DB;}
	.st26{display:none;opacity:0.1;}
	.st27{display:inline;fill:#231F20;}
	.st28{display:inline;fill:#FFD87D;}
	.st29{clip-path:url(#SVGID_10_);fill:#0075AA;}
	.st30{fill:#019CDE;}
	.st31{fill:#FADD5F;}
	.st32{fill:#009CE3;}
	.st33{fill:#DF5D67;}
	.st34{display:inline;}
	.st35{fill:#1D262D;}
</style>
<g id="BACKGROUND" class="st0">
	<rect y="-0.2" class="st1" width="500" height="500"/>
</g>
<g id="OBJECTS">
	<g>
		
			<ellipse transform="matrix(0.9319 -0.3627 0.3627 0.9319 -15.4758 172.0113)" class="st2" cx="450.4" cy="127.2" rx="26.6" ry="26.6"/>
		
			<ellipse transform="matrix(0.9319 -0.3627 0.3627 0.9319 -15.4757 172.0121)" class="st3" cx="450.4" cy="127.2" rx="21.6" ry="21.6"/>
		<g>
			<path class="st4" d="M455,143.9l-1.6-4.1c-2.4,0.9-5.1,1.1-7,0.6l-0.1-3.1c1.9,0.4,4.3,0.4,6.6-0.5c2.9-1.1,4.2-3.6,3.3-5.9
				c-0.9-2.2-3-3-6.5-3.1c-4.8,0-8.1-0.9-9.5-4.4c-1.3-3.4,0.1-6.9,3.6-9l-1.6-4.1l2.5-1l1.5,4c2.5-0.9,4.4-0.9,5.9-0.6l0,3.1
				c-1-0.2-3.1-0.4-5.7,0.6c-3.1,1.2-3.6,3.6-3,5.2c0.8,2.1,2.8,2.6,6.9,2.7c4.9,0.1,7.8,1.4,9.2,5c1.3,3.2,0.2,7.1-3.8,9.5l1.7,4.3
				L455,143.9z"/>
			<text transform="matrix(0.8061 -0.5918 0.5918 0.8061 440.2813 143.9443)" class="st2 st5 st6">KSH</text>
		</g>
	</g>
	<g>
		<circle class="st7" cx="253.4" cy="244.6" r="218.5"/>
		<g>
			<g>
				<g>
					<defs>
						<path id="SVGID_1_" d="M239.1,337L67.8,393.9c-5,1.7-10.3-1-12-6l-32.6-98.1c-1.7-5,1-10.3,6-12l171.3-56.9c5-1.7,10.3,1,12,6
							l32.6,98.1C246.8,329.9,244.1,335.3,239.1,337z"/>
					</defs>
					<clipPath id="SVGID_2_">
						<use xlink:href="#SVGID_1_"  style="overflow:visible;"/>
					</clipPath>
				</g>
				<g>
					<defs>
						<path id="SVGID_3_" d="M239.1,337L67.8,393.9c-5,1.7-10.3-1-12-6l-32.6-98.1c-1.7-5,1-10.3,6-12l171.3-56.9c5-1.7,10.3,1,12,6
							l32.6,98.1C246.8,329.9,244.1,335.3,239.1,337z"/>
					</defs>
					<use xlink:href="#SVGID_3_"  style="overflow:visible;fill:#019CDE;"/>
					<clipPath id="SVGID_4_">
						<use xlink:href="#SVGID_3_"  style="overflow:visible;"/>
					</clipPath>
					
						<ellipse transform="matrix(0.949 -0.3153 0.3153 0.949 -79.7165 77.8175)" class="st8" cx="200.7" cy="285.3" rx="100.1" ry="100.1"/>
				</g>
				<g>
					<defs>
						<path id="SVGID_5_" d="M239.1,337L67.8,393.9c-5,1.7-10.3-1-12-6l-32.6-98.1c-1.7-5,1-10.3,6-12l171.3-56.9c5-1.7,10.3,1,12,6
							l32.6,98.1C246.8,329.9,244.1,335.3,239.1,337z"/>
					</defs>
					<clipPath id="SVGID_6_">
						<use xlink:href="#SVGID_5_"  style="overflow:visible;"/>
					</clipPath>
				</g>
			</g>
			
				<rect x="22.9" y="261.9" transform="matrix(0.949 -0.3153 0.3153 0.949 -79.6936 52.5625)" class="st9" width="199.5" height="21.5"/>
			
				<rect x="42.5" y="287.5" transform="matrix(0.949 -0.3153 0.3153 0.949 -86.8418 56.2943)" class="st10" width="176.1" height="18.2"/>
			
				<rect x="52.4" y="327.7" transform="matrix(0.949 -0.3153 0.3153 0.949 -99.3995 49.8904)" class="st11" width="104.2" height="9"/>
			
				<rect x="51.2" y="306.5" transform="matrix(0.949 -0.3153 0.3153 0.949 -93.6034 43.3428)" class="st12" width="71.9" height="9"/>
			
				<rect x="57.9" y="346.8" transform="matrix(0.949 -0.3153 0.3153 0.949 -105.9792 47.5148)" class="st11" width="71.9" height="9"/>
			<polygon class="st13" points="194.5,351.8 144.2,368.5 151.3,237.3 201.6,220.5 			"/>
		</g>
		<g class="st14">
			<g>
				<rect x="227.3" y="329.8" class="st15" width="133.1" height="16.4"/>
				<text transform="matrix(1 0 0 1 227.2542 340.6307)" class="st16 st17 st18">total</text>
			</g>
			<g>
				<rect x="194.4" y="91.3" class="st15" width="133.1" height="32.8"/>
				<text transform="matrix(1 0 0 1 229.0398 103.6326)" class="st16 st17 st19">receipt</text>
			</g>
		</g>
		<g class="st14">
			<g>
				<rect x="204.1" y="324.7" class="st15" width="133.1" height="16.4"/>
				<text transform="matrix(1 0 0 1 204.0647 335.577)" class="st16 st17 st18">total</text>
			</g>
			<g>
				<rect x="187.9" y="86.3" class="st15" width="133.1" height="32.8"/>
				<text transform="matrix(1 0 0 1 222.4446 98.5789)" class="st16 st17 st19">receipt</text>
			</g>
		</g>
		<polygon class="st20" points="344.8,150.5 344.8,54.6 344.8,46.4 338.8,42.6 332.9,46.4 327,42.6 321.1,46.4 315.2,42.6 
			309.3,46.4 303.4,42.6 297.4,46.4 291.5,42.6 285.6,46.4 279.7,42.6 273.8,46.4 267.9,42.6 261.9,46.4 256,42.6 250.1,46.4 
			244.2,42.6 238.3,46.4 232.4,42.6 226.4,46.4 220.5,42.6 214.6,46.4 208.7,42.6 202.8,46.4 196.9,42.6 190.9,46.4 185,42.6 
			179.1,46.4 173.2,42.6 167.2,46.4 167.2,54.6 167.2,150.5 167.2,207.4 167.2,222.8 167.2,222.8 178.2,222.8 194.4,222.8 
			194.4,387.7 194.4,388.5 194.4,395.9 200.3,399.7 206.2,395.9 212.1,399.7 218,395.9 224,399.7 229.9,395.9 235.8,399.7 
			241.7,395.9 247.6,399.7 253.5,395.9 259.5,399.7 265.4,395.9 271.3,399.7 277.2,395.9 283.1,399.7 289,395.9 295,399.7 
			300.9,395.9 306.8,399.7 312.7,395.9 318.6,399.7 324.5,395.9 330.5,399.7 336.4,395.9 342.3,399.7 348.2,395.9 354.1,399.7 
			360.1,395.9 366,399.7 371.9,395.9 371.9,388.5 371.9,387.7 371.9,150.5 		"/>
		<g>
			<path class="st10" d="M175.9,214.5v-72.3h21.9v63c0,5.1-4.2,9.2-9.2,9.2H175.9z"/>
			<rect x="175.9" y="46.3" class="st10" width="177.5" height="152.8"/>
			<polygon class="st10" points="353.4,38.1 347.5,34.3 341.6,38.1 335.7,34.3 329.8,38.1 323.8,34.3 317.9,38.1 312,34.3 
				306.1,38.1 300.2,34.3 294.3,38.1 288.3,34.3 282.4,38.1 276.5,34.3 270.6,38.1 264.7,34.3 258.8,38.1 252.8,34.3 246.9,38.1 
				241,34.3 235.1,38.1 229.2,34.3 223.3,38.1 217.3,34.3 211.4,38.1 205.5,34.3 199.6,38.1 193.7,34.3 187.7,38.1 181.8,34.3 
				175.9,38.1 175.9,46.3 353.4,46.3 			"/>
			<g>
				<rect x="261.8" y="149.8" class="st21" width="29.8" height="6.3"/>
				<rect x="319.5" y="116.5" class="st21" width="21.9" height="6.3"/>
				<rect x="187.9" y="116.5" class="st21" width="50.7" height="6.3"/>
				<rect x="310.9" y="133.2" class="st21" width="30.4" height="6.3"/>
				<rect x="187.9" y="133.2" class="st21" width="76.7" height="6.3"/>
				<rect x="310.9" y="149.8" class="st21" width="30.4" height="6.3"/>
				<rect x="187.9" y="149.8" class="st21" width="67.2" height="6.3"/>
				<rect x="310.9" y="166.5" class="st21" width="30.4" height="6.3"/>
				<rect x="187.9" y="166.5" class="st21" width="50.7" height="6.3"/>
				<rect x="244.7" y="116.5" class="st21" width="50.7" height="6.3"/>
				<rect x="244.7" y="166.5" class="st21" width="50.7" height="6.3"/>
				<rect x="319.5" y="183.1" class="st21" width="21.9" height="6.3"/>
				<rect x="187.9" y="183.1" class="st21" width="76.7" height="6.3"/>
			</g>
			<rect x="203" y="142.2" class="st22" width="177.5" height="238"/>
			<polygon class="st22" points="203,387.6 209,391.4 214.9,387.6 220.8,391.4 226.7,387.6 232.6,391.4 238.5,387.6 244.4,391.4 
				250.4,387.6 256.3,391.4 262.2,387.6 268.1,391.4 274,387.6 279.9,391.4 285.9,387.6 291.8,391.4 297.7,387.6 303.6,391.4 
				309.5,387.6 315.4,391.4 321.4,387.6 327.3,391.4 333.2,387.6 339.1,391.4 345,387.6 350.9,391.4 356.9,387.6 362.8,391.4 
				368.7,387.6 374.6,391.4 380.6,387.6 380.6,379.4 203,379.4 			"/>
			<rect x="274.1" y="62" class="st21" width="67.2" height="6.3"/>
			<rect x="258.2" y="350.9" class="st21" width="67.2" height="6.3"/>
			<rect x="338.1" y="158.2" class="st21" width="30.4" height="6.3"/>
			<rect x="215.1" y="158.2" class="st21" width="67.2" height="6.3"/>
			<rect x="288.9" y="158.2" class="st21" width="29.8" height="6.3"/>
			<rect x="288.9" y="208.2" class="st21" width="29.8" height="6.3"/>
			<rect x="346.6" y="174.9" class="st21" width="21.9" height="6.3"/>
			<rect x="215.1" y="174.9" class="st21" width="50.7" height="6.3"/>
			<rect x="338.1" y="191.5" class="st21" width="30.4" height="6.3"/>
			<rect x="215.1" y="191.5" class="st21" width="76.7" height="6.3"/>
			<rect x="338.1" y="208.2" class="st21" width="30.4" height="6.3"/>
			<rect x="215.1" y="208.2" class="st21" width="67.2" height="6.3"/>
			<rect x="338.1" y="224.8" class="st21" width="30.4" height="6.3"/>
			<rect x="215.1" y="224.8" class="st21" width="50.7" height="6.3"/>
			<rect x="271.8" y="174.9" class="st21" width="50.7" height="6.3"/>
			<rect x="271.8" y="224.8" class="st21" width="50.7" height="6.3"/>
			<rect x="346.6" y="241.4" class="st21" width="21.9" height="6.3"/>
			<rect x="338.1" y="320.8" class="st21" width="30.4" height="6.3"/>
			<rect x="215.1" y="241.4" class="st21" width="76.7" height="6.3"/>
			<rect x="288.9" y="256.5" class="st21" width="29.8" height="6.3"/>
			<rect x="338.1" y="256.5" class="st21" width="30.4" height="6.3"/>
			<rect x="215.1" y="256.5" class="st21" width="67.2" height="6.3"/>
			<rect x="338.1" y="273.1" class="st21" width="30.4" height="6.3"/>
			<rect x="215.1" y="273.1" class="st21" width="50.7" height="6.3"/>
			<rect x="271.8" y="273.1" class="st21" width="50.7" height="6.3"/>
			<rect x="346.6" y="289.8" class="st21" width="21.9" height="6.3"/>
			<rect x="215.1" y="289.8" class="st21" width="76.7" height="6.3"/>
			<g>
				<rect x="215.1" y="317.6" class="st15" width="133.1" height="16.4"/>
				<text transform="matrix(1 0 0 1 215.0891 328.4656)" class="st23 st17 st18">total</text>
			</g>
			<g>
				<g>
					<rect x="198.9" y="79.2" class="st15" width="133.1" height="32.8"/>
					<text transform="matrix(1 0 0 1 233.4695 91.4666)" class="st23 st17 st19">receipt</text>
				</g>
				<line class="st24" x1="188.4" y1="100.6" x2="341.8" y2="100.6"/>
			</g>
			<line class="st24" x1="215.1" y1="309.6" x2="368.5" y2="309.6"/>
			<line class="st24" x1="215.1" y1="338.3" x2="368.5" y2="338.3"/>
			<polygon class="st25" points="203,142.2 203,214.5 175.9,214.5 			"/>
		</g>
		<g class="st26">
			
				<ellipse transform="matrix(0.5042 -0.8636 0.8636 0.5042 102.8407 380.8224)" class="st27" cx="383.1" cy="100.8" rx="26.6" ry="26.6"/>
			
				<ellipse transform="matrix(0.9319 -0.3627 0.3627 0.9319 -38.853 161.824)" class="st27" cx="411.5" cy="184.4" rx="26.6" ry="26.6"/>
			
				<ellipse transform="matrix(0.9319 -0.3627 0.3627 0.9319 -17.8325 169.9789)" class="st27" cx="443.8" cy="132.5" rx="26.6" ry="26.6"/>
		</g>
		
			<ellipse transform="matrix(0.5042 -0.8636 0.8636 0.5042 110.6518 383.9087)" class="st2" cx="389.7" cy="95.6" rx="26.6" ry="26.6"/>
		
			<ellipse transform="matrix(0.5042 -0.8636 0.8636 0.5042 110.6517 383.9085)" class="st3" cx="389.7" cy="95.6" rx="21.6" ry="21.6"/>
		<g class="st0">
			<path class="st28" d="M379.5,109.6l2.2-3.8c-2.2-1.3-4.1-3.3-4.8-5.1l2.4-2c0.8,1.7,2.4,3.6,4.5,4.8c2.7,1.6,5.4,1.1,6.7-1.1
				c1.2-2.1,0.5-4.2-1.6-7c-3-3.8-4.3-6.9-2.4-10.2c1.8-3.1,5.5-4.2,9.3-2.8l2.2-3.8l2.3,1.4l-2.1,3.7c2.2,1.4,3.4,2.9,4.2,4.2
				l-2.4,1.9c-0.5-0.9-1.6-2.7-4-4.1c-2.9-1.7-5-0.6-5.9,0.9c-1.2,2-0.3,3.8,2.2,7.1c3,3.9,3.8,7,1.8,10.4c-1.7,3-5.5,4.6-9.7,2.9
				l-2.3,3.9L379.5,109.6z"/>
		</g>
		<g>
			
				<ellipse transform="matrix(0.9319 -0.3627 0.3627 0.9319 -36.4962 163.8576)" class="st2" cx="418.1" cy="179.1" rx="26.6" ry="26.6"/>
			
				<ellipse transform="matrix(0.9319 -0.3627 0.3627 0.9319 -36.4962 163.8574)" class="st3" cx="418.1" cy="179.1" rx="21.6" ry="21.6"/>
			<g>
				<path class="st4" d="M422.8,195.8l-1.6-4.1c-2.4,0.9-5.1,1.1-7,0.6l-0.1-3.1c1.9,0.4,4.3,0.4,6.6-0.5c2.9-1.1,4.2-3.6,3.3-5.9
					c-0.9-2.2-3-3-6.5-3.1c-4.8,0-8.1-0.9-9.5-4.4c-1.3-3.4,0.1-6.9,3.6-9l-1.6-4.1l2.5-1l1.5,4c2.5-0.9,4.4-0.9,5.9-0.6l0,3.1
					c-1-0.2-3.1-0.4-5.7,0.6c-3.1,1.2-3.6,3.6-3,5.2c0.8,2.1,2.8,2.6,6.9,2.7c4.9,0.1,7.8,1.4,9.2,5c1.3,3.2,0.2,7.1-3.8,9.5
					l1.7,4.3L422.8,195.8z"/>
				<text transform="matrix(0.8004 0.5995 -0.5995 0.8004 370.8445 88.9967)" class="st2 st5 st6">KSH</text>
				<text transform="matrix(0.999 4.471453e-02 -4.471453e-02 0.999 399.6685 186.3603)" class="st2 st5 st6">KSH</text>
			</g>
		</g>
		<g>
			<g>
				<g>
					<defs>
						<path id="SVGID_7_" d="M205.4,474.5L28.1,440.7c-5.1-1-8.5-5.9-7.5-11.1l19.3-101.5c1-5.1,5.9-8.5,11.1-7.5l177.3,33.8
							c5.1,1,8.5,5.9,7.5,11.1l-19.3,101.5C215.6,472.1,210.6,475.4,205.4,474.5z"/>
					</defs>
					<clipPath id="SVGID_8_">
						<use xlink:href="#SVGID_7_"  style="overflow:visible;"/>
					</clipPath>
				</g>
				<g>
					<defs>
						<path id="SVGID_9_" d="M205.4,474.5L28.1,440.7c-5.1-1-8.5-5.9-7.5-11.1l19.3-101.5c1-5.1,5.9-8.5,11.1-7.5l177.3,33.8
							c5.1,1,8.5,5.9,7.5,11.1l-19.3,101.5C215.6,472.1,210.6,475.4,205.4,474.5z"/>
					</defs>
					<use xlink:href="#SVGID_9_"  style="overflow:visible;fill:#0075AA;"/>
					<clipPath id="SVGID_10_">
						<use xlink:href="#SVGID_9_"  style="overflow:visible;"/>
					</clipPath>
					
						<ellipse transform="matrix(0.1872 -0.9823 0.9823 0.1872 -243.1805 527.3204)" class="st29" cx="197" cy="410.6" rx="100.1" ry="100.1"/>
				</g>
				<g>
					<defs>
						<path id="SVGID_11_" d="M205.4,474.5L28.1,440.7c-5.1-1-8.5-5.9-7.5-11.1l19.3-101.5c1-5.1,5.9-8.5,11.1-7.5l177.3,33.8
							c5.1,1,8.5,5.9,7.5,11.1l-19.3,101.5C215.6,472.1,210.6,475.4,205.4,474.5z"/>
					</defs>
					<clipPath id="SVGID_12_">
						<use xlink:href="#SVGID_11_"  style="overflow:visible;"/>
					</clipPath>
				</g>
			</g>
			<polygon class="st13" points="159.3,465.7 107.2,455.7 177.3,344.6 229.5,354.5 			"/>
			
				<rect x="40" y="387.2" transform="matrix(0.9823 0.1872 -0.1872 0.9823 74.4308 -4.2472)" class="st10" width="39.5" height="9.7"/>
			
				<rect x="151.6" y="424.7" transform="matrix(0.9823 0.1872 -0.1872 0.9823 83.2602 -22.7383)" class="st10" width="20.9" height="9.7"/>
			
				<rect x="124.4" y="419.6" transform="matrix(0.9823 0.1872 -0.1872 0.9823 81.8105 -17.7354)" class="st10" width="20.9" height="9.7"/>
			
				<rect x="83.7" y="395.6" transform="matrix(0.9823 0.1872 -0.1872 0.9823 76.7646 -12.2905)" class="st10" width="39.5" height="9.7"/>
			
				<rect x="174.1" y="412.8" transform="matrix(0.9823 0.1872 -0.1872 0.9823 81.5838 -28.8993)" class="st10" width="39.5" height="9.7"/>
			
				<rect x="127.5" y="403.9" transform="matrix(0.9823 0.1872 -0.1872 0.9823 79.0985 -20.3339)" class="st10" width="39.5" height="9.7"/>
			
				<rect x="134.2" y="360.9" transform="matrix(0.9823 0.1872 -0.1872 0.9823 71.53 -26.8455)" class="st30" width="87.6" height="9"/>
			
				<rect x="33.1" y="425" transform="matrix(0.9823 0.1872 -0.1872 0.9823 81.5985 -5.3431)" class="st30" width="71.9" height="9"/>
			<path class="st31" d="M70.9,382.4l-21.4-4.1c-3.8-0.7-6.4-4.5-5.6-8.3l2.7-14.1c0.7-3.8,4.5-6.4,8.3-5.6l21.4,4.1
				c3.8,0.7,6.4,4.5,5.6,8.3l-2.7,14.1C78.4,380.6,74.7,383.1,70.9,382.4z"/>
			<g>
				
					<ellipse transform="matrix(0.1872 -0.9823 0.9823 0.1872 -287.829 564.0395)" class="st32" cx="196.9" cy="455.9" rx="9.3" ry="9.3"/>
				
					<ellipse transform="matrix(0.1872 -0.9823 0.9823 0.1872 -294.7804 551.4056)" class="st33" cx="185.8" cy="453.8" rx="9.3" ry="9.3"/>
			</g>
		</g>
	</g>
</g>
<g id="DESIGNED_BY_FREEPIK" class="st0">
	<g class="st34">
		<g id="XMLID_319_">
			<g id="XMLID_338_">
				<path id="XMLID_346_" class="st35" d="M262.4,474.3c-0.4,0.4-0.8,0.9-1.1,1.5l-0.5-0.2c-0.1-0.3-0.3-0.5-0.7-0.5
					c-0.3,0-0.6,0.3-0.5,0.7c0,0.3,0.3,0.6,0.7,0.5c0.1,0,0.1,0,0.2-0.1l0.5,0.2c-0.3,0.6-0.4,1.1-0.5,1.7l0.7,0.1
					c0.2-1.3,0.8-2.5,1.8-3.5L262.4,474.3z"/>
				<path id="XMLID_345_" class="st35" d="M267.9,472c-0.2,0-0.3,0-0.5,0l-0.1-0.6c0.2-0.1,0.3-0.4,0.3-0.6c0-0.4-0.4-0.7-0.8-0.6
					s-0.7,0.4-0.6,0.8c0,0.3,0.2,0.5,0.4,0.6l0.1,0.6c-0.7,0.1-1.4,0.3-2.1,0.6l0.3,0.7c0.9-0.4,1.9-0.7,3-0.7c0.5,0,1,0.1,1.5,0.2
					l0.2-0.7C269,472,268.5,472,267.9,472z"/>
				<path id="XMLID_344_" class="st35" d="M274.5,474.5c0.3,0,0.6-0.3,0.5-0.7c0-0.3-0.3-0.6-0.7-0.5c-0.3,0-0.5,0.3-0.5,0.6
					l-0.4,0.4c-0.4-0.4-0.9-0.8-1.4-1.1l-0.4,0.6c1.1,0.7,2,1.7,2.6,2.9l0.7-0.3c-0.3-0.6-0.6-1.1-0.9-1.5l0.4-0.4
					C274.4,474.5,274.4,474.5,274.5,474.5z"/>
				<path id="XMLID_343_" class="st35" d="M267.4,482.2c-0.4,0-0.8,0-1.2,0c-0.9,0-1.7-0.1-2.5-0.2c-0.4-0.1-0.8-0.2-1.3-0.3
					c1,1.9,3.1,3.1,5.4,3.1c2.9,0,5.3-1.9,5.9-4.5c-0.7,0.4-1.5,0.8-2.5,1.1C270.2,481.9,268.8,482.1,267.4,482.2z"/>
				<path id="XMLID_339_" class="st35" d="M267.9,473.5c-3.4,0-6.1,2.7-6.1,5.9c0,0.4,0,0.8,0.1,1.3c0.7,0.5,2.7,0.9,5.3,0.7
					c2.9-0.2,5.3-1,6.7-2.2c0-0.2,0-0.4,0-0.6C273.6,475.7,271,473.5,267.9,473.5z M265.7,480c-1,0-1.8-0.8-1.8-1.8
					c0-1,0.8-1.8,1.8-1.8c1,0,1.8,0.8,1.8,1.8C267.6,479.2,266.8,480,265.7,480z M270.5,479.1c-0.8,0-1.4-0.6-1.4-1.4
					s0.6-1.4,1.4-1.4c0.8,0,1.4,0.6,1.4,1.4S271.2,479.1,270.5,479.1z"/>
			</g>
			<path id="XMLID_336_" class="st35" d="M283.9,475.4c-0.3-0.1-0.8-0.3-1.4-0.2c-0.6,0.1-0.8,0.3-0.8,1v0.9h2.2v1.7h-2.2v5.5h-1.9
				v-5.5h-1.3V477h1.3v-0.9c0-1.7,0.9-2.8,2.6-2.8c0.6,0,1.2,0.1,1.6,0.3L283.9,475.4z"/>
			<path id="XMLID_334_" class="st35" d="M288.6,478.7c-0.2,0-0.4,0-0.5,0c-0.9,0-1.5,0.5-1.5,1.6v3.9h-1.9V477h1.9v0.8
				c0.5-0.7,1.1-1,2-1c0.4,0,0.8,0.1,1.1,0.3L288.6,478.7z"/>
			<path id="XMLID_331_" class="st35" d="M296.3,480.6c0,0.2,0,0.5,0,0.7h-5.1c0.2,1,0.9,1.5,1.8,1.5c0.6,0,1.3-0.3,1.8-0.7l1.1,1.2
				c-0.8,0.7-1.9,1.1-3.1,1.1c-2.2,0-3.7-1.5-3.7-3.8c0-2.3,1.5-3.8,3.6-3.8C294.9,476.8,296.3,478.3,296.3,480.6z M291.2,479.9h3.2
				c-0.2-0.9-0.7-1.4-1.6-1.4C291.9,478.5,291.3,479,291.2,479.9z"/>
			<path id="XMLID_328_" class="st35" d="M303.9,480.6c0,0.2,0,0.5,0,0.7h-5.1c0.2,1,0.9,1.5,1.8,1.5c0.6,0,1.3-0.3,1.8-0.7l1.1,1.2
				c-0.8,0.7-1.9,1.1-3.1,1.1c-2.2,0-3.7-1.5-3.7-3.8c0-2.3,1.5-3.8,3.6-3.8C302.5,476.8,303.9,478.3,303.9,480.6z M298.8,479.9h3.2
				c-0.2-0.9-0.7-1.4-1.6-1.4C299.5,478.5,299,479,298.8,479.9z"/>
			<path id="XMLID_325_" class="st35" d="M312.3,480.6c0,2.2-1.5,3.8-3.5,3.8c-1,0-1.6-0.4-2.1-0.9v3.7h-1.9V477h1.9v0.8
				c0.5-0.6,1.2-1,2.1-1C310.8,476.8,312.3,478.4,312.3,480.6z M306.6,480.6c0,1.1,0.7,2,1.8,2c1.1,0,1.9-0.9,1.9-2
				c0-1.1-0.7-2-1.9-2C307.3,478.6,306.6,479.4,306.6,480.6z"/>
			<path id="XMLID_322_" class="st35" d="M315.4,474.6c0,0.7-0.5,1.2-1.2,1.2c-0.7,0-1.2-0.5-1.2-1.2c0-0.7,0.5-1.2,1.2-1.2
				C314.8,473.4,315.4,473.9,315.4,474.6z M315.1,484.2h-1.9V477h1.9V484.2z"/>
			<path id="XMLID_320_" class="st35" d="M318.3,479.5l2.7-2.6h2.4l-3.5,3.4l3.5,3.8h-2.4l-2.7-2.9v2.9h-1.9v-10.7h1.9V479.5z"/>
		</g>
		<g>
			<path class="st35" d="M186.7,484.1V483c-0.5,0.7-1.4,1.2-2.4,1.2c-1.8,0-3.1-1.4-3.1-3.7c0-2.3,1.3-3.7,3.1-3.7
				c1,0,1.8,0.5,2.4,1.2v-3.8h1.1v9.8H186.7z M186.7,482.2V479c-0.4-0.6-1.2-1.1-2.1-1.1c-1.4,0-2.3,1.2-2.3,2.7
				c0,1.6,0.8,2.7,2.3,2.7C185.5,483.3,186.3,482.8,186.7,482.2z"/>
			<path class="st35" d="M189.2,480.5c0-2.1,1.5-3.7,3.5-3.7c2.1,0,3.4,1.7,3.4,3.8v0.3h-5.7c0.1,1.3,1,2.4,2.5,2.4
				c0.8,0,1.6-0.3,2.2-0.9l0.5,0.7c-0.7,0.7-1.7,1.1-2.8,1.1C190.8,484.3,189.2,482.8,189.2,480.5z M192.7,477.8
				c-1.5,0-2.3,1.3-2.3,2.4h4.6C195,479.1,194.3,477.8,192.7,477.8z"/>
			<path class="st35" d="M196.9,483.2l0.6-0.8c0.5,0.5,1.4,1,2.3,1c1.1,0,1.7-0.5,1.7-1.2c0-1.7-4.4-0.7-4.4-3.3c0-1.1,1-2,2.6-2
				c1.2,0,2.1,0.5,2.6,1l-0.5,0.8c-0.4-0.5-1.2-0.9-2.1-0.9c-1,0-1.6,0.5-1.6,1.1c0,1.6,4.4,0.5,4.4,3.3c0,1.2-1,2.1-2.8,2.1
				C198.6,484.3,197.6,483.9,196.9,483.2z"/>
			<path class="st35" d="M203.8,475.3c0-0.4,0.3-0.7,0.7-0.7c0.4,0,0.7,0.3,0.7,0.7c0,0.4-0.3,0.7-0.7,0.7
				C204.1,476,203.8,475.7,203.8,475.3z M204,484.1V477h1.1v7.1H204z"/>
			<path class="st35" d="M206.9,485.9l0.6-0.8c0.6,0.7,1.3,1,2.3,1c1.2,0,2.3-0.6,2.3-2.1v-1c-0.5,0.7-1.4,1.3-2.4,1.3
				c-1.8,0-3.1-1.4-3.1-3.7c0-2.3,1.3-3.7,3.1-3.7c1,0,1.8,0.5,2.4,1.2V477h1.1v6.9c0,2.3-1.6,3.1-3.4,3.1
				C208.6,487,207.7,486.7,206.9,485.9z M212,482.1V479c-0.4-0.6-1.2-1.1-2.1-1.1c-1.4,0-2.3,1.1-2.3,2.7c0,1.6,0.8,2.7,2.3,2.7
				C210.8,483.2,211.6,482.7,212,482.1z"/>
			<path class="st35" d="M219.7,484.1v-4.6c0-1.2-0.6-1.6-1.6-1.6c-0.9,0-1.7,0.5-2.1,1.1v5.2H215V477h1.1v1
				c0.5-0.6,1.5-1.2,2.5-1.2c1.5,0,2.3,0.7,2.3,2.3v5H219.7z"/>
			<path class="st35" d="M222.2,480.5c0-2.1,1.5-3.7,3.5-3.7c2.1,0,3.4,1.7,3.4,3.8v0.3h-5.7c0.1,1.3,1,2.4,2.5,2.4
				c0.8,0,1.6-0.3,2.2-0.9l0.5,0.7c-0.7,0.7-1.7,1.1-2.8,1.1C223.8,484.3,222.2,482.8,222.2,480.5z M225.7,477.8
				c-1.5,0-2.3,1.3-2.3,2.4h4.6C228,479.1,227.3,477.8,225.7,477.8z"/>
			<path class="st35" d="M235.7,484.1V483c-0.5,0.7-1.4,1.2-2.4,1.2c-1.8,0-3.1-1.4-3.1-3.7c0-2.3,1.3-3.7,3.1-3.7
				c1,0,1.8,0.5,2.4,1.2v-3.8h1.1v9.8H235.7z M235.7,482.2V479c-0.4-0.6-1.2-1.1-2.1-1.1c-1.4,0-2.3,1.2-2.3,2.7
				c0,1.6,0.8,2.7,2.3,2.7C234.4,483.3,235.3,482.8,235.7,482.2z"/>
			<path class="st35" d="M242,484.1v-9.8h1.1v3.8c0.6-0.8,1.4-1.2,2.4-1.2c1.8,0,3.1,1.5,3.1,3.7c0,2.3-1.3,3.7-3.1,3.7
				c-1,0-1.9-0.5-2.4-1.2v1.1H242z M245.2,483.3c1.4,0,2.3-1.2,2.3-2.7c0-1.6-0.8-2.7-2.3-2.7c-0.9,0-1.7,0.5-2.1,1.1v3.2
				C243.5,482.8,244.4,483.3,245.2,483.3z"/>
			<path class="st35" d="M249.8,485.9c0.2,0.1,0.4,0.1,0.6,0.1c0.5,0,0.8-0.2,1.1-0.7l0.5-1.1l-3-7.1h1.2l2.4,5.8l2.3-5.8h1.2
				l-3.5,8.5c-0.4,1-1.1,1.4-2.1,1.4c-0.2,0-0.6,0-0.8-0.1L249.8,485.9z"/>
		</g>
	</g>
</g>
</svg>
