<?xml version="1.0" encoding="utf-8"?>
<!-- Generator: Adobe Illustrator 21.0.2, SVG Export Plug-In . SVG Version: 6.00 Build 0)  -->
<svg version="1.1" id="Layer_1" xmlns="http://www.w3.org/2000/svg" xmlns:xlink="http://www.w3.org/1999/xlink" x="0px" y="0px"
	 viewBox="0 0 792 612" style="enable-background:new 0 0 792 612;" xml:space="preserve">
<style type="text/css">
	.st0{display:none;}
	.st1{display:inline;fill:#1C798A;}
	.st2{display:inline;fill:#566463;}
	.st3{display:inline;}
	.st4{fill:#1C798A;}
	.st5{fill:#566463;}
	.st6{fill:#3D465A;}
	.st7{fill:#A0685D;}
	.st8{display:inline;fill:#3D465A;}
	.st9{display:inline;fill:#A0685D;}
	.st10{fill:#F7F8F8;}
	.st11{fill:#E3E3E3;}
	.st12{fill:#7EB5DB;}
	.st13{fill:#FFFFFF;}
	.st14{fill:#D7E7F3;}
	.st15{opacity:0.36;}
	.st16{fill:#EEB91D;}
	.st17{display:inline;fill:#282828;}
	.st18{font-family:'Calibri';}
	.st19{font-size:9.9942px;}
	.st20{font-family:'Raleway-Regular';}
	.st21{font-size:39.8419px;}
	.st22{fill-rule:evenodd;clip-rule:evenodd;fill:#28282B;}
	.st23{fill-rule:evenodd;clip-rule:evenodd;fill:#95AED3;}
	.st24{fill-rule:evenodd;clip-rule:evenodd;fill:#1B1B1B;}
	.st25{fill-rule:evenodd;clip-rule:evenodd;fill:#597499;}
	.st26{fill-rule:evenodd;clip-rule:evenodd;fill:#34312A;}
	.st27{fill-rule:evenodd;clip-rule:evenodd;fill:#EF9149;}
	.st28{fill-rule:evenodd;clip-rule:evenodd;fill:#F2AE6E;}
	.st29{fill-rule:evenodd;clip-rule:evenodd;fill:#42404B;}
	.st30{fill-rule:evenodd;clip-rule:evenodd;fill:#3E3E43;}
	.st31{fill-rule:evenodd;clip-rule:evenodd;fill:#020202;}
	.st32{fill-rule:evenodd;clip-rule:evenodd;fill:#597399;}
	.st33{fill-rule:evenodd;clip-rule:evenodd;fill:#251D1E;}
	.st34{fill-rule:evenodd;clip-rule:evenodd;fill:#D6D4C5;}
	.st35{fill-rule:evenodd;clip-rule:evenodd;fill:#121113;}
	.st36{fill-rule:evenodd;clip-rule:evenodd;fill:#6F89AF;}
	.st37{fill-rule:evenodd;clip-rule:evenodd;fill:#EA9656;}
	.st38{fill-rule:evenodd;clip-rule:evenodd;fill:#657FA4;}
	.st39{fill-rule:evenodd;clip-rule:evenodd;fill:#F0924A;}
	.st40{fill-rule:evenodd;clip-rule:evenodd;fill:#C6C3B0;}
	.st41{fill-rule:evenodd;clip-rule:evenodd;fill:#FFC966;}
	.st42{opacity:0.2;fill-rule:evenodd;clip-rule:evenodd;fill:#95AED3;}
	.st43{fill-rule:evenodd;clip-rule:evenodd;fill:#F5F6F6;}
	.st44{fill-rule:evenodd;clip-rule:evenodd;fill:#64625A;}
	.st45{fill-rule:evenodd;clip-rule:evenodd;fill:none;stroke:#1B1B1B;stroke-width:3.7807;stroke-miterlimit:10;}
	
		.st46{fill-rule:evenodd;clip-rule:evenodd;fill:none;stroke:#F5F6F6;stroke-width:3.3607;stroke-linecap:round;stroke-miterlimit:10;}
	
		.st47{fill-rule:evenodd;clip-rule:evenodd;fill:none;stroke:#EAC6A0;stroke-width:3.3607;stroke-linecap:round;stroke-miterlimit:10;}
	.st48{fill-rule:evenodd;clip-rule:evenodd;fill:#EC7A2C;}
	.st49{fill-rule:evenodd;clip-rule:evenodd;fill:#37332B;}
	.st50{fill-rule:evenodd;clip-rule:evenodd;fill:#E9E4E0;}
	.st51{fill-rule:evenodd;clip-rule:evenodd;fill:#CCC2B9;}
	.st52{fill-rule:evenodd;clip-rule:evenodd;fill:#39342B;}
	.st53{fill-rule:evenodd;clip-rule:evenodd;fill:#E9E5E3;}
	.st54{fill-rule:evenodd;clip-rule:evenodd;fill:#CEAB90;}
	.st55{fill-rule:evenodd;clip-rule:evenodd;fill:#EC7B2A;}
	.st56{fill-rule:evenodd;clip-rule:evenodd;fill:#802A1E;}
	.st57{fill-rule:evenodd;clip-rule:evenodd;fill:#8A4725;}
	.st58{fill-rule:evenodd;clip-rule:evenodd;fill:#595248;}
	.st59{fill-rule:evenodd;clip-rule:evenodd;fill:#121014;}
	.st60{fill-rule:evenodd;clip-rule:evenodd;fill:#3F4344;}
	.st61{fill-rule:evenodd;clip-rule:evenodd;fill:#F4AF6E;}
	.st62{fill-rule:evenodd;clip-rule:evenodd;fill:#2C2E2C;}
	.st63{fill-rule:evenodd;clip-rule:evenodd;fill:#812A26;}
	.st64{fill-rule:evenodd;clip-rule:evenodd;fill:#5C2E2D;}
	.st65{fill-rule:evenodd;clip-rule:evenodd;fill:#EC7A2A;}
	.st66{fill-rule:evenodd;clip-rule:evenodd;fill:#BDB8AB;}
	.st67{fill-rule:evenodd;clip-rule:evenodd;fill:#615649;}
	.st68{fill-rule:evenodd;clip-rule:evenodd;fill:#999487;}
	
		.st69{fill-rule:evenodd;clip-rule:evenodd;fill:none;stroke:#595248;stroke-width:2.2878;stroke-linejoin:round;stroke-miterlimit:10;}
	.st70{fill-rule:evenodd;clip-rule:evenodd;fill:#595248;stroke:#595248;stroke-width:2.2878;stroke-miterlimit:10;}
	.st71{fill-rule:evenodd;clip-rule:evenodd;}
	.st72{fill-rule:evenodd;clip-rule:evenodd;fill:#A59E90;}
	.st73{fill-rule:evenodd;clip-rule:evenodd;fill:#D0CABF;}
	.st74{fill-rule:evenodd;clip-rule:evenodd;fill:#ECECEC;}
	.st75{fill-rule:evenodd;clip-rule:evenodd;fill:#A4AAB9;}
	
		.st76{fill-rule:evenodd;clip-rule:evenodd;fill:none;stroke:#595248;stroke-width:1.9065;stroke-linejoin:round;stroke-miterlimit:10;}
	.st77{fill-rule:evenodd;clip-rule:evenodd;fill:#F39E1E;}
	.st78{fill-rule:evenodd;clip-rule:evenodd;fill:#F7D854;}
	.st79{fill-rule:evenodd;clip-rule:evenodd;fill:none;stroke:#F39E1E;stroke-width:1.9065;stroke-miterlimit:10;}
	.st80{fill-rule:evenodd;clip-rule:evenodd;fill:#8A4D36;}
	.st81{fill-rule:evenodd;clip-rule:evenodd;fill:#121014;stroke:#121014;stroke-width:0.7626;stroke-miterlimit:10;}
</style>
<g class="st0">
	<polygon class="st1" points="717.5,331.2 719.7,383.9 713.1,473.4 703.1,474.1 691,392.8 674.3,324 	"/>
	<polygon class="st2" points="703.5,478.3 714.6,482.9 719.6,477.2 713.9,472.2 703.1,472.9 	"/>
	<g class="st3">
		<polygon class="st4" points="647,312.6 644.8,352.4 651.3,470.7 661.3,471.2 676.2,393.6 689.4,308.5 		"/>
		<polygon class="st5" points="661,475.4 649.9,480.3 644.8,474.6 650.5,469.5 661.3,470 		"/>
	</g>
	<g class="st3">
		<path class="st6" d="M720.1,198.7l-30.1-8.5c0,0-17.4-1.1-35.8,37.5c-10.3,21.5-18.2,56.7-23.3,83.7c0.1,4,1.4,21.6,19.7,21.8
			c31.4,0.2,48.5-1.9,61.4,2.8c10.9,4.4,12.6-11.4,13.4-23.5l1.7-37.6L720.1,198.7z"/>
	</g>
	<g class="st3">
		<path class="st7" d="M720.6,159.5c-7.4-3-15.1-5.9-23.1-5.7c-1.8,0-3.7,0.3-4.8,1.6c-0.5,0.5-0.8,1.1-1,1.7
			c-3.2,6.9-7.5,17.3-3.8,24.8c0.7,1.4,1.7,2.7,2.9,3.7c1.6,1.4,3.4,2.5,5.3,3.2c-0.7,1.7-1.6,3.4-2.6,5c1.3,3,9.5,4.7,11.5,2.4
			c0.5-2.2,0.9-4.4,1.4-6.6c1.1-0.2,2.1-0.6,3.1-1c3.9-1.7,6.8-4.9,8.9-8.6c2.2-4,5-7.8,7-11.9c0.8-1.5,1.5-3.3,0.9-4.9
			c-0.6-1.7-2.5-2.5-4.1-3.2C721.6,159.8,721.1,159.7,720.6,159.5z"/>
		<path class="st6" d="M694.2,159.3c4.2-1.8,10.2-1.9,13.7-1c10.7,2.6,13.4,11.3,12.3,21.4c3.6-3.3,10.1-7.1,11.2-12
			c1-4,1.3-9.5-0.3-13.4c-1.6-3.6-6.6-6.3-9.5-8.7c-2.7-2.3-5.4-4.6-8.1-6.8c-0.6-0.5-1.1-1-1.8-1.2c-0.8-0.3-1.7-0.2-2.6-0.1
			c-7.4,0.6-14.9,1.3-22.3,1.9c-1.4,0.1-3.1,0.4-3.8,1.6c-0.4,0.8-0.4,1.7-0.4,2.5c0.2,3.8,1.1,7.9,0.8,11.7
			c0.1,2.2-0.5,13.6,3.5,13c1.4-1.7,2-3.9,3.2-5.7C691,161,692.5,160,694.2,159.3z"/>
	</g>
	<polygon class="st8" points="690,190.2 678,191.7 629.3,228.1 624.4,242 638.7,278 646,266.9 641.7,241.3 656.6,234.2 681.2,197.3 
			"/>
	<polygon class="st8" points="713.1,200.2 738.1,181 743.6,118.4 753.5,115.9 755.5,180.6 749,195.6 719.9,224.2 	"/>
	<polygon class="st9" points="751.4,116.4 752.4,110.8 747.3,101 742.2,104.3 743.8,112.4 741.5,114.7 743.6,118.4 	"/>
	<g class="st3">
		<path class="st10" d="M364.2,454.6c-22.6,0.1-45.2,0.8-67.7,3.9c-8.5,1.2-16.8,3.7-25.3,4.8c-17,2.1-33.7,5.9-50.8,7.7
			c-13.7,1.4-27.6,2.3-41.3,4.1c-12.9,1.7-27.1,1.3-39.8-1.5c-9.4-2.1-18.9-3.3-28.2-6.6c-10.4-3.8-21.7-6.4-32.5-6.3
			c-15.4,0.1-30.5,0.2-45.2,6.8c-5.2,2.3-11.5,6.2-15.5,11c-9,11.2-10.2,39.1-1.2,50.7c15.2,19.5,47.5,27.2,68.7,27.6
			c23.3,0.4,45.9-1.7,69.2-3c21.7-1.2,43.3-2.8,65-2.8c44.3,0.1,88.6,0,132.9-3.7c41.6-3.4,83.2-2.3,124.9-2.3
			c42.7,0,85.1,0.4,127.5,7.4c18.5,3.1,37.3,4.1,55.9,6.3c16.6,1.9,32.6,0,49.2-1.8c13.9-1.5,27.7-5.9,40.4-13.4
			c10-5.9,27.8-24.3,30.9-38.4c8.6-39.6-121.2-38.7-141.1-38.6c-22.3,0.1-44.8,1-67,0c-9.4-0.4-18.6-2.7-27.7-5.2
			c-9.1-2.5-18.3-1.8-27.5-2.9c-38.5-4.3-77.1-3.7-115.8-3.7C389.4,454.7,376.8,454.6,364.2,454.6z"/>
	</g>
	<g class="st3">
		<rect x="84.4" y="109.4" class="st11" width="586.5" height="370"/>
		<rect x="84.4" y="80.6" class="st4" width="586.5" height="22.2"/>
		<rect x="84.4" y="102.8" class="st12" width="586.5" height="29.1"/>
		<rect x="145.1" y="113.4" class="st13" width="498.8" height="12.4"/>
		<g>
			<ellipse class="st10" cx="105.2" cy="90.7" rx="3.7" ry="3.7"/>
			<ellipse class="st14" cx="116.1" cy="90.7" rx="3.7" ry="3.7"/>
			<ellipse class="st12" cx="127" cy="90.7" rx="3.7" ry="3.7"/>
		</g>
		<g class="st15">
			<polygon class="st13" points="124.8,113.7 124.8,125.6 129.2,119.7 			"/>
			<polygon class="st13" points="107.3,125.6 107.3,113.7 103,119.7 			"/>
		</g>
	</g>
	<g class="st3">
		<g id="XMLID_279_">
			<circle id="XMLID_294_" class="st16" cx="205.5" cy="278.9" r="44"/>
			<path id="XMLID_280_" class="st13" d="M237.4,265.4c-1.7-4.1-4.2-7.8-7.4-11c-3.2-3.2-6.9-5.7-11-7.4c-4.3-1.8-8.8-2.7-13.5-2.7
				c-4.7,0-9.2,0.9-13.5,2.7c-4.1,1.7-7.8,4.2-11,7.4c-3.2,3.2-5.7,6.9-7.4,11c-1.8,4.3-2.7,8.8-2.7,13.5c0,4.7,0.9,9.2,2.7,13.5
				c1.7,4.1,4.2,7.8,7.4,11c3.2,3.2,6.9,5.7,11,7.4c4.3,1.8,8.8,2.7,13.5,2.7c4.7,0,9.2-0.9,13.5-2.7c4.1-1.7,7.8-4.2,11-7.4
				c3.2-3.2,5.7-6.9,7.4-11c1.8-4.3,2.7-8.8,2.7-13.5C240.1,274.2,239.2,269.7,237.4,265.4z M188.7,277.8c0-2.7,0.3-5.4,0.9-7.9
				h14.2v16.5h-14.1C189,283.5,188.7,280.7,188.7,277.8z M214.2,255c2.5,2.9,4.5,6.1,5.9,9.5c0.3,0.6,0.5,1.2,0.7,1.9h-13.6v-17.8
				C208.9,249.8,211.5,251.9,214.2,255z M203.8,249v17.4h-13.1c0.2-0.6,0.4-1.2,0.7-1.8c1.4-3.3,3.4-6.5,5.9-9.4
				C199.6,252.3,202.1,250.2,203.8,249z M203.8,289.8v18.7c-1.7-1.4-4-3.7-6.4-6.8c-2.5-3.2-4.5-6.7-6-10.2
				c-0.2-0.5-0.4-1.1-0.6-1.6H203.8z M207.2,308.9v-19.1h13.5c-0.2,0.5-0.4,1.1-0.6,1.6c-1.4,3.5-3.4,7-5.9,10.2
				C211.6,305,208.9,307.5,207.2,308.9z M207.2,286.3v-16.5h14.6c0.6,2.6,0.9,5.2,0.9,7.9c0,2.9-0.3,5.7-1,8.5H207.2z M225.4,269.9
				h9.9c0.9,2.9,1.3,5.9,1.3,9c0,2.5-0.3,5-0.9,7.5h-10.4c0.6-2.8,0.9-5.7,0.9-8.5C226.3,275.1,226,272.4,225.4,269.9z M227.5,256.8
				c2.8,2.8,5,6,6.5,9.5h-9.5c-0.3-1.1-0.7-2.2-1.2-3.2c-1.6-3.7-3.7-7.2-6.5-10.4c-1.4-1.7-2.8-3-4.1-4.2
				C218.3,249.9,223.4,252.7,227.5,256.8z M183.5,256.8c4.3-4.3,9.6-7.2,15.4-8.4c-1.3,1.2-2.8,2.6-4.3,4.3
				c-2.7,3.2-4.9,6.7-6.5,10.4c-0.5,1.1-0.8,2.1-1.2,3.2h-10C178.5,262.9,180.7,259.6,183.5,256.8z M175.7,269.9H186
				c-0.6,2.6-0.8,5.2-0.8,7.9c0,2.9,0.3,5.7,0.9,8.5h-10.9c-0.6-2.4-0.9-4.9-0.9-7.5C174.4,275.8,174.8,272.7,175.7,269.9z
				 M183.5,300.9c-3.2-3.2-5.6-7-7.1-11.1h10.7c0.3,1,0.7,2,1.1,3c1.6,3.8,3.7,7.6,6.4,11.1c1.8,2.3,3.5,4.2,5.1,5.6
				C193.5,308.3,188,305.4,183.5,300.9z M227.5,300.9c-4.3,4.3-9.7,7.2-15.6,8.5c1.5-1.4,3.2-3.3,4.9-5.5c2.7-3.5,4.9-7.2,6.4-11.1
				c0.4-1,0.7-2,1.1-3h10.3C233.1,293.9,230.7,297.7,227.5,300.9z"/>
		</g>
	</g>
	<g id="arrow" class="st3">
		<g>
			<path class="st13" d="M667.1,376.9c-0.7,0-1.3-0.3-1.8-0.7l-17.8-18.2l-11,14c-0.4,0.6-1.1,0.9-1.8,0.9c-1.1,0-2.2-0.8-2.6-1.8
				l-26.4-71.2c-0.3-0.9-0.1-1.9,0.6-2.6c0.4-0.5,1.1-0.9,1.7-0.9c0.3,0,0.6,0.1,0.9,0.2l70.5,28.2c1,0.4,1.6,1.2,1.7,2.1
				c0.1,0.9-0.3,1.9-1.1,2.5l-14.1,10.4l17.7,18.2c0.5,0.5,0.7,1.1,0.7,1.8c0,0.7-0.3,1.4-0.7,1.8l-14.9,14.5
				C668.5,376.6,667.8,376.9,667.1,376.9L667.1,376.9z M647.3,351.5c0.7,0,1.4,0.3,1.9,0.8l18,18.5l11.2-10.9l-18-18.4
				c-0.5-0.5-0.8-1.2-0.7-2c0.1-0.8,0.5-1.5,1.1-2l12.7-9.5l-60.9-24.4l22.8,61.5l10-12.8C645.9,351.8,646.5,351.5,647.3,351.5z"/>
			<g>
				<path class="st13" d="M684.6,357.2l-6.5-6.6L667.8,340l13-9.7c1.1-0.9,1.7-2.2,1.6-3.5c-0.2-1.4-1.1-2.5-2.4-3l-24-9.6l-21-8.4
					l-16.8-6.7l-4.3-1.7l-4.3-1.7c-0.4-0.2-0.9-0.3-1.4-0.3c-1,0-1.9,0.4-2.6,1.2c-1,1-1.3,2.4-0.8,3.7l8.5,23l0.4,1.2l0.6,1.7
					l13.6,36.6l1.6,4.4l1.6,4.4c0.5,1.5,2.1,2.5,3.6,2.5c1,0,2-0.5,2.7-1.3l5.9-7.5l4.3-5.5l3.9,4l10.5,10.8l1.2,1.2l1.2,1.2
					c0.7,0.7,1.6,1.1,2.6,1.1c1,0,1.9-0.4,2.6-1.1l4.3-4.2l10.6-10.3c0.7-0.7,1.1-1.7,1.1-2.7C685.7,358.8,685.3,357.9,684.6,357.2z
					 M683,360.8c-5,4.8-9.9,9.7-14.9,14.5c-0.3,0.3-0.7,0.4-1,0.4c-0.4,0-0.7-0.1-1-0.4c-0.8-0.8-1.6-1.7-2.4-2.5
					c-5.4-5.5-10.8-11.1-16.2-16.6c-3.9,5-7.8,10-11.8,15.1c-0.3,0.3-0.6,0.5-0.9,0.5c-0.6,0-1.3-0.5-1.5-1.1
					c-1.1-2.9-2.2-5.8-3.3-8.8c-4.7-12.7-9.5-25.5-14.2-38.2c-3-8.1-6-16.1-9-24.2c-0.2-0.6,0-1.1,0.3-1.4c0.2-0.3,0.5-0.5,0.9-0.5
					c0.2,0,0.3,0,0.5,0.1c2.9,1.2,5.8,2.3,8.7,3.5c12.6,5,25.3,10.1,37.9,15.1c8,3.2,16,6.4,24,9.6c1.2,0.5,1.4,1.9,0.4,2.6
					c-5,3.7-10.1,7.5-15.1,11.2c0.4,0.4,0.8,0.9,1.3,1.3c5.8,5.9,11.6,11.9,17.3,17.8C683.5,359.3,683.6,360.3,683,360.8z"/>
				<path class="st13" d="M661.2,340.6c-0.7-0.7-0.5-1.7,0.3-2.3c4.8-3.6,9.6-7.1,14.4-10.7c-2-0.8-4.1-1.6-6.1-2.5
					c-12.6-5-25.3-10.1-37.9-15.1c-7-2.8-14.1-5.6-21.1-8.4c0.7,1.9,1.4,3.9,2.2,5.8c4.7,12.7,9.5,25.5,14.2,38.2
					c2.7,7.2,5.4,14.5,8.1,21.7c3.7-4.8,7.5-9.6,11.2-14.3c0.2-0.3,0.6-0.4,1-0.4c0.4,0,0.8,0.2,1.1,0.4c0.8,0.8,1.6,1.7,2.4,2.5
					c5.5,5.6,10.9,11.2,16.4,16.8c4.3-4.2,8.5-8.3,12.8-12.5c-0.5-0.5-0.9-1-1.4-1.4C672.8,352.4,667,346.5,661.2,340.6z
					 M667.2,369.1l-6.6-6.8l-8.2-8.4l-1.2-1.2l-1.2-1.2c-0.7-0.7-1.7-1.1-2.7-1.1c-1.1,0-2.1,0.5-2.7,1.3l-4.5,5.7l-4.2,5.4
					l-2.6-7.1l-4-10.8l-0.7-1.8L615,306.6l-0.4-1.1l11.6,4.6l4.8,1.9l18.9,7.6l18.9,7.6l2.4,1l-3.9,2.9l-7.2,5.3
					c-0.9,0.7-1.5,1.7-1.6,2.8c-0.1,1.1,0.3,2.1,1,2.8l8.2,8.4l9,9.2L667.2,369.1z"/>
			</g>
		</g>
		<polygon class="st4" points="608.2,299.1 634.7,370.3 647.4,354 667.1,374.3 674.6,367.1 682,359.8 662.2,339.5 678.7,327.3 		"/>
	</g>
	<text transform="matrix(1 0 0 1 148.287 123.0114)" class="st17 st18 st19">https://www.subletor.com</text>
	<text transform="matrix(1 0 0 1 261.0169 286.7077)" class="st1 st20 st21">www.subletor.com</text>
</g>
<g>
	<g>
		<g id="eUKhNy_2_">
			<g>
				<path class="st22" d="M544.1,575.5c0.1-1.4-0.6-1.7-1.8-1.4c-1.8,0.5-2.3-0.3-2.3-2.1c0-5.6-0.7-11.1-2-16.6
					c-0.4-1.5,0-2.4,1.3-3c1.2-0.5,1.4-1.2,1.2-2.5c-2-14.9-2.3-29.9-2.6-45c-0.1-6.8-0.5-13.6-1.7-20.5c-1.3-7.4-1.2-15-1.6-22.5
					c-0.4-7.7-1.8-15.3-2.9-23c-1.4-10.3-2.7-20.5-3.8-30.8c-1.5-13.5-2.6-27.1-4.7-40.5c-0.3-1.8-0.7-2.5-2.6-1.8
					c-1.6,0.6-3.3,0.8-5,1.1c-0.9,0.2-1.3,0.6-1.2,1.5c0.3,7.8-1.4,15.5-2.2,23.2c-1.4,13.8-3,27.7-4.5,41.5
					c-1.1,10.7-2.2,21.3-3.2,32c-0.9,9.8-1.6,19.7-2.3,29.5c-1.2,18.1-1.7,36.1-2.2,54.2c0,1.4,0.2,2.5,1.4,3.5
					c2.2,2,2.8,4.7,2.9,7.5c0.2,5.3-0.6,10.5-0.7,15.8c0,1.2-0.7,1.7-2,1.6c-2.1-0.2-4.2-0.3-6.2-0.3c-0.6,0-1.2-0.2-1.7,0.4
					c-2.5-0.2-5-0.4-7.5-0.2c-1.8-0.2-3.7,0.4-5.5-0.4c-0.9-0.9-0.8-2-0.8-3.1c-0.2-4.8,0.8-9.4,1.3-14.1c0.7-7.1,1.3-14.2,1.7-21.3
					c0.4-7,0.9-14.1,1.3-21.1c0.3-5,0.7-10,0.9-15.1c1.5-35.4,0.2-70.8,0.8-106.2c0.2-10.1,0.2-20.2,0.7-30.3
					c0.6-11.1,0.9-22.3,2.5-33.4c0.4-2.6,1-5.2,1.7-7.7c0.4-1.3,0.1-1.8-1.3-1.8c-1,0-2.1,0.2-3-0.4c0.4-1,0.4-1,1.8-1.1
					c3.2-0.1,6.3,0,9.5,0c0.7,0,1.3,0,2,0c1.3,0,1.9-0.6,1.9-1.9c0-1-0.1-1.9-0.1-2.9c0.3-2.7-0.1-5.4,0.7-8c0.6-0.8,1-0.1,1.2,0.3
					c1.3,1.8,3,2.2,5,1.7c1.7-0.4,3.1-0.1,4.4,1c1.5,1.3,3.4,1.7,5.3,0.9c1.3-0.5,2.6-0.6,4-0.2c2.1,0.5,3.6-0.2,4.7-1.9
					c0.5-0.8,1-1.7,2-2.1c2.9-0.2,5.9-0.6,8.8-0.6c1.9,0,3.5-0.3,4.9-1.7c0.8-0.5,1.7-0.5,2.6-0.5c5.4,0,11.7-0.7,17-1.7
					c1.2-0.2,0.9,2.8,0.9,3c-0.5,12.2,2,24.2,3,36.3c1.6,18.9,2.1,37.7,1.3,56.6c-0.6,15.8-1.1,31.5-1.8,47.3
					c-0.9,20.7,0.3,41.3,1.7,61.9c0.7,10.5,0.7,21.1,1.8,31.5c0.1,0.9,0.3,1.8,0.2,2.7c-0.2,2.5,0.2,4.5,3.1,5.3
					c0.9,0.2,1.4,1.1,1.3,2.3c-0.7,5.8-1.1,11.7-1.4,17.6c-0.2,3.3-0.2,3.5-3.5,3.5c-1.6,0-2.4,0.6-2.8,2c-0.2,0-0.4,0-0.5-0.2
					c-0.1-0.7-0.5-0.9-1.3-0.9c-2.5,0.1-5,0.3-7.5,0.6c-3.3,0.4-6.7,0.6-10,1c-1,0.1-1.8,0.4-2.2,1.3
					C544.5,575.6,544.3,575.6,544.1,575.5z"/>
				<path class="st23" d="M523.5,132.6c0.4-0.9,7.6,0.2,8.6,2.5c1.4,3.2,3.6,3.4,7.1,4.8c0,0,0.1,0.1,0.1,0.1
					c-0.4,2.6,1.5,3.4,3.3,4.1c5.4,2.2,10.9,4.3,16.1,7c0.7,0.4,1.4,0.2,2.1,0.5c0.2,0.3,3.5,1,7.1,7.6c3.5,6,7.4,11.8,10,18.4
					c5.2,13.2,8.8,26.7,11.6,40.5c1.6,7.7,2.9,15.5,3.9,23.3c0.8,6.2,1.2,12.4,1.6,18.6c1.2,19.7,1.1,39.3,1.1,59
					c-0.4,0.5-1.1,0.5-1.7,0.5c-3.3,0-6.5,0-9.8,0c-1.9,0-2.3-0.4-2.3-2.3c-0.1-3.5-0.3-7-0.3-10.5c-0.1-9.4-0.4-18.9-0.9-28.3
					c-0.9-17.9-2.3-35.8-5.8-53.5c-1.7-8.8-4-17.5-6.9-25.9c-0.4-1.2-0.8-2.3-1-3.5c-0.1-0.5,0.1-1-0.5-1.8c0.1,0.1-0.1,0.5,0.1,0.4
					c0.1,0,0.2,0.1,0.2,0.2c0.1,0.2,0.1,0.5,0.1,0.7c0.3,3.6-0.3,7.2-0.7,10.8c-1.1,11.3-2.6,22.5-3.5,33.8c0,0.3-0.6,1.7-0.3,0.7
					c-0.8,2.2-0.7,2.8-0.8,4.1c-0.6,6.7-1.7,13.4-1.7,20.2c0,2.4,0.6,4.6,2.4,6.5c2.3,2.5,2.2,6.6,0,9.3c-0.5,0.6-1,1.2-1.6,1.8
					c-4,0.7-8,0.5-12,0.9c-2.8,0.3-5.7,1-8.6,0.7c-0.6-0.1-1-0.5-1.1-1.1c0.3-2.3,1.4-4.3,2.5-6.3c1.6-2.8,1.9-5.6,1.2-8.6
					c-0.9-3.9-1.5-8-2.6-11.8c-1.8-6.3-2-12.8-2.8-19.2c-0.8-6.2-1.5-12.4-2.1-18.6c-0.5-4.9-1.1-9.7-1.1-14.6
					c0.1-0.3,0.2-0.6,0.4-0.8c1.2-1.7,1.2-1.7-0.5-3c-0.3-0.2-0.4-0.4-0.5-0.8c-0.1-7.3-0.7-14.6-1-21.9c-0.1-3.1-0.5-6.1-0.4-9.2
					c0.1-3.5-0.5-7-0.4-10.5c0-1.4-0.8-2.4-1.4-3.6c-0.1-1.7,1.2-1.4,2-1.3c2.4,0.3,4.8,0.2,7.1,0.6c0.9,0.2,2.4,0.6,2.7-0.2
					c0.4-1-1.1-1.1-1.8-1.7c-2.1-2-4.1-4.1-6.1-6.1c-1.2-1.2-2-3-4-3.3c-1.2-0.7-2.6-0.3-3.8-0.9c-0.2-0.2-0.3-0.5-0.1-0.6
					C528.9,139.1,522.5,134.6,523.5,132.6z"/>
				<path class="st24" d="M486.2,322.1c1.6,0,3.2,0,4.8,0c0.8,0,1,0.3,0.7,1c-1.5,4.4-2.3,9-2.8,13.6c-0.4,3.1-0.7,6.2-0.8,9.3
					c-0.5,8.9-1,17.8-1.2,26.7c-0.1,3.2-0.2,6.3-0.3,9.5c-0.8,35.8-0.2,71.6-0.4,107.4c-0.1,7.3-0.6,14.5-1.1,21.8
					c-0.3,3.8-0.5,7.7-0.7,11.5c-0.4,6.9-1,13.7-1.4,20.6c-0.2,4.9-0.7,9.7-1.2,14.6c-0.4,3.7-1,7.4-1.3,11c-0.2,2.5-0.4,5,0.2,7.5
					c-0.7,0.7-1.6,0.5-2.4,0.5c-2,0.1-4.1-0.2-6.1,0.3c-0.7,0.3-0.8-0.4-1.1-0.8c-3.3,0-3.3,0-3.3-3.3c0-6.9,0.4-13.7-0.4-20.6
					c-0.2-1.7,1.1-1.9,2.1-2.2c1.3-0.4,1.5-1.1,1.6-2.4c0.8-16.9-2.6-98.6-2.7-107.6c-0.2-24.1,1.1-48.1,1.4-72.1
					c0.1-13.3,0.5-26.6,0.1-39.9c-0.2-7.5-0.5-15-0.2-22.4c0.4-0.9,1.2-0.7,1.9-0.6c0.8,0.1,1.6,0.1,2.3,0.1
					c2.3,0.2,2.4,0.4,2.6,2.6c0.3,3.5,0.3,7.1,0.7,10.6c0.3,2.4,0.8,2.9,3.3,2.9c1.2,0,2.4,0,3.7,0
					C484.9,321.6,485.7,321.5,486.2,322.1z"/>
				<path class="st25" d="M451.2,162.4c1.8-2.5,3.8-4.8,5.6-7.3c0.9-1.1,1.5-2.2,2.5-3.1c0.9-0.8,1.6-1.2,3.6-1.7
					c1.3-0.4,2,0.7,2.8,1.4c1.7,1.3,3.2,1.3,5,0.3c5.6-3.4,11.5-6.3,17.5-8.9c1.6-0.7,2.6-1.7,2.9-3.4c0.2-1,0.7-2,0.9-3.1
					c-0.6-0.4-1.5,0.1-1.9-0.7c3.1-2,6-4.5,8.9-6.7c0.4-0.2,0.9-0.2,1.2,0c2.5,1.2,5.2,1.9,7.6,3.3c0.1,0.1,0.2,0.3,0.2,0.5
					c-0.8,2.5-2.6,4.4-4,6.5c-0.8,1.2-1.7,2.4-2.6,3.5c-0.7,0.9-0.5,1.5,0.4,2.2c3.8,2.7,7.7,5.3,11.5,7.8c0.9,0.6,1.3,0.3,1.7-0.5
					c1-2.1,2.3-4,3.3-6.2c0.3-0.6,0.6-1.2,1.1-1.7c0.6-0.5,0.8-0.2,1,0.4c0,1.3,1.7,2.3,2.3,3.5c0.3,0.6,1.3,1.9,1.4,2.6
					c1.3,12.7-0.6,25.2-0.9,38c-0.1,3.6,0.7,7.2,0.3,10.8c0,0.2-0.1,0.4-0.2,0.5c-1.7,2.3-1.7,2.3,0.1,4.4c0.3,2.1,0.5,4.3,0.5,6.4
					c0.5,13.6,1.9,27.1,4.3,40.5c1.2,6.9,2.8,13.8,3.3,20.9c0.2,2.2,1.7,3.4,2.7,5c0.3,0.8-0.2,1.3-0.7,1.7c-1.6,1.4-3.3,2.9-5,4.3
					c-0.8,0.7-1.8,1.3-3,1.1c-0.9-0.3-1.5-0.9-1.8-1.9c-0.4-9.3-2.1-18.4-3.3-27.5c-0.3-1.9-0.3-3.9-0.4-5.9
					c-0.7-11.5-0.7-22.9-0.3-34.4c0.4-10.7,0.3-21.3,0.2-32c-0.1-8.6-0.7-17.3-0.6-25.9c0-0.7-0.1-1.5,0.1-2.2
					c-0.5,0.5-0.8,1.1-1.3,1.6c-1.4,1.5-2.8,1.8-4.4,0.6c-3.8-2.8-8-4.8-11.9-7.3c-0.5-0.3-1-0.5-1.4-0.9c-2-2.3-4.2-1.7-6.6-0.7
					c-5,2.2-10.1,4.3-15,6.5c-5.8,2.6-10.8,6.4-15.8,10.1c-0.6,0.4-1,1.1-1.4,1.7c-8.7,13.4-17,27.1-24.8,41.1
					c-5.3,9.4-10.1,18.9-15,28.5c-1.2,2.4-2.3,4.9-3.5,7.3c-1.1,2.1-0.8,4.4-0.9,6.7c0,0.9,0.7,1.4,1.3,1.9c4.2,4,8.7,7.5,13.4,10.9
					c14.2,10.3,29.9,17.6,46.4,23.3c1.4,0.5,2.8,0.9,4.1,1.7c0.2,1.4-0.1,2.6-1.1,3.6c-2.2,0-4.2-0.7-6.3-1.2
					c-1.9-0.4-3.7-1.1-5.6-1.8c-0.7-0.3-1.4-0.6-1.8-1.2c-2.7-1.5-5.6-2.4-8.4-3.7c-12.2-5.4-22.7-9.8-34.3-16.4
					c-3.5-2-11-7.2-16-14C398,237.7,440.3,177.6,451.2,162.4z"/>
				<path class="st25" d="M563.1,240.5c-0.7-1.8-0.1-3.6,0.1-5.4c0.6-6.2,1.4-12.4,2.1-18.6c0.6-5.5,1.1-10.9,1.6-16.4
					c0.2-1.8,0.3-3.5,0.4-5.3c0.4-0.2,0.5,0.1,0.7,0.3c3.5,10,6.4,20.2,8.3,30.6c1.3,7.1,2.4,14.2,3.1,21.4c1,9.5,1.8,19,2.3,28.5
					c0.3,5.8,0.5,11.6,0.7,17.4c0.3,8.3,0.5,16.5,0.7,24.8c0,1.1,0.4,1.5,1.5,1.5c3.9-0.1,7.8,0,11.8,0c0.3,0.2,0.9-0.2,1.1,0.4
					c-0.7,0.7-1.6,0.6-2.4,0.6c-6.6,0-13.2,0-19.8,0c-0.8,0-1.7,0.1-2.4-0.6c0.2-7.9-0.1-15.8-0.4-23.7c-0.4-8.9-1.2-17.7-2.4-26.5
					c-1.3-9.5-3.5-18.7-6.5-27.8C563.3,241.2,563.2,240.8,563.1,240.5z"/>
				<path class="st24" d="M544.1,575.5c0.1,0,0.2,0,0.3,0c0.1,0,0.1-0.1,0.2,0c2.9,1.3,5.8,1.1,8.7,0.2c8.4,2.5,16.8,5.4,25.2,7.9
					c5.8,1.7,11.7,3.1,17.7,4.2c2.8,0.5,5.5,0,8.2-0.6c1-0.2,2-0.5,3,0.1c1.1,1.6,0.9,3-0.5,4.4c-7.4,0.9-14.9,1.3-22.4,1
					c-6.9-0.3-13.8-0.7-20.7-1.3c-5.2-0.4-10.4-1-15.6-1.3c-1.5-0.1-3-0.1-4.3-0.9c-0.5-0.8-0.4-1.7-0.4-2.5
					C543.8,582.9,544,579.2,544.1,575.5z"/>
				<path class="st26" d="M572.7,319.5c8.2,0,16.4,0,24.7,0c0.1,5.1-0.3,10.3,0.3,15.4c0.2,1.7-1.5,0.4-2.2,0.9
					c-0.6,0.6-1.5,0.5-2.3,0.5c-4.8,0-9.7,0-14.5,0c-1.3-0.1-2.7,0.4-3.9-0.5c-3.2-0.2-3.2-0.2-3.1-3.5c0.1-3.8,0.3-7.7-0.2-11.5
					C571.5,319.8,571.8,319.5,572.7,319.5z"/>
				<path class="st27" d="M574.9,335.8c1.3,0,2.5,0,3.8,0c0.3,0.6,0.2,1.3,0.2,2c-0.1,3.6,0.3,7.2,0.9,11.1c0.7-1.7,1-3.2,1.4-4.7
					c0.3-1.2,0.9-2.1,2.2-2.5c1.3-0.3,2.2,0.4,3.1,1.3c0.7,0.8,1.2,1.7,1.4,2.7c0.7,3.1,1.2,6.1,1.4,9.3c0.2,3.4,0.3,6.9,0.3,10.3
					c0,0.5-0.2,1.1,0.5,1.3c0.5,0.1,0.7-0.4,0.9-0.8c1.4-1.7,2.5-3.4,2.5-5.8c0-0.8,0.1-1.8,1-2.5c0.5,3.6,1.5,7.1,0.4,10.7
					c-3.5,3.6-6.3,7.8-9.4,11.8c-1.1,1.5-2.6,1.8-3.8,1c-1.3-0.9-1.4-2.5-0.4-4.1c0.3-0.5,0.8-1,1.1-1.5c0.3-0.5,0.8-0.9,0.9-1.6
					c-0.7-0.3-1.6,0-2.2-0.6c-1.1-1.1-0.8-2.1,0.1-3.1c1.2-1.2,2.6-2.1,4-2.9c0.9-0.5,1.2-1.1,1.2-2c0-4.2,0-8.5,0-12.7
					c0-1.7-1.5-4.2-2.3-3.8c-1.6,0.8-1.4,2.5-1.2,3.9c0.5,3.9,0.3,7.7-0.6,11.5c-0.3,1.4-0.8,3.2-2.6,3.1c-1.8,0-2.6-1.7-2.8-3.2
					c-0.4-5.5-2.1-10.7-2.8-16.1C573.7,343.9,573.7,339.8,574.9,335.8z"/>
				<path class="st24" d="M471.1,576.6c0.5,0,0.4,0.5,0.8,0.7c0.5,0.2,0.8,0.6,1.1,1c1.8,2,1.8,2,4.3,0.8c1-0.5,2.1-1.1,3.2-1.5
					c0.6-0.2,1.3-0.4,1.9,0c1.8,2.2,4,3.9,6.5,5.3c4.3,2.4,8.6,4.7,13.1,6.6c2.8,1.2,5.7,1.2,8.6,1.6c1,0.1,1.9,0.1,2.9,0.3
					c2.2,0.2,4.3,0,5.8-1.9c0.4,1.7,0.6,3.3-0.7,4.8c-0.8,0.2-1.7,0.2-2.5,0.2c-5,0-10,0.1-15.1,0c-8.7-0.3-17.3-0.9-26-0.7
					c-1.2,0-2.4,0.1-3.6,0.6c-1.3-4.8-0.5-9.7-0.4-14.6C471,578.7,471.1,577.7,471.1,576.6z"/>
				<path class="st28" d="M594.9,368.3c0.1-3.5-0.4-6.9-0.7-10.4c-0.2,1.2-0.4,2.4-0.5,3.6c-0.1,2.7-2.3,4-3.6,6
					c-0.4,0.6-0.9,0.1-1-0.4c-0.1-0.6-0.2-1.3-0.2-2c0-6.2-0.2-12.3-1.5-18.4c-0.3-1.4-0.8-2.7-1.9-3.7c-1.6-1.5-3.4-1-4,1.1
					c-0.6,2.1-1.1,4.2-1.7,6.5c-1-1.3-0.9-2.7-1.1-3.9c-0.4-3.6-1.1-7.3-0.2-10.9c5.6-0.3,11.3-0.1,16.9,0c0.1,4.1,1.3,8,1.7,12
					c0.3,3.5,0.3,7.1-0.1,10.6c-0.1,1.1-0.2,2.2,0,3.3C597.9,364.4,597.3,366.6,594.9,368.3z"/>
				<path class="st28" d="M527.1,140.9c-0.5,0.7-1.2,0.6-1.9,0.5"/>
				<path class="st29" d="M561.6,305.1c-3.2,0.9-6.5,0.9-9.8,0.9c-2.4,0-4.8,0-7.2,0c-0.7,0-1.4,0-1.9,0.4c-0.6-2-0.3-4.1-0.1-6.1
					c0.1-2.6,0.2-5.1-0.1-7.6c1.1-1.3,2.7-1,4.1-1.1c4.5-0.2,9-0.6,13.5-1c0.6-0.1,1.2,0,1.7,0.4c2.7-0.1,2.7-0.1,2.6,2.7
					c-0.1,3-0.4,6-0.4,8.9C563.9,303.8,562.6,304.8,561.6,305.1z"/>
				<path class="st30" d="M607.5,587.2c-2.6,0-5.1,1.2-7.8,1.2c-5.2,0-10.1-1.5-15.1-2.8c-8.6-2.2-17.1-4.9-25.6-7.8
					c-2-0.7-4-0.9-5.8-2c1-1.8,2.8-2.3,4.6-2.9c2.7-0.8,5.3-0.4,7.9,0.6c0.1,0,0.2,0,0.3,0.1c0,1.4,1.3,1.5,2.2,1.8
					c5.5,2,11.1,3.5,16.7,4.8c6.7,1.5,13.6,2.6,20.1,4.9C606.1,585.6,607.2,585.9,607.5,587.2z"/>
				<path class="st30" d="M519.3,589.5c-0.4,2.9-3,2.5-4.7,2.4c-4.2-0.2-8.5-0.2-12.4-1.8c-5.9-2.4-11.7-5.3-17-9
					c-1.3-0.9-2.6-1.8-3.1-3.5c1.2-1.3,2.8-0.5,4.2-0.9c2.4,0.1,5-0.5,7.2,0.9c3.2,2.2,6.7,3.9,10.5,5.1c4.5,1.4,9,2.6,13.3,4.5
					C518.3,587.8,519.2,588.3,519.3,589.5z"/>
				<path class="st31" d="M544.1,589.1c5.4,0.5,10.8,0.9,16.2,1.4c3.3,0.3,6.6,0.6,9.9,0.8c7.8,0.4,15.5,0.9,23.3,0.8
					c3.9-0.1,7.8-0.3,11.7-1c0.6-0.1,1.5-0.6,1.9,0.5c-0.9,1.6-2.5,2.1-4.2,2.3c-7.8,0.6-15.6,1-23.5,0.2c-1.2-0.1-2.4-0.1-3.7-0.1
					c-6.6,0.1-13.2-0.2-19.9,0.2c-3.2,0.2-6.4-0.2-9.5-0.2c-1.1,0-1.5-0.4-1.6-1.4C544.6,591.4,544,590.3,544.1,589.1z"/>
				<path class="st23" d="M561.7,290.8c-5.9,0.8-11.8,1-17.7,1.5c-0.5,0-1.1-0.1-1.6,0.4c-3.3-0.4-6.6,0.1-9.9-0.4
					c-1-2-2.5-3.6-4.3-5.1c-0.5-0.4-1-1.1,0.1-1.5c0.9-0.3,1.8-0.2,2.7-0.2c8.8,0.1,17.7-0.7,26.5-0.4c1,0,2.1-0.2,3,0.6
					C561,287.4,561.4,289.1,561.7,290.8z"/>
				<path class="st31" d="M471.4,594.3c0.1-0.8,0.4-1.2,1.3-1.2c8.1,0,16.3,0.1,24.4,0.6c6.5,0.4,13,0.1,19.5,0.2
					c0.7,0,1.5-0.3,2.1,0.3c-1.1,2-3.2,2-5,2.1c-9.3,0.4-18.6,0.5-27.9-0.5c-1.7-0.2-3.4,0.9-5.3,0.7c-2.4-0.3-4.8-0.3-7.2-0.3
					C471.9,596.2,471.3,595.7,471.4,594.3z"/>
				<path class="st29" d="M467.9,287.2c2.5,0.8,4.9,1.7,7.4,2.5c0,3.1,0.4,6.3,0.8,9.4c0.2,1.6,0.5,5.3,0.8,6.9
					c0.2,1.5-5.9,1.7-6.7,0.4c-0.5-0.9-0.9-2.4-0.9-3.4C468.7,297.7,468.3,292.4,467.9,287.2z"/>
				<path class="st32" d="M560.6,285.7c-10.9,0.1-21.9,0.3-32.8,0.4c-0.7-0.1-1-0.3-0.6-1c1.4-1,3.2-0.7,4.8-0.9
					c2.9-0.3,5.8-0.9,8.8-0.7c5.9-0.5,11.7-0.9,17.6-1.4c1-0.1,2.1-0.4,3,0.3C560.8,283.4,560.2,284.5,560.6,285.7z"/>
				<path class="st33" d="M493.6,577.7c-2.4-0.8-4.9-0.8-7.4-0.7c-0.1-0.1-0.2-0.2-0.1-0.2c0-0.1,0.1-0.1,0.1-0.1
					c2.5,0.2,5-0.6,7.4,0.8C493.6,577.5,493.6,577.6,493.6,577.7z"/>
				<path class="st27" d="M528.6,308.5c-0.4,0.6-0.8,1.2-1.2,1.8c-1.4,2.2-2.7,2.8-5.2,2.3c-1.3-0.2-2.5-0.4-3.8,0.2
					c-2.3,1-4.5,0.5-6.2-1.2c-0.9-0.9-1.7-1.2-2.9-0.8c-2.9,0.9-5.3,0.2-6.8-2.6c-0.8-0.1-0.8-0.8-1-1.3c-2.1-4-3.4-8.2-5.5-12.2
					c-0.4-0.7-0.1-1.4,0.2-2.1c2.9-5.8,6-11.4,9-17.2c0.3-0.5,0.6-1,1.2-1.1c0.5-0.1,1,0,1.2,0.5c0.3,0.6,0.1,1.2-0.1,1.8
					c-1.6,4.6-3,9.3-4.9,13.8c-0.5,1.3-0.3,2,1,2.6c7,3.1,14.1,5.9,21.4,8.1c0.8,0.2,1.6,0.3,2.4,0.2c1,0.6,1.1,1.7,1.5,2.7
					C528.9,305.6,529,307,528.6,308.5z"/>
				<path class="st26" d="M475.6,298.9c0.6-0.5,1.3-0.3,1.9-0.2c3.9,0.9,7.8,1.6,11.8,2c1.7,0.2,2.8,0.9,3.6,2.5
					c2,4.1,4.8,7.8,7.9,11.2c0.5,0.5,1.1,1,1,1.9c0.7,1.5,0.3,3,0.3,4.5c0,1.1-1,1.4-1.8,1.4c-4,0-18.4,0-20.6,0
					c-1.9,0-2.8-0.8-2.9-2.5c-0.3-3.8-0.7-7.6-0.7-11.5C476,306.3,475.7,300.8,475.6,298.9z"/>
				<path class="st24" d="M501.7,316.3c-4-4.2-7.4-8.7-9.9-13.9c-0.3-0.6-0.7-0.7-1.3-0.8c-5-0.7-10-1.6-14.9-2.5
					c-0.6-2.4-2.1-9.2-0.7-9.6c2.1,0.5,4.5,1.3,6.6,1.8c0.4,1.9,1.9,2.5,3.6,2.8c2.4,0.4,4.7,1.3,7,2.3c1.2,0.5,1.9,0.5,2.5-0.8
					c0.3-0.6,0.7-1.4,1.7-0.9c1,1.1,1.4,2.5,2,3.9c1.4,3.3,2.8,6.6,4.3,9.8C502.1,310.9,502.3,313.6,501.7,316.3z"/>
				<path class="st34" d="M528.6,308.5c-0.7-1.4,0.2-2.9-0.3-4.4c1.9-1,4-0.9,6-1c3.5-0.1,3.5,0,3.7-3.6c0-0.5,0-1.1,0-1.6
					c-0.1-1.2-0.6-1.8-1.9-1.8c-2.9,0-5.7-0.2-8.6,0.1c-0.9,0.1-1.7,0.1-2.5-0.2c-0.8-0.2-1.4-0.6-1.4-1.5c0.9-2,2.7-2.8,4.6-3.2
					c1.4,0.1,2.8-0.4,4.1,0.5c2.7,0,5.3,0,8,0c0.8,0,1.6,0.1,2.2,0.7c0.7,0.9,0.8,2.1,0.8,3.1c-0.2,3.5-0.1,7-0.6,10.5
					c-0.7,1.3-1.9,1.7-3.2,1.7C535.8,308.2,532.2,308.4,528.6,308.5z"/>
				<path class="st35" d="M565.7,573.6c-0.3,0.3-0.7,0.4-1.2,0.2c-4.2-1.9-7.9-0.4-11.3,2c-3,1.5-6,1.6-8.8-0.4
					c-0.2-1.4,0.4-1.7,1.8-1.8c4.7-0.4,9.4-0.9,14.1-1.4c1.7-0.2,3.4-0.2,5.1-0.3C567.4,571.8,565.3,573.1,565.7,573.6z"/>
				<path class="st35" d="M486.2,576.6c0,0.1,0,0.3,0,0.4c-1.3,0.2-2.7,0.5-4,0.7c-1.7,0.1-3.1,1-4.6,1.7c-3.4,1.7-4.1,1.5-5.8-2.1
					c0.2-1,1-0.7,1.6-0.7c2.4,0,4.8,0,7.3,0C482.6,576.6,484.4,576.6,486.2,576.6z"/>
				<path class="st26" d="M564.8,187.3c1,0,1.8,0.3,1.8,1.3c0.2,4.8,1,4.6-4.6,4.3c-1,0-1.6,0-2.3,1c-2.4,4.1-6.6,3.9-10,0.5
					c-1.3-1.3-4.6-1.3-4.8-1.3c-4.6-0.3-5-0.5-4.2-5.1c0.2-1.1,0.9-1,1.6-1c3.7,0,7.5,0,11.2,0C553.6,187.1,561.1,187.3,564.8,187.3
					z"/>
				<path class="st25" d="M531.1,153.5c-0.2-0.1-0.4-0.1-0.5-0.2c-0.5-0.4-0.1-0.2-0.1-1c0-0.9-0.5-0.8,0-1.1
					c0.6-0.3,1.1-0.8,1.5-1.4c1.2-1.9,0.7-6.4-0.9-8.1c0.6-0.2,1.1-0.2,1.6,0.4c2.1,2.3,4.2,4.5,6.4,6.8c1.2,1.2,2.3,2.5,4,3.1
					c0.6,0.2,0.9,0.6,0.8,1.3c-0.1,0.8-0.8,0.7-1.3,0.6c-2.7-0.2-5.5-0.4-8.2-0.6C533.4,153.2,532.2,152.9,531.1,153.5z"/>
				<path class="st23" d="M534.1,277.9c1.8,1.3,3,3.1,4.4,4.7c0.5,0.6,0.9,0.9,1.4,0.1c0,0.5,0.3,0.8,0.8,0.8
					c-2.6,0.7-5.4,0.7-8,1.1c-1.9,0.3-3.8,0.5-5.7,0.7c-1,0.3-1.4-0.1-1.4-1.2c1.9,0,3-1.4,4.3-2.5
					C531.4,280.5,532.9,279.3,534.1,277.9z"/>
				<path class="st36" d="M568,195.1c-0.2-0.1-0.5-0.2-0.7-0.3c0-0.3,0.1-0.6,0.1-0.8C567.8,194.2,567.9,194.7,568,195.1z"/>
				<path class="st37" d="M499.5,129"/>
				<path class="st23" d="M507.3,275c-0.4-0.1-0.8-0.2-1.1-0.4c-0.1-0.1-0.2-0.3-0.2-0.5c0.3-2.6,0.3-2.6-2.1-3.7
					c-2.1-0.9-4.2-2-6.2-3.1c-1.1-0.6-2.2-0.9-3.5-0.5c-2-0.7-4.8-2-6.1-3.4c-0.8-0.9-4.5-5.8-5-8.2c-0.8-4-1.4-8-1.6-12
					c-0.4-6.9-0.6-13.8-0.8-20.7c-0.1-4.4-0.4-8.9-1-13.4c-0.2-1.4-0.7-2.6-1.7-3.6c-1.8-1.8-3.5-3.7-5-5.9
					c-0.2-0.3-0.4-0.6-0.7-0.8c-2.1-1.1-2.2-2.6-1.3-4.6c0.6-1.4,0.1-3,0.7-4.8c-0.8,1.2-1.4,2.1-1.9,2.9c-0.4,0.7-0.7,1.7-1.6,1.6
					c-1.1-0.1-1-1.3-1.2-2c0-0.6-0.3-1.2-0.2-1.5c0.4,1.9,0.4,4.1,0.2,6.3c-0.2,0.8-0.5,1.5-0.7,2.3c-5.5,7.6-10.6,15.6-15.4,23.7
					c-2.9,4.9-5.5,10.1-8.4,15c-0.9,1.4-0.6,3.1-1.2,4.6c-4.3,0-8,2-12.3,3.2c1,1.1,1.9,0.9,2.7,0.8c1-0.1,2-0.4,3.1-0.6
					c0.4-0.1,0.9-0.1,1.2,0.3c0.3,0.4-0.1,0.8-0.3,1.1c-0.4,0.5-0.9,1-1.3,1.5c-0.4,0.6-0.7,1.3-0.7,2.1c0,0.7,0.3,1.2,0.9,1.5
					c0.7,0.3,1-0.3,1.3-0.7c2-2.4,4.3-4.5,6.5-6.7c2.1,1.6,4.6,2.4,6.7,4c4.1,3,8.9,4.8,13.5,7c2.2,1,4.6,1.5,6.8,2.5
					c0.2-0.4,8.4,3.7,12.5,6c2.9,1.6,5.9,3.3,8.8,4.9c0.6,0.3,1.2,0.6,1.6,1.2c0.2,0.5,0,0.9-0.3,1.4c-2.7,5-5.2,10.1-7.9,15
					c-0.3,0.5-0.5,1.1-1.2,1.3c-4.6-1.2-8.9-3-13.3-4.7c-6.6-2.6-13.1-5.5-19.4-8.9c-10.3-5.5-20-11.9-28.7-19.7
					c-0.2-0.2-0.5-0.4-0.7-0.6c-1.3-1.1-3.4-2.1-3.5-3.6c-0.2-2.3-0.2-4.9,0.8-7.2c6.6-14.1,13.8-27.9,21.6-41.4
					c6.8-11.9,13.9-23.5,21.3-35c1.4-2.1,3.3-3.5,5.2-5c7.9-6.1,17-9.7,26-13.5c1.6-0.7,3.3-1.3,4.9-2c0.7-0.3,1.3-0.3,1.9,0.2
					c3,2.8,6.7,4.5,10.1,6.6c1.6,1,3.2,2,4.7,3.1c1.8,1.3,3,1.2,4.4-0.5c0.5-0.7,1-1.3,1.8-2.4c0,1,0,1.6,0,2.2
					c-0.2,8,0.1,16.1,0.4,24.1c0.4,10.7,0.3,21.3,0.1,32c-0.2,9.2-0.2,18.4-0.2,27.6c0,9,1,17.9,2.4,26.8c0.8,5.5,1.8,11.1,1.6,16.8
					c-0.7,0.3-1.2-0.1-1.6-0.6c-3.1-4.2-7.9-5-12.4-6.3C509.1,275.8,508,275.8,507.3,275z"/>
				<path class="st38" d="M504.5,163.8c-1.9-2.7-4.4-4.3-7.7-4c-3.9,0.3-6.8,2.3-8,6.2c-0.1,0.3-0.3,0.5-0.4,0.8
					c-1.5,5.9-0.2,11.4,3.1,16.4c2,2.9,4.9,4.5,8.6,3.4c3.2-1,5.2-3.3,6.1-6.5c0,0,0,0,0,0h0l0,0c0,0,0,0,0,0
					c0.3-0.6,0.4-1.3,0.7-1.9C507.9,173.1,507.6,168.3,504.5,163.8z"/>
				<path class="st28" d="M507.3,275c3.7,0.6,7.2,1.8,10.8,3c1.5,0.5,8.3,7.3,9,7.4c0.3,0.3,0.6,0.5,0.8,0.8c1.1,1,2.2,2.1,3.4,3.1
					c0.9,0.7,1.3,1.6,1.1,2.7c-1.5,0-2.9,0-4.4,0c0.6-1.4,1.6-0.4,2.1-0.6c0.6,0.1,0.3-0.3,0.3-0.1c0,0,0,0-0.1,0
					c-1.5-0.2-2.8-0.7-4.2-1.2c-0.9-0.4-1.8-0.7-2.8-0.9c-0.7-0.1-1.3,0-1.8,0.6c-0.5,0.6-0.3,1.3,0.1,1.9c0.7,1,1.2,2.1,2.3,2.8
					c0.1,0.7,0.5,1,1.1,1.2c1.2,1.7,2.4,3.5,2.2,5.8c-0.3,1.4-1.3,0.4-1.7,0.3c-4.2-1.3-8.4-2.7-12.5-4.3c-3.4-1.3-6.7-2.9-10.1-4.2
					c-1.5-0.6-1.5-1.3-1-2.5c2.1-4.9,3.5-10,5.4-15C507.2,275.6,507.2,275.3,507.3,275z"/>
				<path class="st26" d="M482.5,287.9c3.1-5.9,6.1-11.8,9.2-17.7c0.3-1.6,1.1-2.9,2.6-3.7c0.8-0.8,1.4-0.7,2.4-0.2
					c2.4,1.3,4.9,2.6,7.4,3.7c3.1,1.4,3.1,1.4,2,4.5c-3.3,6.2-6.6,12.5-10,18.7c-0.2,0.4-0.1,0.8,0,1.2c-1,0-1.3,0.9-1.5,1.6
					c-0.4,1.2-1.1,1.2-2.1,0.8c-2.9-1.2-5.8-2.3-8.9-2.8c-1.8-0.3-2.5-1.2-2.2-3C481.8,290.1,482.2,289,482.5,287.9z"/>
				<path class="st23" d="M525,141c-2,0.6-4.1,0.9-4.9,3.3c-1.9,2.4-3.1,5.3-4.5,8c-0.8,1.5-1.2,2-2.8,0.8
					c-3.6-2.7-7.4-5.2-11.2-7.7c-1.4-0.9-1.5-1.7-0.5-3c2.5-3,4.6-6.6,6.7-9.9C513.9,134.6,519.6,137.6,525,141z"/>
				<path class="st29" d="M527.1,301.5c-0.7-1.9-1.5-3.9-2.2-5.8c3.8,0,7.6,0.1,11.4-0.1c1.7-0.1,2,0.7,2.2,2.1c0.2,1.9,0,6-1.4,6.1
					c-2.9,0.2-5.9,0.3-8.8,0.4C527.9,303.3,527.5,302.4,527.1,301.5z"/>
				<path class="st39" d="M523.8,294.5c-0.7,0.4-1-0.1-1.3-0.5c-0.4-0.7-0.9-1.3-1.3-2c-0.5-0.8-1-1.5-0.3-2.5
					c0.7-0.9,1.6-1.1,2.6-0.8c2.5,0.8,4.9,1.7,7.5,2.6c-1.1,0.5-2.2-0.2-3.1,0.5C526.2,292.3,525,293.4,523.8,294.5z"/>
				<path class="st34" d="M490.6,165.3c1.2-3.9,4.1-5.8,8-6.2c4.1-0.4,6.3,1.8,7.7,4c4.6,7.3,1.9,15.6,1.6,16.2l0,0
					c-2,5.7-9.4,6.2-13.6,1.2C490.8,176.1,489.1,171,490.6,165.3z"/>
				<path class="st26" d="M487.7,190.6c0-0.5,0.1-1,0-1.5c-0.1-1.1,0.3-1.5,1.4-1.5c7.4-0.2,14.8-0.4,22.2-1
					c1.4-0.1,1.8,0.4,1.8,1.7c0.3,4.2,0.3,4.2-3.9,4.1c-1,0-1.8,0-2.4,1.1c-2.1,4.1-7,5.4-9.9,1.7c-1.9-2.4-5.3-1.4-5.8-1.4
					C487.7,194,487.7,194,487.7,190.6z"/>
				<path class="st32" d="M440.9,242.2c0.2,0.9,0.6,1.8,1.1,2.6c-0.2,1.3-1.4,1.8-2.1,2.7c-1.3,1.5-2.9,2.8-4.1,4.4
					c-0.3,0.5-0.5,1.5-1.4,1.1c-0.7-0.4-1.4-1-1.5-2c-0.1-1.3,0.5-2.3,1.3-3.3c0.4-0.6,1.2-0.9,1.4-1.9c-1.2,0.2-2.2,0.5-3.3,0.7
					c-1,0.2-1.9,0.4-2.9,0.1c-0.6-0.2-1.1-0.4-1.2-1c0-0.6,0.6-0.6,1.1-0.8c3.2-1.3,6.6-2.1,9.9-3.2
					C440,241.4,440.5,241.6,440.9,242.2z"/>
				<path class="st40" d="M490.6,165.3c-0.7,4.3,0.2,8.3,2.2,12.1c1.3,2.5,3.2,4.4,5.7,5.5c2.4,1.1,6.4,0.6,8.3-2.1
					c0.4-0.5,0.8-1.1,1.2-1.6c-0.9,3.2-2.9,5.6-6.1,6.5c-3.6,1.1-6.6-0.5-8.6-3.4c-3.4-4.9-4.6-10.4-3.1-16.4
					C490.3,165.8,490.5,165.5,490.6,165.3z"/>
				<path class="st38" d="M492.4,265.2c-1.9-1.5-8.3-3.7-9.1-10.3c-0.6-5-1.6-9.9-1.8-14.9c-0.4-9.1-0.8-18.2-1.1-27.3
					c-0.3-7.6-6.8-13.9-8.9-14.9c-1.1-0.5-0.1-7,0.3-9.4c-1.6,1.6-2.5,3.6-3.7,5.5c-0.8-0.7-0.2-2.6-2.1-5c0.5,2.8,0.5,8.1-0.1,9.9
					c0.6,6,1.2,12,1.7,17.9c0.6,6.2,1.6,12.3,1.5,18.5c-0.2,7.4-0.1,14.7,0.2,22.1c-0.1,0.5-0.3,0.7-0.1,1c0.2,0.2,0.9,0.2,1.2,0.4
					c7.1,3.8,14.2,7.7,21.3,11.5c0.9-1.2,1.7-2.5,2.6-3.7C493.4,266.5,493,265.7,492.4,265.2z"/>
				<path class="st41" d="M500.3,176.7c-3.9,0-7-2.8-7.1-6.4c0-4.7,2.4-8,6-8c3.9,0,7.6,4,7.7,8.1
					C506.9,174.2,504.2,176.7,500.3,176.7z"/>
			</g>
			<path class="st42" d="M543.5,149.5c-3-2.8-6.4-4.4-8.1-11.1c-1.4-0.7-2.5-1.5-3.3-3.3c-0.1-0.3-0.4-0.6-0.7-0.8
				c0.5,1.8,0.2,3.6-0.7,5.1c-1,1.8-2.4,1.3-1,1.8c1.4,0.5,1.7-0.5,3,0.9c1.3,1.4,7.5,8.4,9.4,9.8c0,0,0.1,0.1,0.1,0.1
				c0.4,0.2,0.7,0.4,0.8,0.6c0.8,0.8,0.5,1,1,0.6C544.6,152.8,546.6,152.3,543.5,149.5z"/>
		</g>
		<path class="st26" d="M494.1,137c-0.6,3-3.3,5.9-6.2,7c-6.1,2.5-11.9,5.6-17.5,8.9c-3.5,2.3-12.8-2.1-8.1-5.3
			c5.7-3.8,14.5-8.5,18.6-10.2C484.9,135.8,494.7,134.1,494.1,137z"/>
		<path class="st26" d="M562,152.3c-0.7,0.5-1.3,0.5-2.1,0.1c-5.5-3-11.4-5.1-17.2-7.5c-0.9-0.4-1.7-0.8-2.6-1.1
			c-2.2-0.8-3.1-2.1-2-4.4c0.2-0.6,0.4-1.4,1.4-0.9c7,3.3,14.5,5.5,21.3,9.3C563.5,149.2,563.4,149.4,562,152.3z"/>
		<circle class="st43" cx="501.6" cy="192.9" r="1.9"/>
		<circle class="st43" cx="489.6" cy="292.7" r="1.9"/>
		<circle class="st43" cx="573.8" cy="327.9" r="1.9"/>
		<circle class="st43" cx="555.4" cy="193.9" r="1.9"/>
		<path class="st26" d="M530.6,268.6c-0.8-5.4-1.8-10.8-2.8-16.3c-1.3-7.2-2.3-14.5-3-21.8c-0.9-8.7-1.4-17.4-1.7-26.2
			c1.5-1.3,3.4-0.9,5.1-1.2c2-0.4,4-0.1,6-0.3c0.4,0,0.7,0.1,1,0.4c1,12.9,2.8,25.8,3.9,38.7c0.7,8.7,3.4,17,4.9,25.6
			c0.6,3.3,0.7,6.3-1.2,9.3c-1.1,1.8-1.8,3.9-2.7,5.8c-0.2,0.9-0.7,1.2-1.4,0.5C537,281.5,531,277.9,530.6,268.6z"/>
		<path class="st37" d="M499.7,129.1"/>
		<path class="st26" d="M447,168.3c-4.4-0.9-10.8,12.2-11.8,16.4c-1,4.2,10.9-2.9,14.2-11.9C450.7,169.1,449,168.8,447,168.3z"/>
		<path class="st44" d="M498.5,181.1c-0.9-0.8-1-2.6,5.5-2.2c0.9,0.1,1.5,0.6,1.3,1.4C504.9,181.9,499.3,181.8,498.5,181.1z"/>
		<path class="st45" d="M521.2,354.8c5.8-3.3,10.5-18.4,10.2-46.3"/>
		<path class="st24" d="M515.4,354.6c-1.3,3.3-0.6,5.8,0.1,9.9c0.2,1.3,0.2,1.9,0.1,2.4c1.7-0.3,3.3-0.6,4.9-1.1
			c1.9-0.7,2.3,0,2.6,1.8c1,6.5,1.8,13.1,2.5,19.6l0,0c-1.1-13.4-1.2-13.8,4.7-39.5C525.8,353.7,516.7,351.3,515.4,354.6z"/>
		<path class="st46" d="M437.6,180.1c0.8,0.2,1.6,0.7,1.6,0.7"/>
		<line class="st47" x1="464.5" y1="146.2" x2="470.1" y2="148.9"/>
		<line class="st47" x1="553.7" y1="144.1" x2="559.3" y2="148.5"/>
		<path class="st26" d="M548.6,145.9c4.6,2.6,9.5,5.4,9.3,4.3c-0.2-1.1-0.8-4-6.7-6.9L548.6,145.9z"/>
	</g>
	<path class="st28" d="M531.2,136.7c0,2.5-1.5,4-3.3,5.4l-1.8,0.5c-0.8-0.2-1.5-0.5-2.1-0.9c-3.9-2.4-8.3-3.9-12.5-5.5
		c-0.5-0.2-0.9-0.4-1.2-0.8c0-0.1,0-0.2-0.1-0.3"/>
	<path class="st37" d="M502.4,132.2c2.7,1,5.8,2.2,8.5,3.2c0.9-1.9,1.7-4.2,1.4-6"/>
	<path class="st28" d="M555.3,37.4c1,2.8,2,5.5,2.6,8.4c0.9,4.9,1.9,9.9,2.9,14.8c0.1,0.4,0.2,0.9,0.3,1.3c-2.7-0.5-5.4-0.3-8-0.2
		c-1.8,0.1-2,0.4-1.8,2.2c-0.3,2.2,0.2,4.3,0.9,6.4c0.7,2,2.1,3.2,4,3.8c2.3,0.7,4.4-0.9,4.5-3.3c0.1-2-0.1-4-0.4-6
		c0.2-0.6,0.3-1.3,1.1-1.4c1.1,11.3,1.9,22.7,2.2,34.1c0.1,2.7,0.5,11.9-1.8,16.6c-0.7,0.2-0.7,0.9-1.1,1.4c-1.9,2.9-4,6-7,7.3
		c-3.4,1.4-7.8-0.2-11.4-0.5c-5-0.3-10-1.1-14.8-2.4c-1.1-0.3-2.1-0.6-3.1-1.2c-2.6-1.4-5-3-7.2-4.9c-4.1-3.5-6-8.3-7.6-13.3
		c-1-3.1-1.8-6.3-2.4-9.5c-0.4-2.3-1.9-3-3.3-4.2c-0.5-0.4-1-0.7-1.3-1.2c-0.8-1.4-2-2.6-2.9-4c-1.3-2-2.3-4.2-3-6.5
		c-0.5-3.4-0.1-6.7,2.1-9.5c1.7-1.3,4.3-1.4,5.9,0.2c1.7,1.7,3.5,3.3,5.3,4.9c0.8,0.8,1.5,1.7,1.9,3.2c1.8-6.5,4.1-12.5,4.9-18.9
		c0.4-3.3,0.2-6.6-0.4-9.9c-0.3-2.1-1.5-4.2-1.2-6.2c0.2-1,2.4-1.3,3.3-1.5c4.2-0.9,8.5-0.8,12.7,0.1c4.3,0.9,8.7,1.7,13.1,1.9
		c3.5,0.1,6.8-0.1,9.8-2.1C554.5,37.4,554.9,37.2,555.3,37.4z"/>
	<path class="st28" d="M510.9,135.4c0.1-2.6-0.3-5.1-0.6-7.6c-0.1-1.4,0.4-1.9,1.8-1.8c2.8,0.1,5.5,1,8.2,1.5
		c2.9,0.6,5.9,1.2,8.8,1.8c0.3,3.7,0.9,5.7,2.1,7.4"/>
	<path class="st27" d="M536.7,65.3c0.1,2.3,0.4,4.6-0.5,6.8c-1.1,2.8-3.5,4.5-6.3,4.3c-3.3-0.3-5.3-2.2-6-5.3
		c-0.4-1.9-0.2-3.7-0.2-5.5c0.5-0.4,1.1-0.1,1.6,0c2.9,0.4,5.7,0.5,8.6,0.4C534.9,65.8,535.7,65.1,536.7,65.3z"/>
	<path class="st27" d="M550.9,64.1c2.1,1.8,4.6,1.5,7,1.2c0.9-0.1,1.7-0.4,2.6-0.6c0.4,1.8,0.4,3.6,0.6,5.4c0.1,1.9-0.4,3.4-2.1,4.3
		c-1.9,0.9-3.6,0.3-5.2-0.9c-1.9-1.4-2.2-3.5-2.8-5.5C550.6,66.7,550.7,65.4,550.9,64.1z"/>
	<path class="st27" d="M544.4,88.2c-2.4,0.1-4.1-0.3-4.7-2c-0.5-1.3,0.2-2.3,1.5-2.4c3.7-0.1,7.4-0.6,10.9-1.6
		c3.2-0.8,1.5,2.1,0.3,2.8C551.4,85.7,547.1,87.7,544.4,88.2z"/>
	<path class="st48" d="M548.4,105.9c-2,0.1-3-0.4-3-1.6c0-1.1,0.9-1.6,2.8-1.7c0.6,0,1.2-0.1,1.8,0c0.8,0.2,1.5,0.6,1.4,1.6
		c-0.1,0.9-0.7,1.4-1.6,1.5C549.4,105.9,548.9,105.9,548.4,105.9z"/>
	<path class="st37" d="M510.7,131.3c-0.6-3.9,0.2-5.4,4-4.6c4.1,0.8,8.2,1.9,12.3,2.7c0.7,0.1,1.4,0.5,2-0.1c0-0.8,0-1.6-0.2-2.4
		c-0.2-0.8,0-1,0.8-0.9c5.2,0.9,10.4,0.8,15.6,0.5c7.2-0.5,14.1-4.2,16.5-11.9c0.1-0.3,0.9-2.3-0.1-0.7c-2.6,4.7-6.6,7.7-14.3,8
		c-7.6,0.4-8.1-0.1-12.1-0.8c-5-0.8-9.9-1.8-14.4-4.8c-5.3-3.5-8.6-8.2-10.6-14.1c-1.3-3.8-1.6-7.8-3.2-11.5c-0.1-0.2,0-0.6,0.1-0.9
		c0.3-0.9-0.1-1.3-0.8-1.6c-1.4-0.7-3.8-3-3.8-3.1c-2.6-2.8-4.4-6.1-5.7-9.6c0,0.1,0,0.3,0,0.4c1,3.7,2.6,7.1,5.5,9.7
		c0,0,1.4,1.5,1.9,2.3c0.5,0.8,0.9,1.7,0.6,2.7c-0.2,0.8-0.6,1-1.3,0.6c-1-0.5-2-0.9-3-1.3c0.2,0.7,0.5,1.3,0.6,2
		c0.6,7,1.7,14,2.1,21.1c0.3,6.6-0.3,12.6-0.5,19.2"/>
	<path class="st49" d="M532.7,71c-0.8,0.2-1.6,0-2.3-0.3c-1.5-1-1.5-2.2-0.1-3.4c0.5,0,0.9-0.1,1.4,0c2,0.1,2.3,0.4,2.3,2.4
		C533.6,70.4,533.4,70.9,532.7,71z"/>
	<path class="st50" d="M530.2,67.4c-0.8,1.2-0.9,2.3,0.1,3.4c-2.5,0.7-3.2,0.1-2.7-2.4C528,66.7,529.3,67.6,530.2,67.4z"/>
	<path class="st51" d="M532.7,71c0.4-0.4,0.8-0.8,1.2-1.2C533.8,70.5,534,71.5,532.7,71z"/>
	<path class="st52" d="M555.2,66.9c0.4-0.1,0.8-0.2,1.1-0.2c2.6-0.1,2.6-0.1,2.5,2.5c-0.2,0.4-0.3,0.8-0.9,0.8
		c-0.8,0-1.6,0.1-2.3-0.2C554.3,68.9,554.2,68.1,555.2,66.9z"/>
	<path class="st53" d="M555.2,66.9c-0.5,1.1-0.4,2,0.4,2.9c-0.3,0.3-0.7,0.3-1.1,0.2c-0.5-0.1-1.2,0.4-1.6-0.3
		c-0.4-0.8-0.6-1.8-0.1-2.6C553.4,66.4,554.4,66.8,555.2,66.9z"/>
	<path class="st54" d="M558,70c0.3-0.3,0.6-0.5,0.9-0.8C558.9,69.9,558.9,70.5,558,70z"/>
	<path class="st55" d="M555.6,97.6c0.3,0.2,0.6,0.3,0.9,0.5c0.4,0.3,0.8,0.7,0.6,1.1c-0.2,0.6-10.9,0-15.8,1
		c-0.5,0.1-1.2,0.5-1.4-0.2c-0.2-0.6,0.3-1.1,0.9-1.4c1.9-0.9,3.8-1.5,6-1.5C547.6,97.2,553.6,96.6,555.6,97.6z"/>
	<path class="st56" d="M530.8,23.1"/>
	<path class="st57" d="M550.9,64.1c-0.8-2.1-0.5-2.7,1.8-2.7c2-0.1,7.3-0.5,8.8,0.6c0.3,0.5,0.5,1,0.4,1.5c-0.3,0.4-0.1,0.7-0.9,1.2
		c-0.8,0.5-5.6,1.6-7.9,1C552.2,65.4,551.3,65.1,550.9,64.1z"/>
	<path class="st57" d="M536.7,65.4c-1.4,1.4-3.2,1.1-5,1.1c-2.7-0.1-5.4,0.1-8-0.8c-0.8-0.5-1.3-1.2-1-2.1c0.3-1,1.2-0.9,2-0.9
		c3.2-0.2,6.5-0.3,9.8-0.4C536.8,62.2,537.5,63.2,536.7,65.4z"/>
	<path class="st56" d="M555.2,37.4c-3.3,2.6-7.2,2.8-11.1,2.7c-5.4-0.1-10.6-1.5-15.9-2.4c-3.4-0.5-6.9-0.9-10,0.4
		c-2.2,0.9-2.2,0.9-0.7,9.7c1.5,8.7-5.3,26.5-5.6,27.2c-0.9-2.8-7.3-12.3-12.8-8c-1.7,1.3-3.2,5.1-2,8.7c0.9,3.4,2.6,6.4,4.9,9
		c0.2,0.3,0.5,0.5,0.7,0.8c0.2,0.6,0.8,0.9,1.2,1.3c1.3,1.1,1.8,2.7,1.4,3.9c-0.3,0.8-0.8,1.3-1.7,0.9c-1.1-0.4-2.2-0.8-3-1.7
		c-4.8-2.9-4.7-2.9-5.2-8.4c-0.5-6.2-1.6-12.3-3.1-18.4c-1.1-4.5-1.9-9-2.4-13.6c-0.1-1.3,0.3-2.6,0.6-3.8c0.6-2.4,1.3-4.8,1.9-7.1
		c0.3-1,0.8-1.6,1.7-2.1c9.1-5,18.8-8.3,28.8-10.7c1.7-0.4,7.6-1.2,8.8-1.3c1,0,2-0.1,3-0.1c6.7,0.3,13.1,1.6,19.3,4
		c1.5,0.6,3,0.6,4.5,0c0.8-0.3,1-0.1,0.9,0.7C559.3,32.4,557.9,35.2,555.2,37.4z"/>
	<path class="st28" d="M517.3,40.1c0,0-5.5-3.4-11.4-3.2c0,0,10.2-0.4,13.8,2L517.3,40.1z"/>
	<path class="st56" d="M518.5,37.3c6.3,0.1,6.9-1,11.8,0.9c4.9,1.9,9.5,4.6,18.3,4c0,0-5.4-0.7-8.5-2.8c-3.1-2.1,2.7-3.7,2.7-3.7
		s-8.9-4.4-8.9-4c0,0.3-15.2,6.1-15.2,6.1"/>
	<path class="st26" d="M525,141c0.7,0,1.4-0.1,2.1-0.1c1.4,0.2,3.2,0,5.1,1.5c1.5,1.9,1.1,7.3-0.9,8.7c-1.3,0.9-1.3,1.5-0.3,2.5
		c1.2,1.1,1.8,2.4,1.9,4c0.6,13.4,1.6,28.2,2.2,41.5c0,0.6,0.3,1.4-0.4,1.9c-0.2,0.3-0.5,0.5-0.9,0.5c-3,0.6-6,0.6-9,0.8
		c-0.5,0-1.1-0.1-1.5-0.5c-0.4-7.6-0.7-16.7-0.7-24.2c0-6.8,0.1-13.3-0.3-20.2c-0.1-1.2,0.3-2.8,0.1-4c-0.3-2.2-2.2-8-2.4-9
		C520.3,142,521.9,140.9,525,141z"/>
	<path class="st34" d="M523.4,200.3c3.8-0.3,7.6-0.5,11.4-0.8c1,0.1,1.9,0.4,2.1,1.5c0.3,1.2-0.6,1.7-1.4,2.2
		c-4,0.5-8.1,0.4-12.1,1.2c-0.9-0.2-1.8-0.6-1.9-1.7C521.5,201.4,522.4,200.8,523.4,200.3z"/>
</g>
<g>
	<path class="st58" d="M351.7,230.9c0.8-3.3,0.6-13.4-6.5-14.6c-7-1.2-15.5,2.5-15.5,2.5l2.1,17.5l13.7-1.8L351.7,230.9z"/>
	<g>
		<path class="st59" d="M325.2,573.5c1.3,4.1,1.5,9.3,4.3,13.7c1.4,2.2,3,4.2,6,4.2c0.4,0,0.8,0.5,1.1,0.8c1.4,1.6,3.1,2.2,4.9,1.5
			c1.8-0.7,2.9-2.5,2.6-4.6c-0.2-1.8-0.2-3.2,1.5-4.3c0.7-0.5,1.2-1.6,1.4-2.6c0.4-2.6,0.9-5.2,0.9-7.8c0-1.4-0.9-2.9-1.4-4.3
			c-0.2-0.7-0.5-1.3-0.5-2c-0.3-2.2-1.4-3.7-3.3-4.2c-1.8-0.5-3.3,0.2-4.7,2.1c-0.3,0.4-0.9,0.6-1.5,0.7c-1.3,0.3-2.6,0.4-3.9,0.6
			c-0.7,0.1-1.4,0.3-2.1,0.3C327.1,567.4,325.1,569.4,325.2,573.5z"/>
		<path class="st59" d="M263.5,573.5c1.3,4.1,1.5,9.3,4.3,13.7c1.4,2.2,3,4.2,6,4.2c0.4,0,0.8,0.5,1.1,0.8c1.4,1.6,3.1,2.2,4.9,1.5
			c1.8-0.7,2.9-2.5,2.6-4.6c-0.2-1.8-0.2-3.2,1.5-4.3c0.7-0.5,1.2-1.6,1.4-2.6c0.4-2.6,0.9-5.2,0.9-7.8c0-1.4-0.9-2.9-1.4-4.3
			c-0.2-0.7-0.5-1.3-0.5-2c-0.3-2.2-1.4-3.7-3.3-4.2c-1.8-0.5-3.3,0.2-4.7,2.1c-0.3,0.4-0.9,0.6-1.5,0.7c-1.3,0.3-2.6,0.4-3.9,0.6
			c-0.7,0.1-1.4,0.3-2.1,0.3C265.4,567.4,263.4,569.4,263.5,573.5z"/>
		<path class="st60" d="M295.7,435.6c-3-2.2-6-2.9-9.2-1.9c-2.4,0.7-4.3,2.2-5.8,4.7c-0.3,0.5-1.1,0.9-1.6,0.8
			c-4.5-0.6-8.9-1.2-13.4-1.9c-1-0.2-2.1-0.6-2.8-1.4c-3.3-3.8-8.6-4.7-12.8-2c-0.4,0.3-0.9,0.6-1.4,0.9c-2.4-5.2-6.2-6.1-10.5-6.7
			c-4.3-0.7-8.3-1.1-12.4,1.1c-1.8,1-3.9,1.1-5.8,1.8c-0.4,0.1-0.8,1.2-0.7,1.7c1.1,5.6,1.8,11.3,3.5,16.6c2.7,8.6,4.5,17.6,7.4,26
			c3,8.5,5.9,17,8.9,25.5c3,8.5,6,17,8.9,25.5c3.2,9.3,6.5,18.5,9.7,27.8c2,5.7,3.8,10.3,5.8,16c0.2,0.6,1,0,1.5,0
			c6.8,0.1,13.6-0.1,20.4,0c1.2,0,1.3,1.1,1.5,0c1-6.2,1-11.7,1.5-18c0.8-11.5,1.9-46.4,2.9-57.9c0-0.3,0.1-0.7,0.2-1.2
			c1.6,0.3,3.1,0.6,4.6,0.9c2.6,0.5-1.4,1,1.2,1.6c0.5,0.1,1.2,0.4,1.5,0.9c1.9,2.9,4.2,5.3,5.4,8.8c3.3,9.7,6.7,42.7,10.1,52.4
			c1.6,4.5,1.4,8.3,2.9,12.8c0.4,1.3,2.8,0,3.8,0c7.1,0,20.8-0.1,27.9,0c1.2,0,1.6,1.3,2,0c2.9-9.6,3.8-19.3,5.4-29.3
			c2.9-18.2,5.7-36.5,8.8-54.7c1.4-8,3.4-15.7,5-23.6c0.6-3,0.9-6.1,1.2-9.2c0.6-6.6,2.6-12.6,4.6-18.6c0.3-1,0.7-2,1.3-3.5
			c-2.1-0.5-4-1-6.1-1.6c-0.1-0.8-0.2-1.8-0.5-2.8c-1.2-4.1-3.3-7-6.7-8.3c-6.7-2.5-13.3,2.2-15.2,10.8c-0.2,0.8-0.8,1.4-1.3,2
			c-1.4,1.6-2.8,3.1-4.2,4.6c-0.4,0.4-0.8,0.8-1.2,1.3c-0.2-0.1-0.3-0.1-0.5-0.2c0-2,0-4,0-6c0-6.5-1.7-9.7-5.8-11.5
			c-4.5-1.9-9.8-0.3-12.3,4c-0.7,1.2-1.1,2.8-1.5,4.2c-0.6,2.4-0.9,4.8-1.4,7.2c-0.6,3.2-0.7,3.2-3.5,3.4c0-0.4,0-0.8,0-1.2
			c0.8-9.5-4.5-15.7-11.9-13.8c-4.3,1.1-7,4.5-8.5,9.5C296.1,433.9,295.9,434.6,295.7,435.6z"/>
		<path class="st61" d="M314.4,241.7c-6.1,0-12.1,0-18.2,0c-1.3,0-2.7-0.2-4.2-0.6c-4-1.1-5.8-3.6-5.7-7.8c0-0.9,0.2-1.8,0.3-2.5
			c0.1-0.4,0.2-0.9,0.2-1.3l-0.3,0c-3.7-0.4-7.6-0.8-11.3-1.5c-2.8-0.5-5.3-2-7.3-4.3c-2.7-3.2-5.9-7.6-6.6-13.6
			c-0.5-3.8-0.8-8-0.4-12.2c-0.1-0.1-0.1-0.2-0.2-0.2c-0.6-0.9-1.2-1.8-0.6-2.9c0.1-0.3,0.4-1.4,0.4-2c0.2-2.1,1.3-3.2,2.2-4
			c0.5-0.5,0.9-0.9,1.3-1.5c0-0.1,0-0.2,0-0.2c0-0.1,0-0.2,0-0.4c0-1.3,0-2.6,0-3.9c0-2.8,0-5.7,0.3-8.5c0.5-5.1,1.3-8.4,2.3-12.4
			c0.4-1.6,0.8-3.2,1.2-5.2c0.4-1.7,0.8-3.9,1.2-6.1c0.7-4,1.4-8.1,2.3-11c3.6-11.5,7.1-20,11.6-27.6c0.7-1.1,1.7-2.6,2.6-3.1
			c2.3-1.4,4.1-2.1,6.5-3l0.2-0.1c5.5-2.2,11.6-3.2,18.6-3.2c2.6,0,5.2,0.1,8.1,0.4c4.7,0.5,8.8,1.5,14.2,3.7
			c7.1,2.8,11.2,7.2,12.7,13.4c1.1,4.5,1.9,9.3,2.6,15.6c0.9,7.7,1.7,16.8,1.3,26.3c-0.1,1.5-0.1,3.4-1.5,5.1
			c-0.1,0.1-0.2,0.7-0.3,1.1c0,0.2-0.1,0.3-0.1,0.5c-0.2,0.7-0.3,1.3-0.4,2.1c-0.1,0.4-0.1,0.7-0.2,1.1c-0.3,1.5-0.6,3.1-0.9,4.6
			c-0.7,3.2-1.4,6.5-1.7,9.8c-0.5,5.5-0.6,11.1-0.8,16.5c-0.1,2.3-0.1,4.6-0.2,6.8c0,3.2,1.2,6.7,2.5,10.5c1.5,4.2,3,8.5,3,12.9
			c0,3.2-1.9,3.8-3.5,3.8c0,0,0,0,0,0c-0.2,0-0.4,0-0.6,0c-0.6,0-1.2-0.2-1.7-0.4c-0.1,0-0.3-0.1-0.4-0.1c-0.2-0.1-0.5-0.2-0.7-0.2
			c-0.6-0.2-1.2-0.4-1.6-0.4c-0.2,0-0.4,0-0.8,0.7c-0.4,0.8-1.2,1.1-1.6,1.3c-0.1,0-0.2,0.1-0.3,0.1l-0.2,0.1
			c-0.2,0.1-0.4,0.3-0.5,0.4c-1,1.7-2.7,2.8-4.8,3.1l-0.6,0.1c-1.4,0.2-2.9,0.4-4.5,0.4C323.1,241.7,318.8,241.7,314.4,241.7z"/>
		<path class="st39" d="M269.1,221.7c2.8,1.1,5.7,2,8.8,2.1c3.5,0.1,6.9,0.4,10.4,0.2c4.5-0.3,9-0.9,13.5-1.4c2.2-0.3,4.5-0.4,6.6-1
			c4.8-1.3,11.5-3.4,14.4-7.2c5-6.6,6.1-14.6,7.9-22.9c1-4.7,2.2-9.4,2.5-14.3c0.1-2,0.4-4.1,2.2-5.5c1.3-1,2.6-1.9,4-2.8
			c1.5-0.9,2.1-2,1.6-3.2c-0.6-1.5-2-2.1-3.6-1.6c-0.4,0.1-0.9,0.2-1.5,0.4c-0.7-3.2-2.7-3.3-5.4-1.8c0.5-5.2,1-10,1.5-15
			c1.1-0.6,2.5-1.3,3.8-2c2.6-1.3,6.5-1.9,9.3-1.2c1.8,0.4,3,1.4,3.1,2.5c0.1,4.4,0.2,8.8,0.3,13.2c0,0.5-0.1,1-0.4,1.5
			c-0.9,2-2.5,3.8-2,6.3c0.1,0.4,0.6,0.8,0.9,1.2c-0.1,0.7-0.2,1.4-0.4,2c-0.9,4.8-2.2,9.6-2.6,14.5c-0.6,7.9,0,18.8-0.3,26.4
			c0,3.2,2.8,11.6,2.8,11.6c-0.4,4.8,1.3,4.8,1.2,9.5c0,0.5-0.1,1-0.2,1.3c-0.3,0.1-0.7,0.1-1.3,0.1c-0.6,0-1.2-0.3-1.8-0.5
			c-1.8-0.5-4.8-1.2-6.1,0.8c-0.3,0.2-0.5,0.4-0.7,0.7c-0.3,0.1-0.6,0.3-0.9,0.4c-0.4,0.3-0.9,0.6-1.2,1c0,0,0,0,0,0
			c-0.3,0.1-0.5,0.3-0.6,0.5c-0.1,0.2-0.3,0.5-0.4,0.7c-0.7,0.6-1.5,0.9-2.5,1c-1.6,0.2-3.2,0.4-4.8,0.4c-10.4,0-13.5,0.1-23.9,0.1
			c-1.3,0-8.7,8-9.9,7.7c-3.3-0.9-5.7-11.1-5.6-14.5c0.1-2.7,1.5-5.3-0.8-5.6c-3.9-0.4-7.9-0.9-11.7-1.5c-2.5-0.4-4.6-1.8-6.2-3.7
			c-0.3-0.3-0.6-0.7-0.9-1.1C268.7,221.5,268.9,221.6,269.1,221.7z"/>
		<path class="st62" d="M328.8,466.4c0.3,3.9,0.5,17.6,0.8,21.3c0.1,0.8,0.1,1.5,0.2,2.3c0.3,7.2,0.6,14.5,1,21.7
			c0.4,6.6,1.1,13.2,1.6,19.8c0.6,6.9,1.4,13.9,2,20.8c0.3,3.6,0.5,7.3,0.7,10.9c0.2,3.3,0.5,3.5,0.8,7.1c3.7,0,7.3,0,11,0
			c3.7,0,3.9,4.6,4.9,0c1.6-8.1,3-17.6,4.4-25.8c1.3-8.1,2.5-16.2,3.8-24.2c2-12.5,3.8-24.9,6-37.3c0.9-5.1,2.4-9.9,3.5-14.9
			c0.8-3.7,1.4-7.5,2-11.2c0.1-0.9-0.1-1.9-0.1-2.8c-1.8-0.2-3.4-0.2-5-0.5c-0.5-0.1-1.2-0.9-1.3-1.5c-1-3.4-1.6-7.1-4.5-8.9
			c-1.7-1.1-3.2-3-5.5-1.6c-0.7,0.4-1.8-0.6-2.8-0.9c-2.5-0.7-4.6,0.2-6.5,2.3c-0.3,0.3-0.4,0.9-0.8,1.8c2.8-0.5,4.7-3.7,7.2-2.6
			c-1,2.2-2.1,4.6-3.3,6.9c-0.3,0.6-1.1,0.8-1.8,1.3c-0.9-1.8-1.7-3.5-2.6-5.5c-0.4,0.7-0.9,1.3-1.2,2c-0.4,1-0.8,2-1.2,3
			c-1,2.5-1.7,2.9-3.8,2.5c-3-0.5-6-0.8-9-1.3c-3.5-0.5-7.1-1.1-10.6-1.6c-2.6-0.4-5.1-0.7-7.7-0.9c-4.5-0.4-8.9-0.6-13.4-0.9
			c-2-0.1-4.1-0.4-6.1-0.4c-8.2-0.2-16.3-0.3-24.5-0.5c-3.9-0.1-7.9-0.3-11.8-0.4c-6.8-0.2-13.5-1.9-20.1-4
			c-4.2-1.3-8.4-2.5-12.6-3.7c-0.5-0.1-1,0-1.6,0c0.8,3.9,1.2,7.8,2.5,11c1.7,4.1,2,8.6,3.5,12.7c0.4,1.1-2.3-8.1,15.6-4.5
			c16.2,3.4,74.5,7.9,77.7,7.9C322.9,465.9,325.9,466.2,328.8,466.4z"/>
		<path class="st63" d="M331.5,165.7c0.9,0.1,1.9,0.4,3,0.4c0.4,0,1.1-0.4,1.3-0.8c1.4-3.1,2.9-2.5,4.2-5.6c1.3-3.1,2.8-5.9,5.3-8.1
			c1.7-1.6,3.5-2.8,6-2.3c1.1,0.2,1.7-4,1.7-5.2c0-3.3,0.4-6.5,0.2-9.8c-0.3-4.1-0.8-8.1-1.5-12.1c-0.7-4.1-2.6-7.7-5.1-11
			c-0.8-1.1-2.5-2.4-3.7-3.1c-6.2-3.3-12.8-5.5-19.6-7.2c-9.2-2.3-18.1-2.1-27.4-0.1c-3.3,0.7-6.7,1.6-9.1,4.4c-0.5,0.6-1,1.3-1.3,2
			c-0.8,1.9-0.4,3,1.7,3.6c2.7,0.8,5.4,0.8,8.2,0.2c5.5-1.2,11-2.5,16.6-3.3c3.3-0.5,6.8-0.8,10.2-0.3c6.4,1,7.8,4.8,8,5.5
			c1.8,7.4,2,39.7,2,40.9c0,0.1,0,0.2,0,0.3C331.9,157.9,331.7,161.8,331.5,165.7z"/>
		<path class="st62" d="M286.8,570.1c1.4-6.9,1.4-11.1,1.9-17.9c0.7-11,1.7-45.3,2.6-56.3c0.1-1,0.3-1.9,0.5-3c1.5,1,2,1.8,6.2,2.7
			c0.4,0.1,0.8,0.3,1,0.7c1.8,2.9,3.7,5.5,4.9,8.7c3.6,9.6,7.2,42.8,10.6,52.5c0.5,1.5,0.8,3,1.4,4.6c0.2-0.1-8.9-52.6-10.1-58.4
			c-1.5-4.9-0.8-6.6-2.1-9.9c-0.9-2.1,4-0.7-5.9-2.5c-9.9-1.8-22.4-8.7-27.4-14.3c-0.5-0.3-1.1-0.4-1.9-0.7c0.3,2.8,0.5,5.2,0.8,7.6
			c0.7,6.1,5.9,77.6,6,83c0,3,0,3.3,2.3,3.3C280.5,570.1,283.6,570.1,286.8,570.1z"/>
		<path class="st64" d="M285.5,596.9c2-6.1,0.8-11.6,0.5-17c-0.3,0-0.5-0.1-0.5-0.1c-3,2-5.9,1.6-8.7-0.2c-3.8-2.4-7.4-1.8-11.5,0
			c-5.3,2.4-10.9,3.9-16.5,5.6c-5.8,1.8-11.8,3.3-17.6,5c-1.9,0.6-3,2.1-3,3.8c0,1.3,1.6,3.4,3.1,3.8c1.2,0.3,2.5,0.6,3.8,0.6
			c6.8-0.2,13.7-0.5,20.5-0.8c4.9-0.2,9.8-0.5,14.7-0.6C275.3,596.8,280.4,596.9,285.5,596.9z"/>
		<path class="st64" d="M346.9,597.4c1.6-5.8,0.8-11.5,0.6-17.7c-0.8,1-1.4,1.5-1.8,2.1c-0.9,1.5-2.1,1.5-3.3,0.7
			c-3.2-2.1-6.9-2.5-10.5-2.7c-1.7-0.1-3.6,0.2-5,1c-5,3.1-10.6,4.6-16,6.4c-1.8,0.6-3.6,1.2-5.3,2c-1.6,0.7-2.6,2.3-2.5,3.9
			c0.1,1.5,1.5,3.5,3,3.9c0.7,0.2,1.5,0.5,2.3,0.5c4,0.1,8,0.2,12,0.1c4.8-0.1,9.6-0.9,14.3-0.5c2.9,0.3,5.8,0.2,8.7,0.4
			C344.4,597.7,345.6,597.5,346.9,597.4z"/>
		<path class="st61" d="M337.7,175c0.7-0.2,1.6-0.2,2.2-0.6c5.7-3.2,9.9-7.7,11.8-14.1c0.8-2.7,1.1-5.4,0.2-8.2
			c-1.3-4.1-4.6-4.6-8.1-2.2c-4.4,3-6.9,7-9.6,11.3c-1.5,2.3-1.8,5.1-1.9,7.8C332.2,171.9,335,174.8,337.7,175z"/>
		<path class="st65" d="M283.7,179.3c0-0.8,0-1.3,0-1.7c-2.7-0.4-5.4-0.8-8.1-1.4c-1.4-0.3-2.7-0.9-3.9-1.7
			c-1.2-0.7-1.5-1.9-1.1-3.3c1.5-4.5,3.8-8.5,6.9-12.2c1.6-1.9,3.4-3.8,5.1-5.7c0.2-0.3,0.2-0.7,0.3-1.1c-0.4,0.1-0.9,0-1.2,0.2
			c-4.7,3.2-9,6.8-12.6,11.3c-1.3,1.7-2.6,3.3-3.9,5.1c-2.7,3.8-1.9,7.6,2.4,9.5c2,0.9,4.3,1.3,6.5,1.3
			C277.3,179.8,280.4,179.4,283.7,179.3z"/>
		<g>
			<path class="st66" d="M307.4,456.9c-4.9,0-10-0.1-14.8-0.2l-1.1,0c-8.4-0.2-16.5-0.5-24.8-1.3c-8.8-0.9-17.3-2-25.8-4.4
				c-7.1-2.1-12.8-5-17.3-8.9c-4.7-4.1-10-8.7-13.4-15.1c-2.9-5.4-6-11.8-7.3-18.7c-2.1-11.4-0.1-22.7,2.1-32.3
				c2.1-9.1,4.6-18.3,7.6-28.2c2.3-7.7,4.9-15.5,7.4-23.1c0.9-2.8,1.8-5.6,2.8-8.4c0.7-2,1.3-4,2.1-6c0.1-0.2,0.2-0.4,0.2-0.7
				c-3.5-0.4-6.2-2.1-8-5.2c-0.2,0-0.4,0-0.7,0c-1.7,0-3.3-0.3-4.8-0.6c-1.4-0.3-2.8-0.6-4.1-0.6c-0.6,0-1.1,0.1-1.7,0.2l-0.2,0
				l-0.2,0c-0.4,0-0.8-0.1-0.9-0.2c-3.3-0.9-5.8-3.3-6.8-6.5c-1.1-3.3-0.4-7.1,1.9-10c2.4-3.1,5-6.2,7.6-9.2
				c4.6-5.4,9.6-11.1,15.9-15.6c3.4-2.4,7.3-4.9,11.8-7.6c3.6-2.2,19.3-7.7,25.4-9c0.9-0.2,2.2-0.2,4.4-0.3
				c3.8-0.1,10.1-0.3,19.6-1.4c0.1,0,0.2,0,0.3,0c1.3,0,3.1,1,5.7,2.6c1.2,0.7,3.1,1.9,3.9,2.1c0.9-0.5,3.1-2.5,4.7-3.9
				c3.9-3.5,5.4-4.7,6.6-4.8c25.1-2.9,47.4-5.4,47.6-5.4l0.2,0l0.2,0c8.1,1.4,14.5,5.6,19.3,12.4c0.9,1.3,1.8,2.4,2.7,3.2
				c4.8,4.5,7.4,10.2,7.6,16.5c0.1,4.9,0,9.8-0.2,14.6c-0.1,2.2-0.2,4.4-0.2,6.7c0,0.8,0,1.7,0.1,2.5c0.5,3.2,1.1,6.3,1.7,9.5
				c1,5.8,2.1,11.8,3.1,17.7c2.1,13.3,3.2,26.7,3.4,40c0.3,21.8-1.3,41.5-5,60.3c-2.3,12-7,20-13.7,29.1c-0.3,0.4-0.6,0.9-1,1.5
				c-1.4,2.2-3.2,5-6,5.3c-1.4,0.2-2.9,0.4-4.3,0.6c-0.9,0.1-1.7,0.3-2.6,0.4c-9,1.3-18.1,1.6-26.9,1.8c-4.1,0.1-8.4,0.2-12.6,0.4
				C315.3,456.8,311.6,456.9,307.4,456.9z"/>
		</g>
		<path class="st26" d="M256.5,251.2c2.2-0.5,4.4-1,6.6-1.4c3.9-0.7,7.8-1.3,11.7-1.8c1.2-0.2,2-0.5,2.3-1.7
			c0.2-0.6,0.5-1.1,0.8-1.6c0.8-1.6,0-3-1.9-2.7c-3.9,0.6-7.9,1-11.5,2.5c-3.1,1.3-5.6,4-8.4,6.1C256.3,250.8,256.4,251,256.5,251.2
			z"/>
		<path class="st67" d="M202,285c-2.2,1.9-4,4-4.2,7.1c0,0.6,0,1.2,0.1,1.8c0.3,1.9,1.8,3.1,3.6,3c1.8-0.1,3.3-1.4,3.3-3.4
			c0-1.4,0.5-2.3,1.5-3.2c10-8,24-8.3,32.7,6.1c0.3,0.4,0.4,0.9,0.7,1.3c1.1,1.6,2.9,2.2,4.5,1.4c1.6-0.8,2.2-2.6,1.6-4.4
			c-0.2-0.6-0.5-1.2-0.9-1.8C240.1,285.4,220.9,274.5,202,285z"/>
		<path class="st68" d="M334.4,238.3c1.9-0.9,3.9-1.7,5.8-2.7c2.4-1.4,6.3-1.6,9-1c1.6,0.4,3.2,0.7,4.8,0.9
			c7.7,1.3,14.1,4.8,18.8,11.2c1.3,1.7,2.7,3.4,4.2,5c3.2,3.3,5.1,7.2,5.9,11.6c0.9,4.8,0.5,9.6,0.2,14.5c-0.3,3.9-0.7,8-0.1,11.8
			c1.8,12.3,4.3,24.4,6,36.7c1.2,8.9,2,39.9,2,46.5c-0.1,15-2.2,29.8-5,44.6c-2.1,11.3-6.9,18.4-13.4,27.6c-1.2,1.7-2.6,5.7-4.7,5.9
			c-7,0.8-15.5,1.8-22.6,2.3c-8.1,0.6-16.1,0.9-24.2,1c-23.1,0.3-46.1,1-69-3.2c-7-1.3-13.9-2.8-20.3-6.2c-4.6-2.4-8.2-5.8-12-9.1
			c-4.8-4.2-8-9.4-10.8-15c-0.5-1-0.9-2-1.3-3c0.8,0.3,1.4,0.7,2,1.1c5.4,4,11.1,7.4,17.8,8.8c5.9,1.3,11.9,2.3,17.8,3.4
			c0.4,0.1,0.7,0,1,0c-0.8-2.5-1.7-4.9-2.2-7.4c-2.2-10-1.7-20.2-0.9-30.3c1.4-18.5,4.7-36.7,10.8-54.3c0.2-0.5,0.2-1.1,0.4-2.1
			c-13.5,5.1-26.6,10.1-40.8,12.3c0.1-0.8,0.2-1.3,0.4-1.8c2.9-9,5.8-18,8.6-27c0.4-1.2,1-1.8,2.2-2.3c6-2.4,11.9-4.9,17.8-7.5
			c2.5-1.1,5-2.1,6.7-4.4c2.2-2.9,5.5-3.8,9.1-3.9c2.3-0.1,4.7-0.3,6.9-0.7c3.2-0.6,6.3-0.4,9.4,0.7c1.4,0.5,3.1,0.7,4.5,0.3
			c7.4-1.7,14.6,4.5,13.6,12c-0.1,1.1,0.2,1.6,1.2,2c5.6,1.8,11.1,3.9,16.8,5.4c4.5,1.1,9.3,1.5,13.9,2.1c1.4,0.2,2-0.4,2-1.9
			c0.1-1.4,0.3-2.9,0.9-4.2c1.2-2.5,2.6-4.8,4.1-7.1c0.3-0.5,0.7-1,1.2-1.1c2.3-0.6,3.9-2.2,5.3-3.9c2.9-3.5,5.6-7.2,8.6-10.7
			c9.6-11.4,14-24.3,12.3-39.2c-0.6-5-2.1-9.7-4.2-13.9C351.7,238.2,334.4,238.3,334.4,238.3z M312.8,357.1
			c-13.3-3.1-21.9-11.2-34.8-15.7c-1.9-0.7-2.9,0-3.2,2c-0.6,4-1.3,7.9-2.1,11.8c-0.2,0.7-1,1.5-1.7,2c-4,2.8-8.1,5.4-12.1,8.2
			c-2.1,1.4-4.1,2.9-6,4.4c-0.4,0.3-0.6,0.9-0.7,1.4c-2.5,14.1-3.9,28.4-3.2,42.7c0.2,3.8,1.1,7.6,1.9,11.3c0.2,1.2,0.8,2.5,1.5,3.5
			c1.5,2.3,3.2,4.1,6.4,4.1c4.4-0.1,8.7,0.3,13.1,0.4c3.5,0.1,3.5,0,4-3.5c0.4,0,0.8,0,1.2,0.2c9.3,2.5,18.7,3.5,28.3,3.5
			c6.5,0,13,0.1,19.4-1c3.8-0.6,6.6-2.3,8.7-5.5c4.1-6.3,6.7-12.9,6.8-20.5c0.2-9.3,0.8-18.6,1.2-27.9c0.3-6.8,0.7-13.7,1-20.5
			c0-0.8,0-1.5,0-2.5C333.7,357.9,321.1,359,312.8,357.1z M260.4,359.7c0.3-0.2,0.5-0.9,0.5-1.4c-0.1-0.7-0.4-1.4-0.6-2.1
			c-0.3-1.4,0.2-2.4,1.5-2.9c1.6-0.6,3.2-1.2,4.8-1.8c0.7-0.2,1.4-0.6,2.1-0.5c2,0.2,2.2-0.9,2.2-2.5c0.1-2.6,0.4-5.2,0.8-7.8
			c0.1-0.9,0-1.5-1-1.8c-2.6-0.9-5.2-1.9-7.7-2.8c-0.9-0.3-1.5-0.1-1.8,0.8c-2.4,8.2-4.8,16.4-7.2,24.6c0,0.1,0,0.3,0.1,0.8
			C256.4,361.4,258.5,360.6,260.4,359.7z"/>
		<path class="st69" d="M254.8,363.4c-5,16.4-6.7,45.5-5.7,56.5c1,11,8,19.1,11.4,21.4"/>
		<path class="st70" d="M310.4,270.7c-0.6,2,0.3,3.5,1.9,4.9c1.4,1.3,3.7,1.3,4.7-0.2c1-1.4,2.3-1.4,3.5-0.9
			c2.3,0.9,4.7,1.7,6.6,3.1c4.8,3.6,9.4,7.5,13.9,11.5c4.5,4,8.4,8.6,11.9,13.5c0.7,1,1.7,1.8,2.6,2.6c1.4,1.2,6.4,7.6,7.7,6.6
			c1.3-1,4.4-5.8-1.1-14.5c-2.1-3.4-8.4-8.6-10.9-11.7c-7.3-8.2-22.4-15.8-26.4-17.5C319.8,265.9,311,265.3,310.4,270.7z"/>
		<path class="st71" d="M219,435.9c1.2,4,2.4,9.6,3.7,13.5c0.2,0.5,0.8,1.1,1.4,1.2c9.9,2.6,19.9,5,30.1,6c7.9,0.7,15.8,1,23.7,1.5
			c8.2,0.5,16.4,1.2,24.6,1.2c12,0,24-0.4,36.1-0.8c8.8-0.3,17.5-0.7,26.3-1.2c2-0.1,4-0.4,6-0.8c0.5-0.1,1.1-0.6,1.2-1.1
			c1.1-3.7,2.1-7.4,3-11.1c0.4-1.5-0.5-2.3-2.3-2.3c-1.3,0-2.6,0.2-3.9,0.3c-8.7,0.8-17.3,1.6-26,2.4c-14.2,1.3-28.5,0.8-42.8,0.5
			c-13.5-0.3-27-1.2-40.5-2.4c-8.4-0.7-16.7-2.3-25-3.4C229.5,438.8,224.4,437.6,219,435.9z"/>
		<path class="st26" d="M247,369.2c1.7-0.9,3.2-1.6,4.7-2.5c4.9-3.1,9.7-6.2,14.6-9.4c0.2-0.1,0.3-0.3,0.5-0.4c3.3-1.2,4-4,4.6-7.1
			c1.2-6.3,2.5-12.5,3.9-18.8c0.3-1.2,0-2-1-2.7c-3.4-2.4-6.8-4.8-10.2-7.2c-1.9-1.4-3.7-1.7-6.3-0.7c-3.9,1.5-6,4-7.7,7.6
			c-3.9,8.2-6.4,16.8-8.5,25.6c-0.1,0.6-0.2,1.3,0,1.8C243.3,360,245.1,364.4,247,369.2z"/>
		<path class="st68" d="M230,300c1.4,0.3,2.5,0.5,3.9,0.8c-1-6.2,2.1-10.6,5.5-15c2.7-3.5,5.6-6.9,7.4-11.2
			c1.9-4.6,5.2-8.4,8.9-11.8c0.9-0.9,1.8-1.8,2.4-3c-0.3,0.1-0.6,0.3-0.8,0.4c-4.9,3.4-9.8,6.8-14.6,10.3c-1,0.7-1.9,1.9-2.4,3
			c-3.3,8-6.4,16.1-9.6,24.2C230.4,298.3,230.3,299,230,300z"/>
		<path class="st68" d="M357.8,242.6c0,0-4-2.5-20.3,4.2c-16.3,6.7-23.6,12-23.6,12l-5.1-5.6c0,0-6,2.4-13.1,2
			c-7.1-0.4-12.5-1.8-14.5-3.6c-2-1.8-3.4-2-3.4-2l1.2-6.5l5.1-5.6l6,9l6.7-2.3l9.1-3.8c0,0,6-2.4,6-1.8c0,0.7,20.5-3.1,20.5-3.1
			s15.8-3.3,16.5-2.7c0.7,0.7,7.4,3.1,7.1,3.8C355.8,237.5,357.8,242.6,357.8,242.6z"/>
		<path class="st72" d="M291.5,246.7c-1.3-5-2.7-11.7-4.7-11.4c-2,0.3-2,2.7-3.3,3.3c-1.3,0.7-5.8,3.8-5.6,5.9
			c0.2,2.1-2.4,4.5-2.4,4.5s9,1.3,12.6,1C291.9,249.8,291.5,246.7,291.5,246.7z"/>
		<g>
			<path class="st73" d="M288,232.2c-1.8,0.5-4.8,1.3-6.5,2.8c-0.4,0.3-0.8,0.8-1,1.3c-1.4,3.4-2.8,6.8-4.2,10.1
				c-0.3,0.9-0.7,1.8-0.8,2.7c0,0.6,0.5,1.2,0.8,1.8c0.5-0.4,1.1-0.6,1.4-1.1c1.6-3,3-6.1,4.6-9.2c0.1-0.3,0.3-0.6,0.5-0.8
				c3.4,4.7,6.7,9.3,10.3,14.2c1.8-2.1,3.3-3.9,4.8-5.8c1.4-1.7,2.7-3.3,4.1-5c1.1-1.3,3.3-1.3,4.3,0.2c0.6,0.8,1.2,1.8,1.7,2.7
				c1.5,2.8,2.4,5.2,3.9,8c0.4,0.8,0.3,1.4,1.2,1.1c12.1-4.2,23.9-9.1,35.2-15.2c1.6-0.9,3.2-1.7,4.8-2.6c3.1-1.7,4.4-5.1,2.8-8.3
				c-1.6-3.4-3-4.4-4.9-7.6c-0.5-0.9-1.9-4-2.8-4.3c-5.6-1.9-2.4,0-2,0.9c2,3.9-0.7,5.7-4.1,7.3c-3.1,1.5-6.4,2.5-9.7,3.6
				c-6.1,2-12.2,3.9-18.4,5.7c-3.6,1-7.4,1.7-11.1,2.5c-0.7,0.2-1.5,0.5-1.9,1.1c-2.1,2.5-4.2,5.2-6.2,7.7c-0.4,0.5-0.8,1-1.4,1.9
				c-1.8-4.3-3.2-8.4-4.9-12.6C287.8,233.9,288.5,233.6,288,232.2z"/>
		</g>
		<path class="st26" d="M269.4,281.2c2.8,1.1,7.1-0.6,9.8,0.6c0.9,0.4,1.6,1.1,2.5,1.6c0.7,0.5,1.4,1.1,2.2,1.4
			c1.1,0.5,1.9,0.2,2.7-1c3.2-5.3,6.8-10.4,8.8-16.2c1.4-4,2.3-8.2,3.5-12.3c0.1-0.4,0.7-0.9,1.2-1c2.7-1,5.5-1.9,8.2-2.9
			c1.6-0.6,1.7-1.1,0.9-2.6c-1-1.7-2-3.5-2.9-5.3c-0.4-0.9-1-1.1-1.9-0.7c-0.7,0.3-1.3,0.6-2,0.8c-2.6,1-4.1,2.1-7,1.4
			c-2.4-0.6-5.5-0.4-8.2-0.4c-0.2-0.3-1-0.4-1.2-0.8c-0.3-0.3-1.3-1.5-1.6-1.5c-0.6-0.1-0.6,0.6-1,1.3c-0.8,1.4-1.6,2.8-2.2,4.3
			c-0.2,0.4,0.1,1.2,0.3,1.7c0.4,0.8,1.1,1.6,1.4,2.4c0.2,0.6,0.2,1.4,0.4,2.2c0.2,1.2-1.9,4.6-3.1,6.1
			C276.6,264.9,271.2,275,269.4,281.2z"/>
		<path class="st39" d="M310.2,148.4c-2.8-0.4-5.4-0.9-8-1.3c-1-0.1-1.8-0.1-2.5-1.1c-1.3-1.8-4.2-2.3-5.1-0.2
			c-0.4,0.8-0.3,2.6-0.3,3.5c0,2,0.1,7.6,3,8.9c5.6,2.5,9.8,0.4,11.9-5.2C309.7,151.7,309.8,150.2,310.2,148.4z"/>
		<path class="st39" d="M271.4,143.7c-0.1,2.1-0.2,4.1-0.3,6.2c-0.1,2.8-1.9,5.5-2,8.5c3.1,0.6,5.4-0.9,6.7-2.6
			c1.8-2.1,2.5-6.3,1.6-8.9c-0.8-2.6-3.8-1.9-5.5-3.6C271.8,143.4,271.6,143.5,271.4,143.7z"/>
		
			<ellipse transform="matrix(6.758436e-02 -0.9977 0.9977 6.758436e-02 130.3649 443.7608)" class="st74" cx="302.6" cy="152.1" rx="4.9" ry="3.4"/>
		<path class="st26" d="M300,152.1c0,0.3-0.1,0.6-0.1,1c0,1,0.2,2,1.4,2.2c1.3,0.2,1.7-0.8,2-1.8c0.1-0.3,0.1-0.6,0.1-0.9
			c0-1.1-0.1-2.2-1.5-2.4C300.6,150,300.4,151.1,300,152.1z"/>
		
			<ellipse transform="matrix(9.572890e-02 -0.9954 0.9954 9.572890e-02 95.1152 409.0005)" class="st74" cx="272.7" cy="152.1" rx="4.9" ry="3.1"/>
		<path class="st39" d="M305.1,151.4c2.1,0.2,2.9-0.4,3.4-1.7c0.4-1.1,0.1-1.9-1-2.3c-2.3-0.7-4.5-1.4-6.8-2
			c-2.1-0.5-2.6-0.1-2.9,2.1c0,0.3-0.4,0.5-0.4,0.7c0.1,0.6,0.3,1.5,0.7,1.6C300.6,150.5,303.2,151,305.1,151.4z"/>
		<path class="st63" d="M293.2,141.6c0.2,1.8,0.4,3.6,0.7,5.4c0,0.3,0.6,0.6,0.9,0.7c5.4,0.9,10.8,1.7,16.3,2.6
			c1.3,0.2,2-0.3,2.5-1.4C310.8,146.7,295,141,293.2,141.6z"/>
		<path class="st26" d="M270.2,152.3c0,0.3,0,0.6,0,1c0.2,1,0.5,2,1.7,2c1.3,0,1.6-1,1.8-2.1c0-0.3,0-0.6,0-0.9
			c-0.1-1.1-0.4-2.2-1.8-2.2C270.5,150.1,270.4,151.3,270.2,152.3z"/>
		<path class="st39" d="M268.8,150.9c2,0.1,4.7-0.1,6.6,0c1.1,0,1.3-1.1,1.2-2.7c0-1.2-0.8-1.7-1.8-1.9c-1.5-0.3-3-0.6-4.5-0.9
			C269.8,147.3,269.4,149,268.8,150.9z"/>
		<path class="st63" d="M266.8,144.4c0.8,2,2,2.9,3.6,2.9c2.1,0.1,4.2,0,6.3-0.1c1.1-0.1,1.5-0.7,1.1-1.9c-0.5-1.3-0.8-2.7-1.2-4.3
			C273.3,142.2,270.1,143.3,266.8,144.4z"/>
		<path class="st69" d="M251.6,283.1c-4.4-7-22.7-19-41.2-8.7"/>
		<path class="st26" d="M368.4,254.3c3.5-0.8,6.4-2.1,9-4.2c0.3-0.2,0.4-1.1,0.1-1.4c-0.6-1.1-1.3-2.2-2.2-3.1
			c-4.5-4.2-9.6-7.6-15.3-10c-1.1-0.5-2.2-0.5-3.3,0.1c-1.8,1-3.7,1.9-5.6,2.9c-1.1,0.5-1.2,1.3-0.5,2.1c0.7,0.8,1.4,1.6,2.2,2.3
			c4.7,3.6,9.4,7.1,14.1,10.6C367.4,254,368,254.1,368.4,254.3z"/>
		<path class="st69" d="M310.9,269.1l7.7-10.5c3-2,9.1-2.9,12.9-1.4c4.1,1.7,19.2,9.3,26.4,17.5c2.5,3.1,8.7,8.3,10.9,11.7
			c5.5,8.7,2.4,13.5,1.1,14.5l-6.4,9.9"/>
		<g>
			<path class="st61" d="M199.3,291.3c0.9-1.2,3.4-3.6,5.5-4.7c8.9-4.9,18.3-5.3,27.9-2.3c5.1,2.7,7.1,0.2,7.8-0.6
				c0.4-0.4,0.8-1.6,1.3-2.1c0.8-1-0.5-3.1,0.7-3.6c4-1.7,10.6-2.1,14.9-1.5c5.6,0.8,10.8,2.1,16.3,3.6c3.1,0.9,6.6,2.8,9.2,4.7
				c2.9,2,6.2,2.4,9,0.3c0.9-0.7,2-1.1,3.3-1.7c-0.1,0.9-0.3,1.5-0.3,2c0,0.4,0.4,0.8,0.6,1.2c0.3-0.2,0.7-0.5,1-0.7
				c0.3-0.2,0.6-0.4,0.8-0.6c0.5-0.4,1.2-0.7,1.3-1.2c0.6-3,6.7-9.1,7.7-10.1c4.3-4.2,7.9-5.9,14.9-3.4
				c12.6,4.4,24.1,10.7,33.3,20.6c4,4.2,7.4,8.8,8.7,14.6c0.2,1,0.3,2.2-0.1,3c-4.3,8.8-10.1,16.6-16.7,23.8
				c-7.1,7.7-16.3,12.2-26.2,15c-2.9,0.8-6.1,1-9.1,0.6c-8.7-1.4-16.6-5.4-24.3-9.4c-6.1-3.2-11.7-7.4-17.6-11.2
				c-2.7-1.8-5.3-3.7-8.1-5.3c-0.6-0.4-1.7-0.3-2.4,0c-5.3,2.2-10.5,4.9-16,6.8c-8.3,2.9-16.7,5.4-25.1,8c-2.8,0.9-5.8,0.6-8.7-0.1
				c-5.3-1.4-9-4.8-12.3-8.9c-2.6-3.1-4.5-6.5-4.7-10.6C191.8,317.5,189.1,304.8,199.3,291.3z"/>
		</g>
		<path class="st39" d="M311.7,270c9,2.2,19,8.6,23.8,12.6c3.8,3.2,7.1,6.9,10.6,10.3c0.9,0.9,0.9,1.7,0.3,2.8
			c-5.1,9.4-11.9,17.6-18.7,25.7c-3.5,4.1-7.8,6.8-12.5,8.9c-1.9,0.9-4.5,0.8-6.6,0.4c-10.9-2-19.7-8.1-28.1-15
			c-1.6-1.3-3.2-2.4-4.8-3.6c-7-5-29-27.2-33.2-34.2c-2.9,2.2-1.9,8.5-6.7,7.4c0.1,0.2-0.2,0-0.2,0.1c3,0,6.2,0.3,9.1,0.3
			c0.6,4.6,2.7,8.4,4.4,12.4c1.3,3,2.7,5.8,4.2,8.9c-4,1.8-7.9,3.2-12,3.8c-11.8,1.9-23.5,3.8-35.3,5.7c-1.1,0.2-2.3,0.5-3.4,0.8
			c-2.7,0.7-4.5,0-5.9-2.4c-2.3-4.1-2.9-8.6-2.3-13.2c0-0.3,0-0.6-0.1-0.9c-2,4.7-3.5,9.4-2.4,14.7c0.3,1.3,0.6,2.6,0.7,3.9
			c0.2,3.7,2.4,6.4,4.5,9.1c3.2,4.2,7,7.5,12.3,8.9c3,0.8,6,0.9,8.9,0.1c8.2-2.5,16.4-4.9,24.5-7.7c5.6-2,10.9-4.7,16.4-7
			c0.7-0.3,1.8-0.4,2.4,0c1.9,1.1,3.8,2.4,5.6,3.6c6.6,4.3,12.9,9.2,19.9,12.9c6.3,3.4,13.2,5.8,19.9,8.4c7.7,3,14.8,0.6,21.9-2.4
			c9.4-3.9,16.8-10.2,23.1-18.1c4.2-5.4,7.9-11,11.2-17c0.7-1.3,0.8-2.6,0.5-4c-1.5-5.7-4.8-10.2-8.7-14.4
			c-9.2-9.9-21-18.2-33.7-22.5c-2.6-0.9-5.6-0.5-8.4,0.3C312.6,269.6,312.3,269.8,311.7,270z"/>
		<path class="st26" d="M347.5,281.7c-1.6,3.2-1.3,5.3,0.8,7.3c2.3,2,4.6,4,6.9,6c2,1.8,4.4,1.7,6.8,1.4c0.6-0.1,1.3-0.7,1.7-1.2
			c3.3-3.5,4.1-8,5.1-12.5c0.5-2.3,1.1-4.5,1.7-6.8c0.1-0.5,0.3-1.2,0.1-1.6c-1.6-3.3-3.2-6.6-4.9-9.9c-2.9,0.9-6,1.9-9.1,2.9
			c-0.4,0.1-0.8,0.7-1,1.1c-1.2,3.8-2.2,7.7-3.3,11.5c-0.6,1.9-0.6,2.9-2.2,4.1C350,284.3,348.8,282.7,347.5,281.7z"/>
		<path class="st63" d="M258.6,203.4c0.6,0,1,0,1.4,0c1,0.1,1.4-0.3,1.6-1.3c0.6-2.7,1.4-5.4,2-8.1c0.1-0.4,0.2-0.9,0.4-1.6
			c0,3.7,0,7.1,0,10.6c3.2,0.8,5.1,0.4,6.4-2.1c0.4-0.8,1.1-1.4,1.7-2.1c0.4,0.7,0.9,1.3,1.3,2.1c0.8,1.8,2.1,2.8,4.1,2.6
			c0.1,0,0.3,0,0.4,0c2.1,0.1,4.4,0.5,5.2-2.5c0.1,0.4,0.1,1,0.4,1.3c0.4,0.5,0.8,1.3,1.3,1.3c2.5,0.3,5,0.5,7.7,0.7
			c0.1-0.8,0.2-1.5,0.2-2.2c-0.1-5.6,0-11.2-0.3-16.7c-0.1-1.5-0.6-3.2-1.3-4.5c-1.3-2.5-3.8-2.9-6.3-3c-2-0.1-3.9,0.2-5.9,0.1
			c-2.6,0-3,1.1-7.8,0.8c-4.8-0.3-6.5-3.3-8.5,1.1c-2.2,4.8-2.5,8.1-2.9,13.5c-0.2,2.7-0.6,5.4-1,8.2
			C258.7,202.1,258.6,202.6,258.6,203.4z"/>
		<polygon class="st62" points="295.2,492.7 289.5,570.1 274.8,570.1 279.2,493.7 282.9,490.7 		"/>
		<rect x="261.2" y="564.6" class="st62" width="29.4" height="11.3"/>
		<rect x="315.5" y="564.6" class="st62" width="37.8" height="11.3"/>
		<path class="st75" d="M249.4,444.6c0.1,3.6,1.1,7,3.1,9.9c0.4,0.5,1.1,1,1.7,1.1c6.6,0.8,13.2,1.6,19.8,2.3
			c0.9,0.1,1.8,0.1,2.7,0.2c2.1,0.2,2.9-0.6,2.5-2.8c-0.6-2.9-1.2-5.9-1.8-8.8c-0.2-0.9-0.5-1.8-0.4-2.6c0.2-2.1-1-2.2-2.6-2.3
			c-7.6-0.5-15.2-1.2-22.7-1.9c-1-0.1-1.5,0.2-1.7,1.1C249.7,442.1,249.6,443.4,249.4,444.6z"/>
	</g>
	<path class="st66" d="M303,237.2c3.7-0.9,7.4-1.5,11.1-2.5c6.2-1.8,12.3-3.7,18.4-5.7c3.3-1.1,6.6-2.1,9.7-3.6
		c3.4-1.6,5.5-3.1,5.3-7.5c-0.1-1.2-0.2-1.2,0.8-0.8c1,0.4,2.3,3.4,2.8,4.3c1.9,3.3,3.3,4.3,4.9,7.6c1.6,3.2,0.3,6.6-2.8,8.3
		c-1.6,0.9-3.2,1.7-4.8,2.6c-6.4,3.4-13,6.5-19.7,9.3L322,234l-20.3,3.6C302.1,237.4,302.5,237.3,303,237.2z"/>
	<path class="st76" d="M371.2,299.1c4.2-5.6,9-18.7,10.9-26.1"/>
	<path class="st39" d="M291.8,278.1c-2.7-0.3-5.3-0.7-8-1c-2.5-0.3-4.9-0.4-7.1,1.1c-1.9,1.3-1.9,2.4-0.3,3.9c0.6,0.5,1,1.2,1.3,1.9
		c0.4,0.7,0.5,1.5,0.8,2.2c0.9,1.8,1,4.1,3.2,5.2c3,1.6,6,3.1,9.5,2.2c2.4-0.6,4.5,0.1,6.7,0.4c0.9,0.1,1.8,0.2,2.7,0.2
		c2.5,0,3.2-0.6,3.1-3c-0.3-4.6-2-8.6-5.1-12c-0.4-0.4-1.2-0.7-1.8-0.8C295.2,278,291.8,277.9,291.8,278.1z"/>
	<circle class="st77" cx="365" cy="270.3" r="2.8"/>
	<circle class="st78" cx="364.6" cy="269.9" r="1.6"/>
	<line class="st79" x1="376" y1="246.3" x2="365.4" y2="252.3"/>
	<line class="st79" x1="265" y1="243" x2="255.6" y2="250.8"/>
	<path class="st80" d="M336.7,580.8c-2.6,4.5-13.4,9-21.1,11.4c-7.1,2.2-11.5,0.7-12.6,0.4c0.2-1.4,1.1-2.6,2.5-3.2
		c1.7-0.7,3.5-1.4,5.3-2c5.5-1.8,11-3.4,16-6.4c1.4-0.8,3.3-1.1,5-1c1.6,0.1,3.3,0.2,4.9,0.5C336.7,580.5,336.8,580.7,336.7,580.8z"
		/>
	<path class="st80" d="M230.7,593.3c-0.9,0.1-1.7,0.2-2.6,0.2c0.1-1.5,1.1-2.8,2.9-3.4c5.9-1.7,11.8-3.2,17.6-5
		c5.6-1.7,11.2-3.3,16.5-5.6c2.9-1.3,5.5-1.9,8.2-1.3C265.8,581.6,251.3,590.3,230.7,593.3z"/>
	<path class="st81" d="M347.4,595.2c-0.1,0.7-0.3,1.5-0.5,2.2c-1.3,0.1-2.5,0.3-3.6,0.2c-2.9-0.1-5.8-0.1-8.7-0.4
		c-4.7-0.5-9.5,0.4-14.3,0.5c-4,0.1-8,0-12-0.1c-0.8,0-1.5-0.2-2.3-0.5c-0.9-0.3-1.7-1.1-2.3-2H347.4z"/>
	<path class="st81" d="M285.9,595.2c-0.1,0.6-0.3,1.2-0.5,1.7c-5,0-10.2-0.1-15.3,0c-4.9,0.1-9.8,0.4-14.7,0.6
		c-6.8,0.3-13.7,0.6-20.5,0.8c-1.3,0-2.5-0.3-3.8-0.6c-1.1-0.3-2.2-1.5-2.8-2.6H285.9z"/>
</g>
</svg>
