<?xml version="1.0" encoding="utf-8"?>
<!-- Generator: Adobe Illustrator 21.0.2, SVG Export Plug-In . SVG Version: 6.00 Build 0)  -->
<svg version="1.1" id="Layer_1" xmlns="http://www.w3.org/2000/svg" xmlns:xlink="http://www.w3.org/1999/xlink" x="0px" y="0px"
	 viewBox="0 0 792 612" style="enable-background:new 0 0 792 612;" xml:space="preserve">
<style type="text/css">
	.st0{display:none;}
	.st1{display:inline;fill:#1C798A;}
	.st2{display:inline;fill:#566463;}
	.st3{display:inline;}
	.st4{fill:#1C798A;}
	.st5{fill:#566463;}
	.st6{fill:#3D465A;}
	.st7{fill:#A0685D;}
	.st8{display:inline;fill:#3D465A;}
	.st9{display:inline;fill:#A0685D;}
	.st10{fill:#F7F8F8;}
	.st11{fill:#E3E3E3;}
	.st12{fill:#7EB5DB;}
	.st13{fill:#FFFFFF;}
	.st14{fill:#D7E7F3;}
	.st15{opacity:0.36;}
	.st16{fill:#EEB91D;}
	.st17{display:inline;fill:#282828;}
	.st18{font-family:'Calibri';}
	.st19{font-size:9.9942px;}
	.st20{font-family:'Raleway-Regular';}
	.st21{font-size:39.8419px;}
	.st22{fill:none;stroke:#727083;stroke-width:7;stroke-miterlimit:10;}
	.st23{fill:#7D4C3A;}
	.st24{fill:#FABBA4;}
	.st25{fill:#FBC7B1;}
	.st26{fill:#141744;}
	.st27{opacity:0.2;fill:#141744;}
	.st28{fill:#323E6F;}
	.st29{fill:#727083;}
	.st30{fill:#B2AFC2;}
	.st31{fill:#5A5769;}
	.st32{fill:#DDDDDD;}
	.st33{fill:#777684;}
	.st34{fill:#203568;}
	.st35{fill:#ACA9C4;}
	.st36{fill:#4B4A60;}
	.st37{fill:#E89371;}
	.st38{fill:#A7493D;}
	.st39{fill:#853630;}
	.st40{fill:#803A55;}
	.st41{fill:#6F3957;}
	.st42{fill:#DF7D54;}
	.st43{fill:none;stroke:#141744;stroke-width:1.4933;stroke-linecap:round;stroke-miterlimit:10;}
	.st44{fill:#1C1C2D;}
	.st45{fill:#A0533A;}
	.st46{fill:#26253A;}
	.st47{fill:#2D2E3B;}
	.st48{fill:#19234F;}
	.st49{fill:#A02A3C;}
	.st50{fill:#F04847;}
	.st51{opacity:0.32;fill:#26253A;}
	.st52{display:none;fill:#DDDDDD;}
	.st53{display:none;fill:#A29FB0;}
	.st54{display:none;fill:#203568;}
	.st55{display:inline;fill:#A29FB0;}
	.st56{display:none;opacity:0.55;fill:#CFD5EC;}
	.st57{opacity:0.55;fill:#CFD5EC;}
	.st58{fill:#F05247;}
	.st59{fill:#EA5544;}
	.st60{opacity:0.79;fill:#CE2E2A;}
	.st61{fill:#6176B1;}
	.st62{fill:#7A4162;}
	.st63{fill:#1B2C58;}
	.st64{fill:#F3885E;}
	.st65{fill:#FDBD63;}
	.st66{fill:#FBAF3F;}
	.st67{fill:#FFD72E;}
	.st68{fill:#F28155;}
	.st69{fill:#A2CC3A;}
	.st70{fill:#709C3F;}
	.st71{fill:#4D853D;}
	.st72{fill:#FFC645;}
	.st73{fill:#A29FB0;}
	.st74{fill:none;stroke:#141744;stroke-width:4.5943;stroke-miterlimit:10;}
	.st75{fill:#53803A;}
	.st76{fill:#3C6938;}
	.st77{fill:#64B15B;}
	.st78{fill:#63334B;}
	.st79{fill:#EDEEF0;}
	.st80{fill:#6E89C3;}
	.st81{fill:#1F7A8A;}
	.st82{fill:#454545;}
	.st83{font-family:'MyriadPro-Regular';}
	.st84{font-size:16.0703px;}
	.st85{font-size:5.0996px;}
</style>
<g id="subletor.com" class="st0">
	<polygon class="st1" points="717.5,331.2 719.7,383.9 713.1,473.4 703.1,474.1 691,392.8 674.3,324 	"/>
	<polygon class="st2" points="703.5,478.3 714.6,482.9 719.6,477.2 713.9,472.2 703.1,472.9 	"/>
	<g class="st3">
		<polygon class="st4" points="647,312.6 644.8,352.4 651.3,470.7 661.3,471.2 676.2,393.6 689.4,308.5 		"/>
		<polygon class="st5" points="661,475.4 649.9,480.3 644.8,474.6 650.5,469.5 661.3,470 		"/>
	</g>
	<g class="st3">
		<path class="st6" d="M720.1,198.7l-30.1-8.5c0,0-17.4-1.1-35.8,37.5c-10.3,21.5-18.2,56.7-23.3,83.7c0.1,4,1.4,21.6,19.7,21.8
			c31.4,0.2,48.5-1.9,61.4,2.8c10.9,4.4,12.6-11.4,13.4-23.5l1.7-37.6L720.1,198.7z"/>
	</g>
	<g class="st3">
		<path class="st7" d="M720.6,159.5c-7.4-3-15.1-5.9-23.1-5.7c-1.8,0-3.7,0.3-4.8,1.6c-0.5,0.5-0.8,1.1-1,1.7
			c-3.2,6.9-7.5,17.3-3.8,24.8c0.7,1.4,1.7,2.7,2.9,3.7c1.6,1.4,3.4,2.5,5.3,3.2c-0.7,1.7-1.6,3.4-2.6,5c1.3,3,9.5,4.7,11.5,2.4
			c0.5-2.2,0.9-4.4,1.4-6.6c1.1-0.2,2.1-0.6,3.1-1c3.9-1.7,6.8-4.9,8.9-8.6c2.2-4,5-7.8,7-11.9c0.8-1.5,1.5-3.3,0.9-4.9
			c-0.6-1.7-2.5-2.5-4.1-3.2C721.6,159.8,721.1,159.7,720.6,159.5z"/>
		<path class="st6" d="M694.2,159.3c4.2-1.8,10.2-1.9,13.7-1c10.7,2.6,13.4,11.3,12.3,21.4c3.6-3.3,10.1-7.1,11.2-12
			c1-4,1.3-9.5-0.3-13.4c-1.6-3.6-6.6-6.3-9.5-8.7c-2.7-2.3-5.4-4.6-8.1-6.8c-0.6-0.5-1.1-1-1.8-1.2c-0.8-0.3-1.7-0.2-2.6-0.1
			c-7.4,0.6-14.9,1.3-22.3,1.9c-1.4,0.1-3.1,0.4-3.8,1.6c-0.4,0.8-0.4,1.7-0.4,2.5c0.2,3.8,1.1,7.9,0.8,11.7
			c0.1,2.2-0.5,13.6,3.5,13c1.4-1.7,2-3.9,3.2-5.7C691,161,692.5,160,694.2,159.3z"/>
	</g>
	<polygon class="st8" points="690,190.2 678,191.7 629.3,228.1 624.4,242 638.7,278 646,266.9 641.7,241.3 656.6,234.2 681.2,197.3 
			"/>
	<polygon class="st8" points="713.1,200.2 738.1,181 743.6,118.4 753.5,115.9 755.5,180.6 749,195.6 719.9,224.2 	"/>
	<polygon class="st9" points="751.4,116.4 752.4,110.8 747.3,101 742.2,104.3 743.8,112.4 741.5,114.7 743.6,118.4 	"/>
	<g class="st3">
		<path class="st10" d="M364.2,454.6c-22.6,0.1-45.2,0.8-67.7,3.9c-8.5,1.2-16.8,3.7-25.3,4.8c-17,2.1-33.7,5.9-50.8,7.7
			c-13.7,1.4-27.6,2.3-41.3,4.1c-12.9,1.7-27.1,1.3-39.8-1.5c-9.4-2.1-18.9-3.3-28.2-6.6c-10.4-3.8-21.7-6.4-32.5-6.3
			c-15.4,0.1-30.5,0.2-45.2,6.8c-5.2,2.3-11.5,6.2-15.5,11c-9,11.2-10.2,39.1-1.2,50.7c15.2,19.5,47.5,27.2,68.7,27.6
			c23.3,0.4,45.9-1.7,69.2-3c21.7-1.2,43.3-2.8,65-2.8c44.3,0.1,88.6,0,132.9-3.7c41.6-3.4,83.2-2.3,124.9-2.3
			c42.7,0,85.1,0.4,127.5,7.4c18.5,3.1,37.3,4.1,55.9,6.3c16.6,1.9,32.6,0,49.2-1.8c13.9-1.5,27.7-5.9,40.4-13.4
			c10-5.9,27.8-24.3,30.9-38.4c8.6-39.6-121.2-38.7-141.1-38.6c-22.3,0.1-44.8,1-67,0c-9.4-0.4-18.6-2.7-27.7-5.2
			c-9.1-2.5-18.3-1.8-27.5-2.9c-38.5-4.3-77.1-3.7-115.8-3.7C389.4,454.7,376.8,454.6,364.2,454.6z"/>
	</g>
	<g class="st3">
		<rect x="84.4" y="109.4" class="st11" width="586.5" height="370"/>
		<rect x="84.4" y="80.6" class="st4" width="586.5" height="22.2"/>
		<rect x="84.4" y="102.8" class="st12" width="586.5" height="29.1"/>
		<rect x="145.1" y="113.4" class="st13" width="498.8" height="12.4"/>
		<g>
			<ellipse class="st10" cx="105.2" cy="90.7" rx="3.7" ry="3.7"/>
			<ellipse class="st14" cx="116.1" cy="90.7" rx="3.7" ry="3.7"/>
			<ellipse class="st12" cx="127" cy="90.7" rx="3.7" ry="3.7"/>
		</g>
		<g class="st15">
			<polygon class="st13" points="124.8,113.7 124.8,125.6 129.2,119.7 			"/>
			<polygon class="st13" points="107.3,125.6 107.3,113.7 103,119.7 			"/>
		</g>
	</g>
	<g class="st3">
		<g id="XMLID_279_">
			<circle id="XMLID_294_" class="st16" cx="205.5" cy="278.9" r="44"/>
			<path id="XMLID_280_" class="st13" d="M237.4,265.4c-1.7-4.1-4.2-7.8-7.4-11c-3.2-3.2-6.9-5.7-11-7.4c-4.3-1.8-8.8-2.7-13.5-2.7
				c-4.7,0-9.2,0.9-13.5,2.7c-4.1,1.7-7.8,4.2-11,7.4c-3.2,3.2-5.7,6.9-7.4,11c-1.8,4.3-2.7,8.8-2.7,13.5c0,4.7,0.9,9.2,2.7,13.5
				c1.7,4.1,4.2,7.8,7.4,11c3.2,3.2,6.9,5.7,11,7.4c4.3,1.8,8.8,2.7,13.5,2.7c4.7,0,9.2-0.9,13.5-2.7c4.1-1.7,7.8-4.2,11-7.4
				c3.2-3.2,5.7-6.9,7.4-11c1.8-4.3,2.7-8.8,2.7-13.5C240.1,274.2,239.2,269.7,237.4,265.4z M188.7,277.8c0-2.7,0.3-5.4,0.9-7.9
				h14.2v16.5h-14.1C189,283.5,188.7,280.7,188.7,277.8z M214.2,255c2.5,2.9,4.5,6.1,5.9,9.5c0.3,0.6,0.5,1.2,0.7,1.9h-13.6v-17.8
				C208.9,249.8,211.5,251.9,214.2,255z M203.8,249v17.4h-13.1c0.2-0.6,0.4-1.2,0.7-1.8c1.4-3.3,3.4-6.5,5.9-9.4
				C199.6,252.3,202.1,250.2,203.8,249z M203.8,289.8v18.7c-1.7-1.4-4-3.7-6.4-6.8c-2.5-3.2-4.5-6.7-6-10.2
				c-0.2-0.5-0.4-1.1-0.6-1.6H203.8z M207.2,308.9v-19.1h13.5c-0.2,0.5-0.4,1.1-0.6,1.6c-1.4,3.5-3.4,7-5.9,10.2
				C211.6,305,208.9,307.5,207.2,308.9z M207.2,286.3v-16.5h14.6c0.6,2.6,0.9,5.2,0.9,7.9c0,2.9-0.3,5.7-1,8.5H207.2z M225.4,269.9
				h9.9c0.9,2.9,1.3,5.9,1.3,9c0,2.5-0.3,5-0.9,7.5h-10.4c0.6-2.8,0.9-5.7,0.9-8.5C226.3,275.1,226,272.4,225.4,269.9z M227.5,256.8
				c2.8,2.8,5,6,6.5,9.5h-9.5c-0.3-1.1-0.7-2.2-1.2-3.2c-1.6-3.7-3.7-7.2-6.5-10.4c-1.4-1.7-2.8-3-4.1-4.2
				C218.3,249.9,223.4,252.7,227.5,256.8z M183.5,256.8c4.3-4.3,9.6-7.2,15.4-8.4c-1.3,1.2-2.8,2.6-4.3,4.3
				c-2.7,3.2-4.9,6.7-6.5,10.4c-0.5,1.1-0.8,2.1-1.2,3.2h-10C178.5,262.9,180.7,259.6,183.5,256.8z M175.7,269.9H186
				c-0.6,2.6-0.8,5.2-0.8,7.9c0,2.9,0.3,5.7,0.9,8.5h-10.9c-0.6-2.4-0.9-4.9-0.9-7.5C174.4,275.8,174.8,272.7,175.7,269.9z
				 M183.5,300.9c-3.2-3.2-5.6-7-7.1-11.1h10.7c0.3,1,0.7,2,1.1,3c1.6,3.8,3.7,7.6,6.4,11.1c1.8,2.3,3.5,4.2,5.1,5.6
				C193.5,308.3,188,305.4,183.5,300.9z M227.5,300.9c-4.3,4.3-9.7,7.2-15.6,8.5c1.5-1.4,3.2-3.3,4.9-5.5c2.7-3.5,4.9-7.2,6.4-11.1
				c0.4-1,0.7-2,1.1-3h10.3C233.1,293.9,230.7,297.7,227.5,300.9z"/>
		</g>
	</g>
	<g id="arrow" class="st3">
		<g>
			<path class="st13" d="M667.1,376.9c-0.7,0-1.3-0.3-1.8-0.7l-17.8-18.2l-11,14c-0.4,0.6-1.1,0.9-1.8,0.9c-1.1,0-2.2-0.8-2.6-1.8
				l-26.4-71.2c-0.3-0.9-0.1-1.9,0.6-2.6c0.4-0.5,1.1-0.9,1.7-0.9c0.3,0,0.6,0.1,0.9,0.2l70.5,28.2c1,0.4,1.6,1.2,1.7,2.1
				c0.1,0.9-0.3,1.9-1.1,2.5l-14.1,10.4l17.7,18.2c0.5,0.5,0.7,1.1,0.7,1.8c0,0.7-0.3,1.4-0.7,1.8l-14.9,14.5
				C668.5,376.6,667.8,376.9,667.1,376.9L667.1,376.9z M647.3,351.5c0.7,0,1.4,0.3,1.9,0.8l18,18.5l11.2-10.9l-18-18.4
				c-0.5-0.5-0.8-1.2-0.7-2c0.1-0.8,0.5-1.5,1.1-2l12.7-9.5l-60.9-24.4l22.8,61.5l10-12.8C645.9,351.8,646.5,351.5,647.3,351.5z"/>
			<g>
				<path class="st13" d="M684.6,357.2l-6.5-6.6L667.8,340l13-9.7c1.1-0.9,1.7-2.2,1.6-3.5c-0.2-1.4-1.1-2.5-2.4-3l-24-9.6l-21-8.4
					l-16.8-6.7l-4.3-1.7l-4.3-1.7c-0.4-0.2-0.9-0.3-1.4-0.3c-1,0-1.9,0.4-2.6,1.2c-1,1-1.3,2.4-0.8,3.7l8.5,23l0.4,1.2l0.6,1.7
					l13.6,36.6l1.6,4.4l1.6,4.4c0.5,1.5,2.1,2.5,3.6,2.5c1,0,2-0.5,2.7-1.3l5.9-7.5l4.3-5.5l3.9,4l10.5,10.8l1.2,1.2l1.2,1.2
					c0.7,0.7,1.6,1.1,2.6,1.1c1,0,1.9-0.4,2.6-1.1l4.3-4.2l10.6-10.3c0.7-0.7,1.1-1.7,1.1-2.7C685.7,358.8,685.3,357.9,684.6,357.2z
					 M683,360.8c-5,4.8-9.9,9.7-14.9,14.5c-0.3,0.3-0.7,0.4-1,0.4c-0.4,0-0.7-0.1-1-0.4c-0.8-0.8-1.6-1.7-2.4-2.5
					c-5.4-5.5-10.8-11.1-16.2-16.6c-3.9,5-7.8,10-11.8,15.1c-0.3,0.3-0.6,0.5-0.9,0.5c-0.6,0-1.3-0.5-1.5-1.1
					c-1.1-2.9-2.2-5.8-3.3-8.8c-4.7-12.7-9.5-25.5-14.2-38.2c-3-8.1-6-16.1-9-24.2c-0.2-0.6,0-1.1,0.3-1.4c0.2-0.3,0.5-0.5,0.9-0.5
					c0.2,0,0.3,0,0.5,0.1c2.9,1.2,5.8,2.3,8.7,3.5c12.6,5,25.3,10.1,37.9,15.1c8,3.2,16,6.4,24,9.6c1.2,0.5,1.4,1.9,0.4,2.6
					c-5,3.7-10.1,7.5-15.1,11.2c0.4,0.4,0.8,0.9,1.3,1.3c5.8,5.9,11.6,11.9,17.3,17.8C683.5,359.3,683.6,360.3,683,360.8z"/>
				<path class="st13" d="M661.2,340.6c-0.7-0.7-0.5-1.7,0.3-2.3c4.8-3.6,9.6-7.1,14.4-10.7c-2-0.8-4.1-1.6-6.1-2.5
					c-12.6-5-25.3-10.1-37.9-15.1c-7-2.8-14.1-5.6-21.1-8.4c0.7,1.9,1.4,3.9,2.2,5.8c4.7,12.7,9.5,25.5,14.2,38.2
					c2.7,7.2,5.4,14.5,8.1,21.7c3.7-4.8,7.5-9.6,11.2-14.3c0.2-0.3,0.6-0.4,1-0.4c0.4,0,0.8,0.2,1.1,0.4c0.8,0.8,1.6,1.7,2.4,2.5
					c5.5,5.6,10.9,11.2,16.4,16.8c4.3-4.2,8.5-8.3,12.8-12.5c-0.5-0.5-0.9-1-1.4-1.4C672.8,352.4,667,346.5,661.2,340.6z
					 M667.2,369.1l-6.6-6.8l-8.2-8.4l-1.2-1.2l-1.2-1.2c-0.7-0.7-1.7-1.1-2.7-1.1c-1.1,0-2.1,0.5-2.7,1.3l-4.5,5.7l-4.2,5.4
					l-2.6-7.1l-4-10.8l-0.7-1.8L615,306.6l-0.4-1.1l11.6,4.6l4.8,1.9l18.9,7.6l18.9,7.6l2.4,1l-3.9,2.9l-7.2,5.3
					c-0.9,0.7-1.5,1.7-1.6,2.8c-0.1,1.1,0.3,2.1,1,2.8l8.2,8.4l9,9.2L667.2,369.1z"/>
			</g>
		</g>
		<polygon class="st4" points="608.2,299.1 634.7,370.3 647.4,354 667.1,374.3 674.6,367.1 682,359.8 662.2,339.5 678.7,327.3 		"/>
	</g>
	<text transform="matrix(1 0 0 1 148.287 123.0114)" class="st17 st18 st19">https://www.subletor.com</text>
	<text transform="matrix(1 0 0 1 261.0169 286.7077)" class="st1 st20 st21">www.subletor.com</text>
</g>
<g>
	<line class="st22" x1="6" y1="561.9" x2="786" y2="561.9"/>
	<path class="st23" d="M271.7,35.1l13.6,8.4c9.8,6.1,13.3,18.7,8.1,29c-1,2-1.7,3.4-1.6,3.2c0.5-0.6-20.8-40.4-20.8-40.4"/>
	<path class="st24" d="M236.4,164.9h-7c-6.4,0-11.7-5.3-11.7-11.7v-33c0-6.4,5.3-11.7,11.7-11.7h7c6.4,0,11.7,5.3,11.7,11.7v33
		C248.1,159.6,242.8,164.9,236.4,164.9z"/>
	<path class="st23" d="M291.6,75.7c0.3,2.7-12.1,7.2-12.3,10l2,5.6c-15.3-5.5-1.8,2.9-1.8,2.9c-4.5,13.5-3,20.9-15.9,26.1
		c-6.5,2.6-13.6,3.7-21,3.2c-9.9-0.7-18.7,2.4-25.9-1c-1.5-0.7-2.9-1.7-4.2-3c-2.5-2.5-4.8-5.3-6.7-8.3c-0.7-1.2-1.4-2.4-2.1-3.6
		c-3.9-7.6-11.9-29.7-11.3-38.8c1.8-25.7,26.4-42.9,54.8-41c0.7,0.1,1.4,0.1,2.2,0.1c15.3,1.1,28.4,9.2,36.4,21
		c0.4,0.6,0.8,1.3,1.2,1.9c0,0,0,0,0,0c2.3,3.7,3.5,19.8,3.5,19.8C291,72.2,291.4,73.9,291.6,75.7z"/>
	<path class="st25" d="M290.4,83.9l-0.4,7.1l-0.6,11.7l-1,4.1c-0.1,1.8-1,11.5-1.4,13.3c-3.2,16.6-14.1,20.1-31,22.2
		c-0.5,0.1-1,0.1-1.5,0.1c-1.8,0.2-3.6,0.2-5.5,0.1c-1.8-0.1-3.6-0.3-5.3-0.6c-3.4-0.6-6.6-1.7-9.6-3.1c0,0,0,0,0,0
		c-7.5-3.5-13.6-9.3-17.6-16.3c-3-5.3-4.8-11.4-5-17.8c0-0.4,0-0.9,0-1.3c0-0.5,0-1,0-1.6v-0.3l0-1.3l0.2-3.3l0.6-11.5l0-0.1v0
		l0.1-2.1l0.1-1.7l0.1-1.5l0-0.4c0.2-2.7,0.7-5.2,1.5-7.7c0.5-1.7,1.2-3.4,1.9-5c0.1-0.3,0.2-0.5,0.3-0.7c0.6-1.3,1.3-2.6,2-3.9
		c0,0,0,0,0,0c2.8-4.8,6.7-8.9,11.2-12c0.9-0.6,1.8-1.3,2.8-1.8c6.6-3.9,14.3-5.9,22.5-5.5c6.8,0.4,11.8,2.4,17.3,5.7
		c3.3,2,6.3,4.4,8.9,7.3c3.7,4,6,8.7,7.8,13.8c0.1,0.3,0.2,0.6,0.3,0.9c0.5,1.7,0.9,3.4,1.1,5.2C290.6,78.3,290.6,81.1,290.4,83.9z"
		/>
	<path class="st23" d="M276.2,48.9c8.3,22.8-13.5,20.9-14.5,31.4c-0.1,1.2-0.5,2.9-0.8,11.5l-1.7,5.4c-0.5,1.7-2,2.8-3.8,2.8
		c-2.2,0-3.9-1.8-3.9-3.9V96l0.2-8.5l-4.2,11.3c-3.1,8.1-7.7,15.5-13.6,21.7c-4.9,5.1-10.6,9.5-16.9,12.8c0,0-26.6-15.8-26.6-51.9
		c0-2.9,0.2-5.9,0.5-9c0.3-2.8,0.8-5.4,1.4-7.9c11-44.8,66.1-29.5,71.4-27.5C269.2,39,276.2,48.9,276.2,48.9z"/>
	<path class="st25" d="M295.1,108.1c0,0.1,0,0.6,0,0.6c-0.1,2.5-2.2,4.4-7.5,4.3l0.7-19.3C292.7,100.2,294.7,104,295.1,108.1z"/>
	<path class="st23" d="M292.3,84.8h-11.8c-1.4,0-2.5-1.1-2.5-2.5l0,0c0-1.4,1.1-2.5,2.5-2.5h11.8c1.4,0,2.5,1.1,2.5,2.5v0
		C294.7,83.6,293.6,84.8,292.3,84.8z"/>
	<path class="st26" d="M285.6,93.6L285.6,93.6c-1,0-1.8-0.8-1.8-1.8v-2.6c0-1,0.8-1.8,1.8-1.8l0,0c1,0,1.8,0.8,1.8,1.8v2.6
		C287.4,92.8,286.6,93.6,285.6,93.6z"/>
	<path class="st27" d="M233.8,120.4c-4.9,5.1-10.6,9.5-16.9,12.8c0,0-26.6-15.8-26.6-51.9c0-2.9,0.2-5.9,0.5-9
		c0.3-2.8,0.8-5.4,1.4-7.9c1.2,6.9,4.3,17.3,12.2,30.1C216.5,114.1,229.5,119.2,233.8,120.4z"/>
	<path class="st23" d="M287.5,118.9l-0.4,13.5c0,11.5-13.6,16.1-23.7,15l-16.1-1.7l1.6-13.9l4.4-26.7l-7.1-19.9l14.6,6.1l0,0
		c-1.1,15.8,10.2,28.6,26.1,27.9L287.5,118.9z"/>
	<path class="st24" d="M250.5,84.6c1.6,0,2.9,1.3,2.9,3l-0.1,10l-0.1,8.8l-3.4,0c-0.3,0-0.5,0-0.7,0c-5.8-0.4-10.3-5.5-10.3-11.2
		c0-3,1.3-5.5,3.3-7.5c1.8-1.8,4.2-2.8,6.9-2.9l0,0c0.3,0,0.6-0.1,0.9,0L250.5,84.6z"/>
	
		<rect x="147.1" y="377.8" transform="matrix(-1 -1.224647e-16 1.224647e-16 -1 386.8275 772.7268)" class="st26" width="92.6" height="17.1"/>
	<line class="st28" x1="115.5" y1="537.1" x2="115.5" y2="543.6"/>
	
		<rect x="501.2" y="379.3" transform="matrix(-1 -1.224647e-16 1.224647e-16 -1 1087.2057 775.6112)" class="st29" width="84.8" height="17.1"/>
	<rect x="572.4" y="321.2" class="st29" width="19.3" height="240.5"/>
	<rect x="494.9" y="319.8" class="st30" width="19.3" height="241.9"/>
	<rect x="494.9" y="310" class="st29" width="19.3" height="103.2"/>
	
		<rect x="38.5" y="379.3" transform="matrix(-1 -1.224647e-16 1.224647e-16 -1 161.8725 775.6112)" class="st29" width="84.8" height="17.1"/>
	<rect x="109.7" y="321.2" class="st29" width="19.3" height="240.5"/>
	<rect x="32.2" y="319.8" class="st29" width="19.3" height="241.9"/>
	<rect x="389.2" y="159.7" class="st31" width="63.7" height="137"/>
	<g>
		<path class="st32" d="M520.6,251.7H311.3V123.8c0-4.6,3.7-8.4,8.4-8.4h192.6c4.6,0,8.4,3.7,8.4,8.4V251.7z"/>
		<path class="st32" d="M500.9,272.1h-174c-9.7,0-17.6-7.9-17.6-17.6v-6.8h209.3v6.8C518.5,264.2,510.6,272.1,500.9,272.1z"/>
		<path class="st33" d="M513.4,123.8v127.8H304V123.8c0-4.6,3.7-8.3,8.4-8.3H505C509.6,115.5,513.4,119.2,513.4,123.8z"/>
		<path class="st34" d="M505.7,123.6v116.3c0,0.4-0.4,0.8-0.8,0.8H312.4c-0.4,0-0.8-0.3-0.8-0.8V123.6c0-0.4,0.4-0.8,0.8-0.8H505
			C505.4,122.8,505.7,123.1,505.7,123.6z"/>
		<path class="st35" d="M513.3,247.8v6.8c0,7.1-4.2,13.2-10.2,16c-2.3,1.1-4.8,1.7-7.5,1.7h-174c-9.7,0-17.6-7.9-17.6-17.6v-6.8
			H513.3z"/>
	</g>
	<path class="st36" d="M451.4,300.2H366c-2.6,0-4.7-2.1-4.7-4.7v0c0-2.6,2.1-4.7,4.7-4.7h85.3c2.6,0,4.7,2.1,4.7,4.7v0
		C456.1,298.1,454,300.2,451.4,300.2z"/>
	<path class="st37" d="M608.1,321H339v-13.9c0-4.2,3.4-7.6,7.6-7.6h253.9c4.2,0,7.6,3.4,7.6,7.6V321z"/>
	<g>
		<path class="st38" d="M529.7,307.1V321H11.6v-13.9c0-4.2,3.4-7.6,7.6-7.6h502.9C526.3,299.5,529.7,302.9,529.7,307.1z"/>
		<path class="st39" d="M379.8,299.5c-4.1,6.7-9,14.7-13.2,21.5H239.8l1.7-21.5H379.8z"/>
	</g>
	<g>
		
			<rect x="635.1" y="394.8" transform="matrix(-1 -7.510710e-07 7.510710e-07 -1 1403.2913 956.4886)" class="st40" width="133.1" height="166.8"/>
		
			<rect x="587.9" y="394.8" transform="matrix(-1 -7.642572e-07 7.642572e-07 -1 1306.6299 956.489)" class="st41" width="130.8" height="166.8"/>
		<g>
			
				<rect x="586.4" y="407.3" transform="matrix(-1 -1.224647e-16 1.224647e-16 -1 1296.9237 859.7692)" class="st42" width="124.1" height="45.1"/>
			
				<rect x="586.4" y="460.3" transform="matrix(-1 -1.224647e-16 1.224647e-16 -1 1296.9237 965.697)" class="st42" width="124.1" height="45.1"/>
			
				<rect x="586.4" y="513.2" transform="matrix(-1 -1.224647e-16 1.224647e-16 -1 1296.9237 1074.9087)" class="st42" width="124.1" height="48.4"/>
		</g>
		<g>
			<path class="st13" d="M625.9,432.3h31c1.3,0,2.4-1.1,2.4-2.4l0,0c0-1.3-1.1-2.4-2.4-2.4h-31c-1.3,0-2.4,1.1-2.4,2.4l0,0
				C623.5,431.2,624.6,432.3,625.9,432.3z"/>
			<path class="st13" d="M624.7,484.9h31c1.3,0,2.4-1.1,2.4-2.4l0,0c0-1.3-1.1-2.4-2.4-2.4h-31c-1.3,0-2.4,1.1-2.4,2.4l0,0
				C622.3,483.8,623.4,484.9,624.7,484.9z"/>
			<path class="st13" d="M624.7,537.5h31c1.3,0,2.4-1.1,2.4-2.4v0c0-1.3-1.1-2.4-2.4-2.4h-31c-1.3,0-2.4,1.1-2.4,2.4l0,0
				C622.3,536.4,623.4,537.5,624.7,537.5z"/>
		</g>
	</g>
	<g>
		<g>
			<path class="st40" d="M284.3,571.9l62.2,0.7c3.7,0,6.7-2.9,6.8-6.6l0,0c0-2.9-1.7-5.4-4.4-6.4l-30.7-11.1l-33.6,0.5L284.3,571.9z
				"/>
			<path class="st26" d="M347.7,574.3l-63-0.2l0-4.5l67.5,0.2l0,0C352.2,572.3,350.2,574.3,347.7,574.3z"/>
		</g>
		<g>
			<line class="st43" x1="317.4" y1="557.5" x2="324.7" y2="549.7"/>
			<line class="st43" x1="322.8" y1="559.8" x2="330.1" y2="552"/>
			<line class="st43" x1="327.9" y1="562.8" x2="336.1" y2="554"/>
		</g>
		<g>
			<path class="st44" d="M282.2,551.4c3.6-60.7,2.6-116.8-2.1-128.1c-4.8-7.1-42.6-22.3-80.4-24l17.7-38.6
				c49.5,2.5,84.9,21.1,97.3,42.3c5.2,9,9.8,27,7.3,88.9c-1.3,32.4-2.9,57.8-2.9,57.8L282.2,551.4z"/>
		</g>
		<g>
			<path class="st45" d="M339.7,573.4l62.2,0.4c3.7,0,6.7-3,6.8-6.7l0,0c0-2.9-1.8-5.4-4.5-6.4l-30.7-10.9l-33.6,0.6L339.7,573.4z"
				/>
			<path class="st26" d="M403.1,575.6l-64,0l0-4.5l68.5,0l0,0C407.6,573.6,405.6,575.6,403.1,575.6z"/>
		</g>
		<g>
			<line class="st43" x1="372.7" y1="559" x2="380" y2="551.1"/>
			<line class="st43" x1="378.1" y1="561.2" x2="385.4" y2="553.4"/>
			<line class="st43" x1="383.2" y1="564.2" x2="391.4" y2="555.4"/>
		</g>
		<g>
			<path class="st44" d="M337.4,551.4c3.6-60.7,2.6-116.8-2.1-128.1c-4.8-7.1-42.6-22.3-80.4-24l17.7-38.6
				c49.5,2.5,84.9,21.1,97.3,42.3c5.2,9,9.8,27,7.3,88.9c-1.3,32.4-2.9,57.8-2.9,57.8L337.4,551.4z"/>
		</g>
		<path class="st44" d="M284.2,371.9c0,6.8-2.4,13-6.4,17.9c-5.1,6.2-12.9,10.2-21.7,10.2h-47.2c-1.4,0-2.8-0.1-4.1-0.3
			c-3.5-0.5-6.7-1.6-9.6-3.3c-0.5-0.3-1-0.6-1.5-0.9c-7.7-5-12.8-13.7-12.8-23.5l0.9-15l101.7-0.9L284.2,371.9z"/>
		<g>
			<g>
				<g>
					<path class="st24" d="M316.7,291.9L341,288c1.8-0.3,3-2,2.7-3.7l0,0c-0.3-1.8-2-3-3.7-2.7l-24.3,3.9c-1.8,0.3-3,2-2.7,3.7l0,0
						C313.2,290.9,314.9,292.1,316.7,291.9z"/>
					<path class="st24" d="M324.4,298.4l19.5-3.1c1.8-0.3,3-2,2.7-3.7l0,0c-0.3-1.8-2-3-3.7-2.7l-19.5,3.1c-1.8,0.3-3,2-2.7,3.7l0,0
						C320.9,297.5,322.6,298.7,324.4,298.4z"/>
					<path class="st24" d="M319.9,307l23.1-3.7c1.8-0.3,3-2,2.7-3.7l0,0c-0.3-1.8-2-3-3.7-2.7l-23.1,3.7c-1.8,0.3-3,2-2.7,3.7l0,0
						C316.4,306,318.1,307.3,319.9,307z"/>
				</g>
				<path class="st24" d="M327.2,285.6c-0.3,0-3.2,0-6.5-0.1c-5.6-0.1-11.1,1.1-16.1,3.6l-9.6,4.7c0,0,5.5,16.3,6.3,16.4
					c18.5,3.3,24.8-5.1,24.8-5.1L327.2,285.6z"/>
			</g>
			<rect x="304.6" y="285.5" class="st13" width="8.2" height="26.7"/>
		</g>
		<g>
			<path class="st44" d="M250.8,315.1c-19.4,0-37.1-11.3-45.2-28.9l-0.4-0.9l-25.3-77.4l31.2-10.2l24.7,75.4
				c2.9,5.6,8.8,9.2,15.2,9.1l53.8-0.5l0.3,32.9l-53.8,0.5C251.1,315.1,251,315.1,250.8,315.1z"/>
		</g>
		<g>
			<g>
				<path class="st24" d="M426.5,283.2c-2-3.6-5-6.5-8.7-8.3c0,0-0.1,0-0.1,0c-5-2.5-10.5-3.7-16.1-3.6l-10.7,0.2
					c0,0-2.7,23.2-2.6,22.4c0.3-1.5,26.1-1.1,38-0.9c2.6,0.1,4.2-2.7,3-4.9L426.5,283.2z"/>
			</g>
			<rect x="384.4" y="269.7" class="st13" width="10.2" height="27.3"/>
		</g>
		<g>
			<path class="st46" d="M334.4,300.2c-19.4,0-37.1-11.3-45.2-28.9l-36.5-79l29.8-13.8l36.5,79c2.8,6,8.8,9.9,15.5,9.8l53.8-0.5
				l0.3,32.9l-53.8,0.5C334.7,300.2,334.6,300.2,334.4,300.2z"/>
		</g>
		<path class="st46" d="M292.9,207.7l-0.6,69l-0.8,87.8c0,0-1.9,2.1-7.5,5.1c-4.9,2.6-12.6,5.8-24.3,8.8
			c-13.7,3.5-32.9,4.1-49.4,3.7c-18.1-0.4-32.9-2-32.9-2l0.4-172.4c0-24.3,17.6-44.4,40.7-48.5c2.8-0.5,5.6-0.7,8.6-0.7h16.6
			C270.9,158.5,292.9,180.6,292.9,207.7z"/>
		<g>
			<g>
				<rect x="216.2" y="434" class="st30" width="16.6" height="95.4"/>
				<path class="st29" d="M216.2,439.4v20.9l16.6-6.1v-14.1C228.6,439.9,220.6,439.6,216.2,439.4z"/>
			</g>
			<path class="st47" d="M275.6,442.3h-99.5c-5.1,0-9.3-4.2-9.3-9.3l0,0c0-5.1,4.2-9.3,9.3-9.3h99.5c5.1,0,9.3,4.2,9.3,9.3l0,0
				C284.8,438.1,280.7,442.3,275.6,442.3z"/>
			<g>
				<g>
					<path class="st47" d="M294.9,560.2h-10.4c0-11.7-10.1-21.2-22.5-21.2h-75.7c-12.4,0-22.5,9.5-22.5,21.2h-10.4
						c0-17.1,14.8-31,32.9-31H262C280.1,529.2,294.9,543.1,294.9,560.2z"/>
				</g>
				<rect x="212.2" y="514.5" class="st47" width="24.3" height="14.9"/>
			</g>
			<g>
				<ellipse class="st26" cx="158.1" cy="569.6" rx="8.6" ry="8.1"/>
				<path class="st48" d="M170.6,568.9H147v-2.2c0-6.1,4.9-11,11-11h1.6c6.1,0,11,4.9,11,11V568.9z"/>
				<ellipse class="st26" cx="290.2" cy="569.6" rx="8.6" ry="8.1"/>
				<path class="st48" d="M302.6,568.9H279v-2.2c0-6.1,4.9-11,11-11h1.6c6.1,0,11,4.9,11,11V568.9z"/>
			</g>
			<rect x="218" y="532.2" class="st47" width="13.8" height="29.4"/>
			<g>
				<ellipse class="st26" cx="225.1" cy="569.6" rx="8.6" ry="8.1"/>
				<path class="st48" d="M237.6,568.9H214v-2.2c0-6.1,4.9-11,11-11h1.6c6.1,0,11,4.9,11,11V568.9z"/>
			</g>
		</g>
		<path class="st49" d="M92.2,254.6l22.2,160.6c1.4,9.8,9.6,17.1,19.4,17.4l81.2,0.9l-45.1-202l-57.6,0
			C100,231.5,90.5,242.4,92.2,254.6z"/>
		<path class="st50" d="M310.9,433.6H198c-9.6,0-17.5-7.9-17.5-17.5v0c0-9.6,7.9-17.5,17.5-17.5h112.9c9.6,0,17.5,7.9,17.5,17.5v0
			C328.4,425.7,320.5,433.6,310.9,433.6z"/>
		<path class="st44" d="M204.4,202.5c-2.2,31.7,4,145.9,5.9,179.6c-18.1-0.4-32.9-2-32.9-2l0.4-172.4c0-24.3,17.6-44.4,40.7-48.5
			C218.5,159.2,207,165.2,204.4,202.5z"/>
		<polygon class="st13" points="261,161.5 210.3,161.5 210.3,147.3 261,153.3 		"/>
		<path class="st50" d="M179.1,411.4l-23.6-164.7c-1.1-7.3,4.5-14.2,12.2-15.1l0,0c7.8-1,15,4.2,16.1,11.5l23.6,164.7
			c1.1,7.3-4.5,14.2-12.2,15.1l0,0C187.4,424,183.3,429.5,179.1,411.4z"/>
		<path class="st44" d="M292.3,276.7l-0.8,87.8c0,0-1.9,2.1-7.5,5.1l-11.7-132.3C272.3,237.2,283,264,292.3,276.7z"/>
	</g>
	<path class="st51" d="M513,215.3l-5.8,32.5l-4.1,22.7c-2.3,1.1-4.8,1.7-7.5,1.7h-55c5.2-5.4,14-14.5,23.4-24.4
		c14.7-15.4,31-32.9,38.3-41.8L513,215.3z"/>
	<g>
		<path class="st52" d="M482.8,299.2h108.9c0.6-0.9,1.1-1.9,1.4-2.9l24.4-87.9c1.2-4.2-2-8.3-6.3-8.3h-95.8c-3,0-5.5,2-6.3,4.8
			L482.8,299.2z"/>
		<path class="st53" d="M612.2,205.3l-24.3,87.8c-1.1,4.1-4.9,6.9-9.1,6.9H476.6l27.2-98.3c0.8-2.8,3.4-4.8,6.3-4.8h95.7
			C610.2,196.9,613.4,201.1,612.2,205.3z"/>
		<path class="st54" d="M606.8,209.1l-19.9,71.6l-4.2,15H481.4l4.2-15l20.8-74.9c0.7-2.6,3.1-4.4,5.9-4.4h88.7
			C605,201.4,607.9,205.3,606.8,209.1z"/>
		<polygon class="st53" points="588.2,280.8 584,295.8 480.1,295.8 484.4,280.8 		"/>
		<g class="st0">
			<path class="st55" d="M532.3,300.3H407.9c-2.9,0-5.3-2.4-5.3-5.3l0,0c0-2.9,2.4-5.3,5.3-5.3h124.4c2.9,0,5.3,2.4,5.3,5.3l0,0
				C537.6,297.9,535.2,300.3,532.3,300.3z"/>
		</g>
		<polygon class="st56" points="581.2,196.9 579.2,201.4 543,280.8 539.2,288.9 500.1,288.9 503.8,280.8 540.1,201.4 542.1,196.9 		
			"/>
		<polygon class="st57" points="466.1,122.8 412.3,240.6 354.8,240.6 408.6,122.8 		"/>
		<g class="st0">
			<g class="st3">
				<path class="st32" d="M579.5,299.9h-72c-2.9,0-5.3-2.4-5.3-5.3l0,0c0-2.9,2.4-5.3,5.3-5.3h72c2.9,0,5.3,2.4,5.3,5.3l0,0
					C584.8,297.6,582.4,299.9,579.5,299.9z"/>
			</g>
			<g class="st3">
				<rect x="543.3" y="292.9" class="st26" width="10.3" height="3.1"/>
				<rect x="532.8" y="292.9" class="st26" width="7.5" height="3.1"/>
			</g>
		</g>
	</g>
	<g>
		<g>
			<path class="st58" d="M478.1,257.1v43.1h-36v-43.1c0-1.9,1.5-3.4,3.4-3.4h29.1C476.6,253.7,478.1,255.2,478.1,257.1z"/>
			<g>
				<path class="st59" d="M442.6,292.8c-0.5-0.3-11.5-6.7-12.5-18.1c-0.4-4.3,1.3-7,2.7-8.5c4-4.1,10.5-3.8,11.3-3.8l-0.3,5.3
					c-1.3-0.1-5.3,0.2-7.2,2.2c-1,1-1.4,2.5-1.2,4.4c0.8,8.6,9.8,13.9,9.9,14L442.6,292.8z"/>
			</g>
		</g>
		<path class="st59" d="M461.3,300.2h-19.2v-43.1c0-1.9,1.5-3.4,3.4-3.4h1.2c0.1,2.2,0.7,19.4,5.5,31.8
			C456.4,296.3,460.2,299.4,461.3,300.2z"/>
		<path class="st60" d="M430.1,274.7c0.9,10.2,9.9,16.5,12.1,17.8v7.7h19.2c-1.1-0.8-4.9-3.9-9.1-14.7c-4.8-12.4-5.4-29.6-5.5-31.8
			h-1.2c-1.9,0-3.4,1.5-3.4,3.4v5.4c-2.4,0.2-6.5,0.9-9.4,3.8C431.3,267.7,429.7,270.4,430.1,274.7z M436.6,269.9
			c1.4-1.4,3.8-2,5.6-2.2V286c-2.7-2.3-6.3-6.4-6.8-11.7C435.2,272.4,435.6,271,436.6,269.9z"/>
	</g>
	<g>
		<g>
			
				<rect x="62.4" y="219.4" transform="matrix(0.9847 0.1743 -0.1743 0.9847 44.1923 -7.4348)" class="st61" width="4.1" height="57.1"/>
			
				<rect x="65.1" y="218.3" transform="matrix(0.9847 0.1743 -0.1743 0.9847 40.5795 -8.4261)" class="st61" width="6.4" height="17.2"/>
		</g>
		<g>
			<polygon class="st62" points="54.7,283.6 50.6,283.3 55.3,226.3 57.8,222.7 59.5,226.7 			"/>
		</g>
		<g>
			<polygon class="st63" points="49,286.5 44.9,287.3 34,231.2 35.4,227 38,230.4 			"/>
		</g>
		<g>
			<polygon class="st64" points="58.1,299.6 40.4,299.6 34.6,252.7 63.9,252.7 			"/>
			<polygon class="st65" points="64.8,299.6 47.1,299.6 44.5,252.7 70.6,252.7 			"/>
		</g>
	</g>
	<g>
		<g>
			<path class="st50" d="M611.1,370.2v25.8h90c5.6,0,10.4-3.6,12.1-8.6c0.5-1.3,0.7-2.8,0.7-4.3c0-3.5-1.4-6.8-3.8-9.1
				c-2.3-2.3-5.6-3.8-9.1-3.8H611.1z"/>
			<path class="st60" d="M631.2,387.4v8.6h69.9c5.6,0,10.4-3.6,12.1-8.6H631.2z"/>
			<path class="st49" d="M591.8,370.2l0,25.8l59,0c7.1,0,12.9-5.8,12.9-12.9c0-3.6-1.4-6.8-3.8-9.1c-2.3-2.3-5.6-3.8-9.1-3.8
				L591.8,370.2z"/>
			<path class="st13" d="M591.8,374.6l0,16.5l55.6,0c4.6,0,8.3-3.7,8.3-8.3c0-2.3-0.9-4.3-2.4-5.8c-1.5-1.5-3.6-2.4-5.8-2.4
				L591.8,374.6z"/>
		</g>
		<g>
			<path class="st66" d="M609.3,318.9v25.8l90,0c7.1,0,12.9-5.8,12.9-12.9c0-3.6-1.4-6.8-3.8-9.1c-2.3-2.3-5.6-3.8-9.1-3.8
				L609.3,318.9z"/>
			<path class="st67" d="M629.7,327.5V319h69.9c5.6,0,10.4,3.6,12.1,8.6H629.7z"/>
			<path class="st68" d="M591.8,318.9v25.8l59,0c7.1,0,12.9-5.8,12.9-12.9c0-3.6-1.4-6.8-3.8-9.1c-2.3-2.3-5.6-3.8-9.1-3.8
				L591.8,318.9z"/>
			<path class="st13" d="M591.8,323.3v16.5l55.6,0c4.6,0,8.3-3.7,8.3-8.3c0-2.3-0.9-4.3-2.4-5.8c-1.5-1.5-3.6-2.4-5.8-2.4
				L591.8,323.3z"/>
		</g>
		<g>
			<path class="st69" d="M604.7,344.8v25.8h90c7.1,0,12.9-5.8,12.9-12.9c0-2.2-0.5-4.3-1.5-6.1c-0.6-1.1-1.4-2.2-2.3-3.1
				c-2.3-2.3-5.6-3.8-9.1-3.8H604.7z"/>
			<path class="st70" d="M607,344.8v6.8h99c-0.6-1.1-1.4-2.2-2.3-3.1c-2.3-2.3-5.6-3.8-9.1-3.8H607z"/>
			<path class="st70" d="M607,370.7v-6.8l99,0c-0.6,1.1-1.4,2.2-2.3,3.1c-2.3,2.3-5.6,3.8-9.1,3.8L607,370.7z"/>
			<path class="st71" d="M581.1,344.8v25.8l54,0c7.1,0,12.9-5.8,12.9-12.9c0-3.6-1.4-6.8-3.8-9.1c-2.3-2.3-5.6-3.8-9.1-3.8
				L581.1,344.8z"/>
			<path class="st13" d="M581.1,349.3v16.5l50.6,0c4.6,0,8.3-3.7,8.3-8.3c0-2.3-0.9-4.3-2.4-5.8c-1.5-1.5-3.6-2.4-5.8-2.4
				L581.1,349.3z"/>
		</g>
	</g>
	<g>
		<g>
			<g>
				<path class="st26" d="M618.6,193.4L618.6,193.4c-4.3-4.6-3.9-11.7,0.8-15.8l0.5-0.5c4.8-4.2,12.1-3.8,16.4,0.8v0
					c4.3,4.6,3.9,11.7-0.8,15.8l-0.5,0.5C630.2,198.4,622.9,198,618.6,193.4z"/>
				<path class="st42" d="M627.7,215.7l-11.3,9.9l-32.2-34.3l11.3-9.9c7.9-6.8,19.1-7.7,27.9-3c2.2,1.2,4.2,2.7,6,4.7
					c4.4,4.7,6.5,10.8,6.2,16.7C635.3,205.7,632.6,211.5,627.7,215.7z"/>
				<path class="st72" d="M617.5,204.8l-11.3,9.9l-21.9-23.4l11.3-9.9c7.9-6.8,19.1-7.7,27.9-3c1.5,3.3,2.2,6.9,2,10.4
					C625,194.7,622.4,200.5,617.5,204.8z"/>
			</g>
			<path class="st73" d="M617,225.5c-3.4,3.1-13.5-2-22.6-11.4c-9-9.4-13.6-19.4-10.2-22.5c2.7-2.4,9.6,0.3,16.8,6.1
				c1.9,1.6,3.9,3.3,5.7,5.3c2.2,2.3,4.1,4.6,5.8,6.9C617.6,216.8,619.5,223.2,617,225.5z"/>
			<path class="st13" d="M612.5,209.8c-2.6,2.9-7.1,3.7-10.7,1.7c-4.1-2.2-5.6-7.3-3.2-11.3c0.6-1.1,1.5-1.9,2.4-2.6
				c1.9,1.6,3.9,3.3,5.7,5.3C609,205.3,610.9,207.6,612.5,209.8z"/>
		</g>
		<polyline class="st74" points="675.8,304.4 705.1,209.6 645.7,170 633.2,180.6 		"/>
		<g>
			<ellipse class="st26" cx="644.9" cy="170.5" rx="7.3" ry="7"/>
			<ellipse class="st28" cx="644.9" cy="170.5" rx="3.7" ry="3.5"/>
		</g>
		<path class="st28" d="M705.3,319.2h-75.7l0,0c0-8.3,6.7-15,15-15h45.6C698.6,304.2,705.3,310.9,705.3,319.2L705.3,319.2z"/>
		<rect x="645.3" y="300.4" class="st26" width="13.7" height="4.1"/>
		<g>
			<ellipse class="st26" cx="704.6" cy="210.6" rx="10.2" ry="9.9"/>
			<ellipse class="st28" cx="704.6" cy="210.6" rx="5.1" ry="4.9"/>
		</g>
	</g>
	<g>
		<g>
			<path class="st75" d="M770.3,324.8c-11.1,15.1-33.4,17.6-33.4,17.6s-4.3-22,6.8-37.1c11.1-15.1,33.4-17.6,33.4-17.6
				S781.4,309.7,770.3,324.8z"/>
			<path class="st76" d="M723.7,315.8c10.2,10,9.6,27.1,9.6,27.1s-17,0.8-27.2-9.2c-10.2-10-9.6-27.1-9.6-27.1
				S713.5,305.8,723.7,315.8z"/>
			<path class="st77" d="M748.9,308.2c2.1,18.6-12.6,35.6-12.6,35.6s-18-13.3-20.1-31.9c-2.1-18.6,12.6-35.6,12.6-35.6
				S746.8,289.6,748.9,308.2z"/>
		</g>
		<g>
			<polygon class="st78" points="747.5,395.2 708.9,395.2 696.2,338.9 760.2,338.9 			"/>
			<polygon class="st45" points="762.1,395.2 723.4,395.2 717.7,338.9 774.7,338.9 			"/>
		</g>
	</g>
	<g id="Screeen">
		<path class="st13" d="M506,123.6v116.3c0,0.4-0.4,0.8-0.8,0.8H312.7c-0.4,0-0.8-0.3-0.8-0.8V123.6c0-0.4,0.4-0.8,0.8-0.8h192.5
			C505.6,122.8,506,123.1,506,123.6z"/>
	</g>
	<g>
		<polygon class="st79" points="444.8,164.8 413.6,164.8 413.5,162.7 444.7,162.7 		"/>
		<polygon class="st59" points="473.1,164.8 458.4,164.8 458.3,162.7 473,162.7 		"/>
		<polygon class="st73" points="494.4,164.8 479.7,164.8 479.6,162.7 494.3,162.7 		"/>
		<polygon class="st80" points="477.9,164.8 474.4,164.8 474.3,162.7 477.8,162.7 		"/>
		<polygon class="st73" points="456.6,164.8 446.3,164.8 446.2,162.7 456.5,162.7 		"/>
	</g>
	<polygon class="st79" points="354,164.8 322.9,164.8 322.8,162.7 353.9,162.7 	"/>
	<g>
		<polygon class="st32" points="436.7,202.3 451.5,202.3 451.4,200.1 436.6,200.1 		"/>
		<polygon class="st72" points="415.4,202.3 430.2,202.3 430.1,200.1 415.3,200.1 		"/>
		<polygon class="st80" points="431.9,202.3 435.4,202.3 435.3,200.1 431.8,200.1 		"/>
	</g>
	<g>
		<polygon class="st32" points="355.6,201.2 340.8,201.2 340.9,199 355.7,199 		"/>
		<polygon class="st72" points="376.9,201.2 362.1,201.2 362.2,199 377,199 		"/>
		<polygon class="st80" points="360.4,201.2 356.9,201.2 357,199 360.5,199 		"/>
	</g>
	<g>
		<polygon class="st59" points="425.8,174.2 414.1,174.2 414,172 425.7,172 		"/>
		<polygon class="st80" points="454.1,174.2 449.1,174.2 449,172 454,172 		"/>
		<polygon class="st59" points="494.9,174.2 470.4,174.2 470.3,172 494.8,172 		"/>
		<polygon class="st80" points="468.6,174.2 455.4,174.2 455.3,172 468.5,172 		"/>
		<polygon class="st80" points="447.3,174.2 427.2,174.2 427.1,172 447.2,172 		"/>
	</g>
	<g>
		<polygon class="st81" points="494.9,229 476.3,229 476.1,220.4 494.7,220.4 		"/>
	</g>
	<polygon class="st32" points="334.6,184.7 322.9,184.7 322.8,182.5 334.4,182.5 	"/>
	<polygon class="st32" points="353.6,184.7 341.9,184.7 341.8,182.5 353.5,182.5 	"/>
	<g>
		<polygon class="st32" points="421.9,183.6 410.2,183.6 410.1,181.4 421.8,181.4 		"/>
		<polygon class="st32" points="441,183.6 429.3,183.6 429.2,181.4 440.9,181.4 		"/>
		<polygon class="st80" points="487.8,183.6 467.7,183.6 467.6,181.4 487.7,181.4 		"/>
	</g>
	<g>
		<polygon class="st80" points="415,192.9 435.1,192.9 435,190.7 414.9,190.7 		"/>
	</g>
	<g>
		<polygon class="st80" points="467.9,202.3 488,202.3 487.9,200.1 467.8,200.1 		"/>
	</g>
	<text transform="matrix(1 0 0 1 364.6978 148.4066)" class="st82 st83 st84">Upload Office</text>
	<text transform="matrix(1 0 0 1 479.5756 225.72)" class="st13 st83 st85">Next</text>
</g>
</svg>
