<?xml version="1.0" encoding="utf-8"?>
<!-- Generator: Adobe Illustrator 21.0.2, SVG Export Plug-In . SVG Version: 6.00 Build 0)  -->
<svg version="1.1" id="Layer_1" xmlns="http://www.w3.org/2000/svg" xmlns:xlink="http://www.w3.org/1999/xlink" x="0px" y="0px"
	 viewBox="0 0 792 612" style="enable-background:new 0 0 792 612;" xml:space="preserve">
<style type="text/css">
	.st0{display:none;}
	.st1{display:inline;fill:#566463;}
	.st2{display:inline;}
	.st3{fill:#A0685D;}
	.st4{fill:#3D465A;}
	.st5{display:inline;fill:#3D465A;}
	.st6{display:inline;fill:#A0685D;}
	.st7{fill:#1C798A;}
	.st8{fill:#566463;}
	.st9{fill:#F7F8F8;}
	.st10{fill:#E3E3E3;}
	.st11{fill:#7EB5DB;}
	.st12{fill:#FFFFFF;}
	.st13{fill:#D7E7F3;}
	.st14{opacity:0.36;}
	.st15{fill:#EEB91D;}
	.st16{fill:#282828;}
	.st17{font-family:'Calibri';}
	.st18{font-size:9.9942px;}
	.st19{font-family:'Raleway-Regular';}
	.st20{font-size:39.8419px;}
	.st21{fill:#0E938D;}
	.st22{fill:#E5BE50;}
	.st23{fill:#FEDE6C;}
	.st24{fill:#F2DCCE;}
	.st25{fill:#C1A691;}
	.st26{fill:#FCD0AE;}
	.st27{fill:#C2DFDA;}
	.st28{fill:#99D1D7;}
	.st29{fill:#125079;}
	.st30{fill:#0D3E57;}
</style>
<g class="st0">
	<polygon class="st1" points="703.5,478.3 714.6,482.9 719.6,477.2 713.9,472.2 703.1,472.9 	"/>
	<g class="st2">
		<path class="st3" d="M720.6,159.5c-7.4-3-15.1-5.9-23.1-5.7c-1.8,0-3.7,0.3-4.8,1.6c-0.5,0.5-0.8,1.1-1,1.7
			c-3.2,6.9-7.5,17.3-3.8,24.8c0.7,1.4,1.7,2.7,2.9,3.7c1.6,1.4,3.4,2.5,5.3,3.2c-0.7,1.7-1.6,3.4-2.6,5c1.3,3,9.5,4.7,11.5,2.4
			c0.5-2.2,0.9-4.4,1.4-6.6c1.1-0.2,2.1-0.6,3.1-1c3.9-1.7,6.8-4.9,8.9-8.6c2.2-4,5-7.8,7-11.9c0.8-1.5,1.5-3.3,0.9-4.9
			c-0.6-1.7-2.5-2.5-4.1-3.2C721.6,159.8,721.1,159.7,720.6,159.5z"/>
		<path class="st4" d="M694.2,159.3c4.2-1.8,10.2-1.9,13.7-1c10.7,2.6,13.4,11.3,12.3,21.4c3.6-3.3,10.1-7.1,11.2-12
			c1-4,1.3-9.5-0.3-13.4c-1.6-3.6-6.6-6.3-9.5-8.7c-2.7-2.3-5.4-4.6-8.1-6.8c-0.6-0.5-1.1-1-1.8-1.2c-0.8-0.3-1.7-0.2-2.6-0.1
			c-7.4,0.6-14.9,1.3-22.3,1.9c-1.4,0.1-3.1,0.4-3.8,1.6c-0.4,0.8-0.4,1.7-0.4,2.5c0.2,3.8,1.1,7.9,0.8,11.7
			c0.1,2.2-0.5,13.6,3.5,13c1.4-1.7,2-3.9,3.2-5.7C691,161,692.5,160,694.2,159.3z"/>
	</g>
	<polygon class="st5" points="713.1,200.2 738.1,181 743.6,118.4 753.5,115.9 755.5,180.6 749,195.6 719.9,224.2 	"/>
	<polygon class="st6" points="751.4,116.4 752.4,110.8 747.3,101 742.2,104.3 743.8,112.4 741.5,114.7 743.6,118.4 	"/>
	<g class="st2">
		<polygon class="st7" points="717.5,331.2 719.7,383.9 713.1,473.4 703.1,474.1 691,392.8 674.3,324 		"/>
		<g>
			<polygon class="st7" points="647,312.6 644.8,352.4 651.3,470.7 661.3,471.2 676.2,393.6 689.4,308.5 			"/>
			<polygon class="st8" points="661,475.4 649.9,480.3 644.8,474.6 650.5,469.5 661.3,470 			"/>
		</g>
		<g>
			<path class="st4" d="M720.1,198.7l-30.1-8.5c0,0-17.4-1.1-35.8,37.5c-10.3,21.5-18.2,56.7-23.3,83.7c0.1,4,1.4,21.6,19.7,21.8
				c31.4,0.2,48.5-1.9,61.4,2.8c10.9,4.4,12.6-11.4,13.4-23.5l1.7-37.6L720.1,198.7z"/>
		</g>
		<polygon class="st4" points="690,190.2 678,191.7 629.3,228.1 624.4,242 638.7,278 646,266.9 641.7,241.3 656.6,234.2 
			681.2,197.3 		"/>
		<g>
			<path class="st9" d="M364.2,454.6c-22.6,0.1-45.2,0.8-67.7,3.9c-8.5,1.2-16.8,3.7-25.3,4.8c-17,2.1-33.7,5.9-50.8,7.7
				c-13.7,1.4-27.6,2.3-41.3,4.1c-12.9,1.7-27.1,1.3-39.8-1.5c-9.4-2.1-18.9-3.3-28.2-6.6c-10.4-3.8-21.7-6.4-32.5-6.3
				c-15.4,0.1-30.5,0.2-45.2,6.8c-5.2,2.3-11.5,6.2-15.5,11c-9,11.2-10.2,39.1-1.2,50.7c15.2,19.5,47.5,27.2,68.7,27.6
				c23.3,0.4,45.9-1.7,69.2-3c21.7-1.2,43.3-2.8,65-2.8c44.3,0.1,88.6,0,132.9-3.7c41.6-3.4,83.2-2.3,124.9-2.3
				c42.7,0,85.1,0.4,127.5,7.4c18.5,3.1,37.3,4.1,55.9,6.3c16.6,1.9,32.6,0,49.2-1.8c13.9-1.5,27.7-5.9,40.4-13.4
				c10-5.9,27.8-24.3,30.9-38.4c8.6-39.6-121.2-38.7-141.1-38.6c-22.3,0.1-44.8,1-67,0c-9.4-0.4-18.6-2.7-27.7-5.2
				c-9.1-2.5-18.3-1.8-27.5-2.9c-38.5-4.3-77.1-3.7-115.8-3.7C389.4,454.7,376.8,454.6,364.2,454.6z"/>
		</g>
		<g>
			<rect x="84.4" y="109.4" class="st10" width="586.5" height="370"/>
			<rect x="84.4" y="80.6" class="st7" width="586.5" height="22.2"/>
			<rect x="84.4" y="102.8" class="st11" width="586.5" height="29.1"/>
			<rect x="145.1" y="113.4" class="st12" width="498.8" height="12.4"/>
			<g>
				<ellipse class="st9" cx="105.2" cy="90.7" rx="3.7" ry="3.7"/>
				<ellipse class="st13" cx="116.1" cy="90.7" rx="3.7" ry="3.7"/>
				<ellipse class="st11" cx="127" cy="90.7" rx="3.7" ry="3.7"/>
			</g>
			<g class="st14">
				<polygon class="st12" points="124.8,113.7 124.8,125.6 129.2,119.7 				"/>
				<polygon class="st12" points="107.3,125.6 107.3,113.7 103,119.7 				"/>
			</g>
		</g>
		<g>
			<g id="XMLID_279_">
				<circle id="XMLID_294_" class="st15" cx="205.5" cy="278.9" r="44"/>
				<path id="XMLID_280_" class="st12" d="M237.4,265.4c-1.7-4.1-4.2-7.8-7.4-11c-3.2-3.2-6.9-5.7-11-7.4c-4.3-1.8-8.8-2.7-13.5-2.7
					c-4.7,0-9.2,0.9-13.5,2.7c-4.1,1.7-7.8,4.2-11,7.4c-3.2,3.2-5.7,6.9-7.4,11c-1.8,4.3-2.7,8.8-2.7,13.5c0,4.7,0.9,9.2,2.7,13.5
					c1.7,4.1,4.2,7.8,7.4,11c3.2,3.2,6.9,5.7,11,7.4c4.3,1.8,8.8,2.7,13.5,2.7c4.7,0,9.2-0.9,13.5-2.7c4.1-1.7,7.8-4.2,11-7.4
					c3.2-3.2,5.7-6.9,7.4-11c1.8-4.3,2.7-8.8,2.7-13.5C240.1,274.2,239.2,269.7,237.4,265.4z M188.7,277.8c0-2.7,0.3-5.4,0.9-7.9
					h14.2v16.5h-14.1C189,283.5,188.7,280.7,188.7,277.8z M214.2,255c2.5,2.9,4.5,6.1,5.9,9.5c0.3,0.6,0.5,1.2,0.7,1.9h-13.6v-17.8
					C208.9,249.8,211.5,251.9,214.2,255z M203.8,249v17.4h-13.1c0.2-0.6,0.4-1.2,0.7-1.8c1.4-3.3,3.4-6.5,5.9-9.4
					C199.6,252.3,202.1,250.2,203.8,249z M203.8,289.8v18.7c-1.7-1.4-4-3.7-6.4-6.8c-2.5-3.2-4.5-6.7-6-10.2
					c-0.2-0.5-0.4-1.1-0.6-1.6H203.8z M207.2,308.9v-19.1h13.5c-0.2,0.5-0.4,1.1-0.6,1.6c-1.4,3.5-3.4,7-5.9,10.2
					C211.6,305,208.9,307.5,207.2,308.9z M207.2,286.3v-16.5h14.6c0.6,2.6,0.9,5.2,0.9,7.9c0,2.9-0.3,5.7-1,8.5H207.2z M225.4,269.9
					h9.9c0.9,2.9,1.3,5.9,1.3,9c0,2.5-0.3,5-0.9,7.5h-10.4c0.6-2.8,0.9-5.7,0.9-8.5C226.3,275.1,226,272.4,225.4,269.9z
					 M227.5,256.8c2.8,2.8,5,6,6.5,9.5h-9.5c-0.3-1.1-0.7-2.2-1.2-3.2c-1.6-3.7-3.7-7.2-6.5-10.4c-1.4-1.7-2.8-3-4.1-4.2
					C218.3,249.9,223.4,252.7,227.5,256.8z M183.5,256.8c4.3-4.3,9.6-7.2,15.4-8.4c-1.3,1.2-2.8,2.6-4.3,4.3
					c-2.7,3.2-4.9,6.7-6.5,10.4c-0.5,1.1-0.8,2.1-1.2,3.2h-10C178.5,262.9,180.7,259.6,183.5,256.8z M175.7,269.9H186
					c-0.6,2.6-0.8,5.2-0.8,7.9c0,2.9,0.3,5.7,0.9,8.5h-10.9c-0.6-2.4-0.9-4.9-0.9-7.5C174.4,275.8,174.8,272.7,175.7,269.9z
					 M183.5,300.9c-3.2-3.2-5.6-7-7.1-11.1h10.7c0.3,1,0.7,2,1.1,3c1.6,3.8,3.7,7.6,6.4,11.1c1.8,2.3,3.5,4.2,5.1,5.6
					C193.5,308.3,188,305.4,183.5,300.9z M227.5,300.9c-4.3,4.3-9.7,7.2-15.6,8.5c1.5-1.4,3.2-3.3,4.9-5.5c2.7-3.5,4.9-7.2,6.4-11.1
					c0.4-1,0.7-2,1.1-3h10.3C233.1,293.9,230.7,297.7,227.5,300.9z"/>
			</g>
		</g>
		<g id="arrow">
			<g>
				<path class="st12" d="M667.1,376.9c-0.7,0-1.3-0.3-1.8-0.7l-17.8-18.2l-11,14c-0.4,0.6-1.1,0.9-1.8,0.9c-1.1,0-2.2-0.8-2.6-1.8
					l-26.4-71.2c-0.3-0.9-0.1-1.9,0.6-2.6c0.4-0.5,1.1-0.9,1.7-0.9c0.3,0,0.6,0.1,0.9,0.2l70.5,28.2c1,0.4,1.6,1.2,1.7,2.1
					c0.1,0.9-0.3,1.9-1.1,2.5l-14.1,10.4l17.7,18.2c0.5,0.5,0.7,1.1,0.7,1.8c0,0.7-0.3,1.4-0.7,1.8l-14.9,14.5
					C668.5,376.6,667.8,376.9,667.1,376.9L667.1,376.9z M647.3,351.5c0.7,0,1.4,0.3,1.9,0.8l18,18.5l11.2-10.9l-18-18.4
					c-0.5-0.5-0.8-1.2-0.7-2c0.1-0.8,0.5-1.5,1.1-2l12.7-9.5l-60.9-24.4l22.8,61.5l10-12.8C645.9,351.8,646.5,351.5,647.3,351.5z"/>
				<g>
					<path class="st12" d="M684.6,357.2l-6.5-6.6L667.8,340l13-9.7c1.1-0.9,1.7-2.2,1.6-3.5c-0.2-1.4-1.1-2.5-2.4-3l-24-9.6l-21-8.4
						l-16.8-6.7l-4.3-1.7l-4.3-1.7c-0.4-0.2-0.9-0.3-1.4-0.3c-1,0-1.9,0.4-2.6,1.2c-1,1-1.3,2.4-0.8,3.7l8.5,23l0.4,1.2l0.6,1.7
						l13.6,36.6l1.6,4.4l1.6,4.4c0.5,1.5,2.1,2.5,3.6,2.5c1,0,2-0.5,2.7-1.3l5.9-7.5l4.3-5.5l3.9,4l10.5,10.8l1.2,1.2l1.2,1.2
						c0.7,0.7,1.6,1.1,2.6,1.1c1,0,1.9-0.4,2.6-1.1l4.3-4.2l10.6-10.3c0.7-0.7,1.1-1.7,1.1-2.7C685.7,358.8,685.3,357.9,684.6,357.2
						z M683,360.8c-5,4.8-9.9,9.7-14.9,14.5c-0.3,0.3-0.7,0.4-1,0.4c-0.4,0-0.7-0.1-1-0.4c-0.8-0.8-1.6-1.7-2.4-2.5
						c-5.4-5.5-10.8-11.1-16.2-16.6c-3.9,5-7.8,10-11.8,15.1c-0.3,0.3-0.6,0.5-0.9,0.5c-0.6,0-1.3-0.5-1.5-1.1
						c-1.1-2.9-2.2-5.8-3.3-8.8c-4.7-12.7-9.5-25.5-14.2-38.2c-3-8.1-6-16.1-9-24.2c-0.2-0.6,0-1.1,0.3-1.4c0.2-0.3,0.5-0.5,0.9-0.5
						c0.2,0,0.3,0,0.5,0.1c2.9,1.2,5.8,2.3,8.7,3.5c12.6,5,25.3,10.1,37.9,15.1c8,3.2,16,6.4,24,9.6c1.2,0.5,1.4,1.9,0.4,2.6
						c-5,3.7-10.1,7.5-15.1,11.2c0.4,0.4,0.8,0.9,1.3,1.3c5.8,5.9,11.6,11.9,17.3,17.8C683.5,359.3,683.6,360.3,683,360.8z"/>
					<path class="st12" d="M661.2,340.6c-0.7-0.7-0.5-1.7,0.3-2.3c4.8-3.6,9.6-7.1,14.4-10.7c-2-0.8-4.1-1.6-6.1-2.5
						c-12.6-5-25.3-10.1-37.9-15.1c-7-2.8-14.1-5.6-21.1-8.4c0.7,1.9,1.4,3.9,2.2,5.8c4.7,12.7,9.5,25.5,14.2,38.2
						c2.7,7.2,5.4,14.5,8.1,21.7c3.7-4.8,7.5-9.6,11.2-14.3c0.2-0.3,0.6-0.4,1-0.4c0.4,0,0.8,0.2,1.1,0.4c0.8,0.8,1.6,1.7,2.4,2.5
						c5.5,5.6,10.9,11.2,16.4,16.8c4.3-4.2,8.5-8.3,12.8-12.5c-0.5-0.5-0.9-1-1.4-1.4C672.8,352.4,667,346.5,661.2,340.6z
						 M667.2,369.1l-6.6-6.8l-8.2-8.4l-1.2-1.2l-1.2-1.2c-0.7-0.7-1.7-1.1-2.7-1.1c-1.1,0-2.1,0.5-2.7,1.3l-4.5,5.7l-4.2,5.4
						l-2.6-7.1l-4-10.8l-0.7-1.8L615,306.6l-0.4-1.1l11.6,4.6l4.8,1.9l18.9,7.6l18.9,7.6l2.4,1l-3.9,2.9l-7.2,5.3
						c-0.9,0.7-1.5,1.7-1.6,2.8c-0.1,1.1,0.3,2.1,1,2.8l8.2,8.4l9,9.2L667.2,369.1z"/>
				</g>
			</g>
			<polygon class="st7" points="608.2,299.1 634.7,370.3 647.4,354 667.1,374.3 674.6,367.1 682,359.8 662.2,339.5 678.7,327.3 			
				"/>
		</g>
		<text transform="matrix(1 0 0 1 148.287 123.0114)" class="st16 st17 st18">https://www.subletor.com</text>
		<text transform="matrix(1 0 0 1 261.0169 286.7077)" class="st7 st19 st20">www.subletor.com</text>
	</g>
</g>
<g>
	<path class="st21" d="M588.6,279.4c0,28.4-23,51.4-51.4,51.4H79.1c-28.4,0-51.4-23-51.4-51.4v-8.4c0-28.4,23-51.4,51.4-51.4h458.2
		c28.4,0,51.4,23,51.4,51.4V279.4z"/>
	<path class="st12" d="M590.8,283.8c0,0,0.6,0.5,1.8,1.4c1.2,0.9,2.9,2.2,5.1,3.9c2.2,1.7,4.9,3.7,7.9,6.1c1.5,1.2,3.1,2.4,4.8,3.8
		c1.7,1.3,3.5,2.7,5.4,4.2c1.9,1.5,3.8,3,5.8,4.6c2,1.6,4.1,3.2,6.2,4.9c4.3,3.4,8.7,6.9,13.4,10.6c2.3,1.8,4.7,3.7,7,5.6
		c2.4,1.9,4.8,3.8,7.2,5.8c4.8,3.9,9.8,7.9,14.7,11.8c4.9,4,9.8,8,14.6,11.9c2.4,2,4.8,3.9,7.1,5.8c2.4,1.9,4.7,3.8,7,5.7
		c4.6,3.8,9,7.4,13.2,10.9c2.1,1.7,4.1,3.4,6.1,5.1c2,1.6,3.8,3.2,5.7,4.7c1.8,1.5,3.6,3,5.2,4.4c1.6,1.4,3.2,2.7,4.7,4
		c2.9,2.5,5.5,4.7,7.6,6.5c2.1,1.8,3.7,3.2,4.9,4.2c1.1,1,1.7,1.5,1.7,1.5s-0.6-0.5-1.8-1.4c-1.2-0.9-2.9-2.2-5.1-3.9
		c-2.2-1.7-4.9-3.7-7.9-6.1c-1.5-1.2-3.1-2.4-4.8-3.8c-1.7-1.3-3.5-2.7-5.4-4.2c-1.9-1.5-3.8-3-5.8-4.6c-2-1.6-4.1-3.2-6.2-4.9
		c-4.3-3.4-8.7-6.9-13.4-10.6c-2.3-1.8-4.7-3.7-7-5.6c-2.4-1.9-4.8-3.8-7.2-5.8c-4.8-3.9-9.8-7.9-14.7-11.8c-4.9-4-9.8-8-14.6-11.9
		c-2.4-2-4.8-3.9-7.1-5.8c-2.4-1.9-4.7-3.8-7-5.7c-4.6-3.8-9-7.4-13.2-10.9c-2.1-1.7-4.1-3.4-6.1-5.1c-2-1.6-3.8-3.2-5.7-4.7
		c-1.8-1.5-3.6-3-5.2-4.4c-1.6-1.4-3.2-2.7-4.7-4c-2.9-2.5-5.5-4.7-7.6-6.5c-2.1-1.8-3.7-3.2-4.9-4.2
		C591.4,284.3,590.8,283.8,590.8,283.8z"/>
	<path class="st12" d="M519.1,325.3c0,0,0.7,0.5,2.1,1.4c1.3,0.9,3.3,2.2,5.8,3.9c2.5,1.7,5.5,3.7,9,6c1.7,1.2,3.6,2.4,5.5,3.7
		c1.9,1.3,4,2.7,6.1,4.1c2.1,1.4,4.4,3,6.7,4.5c2.3,1.6,4.7,3.2,7.1,4.9c4.9,3.3,10,6.9,15.3,10.5c2.6,1.8,5.3,3.7,8.1,5.6
		c2.7,1.9,5.5,3.8,8.3,5.7c5.5,3.9,11.2,7.8,16.8,11.7c5.6,4,11.2,7.9,16.8,11.8c2.8,2,5.5,3.9,8.2,5.8c2.7,1.9,5.4,3.8,8,5.7
		c5.2,3.7,10.3,7.4,15.1,10.8c2.4,1.7,4.7,3.4,7,5c2.2,1.6,4.4,3.2,6.5,4.7c2.1,1.5,4.1,3,6,4.3c1.9,1.4,3.7,2.7,5.4,3.9
		c3.4,2.5,6.3,4.6,8.7,6.4c2.4,1.8,4.3,3.2,5.6,4.2c1.3,1,2,1.5,2,1.5s-0.7-0.5-2.1-1.4c-1.3-0.9-3.3-2.2-5.8-3.9
		c-2.5-1.7-5.5-3.7-9-6c-1.7-1.2-3.6-2.4-5.5-3.7c-1.9-1.3-4-2.7-6.1-4.1c-2.1-1.4-4.4-3-6.7-4.5c-2.3-1.6-4.7-3.2-7.1-4.9
		c-4.9-3.3-10-6.9-15.3-10.5c-2.6-1.8-5.3-3.7-8.1-5.6c-2.7-1.9-5.5-3.8-8.3-5.7c-5.6-3.9-11.2-7.8-16.8-11.7
		c-5.6-4-11.2-7.9-16.8-11.8c-2.8-2-5.5-3.9-8.2-5.8c-2.7-1.9-5.4-3.8-8-5.7c-5.2-3.7-10.3-7.4-15.1-10.8c-2.4-1.7-4.7-3.4-7-5
		c-2.2-1.6-4.4-3.2-6.5-4.7c-2.1-1.5-4.1-3-6-4.3c-1.9-1.4-3.7-2.7-5.4-3.9c-3.4-2.5-6.3-4.6-8.7-6.4c-2.4-1.8-4.3-3.2-5.6-4.2
		C519.8,325.8,519.1,325.3,519.1,325.3z"/>
	<path class="st12" d="M552.9,208c0,0,0.9,0.6,2.5,1.7c1.6,1.1,4,2.7,7.1,4.7c3,2,6.8,4.5,11,7.4c2.1,1.4,4.4,2.9,6.7,4.6
		c2.4,1.6,4.9,3.3,7.5,5.1c2.6,1.8,5.3,3.6,8.1,5.5c2.8,1.9,5.7,3.9,8.7,5.9c5.9,4.1,12.2,8.4,18.7,12.8c3.2,2.2,6.5,4.5,9.8,6.8
		c3.3,2.3,6.7,4.6,10.1,7c6.8,4.7,13.7,9.5,20.5,14.3c6.9,4.8,13.7,9.6,20.5,14.4c3.4,2.4,6.7,4.7,10,7.1c3.3,2.3,6.6,4.6,9.8,6.9
		c6.4,4.5,12.6,8.9,18.5,13.1c2.9,2.1,5.8,4.1,8.5,6.1c2.8,2,5.4,3.9,8,5.7c2.6,1.8,5,3.6,7.3,5.3c2.3,1.7,4.5,3.3,6.6,4.8
		c4.1,3,7.7,5.6,10.7,7.8c3,2.2,5.3,3.9,6.9,5c1.6,1.2,2.4,1.8,2.4,1.8s-0.9-0.6-2.5-1.7c-1.6-1.1-4-2.7-7.1-4.7
		c-3-2-6.8-4.5-11-7.4c-2.1-1.4-4.4-2.9-6.7-4.5c-2.4-1.6-4.9-3.3-7.5-5.1c-2.6-1.8-5.3-3.6-8.1-5.5c-2.8-1.9-5.7-3.9-8.7-5.9
		c-5.9-4.1-12.2-8.4-18.7-12.8c-3.2-2.2-6.5-4.5-9.8-6.8c-3.3-2.3-6.7-4.6-10.1-7c-6.8-4.7-13.7-9.5-20.5-14.3
		c-6.9-4.8-13.7-9.6-20.5-14.4c-3.4-2.4-6.7-4.7-10-7.1c-3.3-2.3-6.6-4.6-9.8-6.9c-6.4-4.5-12.6-8.9-18.5-13.1
		c-2.9-2.1-5.8-4.1-8.5-6.1c-2.8-2-5.4-3.9-8-5.7c-2.6-1.8-5-3.6-7.3-5.3c-2.3-1.7-4.5-3.3-6.6-4.8c-4.1-3-7.7-5.6-10.7-7.8
		c-3-2.2-5.3-3.9-6.9-5C553.8,208.6,552.9,208,552.9,208z"/>
	<g>
		<polygon class="st22" points="402,230.2 416.5,259.7 449,264.4 425.5,287.4 431.1,319.7 402,304.4 402,304.4 402,230.2 		"/>
		<polygon class="st23" points="378.5,287.4 354.9,264.4 387.5,259.7 402,230.2 402,304.4 372.9,319.7 		"/>
	</g>
	<g>
		<polygon class="st22" points="299.2,230.2 313.7,259.7 346.2,264.4 322.7,287.4 328.3,319.7 299.2,304.4 299.2,304.4 299.2,230.2 
					"/>
		<polygon class="st23" points="275.7,287.4 252.1,264.4 284.7,259.7 299.2,230.2 299.2,304.4 270.1,319.7 		"/>
	</g>
	<g>
		<polygon class="st22" points="210.9,259.7 243.4,264.4 219.9,287.4 225.5,319.7 196.4,304.4 196.4,230.2 		"/>
		<polygon class="st23" points="149.3,264.4 181.9,259.7 196.4,230.2 196.4,304.4 167.3,319.7 172.9,287.4 		"/>
	</g>
	<g>
		<polygon class="st22" points="108.1,259.7 140.7,264.4 117.1,287.4 122.7,319.7 93.6,304.4 93.6,230.2 		"/>
		<polygon class="st23" points="46.5,264.4 79.1,259.7 93.6,230.2 93.6,304.4 64.5,319.7 70.1,287.4 		"/>
	</g>
	<g>
		<g>
			<path class="st24" d="M599.3,343.8c-5.7-0.5-9.5,1-9.5,1c-3.2,1.1-7.4,1.5-10.8,0.7c-0.5-2.2-1-5.4-0.6-6.8
				C579.1,336.5,593.4,332.9,599.3,343.8z"/>
			<path class="st25" d="M687.2,370.2c3.1,0.1,6.8,2.5,10.2,5.6l-1,1.5c0,0-4.3-3.8-21-1.6c-16.6,2.1-48-18-61.2-26.6
				c-2.3-1.5-4.6-2.6-6.8-3.4c0.7-0.1,1.1,0,1.1,0C652.3,372.4,677.7,370.1,687.2,370.2z"/>
			<path class="st25" d="M642.1,279.5c6.7,15-0.8,24.1-6.3,28.5c8.2-15,0.1-32.6-11.1-47.8c-14.6-19.8-22-15.5-43.3-17.5
				c-1.9-0.2-3.5-0.5-4.9-1c13.2,2,28.5,0.4,33.5,0.7C616.6,242.7,632.1,257.3,642.1,279.5z"/>
			<path class="st24" d="M585,229.6c-7.6-0.2-14.6-1.3-14.6-1.3l0.5-9.5l19.7,1.4C590.8,221.7,591.9,229.8,585,229.6z"/>
			<path class="st25" d="M644.7,223c1.2,5.8,10.1,27.1,10.1,27.1c-1.5-3.3-3.6-5.7-5.6-7.3c-1.3-5-9.8-35.4-34.4-44.8
				c-2.3-0.9-4.2-1.8-5.9-2.7c4.4,1.6,9.3,2.6,14.5,4.6C632.8,203.4,643.5,217.2,644.7,223z"/>
			<path class="st24" d="M613.2,185.1c-4.8-3.3-10.5-5.5-10.5-5.5l3.9-6.9c2.8,1.7,8.2,5,14.6,8C620.1,182.8,617,187.7,613.2,185.1z
				"/>
			<path class="st25" d="M659.6,183c11,2.8,29.6,25.8,12.2,48.1c0,0,12.1-32.1-6.9-40.2c-13.8-5.9-16.2-12.9-16.5-16.3
				C650,177.5,653.2,181.4,659.6,183z"/>
			<path class="st24" d="M661.2,175.2c-5.5-1.9-9.9-4.4-9.9-4.4l3.3-9c5-0.1,11.7,5.4,15.5,8.9C668.5,172.8,665.1,176.5,661.2,175.2
				z"/>
			<path class="st25" d="M716.6,223c0,0,0.1,6.4-0.7,14.8c-0.8,8.4-11.3,10.9-11.3,10.9c10.8-4.7,9-24.6,9-24.6
				c-5.9-6.8-8.2-12.1-8.9-16C708.4,214.9,716.6,223,716.6,223z"/>
			<g>
				<path class="st26" d="M606.6,172.7l-3.9,6.9c0,0,5.7,2.3,10.5,5.5c3.8,2.6,6.9-2.3,8-4.3c5.2,2.5,10.9,4.8,16.4,6.2
					c15.4,3.8,21.8,17.5,21.8,17.5l12.2,26.7c17.5-22.3-1.2-45.3-12.2-48.1c-6.4-1.6-9.6-5.5-11.3-8.4c-0.1-1.3,0.1-2.1,0.1-2.1
					c0.1-8,2.7-10.7,6.2-10.8l-3.3,9c0,0,4.4,2.5,9.9,4.4c3.9,1.3,7.4-2.3,9-4.6c1.8,1.7,3,2.9,3,2.9l26.1,32.3l5.3,42.8
					c0,0,10.5-2.5,11.3-10.9c0.8-8.4,0.7-14.8,0.7-14.8s-8.2-8.1-11.8-15.1c-1-5.8,1.5-8.5,1.5-8.5c0.5,0.1,1.1,0.2,1.6,0.4
					l-1.4,4.1c0,0,2,0.9,5,3.6c2.4,2.2,6.8,0.5,8.6-0.4c7.9,8.4,10.7,21,11.8,26.9c1.5,8.5-12.8,43.1-12.8,43.1l11.1,27.6l12.7,17.2
					l-45.4,54c-3.5-3.2-7.1-5.6-10.2-5.6c-9.5-0.2-35,2.2-78.6-24.5c0,0-0.5-0.1-1.1,0c-3-1.1-5.8-1.7-8.2-1.9
					c-5.9-10.9-20.2-7.3-20.8-5.1c-0.4,1.4,0.1,4.6,0.6,6.8c-5.9-1.3-9.4-5.9-1.2-16.6c13-16.9,45-7.8,45-7.8
					c6.1-4,10.2-8.5,12.8-13.1c5.5-4.3,13-13.4,6.3-28.5c-9.9-22.2-25.5-36.8-32.1-37.1c-5-0.2-20.3,1.4-33.5-0.7
					c-14.9-4.7-7.6-23-7.6-23l2,0.1l-0.5,9.5c0,0,7,1,14.6,1.3c6.9,0.2,5.9-7.9,5.6-9.3l21.3,1.5l37.5,21.7c0,0-0.1-0.2-0.2-0.7
					c2,1.6,4.1,4,5.6,7.3c0,0-8.9-21.3-10.1-27.1c-1.2-5.8-11.9-19.6-21.4-23.2c-5.1-2-10-3-14.5-4.6c-18.2-10.2-4.3-23.7-4.3-23.7
					S605.3,171.9,606.6,172.7z"/>
				<path class="st24" d="M711.5,207.6c-3-2.8-5-3.6-5-3.6l1.4-4.1c5,1.3,9,4,12.2,7.3C718.2,208,713.8,209.7,711.5,207.6z"/>
			</g>
			<g>
				<g>
					<g>
						<g>
							<g>
								<path class="st27" d="M715.5,346.1l-27.3,31c-2.9,3.3-2.6,8.2,0.7,11.1l23.6,20.8c3.3,2.9,8.2,2.6,11.1-0.7l27.3-31
									l-8.1-7.1L715.5,346.1z"/>
								<path class="st28" d="M742.8,315.1l-27.3,31l27.4,24.1l8.1,7.1l27.3-31c2.9-3.3,2.6-8.2-0.7-11.1l-23.6-20.8
									C750.6,311.5,745.6,311.8,742.8,315.1z"/>
							</g>
							
								<ellipse transform="matrix(0.661 -0.7504 0.7504 0.661 -46.2589 656.7366)" class="st29" cx="703.7" cy="379.6" rx="7.6" ry="7.6"/>
						</g>
					</g>
				</g>
			</g>
			<g>
				<path class="st29" d="M701.7,395.5l30.9-35.4l59.9,50.8V485l-92.3-80.4C698.2,402.7,698.9,398.6,701.7,395.5z"/>
				<path class="st30" d="M733.2,359.5l-0.5,0.6l-0.1-0.1l31.4-36c2.7-3.3,6.6-4.5,8.9-2.6l19.7,17.2v72.3L733.2,359.5z"/>
				<polyline class="st30" points="792.6,410.9 732.7,360.1 733.2,359.5 				"/>
			</g>
		</g>
	</g>
	<g>
		<polygon class="st22" points="519.6,241.1 474,247.7 507,279.9 499.2,325.3 540,303.9 540,199.8 		"/>
		<polygon class="st23" points="605.9,247.7 560.3,241.1 540,199.8 540,303.9 580.7,325.3 572.9,279.9 		"/>
	</g>
	<g>
		<g>
			<g>
				<circle class="st12" cx="522.4" cy="261.1" r="4.8"/>
				<circle class="st12" cx="557.5" cy="261.1" r="4.8"/>
			</g>
		</g>
		<path class="st12" d="M539.5,294.5c-0.5,0-1.1,0-1.6-0.1c-5.5-0.4-11-2.7-16-6.8c-3.7-3-5.8-6-5.9-6.1l2.6-1.9c0,0,2,2.7,5.4,5.5
			c3.1,2.5,8,5.6,14.1,6c7.8,0.5,15.7-3.4,23.4-11.6l2.4,2.2C556,290.2,547.8,294.5,539.5,294.5z"/>
	</g>
</g>
</svg>
