<?xml version="1.0" encoding="utf-8"?>
<!-- Generator: Adobe Illustrator 21.0.2, SVG Export Plug-In . SVG Version: 6.00 Build 0)  -->
<svg version="1.1" id="Layer_1" xmlns="http://www.w3.org/2000/svg" xmlns:xlink="http://www.w3.org/1999/xlink" x="0px" y="0px"
	 viewBox="0 0 400 400" style="enable-background:new 0 0 400 400;" xml:space="preserve">
<style type="text/css">
	.st0{display:none;}
	.st1{display:inline;fill:#837977;}
	.st2{display:inline;fill:#7C7371;}
	.st3{display:inline;fill:#1C798A;}
	.st4{display:inline;}
	.st5{clip-path:url(#SVGID_2_);}
	.st6{fill:#D9A88C;}
	.st7{fill:#F2F2F2;}
	.st8{fill:#E6E7E7;}
	.st9{fill:#EAC0A7;}
	.st10{fill:#F2D8BC;}
	.st11{fill:#30353B;}
	.st12{fill:#EFBA1C;}
	.st13{fill:#FFFFFF;}
	.st14{fill:#E9AE21;}
	.st15{clip-path:url(#SVGID_4_);}
	.st16{fill:#451A14;}
	.st17{fill:#EAC8AE;}
	.st18{fill:#1C798A;}
</style>
<g class="st0">
	<circle class="st1" cx="197.9" cy="202" r="186.6"/>
	<path class="st2" d="M384.5,202c0-103-83.5-186.6-186.6-186.6v373.1C300.9,388.5,384.5,305,384.5,202z"/>
</g>
<g class="st0">
	<ellipse class="st3" cx="197.9" cy="202" rx="186.6" ry="186.6"/>
	<g class="st4">
		<defs>
			<ellipse id="SVGID_1_" cx="197.9" cy="202" rx="186.6" ry="186.6"/>
		</defs>
		<clipPath id="SVGID_2_">
			<use xlink:href="#SVGID_1_"  style="overflow:visible;"/>
		</clipPath>
		<g class="st5">
			<polygon class="st6" points="225.2,308.9 198.5,373.7 170.6,308.9 170.6,249 225.2,249 			"/>
			<path class="st7" d="M170.6,284.7c0,0-58.6,7.6-66.3,15.6c-6.7,7-20.6,73.6-23.8,88.2c91.2,0,117.4,0,117.4,0v-35.1L170.6,284.7z
				"/>
			<path class="st8" d="M225.2,284.7c0,0,58.6,7.6,66.2,15.6c6.7,7,20.6,73.6,23.8,88.2c-91.2,0-117.4,0-117.4,0v-35.1L225.2,284.7z
				"/>
			<g>
				<path class="st9" d="M197.9,77.6c26.5,0,68.5,15.1,68.5,85.8c0,40.8-13.3,67.5-19.1,74.9c-5.3,6.8-35.3,21.3-49.4,21.3
					C197.9,188.1,197.9,77.6,197.9,77.6z"/>
				<path class="st9" d="M279.6,180.2c1.2-11.3-4.2-21.3-12-22.4c-7.8-1.1-15.1,7.2-16.3,18.5c-1.2,11.3,4.2,21.3,12,22.4
					C271.1,199.8,278.4,191.5,279.6,180.2z"/>
			</g>
			<g>
				<path class="st10" d="M197.9,77.6c-26.5,0-68.5,15.1-68.5,85.8c0,40.8,13.3,67.5,19.1,74.9c5.3,6.8,35.3,21.3,49.4,21.3
					C197.9,188.1,197.9,77.6,197.9,77.6z"/>
				<path class="st10" d="M116.2,180.2c-1.2-11.3,4.2-21.3,12-22.4c7.8-1.1,15.1,7.2,16.3,18.5c1.2,11.3-4.2,21.3-12,22.4
					C124.6,199.8,117.4,191.5,116.2,180.2z"/>
			</g>
			<path class="st11" d="M138.5,181.4h4.7c0,0-2.9-18.4,5.6-24.3c0-9.2,0-11.9,0-11.9s-3.3-0.4-3.3-14.4c0-14,16.7-24,52.3-24
				c0-19.9,0-51.2,0-51.2s-70.5,1.5-70.5,52.7c0,21.2,0,49.5,0,49.5s5.1-0.9,8.8,2.2C140.2,163.3,138.5,181.4,138.5,181.4z"/>
			<path class="st11" d="M257.2,181.4h-4.7c0,0,2.9-18.4-5.6-24.3c0-9.2,0-11.9,0-11.9s3.3-0.4,3.3-14.4c0-14-16.7-24-52.3-24
				c0-19.9,0-51.2,0-51.2s70.5-1.6,70.5,49.5c0,21.3,0,52.6,0,52.6s-5.1-0.9-8.8,2.2C255.6,163.3,257.2,181.4,257.2,181.4z"/>
			<g>
				<polygon class="st12" points="197.9,353.4 179.3,290 172.5,318.6 				"/>
				<polygon class="st13" points="169.8,278.2 179.5,290.8 172.5,318.6 157.5,298.4 				"/>
			</g>
			<g>
				<polygon class="st12" points="197.9,353.4 214.7,289.2 223.3,318.6 				"/>
				<polygon class="st13" points="226,278.2 214.5,290.1 223.3,318.6 239.6,298.4 				"/>
			</g>
			<path class="st13" d="M197.9,229.1c12.4,0,22.4-4.1,22.4-9.1h-44.8C175.5,225,185.5,229.1,197.9,229.1z"/>
		</g>
	</g>
</g>
<g id="women_3">
	<g>
		<circle class="st12" cx="200" cy="200" r="190.6"/>
		<path class="st14" d="M390.6,200C390.6,94.7,305.3,9.4,200,9.4v381.2C305.3,390.6,390.6,305.3,390.6,200z"/>
	</g>
	<g>
		<defs>
			<ellipse id="SVGID_3_" cx="200" cy="200" rx="190.6" ry="190.6"/>
		</defs>
		<clipPath id="SVGID_4_">
			<use xlink:href="#SVGID_3_"  style="overflow:visible;"/>
		</clipPath>
		<g class="st15">
			<path class="st16" d="M126.6,166c0,31.9-17.5,32.8-16.3,53.9c1.4,23.4,19.7,23.5,19.7,39.6c0,16.1-16.8,34.1-1.9,51.5
				c65.6,0,72,0,72,0V115.7L126.6,166z"/>
			<path class="st16" d="M273.4,166c0,31.9,17.5,32.8,16.3,53.9c-1.4,23.4-19.7,23.5-19.7,39.6c0,16.1,16.8,34.1,1.9,51.5
				c-65.6,0-72,0-72,0V115.7L273.4,166z"/>
			<g>
				<circle class="st16" cx="200.4" cy="133" r="83.4"/>
				<polygon class="st17" points="228.3,311.7 200,390.9 172.5,311.7 172.5,250.5 228.3,250.5 				"/>
				<g>
					<path class="st10" d="M200.4,80.8c-27.1,0-70,15.4-70,87.6c0,41.7,16.2,61.3,22.2,68.9c5.4,6.9,33.4,29.4,47.8,29.4
						C200.4,193.8,200.4,80.8,200.4,80.8z"/>
					<path class="st10" d="M116.9,185.6c-1.2-11.5,4.3-21.8,12.3-22.9c8-1.1,15.4,7.4,16.6,18.9c1.2,11.5-4.3,21.8-12.3,22.9
						C125.6,205.6,118.1,197.2,116.9,185.6z"/>
				</g>
				<g>
					<g>
						<g>
							<path class="st9" d="M200.2,80.8c27.1,0,70,15.4,70,87.6c0,41.7-16.2,61.3-22.2,68.9c-5.5,6.9-33.4,29.4-47.8,29.4
								C200.2,193.8,200.2,80.8,200.2,80.8z"/>
						</g>
						<g>
							<path class="st9" d="M283.8,185.6c1.2-11.5-4.3-21.8-12.3-22.9c-8-1.1-15.4,7.4-16.6,18.9c-1.2,11.5,4.3,21.8,12.3,22.9
								C275.2,205.6,282.6,197.2,283.8,185.6z"/>
						</g>
					</g>
				</g>
				<path class="st17" d="M200,390.9v-76.2c0,0-20.8-5.2-25.4-22c-2.2-8.1-2.1-14.6-2.1-14.6s-45.5,15.4-55.7,31.3
					c-8.5,25.2-10.8,81.6-10.8,81.6H200z"/>
				<path class="st17" d="M200,390.9v-76.2c0,0,20.8-5.2,25.4-22c2.2-8.1,2.1-14.6,2.1-14.6s45.5,15.4,55.7,31.3
					c8.5,25.2,10.8,81.6,10.8,81.6H200z"/>
				<path class="st13" d="M200.4,241.3c10.6,0,19.1-6.5,19.1-14.5h-38.3C181.3,234.8,189.8,241.3,200.4,241.3z"/>
				<path class="st18" d="M200,361.1c0,0-20-50.2-27.6-83.1c-7.6,2.9-13.8,4.8-18.6,7.2c-22.5,47.5-23.5,105.6-23.5,105.6H200V361.1
					z"/>
				<path class="st18" d="M200.3,361.1c0,0,20-50.2,27.6-83.1c7.6,2.9,13.8,4.8,18.6,7.2c22.5,47.5,23.5,105.6,23.5,105.6h-69.6
					V361.1z"/>
			</g>
			<path class="st16" d="M196.4,60.1c-49.5,0-64.6,43.4-64.6,63.4c-18,25,1.6,47.3,15.5,55.1c0-4.6,0-6.3,0-12.3
				c0-16.1,15.3-31.1,38.4-28.6c20.7,2.2,33.7-9.4,44.7-29.3C244,81.8,227,60.1,196.4,60.1z"/>
			<path class="st16" d="M228.3,100.2c0,0,11.6,47,43.3,62.6c5.6-42.2,9-33.3,0-55.6c-9-22.2-43.3-38.8-43.3-38.8V100.2z"/>
		</g>
	</g>
</g>
</svg>
