<?xml version="1.0" encoding="utf-8"?>
<!-- Generator: Adobe Illustrator 21.0.2, SVG Export Plug-In . SVG Version: 6.00 Build 0)  -->
<svg version="1.1" id="Layer_1" xmlns="http://www.w3.org/2000/svg" xmlns:xlink="http://www.w3.org/1999/xlink" x="0px" y="0px"
	 viewBox="0 0 400 400" style="enable-background:new 0 0 400 400;" xml:space="preserve">
<style type="text/css">
	.st0{fill:#837977;}
	.st1{fill:#7C7371;}
	.st2{fill:#1C798A;}
	.st3{clip-path:url(#SVGID_2_);}
	.st4{fill:#D9A88C;}
	.st5{fill:#F2F2F2;}
	.st6{fill:#E6E7E7;}
	.st7{fill:#EAC0A7;}
	.st8{fill:#F2D8BC;}
	.st9{fill:#30353B;}
	.st10{fill:#EFBA1C;}
	.st11{fill:#FFFFFF;}
</style>
<g>
	<circle class="st0" cx="197.9" cy="202" r="186.6"/>
	<path class="st1" d="M384.5,202c0-103-83.5-186.6-186.6-186.6v373.1C300.9,388.5,384.5,305,384.5,202z"/>
</g>
<g>
	<ellipse class="st2" cx="197.9" cy="202" rx="186.6" ry="186.6"/>
	<g>
		<defs>
			<ellipse id="SVGID_1_" cx="197.9" cy="202" rx="186.6" ry="186.6"/>
		</defs>
		<clipPath id="SVGID_2_">
			<use xlink:href="#SVGID_1_"  style="overflow:visible;"/>
		</clipPath>
		<g class="st3">
			<polygon class="st4" points="225.2,308.9 198.5,373.7 170.6,308.9 170.6,249 225.2,249 			"/>
			<path class="st5" d="M170.6,284.7c0,0-58.6,7.6-66.3,15.6c-6.7,7-20.6,73.6-23.8,88.2c91.2,0,117.4,0,117.4,0v-35.1L170.6,284.7z
				"/>
			<path class="st6" d="M225.2,284.7c0,0,58.6,7.6,66.2,15.6c6.7,7,20.6,73.6,23.8,88.2c-91.2,0-117.4,0-117.4,0v-35.1L225.2,284.7z
				"/>
			<g>
				<path class="st7" d="M197.9,77.6c26.5,0,68.5,15.1,68.5,85.8c0,40.8-13.3,67.5-19.1,74.9c-5.3,6.8-35.3,21.3-49.4,21.3
					C197.9,188.1,197.9,77.6,197.9,77.6z"/>
				<path class="st7" d="M279.6,180.2c1.2-11.3-4.2-21.3-12-22.4c-7.8-1.1-15.1,7.2-16.3,18.5c-1.2,11.3,4.2,21.3,12,22.4
					C271.1,199.8,278.4,191.5,279.6,180.2z"/>
			</g>
			<g>
				<path class="st8" d="M197.9,77.6c-26.5,0-68.5,15.1-68.5,85.8c0,40.8,13.3,67.5,19.1,74.9c5.3,6.8,35.3,21.3,49.4,21.3
					C197.9,188.1,197.9,77.6,197.9,77.6z"/>
				<path class="st8" d="M116.2,180.2c-1.2-11.3,4.2-21.3,12-22.4c7.8-1.1,15.1,7.2,16.3,18.5c1.2,11.3-4.2,21.3-12,22.4
					C124.6,199.8,117.4,191.5,116.2,180.2z"/>
			</g>
			<path class="st9" d="M138.5,181.4h4.7c0,0-2.9-18.4,5.6-24.3c0-9.2,0-11.9,0-11.9s-3.3-0.4-3.3-14.4c0-14,16.7-24,52.3-24
				c0-19.9,0-51.2,0-51.2s-70.5,1.5-70.5,52.7c0,21.2,0,49.5,0,49.5s5.1-0.9,8.8,2.2C140.2,163.3,138.5,181.4,138.5,181.4z"/>
			<path class="st9" d="M257.2,181.4h-4.7c0,0,2.9-18.4-5.6-24.3c0-9.2,0-11.9,0-11.9s3.3-0.4,3.3-14.4c0-14-16.7-24-52.3-24
				c0-19.9,0-51.2,0-51.2s70.5-1.6,70.5,49.5c0,21.3,0,52.6,0,52.6s-5.1-0.9-8.8,2.2C255.6,163.3,257.2,181.4,257.2,181.4z"/>
			<g>
				<polygon class="st10" points="197.9,353.4 179.3,290 172.5,318.6 				"/>
				<polygon class="st11" points="169.8,278.2 179.5,290.8 172.5,318.6 157.5,298.4 				"/>
			</g>
			<g>
				<polygon class="st10" points="197.9,353.4 214.7,289.2 223.3,318.6 				"/>
				<polygon class="st11" points="226,278.2 214.5,290.1 223.3,318.6 239.6,298.4 				"/>
			</g>
			<path class="st11" d="M197.9,229.1c12.4,0,22.4-4.1,22.4-9.1h-44.8C175.5,225,185.5,229.1,197.9,229.1z"/>
		</g>
	</g>
</g>
</svg>
