<?xml version="1.0" encoding="utf-8"?>
<!-- Generator: Adobe Illustrator 21.0.2, SVG Export Plug-In . SVG Version: 6.00 Build 0)  -->
<svg version="1.1" id="Layer_1" xmlns="http://www.w3.org/2000/svg" xmlns:xlink="http://www.w3.org/1999/xlink" x="0px" y="0px"
	 viewBox="0 0 200 200" style="enable-background:new 0 0 200 200;" xml:space="preserve">
<style type="text/css">
	.st0{fill:#F0BA1B;}
</style>
<g>
	<path class="st0" d="M82.8,33.2c-4.1-8.4-13.6-12.2-21.3-8.5c-7.7,3.7-10.6,13.5-6.6,22c4.1,8.4,13.6,12.2,21.3,8.5
		C83.9,51.5,86.8,41.6,82.8,33.2z M69.1,47.5c-5.9,0-10.7-4.8-10.7-10.7c0-5.9,4.8-10.7,10.7-10.7c5.9,0,10.7,4.8,10.7,10.7
		C79.7,42.7,75,47.5,69.1,47.5z"/>
	<path class="st0" d="M14.2,12.2c0,0,15.3,8.5,24.1,22.3s14.3,21,22.3,49.8s15.5,44.9,33.3,47c19.1,2.3,42.2-2.5,46.3-2.8
		c4.1-0.3,27.9-2.8,38.9,17.9c8.2,15.4,10.2,26.6,11.9,37.9c0.1,0.9-1.8,2.1-2.7-1.2c0,0-4.7-18.4-11.7-28.4
		c-7.3-10.4-17.8-19.9-47.3-13.4c-28.4,6.2-43.8,5.4-52.3,2.3s-17.2-9.9-21-26.6c-3.8-16.7-5.1-31.9-9.7-47s-8.4-30.8-20.2-43.4
		c-4-4.3-11-10.4-13.9-12.1C11.5,14.2,12.6,11.3,14.2,12.2z"/>
</g>
</svg>
