<svg id="Layer_1" data-name="Layer 1" xmlns="http://www.w3.org/2000/svg" viewBox="0 0 193.04 186.92"><defs><style>.cls-1{fill:#f0ba1b;}</style></defs><title>v0</title><path class="cls-1" d="M79.63,30.6c-4.38-9.08-14.66-13.2-23-9.2S45.18,36,49.56,45.09s14.66,13.2,23,9.2S84,39.68,79.63,30.6ZM64.85,46A11.49,11.49,0,1,1,76.34,34.55,11.49,11.49,0,0,1,64.85,46Z" transform="translate(-3.29 -7.74)"/><path class="cls-1" d="M5.61,7.94s16.54,9.14,26,24.1S47,54.73,55.71,85.76s16.75,48.38,35.92,50.73c20.64,2.52,45.53-2.68,49.94-3s30.11-3,41.94,19.3c8.82,16.61,11,28.73,12.82,40.82.15,1-1.89,2.24-2.89-1.3,0,0-5.11-19.85-12.64-30.62-7.88-11.26-19.22-21.42-51-14.49-30.63,6.67-47.26,5.83-56.4,2.52S54.76,139,50.67,121.05,45.15,86.63,40.19,70.32s-9.06-33.2-21.74-46.79C14.09,18.86,6.61,12.29,3.5,10.48,2.79,10.07,3.93,6.94,5.61,7.94Z" transform="translate(-3.29 -7.74)"/></svg>