<svg xmlns="http://www.w3.org/2000/svg" viewBox="0 0 196 150.06"><defs><style>.cls-1{isolation:isolate;}.cls-2{fill:#ec9b66;}.cls-3{fill:#cc572e;}.cls-4,.cls-45{opacity:0.6;}.cls-5{fill:#ff7261;}.cls-30,.cls-38,.cls-6{opacity:0.4;}.cls-23,.cls-27,.cls-43,.cls-45,.cls-6{mix-blend-mode:multiply;}.cls-7{fill:#544d77;}.cls-8{fill:#3f4751;}.cls-9{fill:#fff;}.cls-10{fill:#a4cecc;}.cls-11{fill:#f1efd8;}.cls-12{fill:#ffae2c;}.cls-13{fill:#f54023;}.cls-14,.cls-38{mix-blend-mode:screen;}.cls-15{fill:#97c9e8;}.cls-16{fill:#87392e;}.cls-17{fill:#7d838e;}.cls-18{fill:#933f31;}.cls-19{fill:#72bdba;}.cls-20{fill:#e8803b;}.cls-21{fill:#e2d7bb;}.cls-22{fill:#50a2c6;}.cls-23,.cls-46{opacity:0.3;}.cls-24{fill:#03827b;}.cls-25{fill:#2c6477;}.cls-26{fill:#f6efb9;}.cls-27,.cls-36{opacity:0.7;}.cls-28{fill:#c9676e;}.cls-29{fill:#4d717f;}.cls-31{fill:#f9eeb8;}.cls-32{fill:#e2d7a1;}.cls-33{opacity:0.5;}.cls-34{fill:#db9e75;}.cls-35{fill:#ffc68c;}.cls-37{fill:#d8bc93;}.cls-39{fill:#fff5d7;}.cls-40{fill:#b6d9d3;}.cls-41{fill:#fcd66d;}.cls-42{fill:#f79c4b;}.cls-43,.cls-47{opacity:0.2;}.cls-44{fill:#ad7951;}</style></defs><title>kitchen</title><g class="cls-1"><g id="Layer_1" data-name="Layer 1"><rect class="cls-2" x="3.42" y="0.06" width="167.3" height="110.5"/><rect class="cls-3" x="3.42" y="52.36" width="167.3" height="39.11"/><g class="cls-4"><rect class="cls-5" x="3.52" y="59.4" width="4.74" height="4.67"/><rect class="cls-5" x="3.52" y="65.21" width="4.74" height="4.67"/><rect class="cls-5" x="3.52" y="71.01" width="4.74" height="4.67"/><rect class="cls-5" x="3.52" y="76.82" width="4.74" height="4.67"/><rect class="cls-5" x="3.52" y="82.63" width="4.74" height="4.67"/><rect class="cls-5" x="9.5" y="59.4" width="4.74" height="4.67"/><rect class="cls-5" x="9.5" y="65.21" width="4.74" height="4.67"/><rect class="cls-5" x="9.5" y="71.01" width="4.74" height="4.67"/><rect class="cls-5" x="9.5" y="76.82" width="4.74" height="4.67"/><rect class="cls-5" x="9.5" y="82.63" width="4.74" height="4.67"/><rect class="cls-5" x="15.51" y="59.4" width="4.74" height="4.67"/><rect class="cls-5" x="15.51" y="65.21" width="4.74" height="4.67"/><rect class="cls-5" x="15.51" y="71.01" width="4.74" height="4.67"/><rect class="cls-5" x="15.51" y="76.82" width="4.74" height="4.67"/><rect class="cls-5" x="15.51" y="82.63" width="4.74" height="4.67"/><rect class="cls-5" x="21.49" y="59.4" width="4.74" height="4.67"/><rect class="cls-5" x="21.49" y="65.21" width="4.74" height="4.67"/><rect class="cls-5" x="21.49" y="71.01" width="4.74" height="4.67"/><rect class="cls-5" x="21.49" y="76.82" width="4.74" height="4.67"/><rect class="cls-5" x="21.49" y="82.63" width="4.74" height="4.67"/><rect class="cls-5" x="27.59" y="59.4" width="4.74" height="4.67"/><rect class="cls-5" x="27.59" y="65.21" width="4.74" height="4.67"/><rect class="cls-5" x="27.59" y="71.01" width="4.74" height="4.67"/><rect class="cls-5" x="27.59" y="76.82" width="4.74" height="4.67"/><rect class="cls-5" x="27.59" y="82.63" width="4.74" height="4.67"/><rect class="cls-5" x="33.57" y="59.4" width="4.74" height="4.67"/><rect class="cls-5" x="33.57" y="65.21" width="4.74" height="4.67"/><rect class="cls-5" x="33.57" y="71.01" width="4.74" height="4.67"/><rect class="cls-5" x="33.57" y="76.82" width="4.74" height="4.67"/><rect class="cls-5" x="33.57" y="82.63" width="4.74" height="4.67"/><rect class="cls-5" x="39.58" y="59.4" width="4.74" height="4.67"/><rect class="cls-5" x="39.58" y="65.21" width="4.74" height="4.67"/><rect class="cls-5" x="39.58" y="71.01" width="4.74" height="4.67"/><rect class="cls-5" x="39.58" y="76.82" width="4.74" height="4.67"/><rect class="cls-5" x="39.58" y="82.63" width="4.74" height="4.67"/><rect class="cls-5" x="45.56" y="59.4" width="4.74" height="4.67"/><rect class="cls-5" x="45.56" y="65.21" width="4.74" height="4.67"/><rect class="cls-5" x="45.56" y="71.01" width="4.74" height="4.67"/><rect class="cls-5" x="45.56" y="76.82" width="4.74" height="4.67"/><rect class="cls-5" x="45.56" y="82.63" width="4.74" height="4.67"/><rect class="cls-5" x="51.55" y="59.4" width="4.74" height="4.67"/><rect class="cls-5" x="51.55" y="65.21" width="4.74" height="4.67"/><rect class="cls-5" x="51.55" y="71.01" width="4.74" height="4.67"/><rect class="cls-5" x="51.55" y="76.82" width="4.74" height="4.67"/><rect class="cls-5" x="51.55" y="82.63" width="4.74" height="4.67"/><rect class="cls-5" x="57.53" y="59.4" width="4.74" height="4.67"/><rect class="cls-5" x="57.53" y="65.21" width="4.74" height="4.67"/><rect class="cls-5" x="57.53" y="71.01" width="4.74" height="4.67"/><rect class="cls-5" x="57.53" y="76.82" width="4.74" height="4.67"/><rect class="cls-5" x="57.53" y="82.63" width="4.74" height="4.67"/><rect class="cls-5" x="63.54" y="59.4" width="4.74" height="4.67"/><rect class="cls-5" x="63.54" y="65.21" width="4.74" height="4.67"/><rect class="cls-5" x="63.54" y="71.01" width="4.74" height="4.67"/><rect class="cls-5" x="63.54" y="76.82" width="4.74" height="4.67"/><rect class="cls-5" x="63.54" y="82.63" width="4.74" height="4.67"/><rect class="cls-5" x="69.52" y="59.4" width="4.74" height="4.67"/><rect class="cls-5" x="69.52" y="65.21" width="4.74" height="4.67"/><rect class="cls-5" x="69.52" y="71.01" width="4.74" height="4.67"/><rect class="cls-5" x="69.52" y="76.82" width="4.74" height="4.67"/><rect class="cls-5" x="69.52" y="82.63" width="4.74" height="4.67"/><rect class="cls-5" x="75.62" y="59.4" width="4.74" height="4.67"/><rect class="cls-5" x="75.62" y="65.21" width="4.74" height="4.67"/><rect class="cls-5" x="75.62" y="71.01" width="4.74" height="4.67"/><rect class="cls-5" x="75.62" y="76.82" width="4.74" height="4.67"/><rect class="cls-5" x="75.62" y="82.63" width="4.74" height="4.67"/><rect class="cls-5" x="81.6" y="59.4" width="4.74" height="4.67"/><rect class="cls-5" x="81.6" y="65.21" width="4.74" height="4.67"/><rect class="cls-5" x="81.6" y="71.01" width="4.74" height="4.67"/><rect class="cls-5" x="81.6" y="76.82" width="4.74" height="4.67"/><rect class="cls-5" x="81.6" y="82.63" width="4.74" height="4.67"/><rect class="cls-5" x="87.61" y="59.4" width="4.74" height="4.67"/><rect class="cls-5" x="87.61" y="65.21" width="4.74" height="4.67"/><rect class="cls-5" x="87.61" y="71.01" width="4.74" height="4.67"/><rect class="cls-5" x="87.61" y="76.82" width="4.74" height="4.67"/><rect class="cls-5" x="87.61" y="82.63" width="4.74" height="4.67"/><rect class="cls-5" x="93.59" y="59.4" width="4.74" height="4.67"/><rect class="cls-5" x="93.59" y="65.21" width="4.74" height="4.67"/><rect class="cls-5" x="93.59" y="71.01" width="4.74" height="4.67"/><rect class="cls-5" x="93.59" y="76.82" width="4.74" height="4.67"/><rect class="cls-5" x="93.59" y="82.63" width="4.74" height="4.67"/><rect class="cls-5" x="99.6" y="59.4" width="4.74" height="4.67"/><rect class="cls-5" x="99.6" y="65.21" width="4.74" height="4.67"/><rect class="cls-5" x="99.6" y="71.01" width="4.74" height="4.67"/><rect class="cls-5" x="99.6" y="76.82" width="4.74" height="4.67"/><rect class="cls-5" x="99.6" y="82.63" width="4.74" height="4.67"/><rect class="cls-5" x="105.58" y="59.4" width="4.74" height="4.67"/><rect class="cls-5" x="105.58" y="65.21" width="4.74" height="4.67"/><rect class="cls-5" x="105.58" y="71.01" width="4.74" height="4.67"/><rect class="cls-5" x="105.58" y="76.82" width="4.74" height="4.67"/><rect class="cls-5" x="105.58" y="82.63" width="4.74" height="4.67"/><rect class="cls-5" x="111.59" y="59.4" width="4.74" height="4.67"/><rect class="cls-5" x="111.59" y="65.21" width="4.74" height="4.67"/><rect class="cls-5" x="111.59" y="71.01" width="4.74" height="4.67"/><rect class="cls-5" x="111.59" y="76.82" width="4.74" height="4.67"/><rect class="cls-5" x="111.59" y="82.63" width="4.74" height="4.67"/><rect class="cls-5" x="117.57" y="59.4" width="4.74" height="4.67"/><rect class="cls-5" x="117.57" y="65.21" width="4.74" height="4.67"/><rect class="cls-5" x="117.57" y="71.01" width="4.74" height="4.67"/><rect class="cls-5" x="117.57" y="76.82" width="4.74" height="4.67"/><rect class="cls-5" x="117.57" y="82.63" width="4.74" height="4.67"/><rect class="cls-5" x="123.67" y="59.4" width="4.74" height="4.67"/><rect class="cls-5" x="123.67" y="65.21" width="4.74" height="4.67"/><rect class="cls-5" x="123.67" y="71.01" width="4.74" height="4.67"/><rect class="cls-5" x="123.67" y="76.82" width="4.74" height="4.67"/><rect class="cls-5" x="123.67" y="82.63" width="4.74" height="4.67"/><rect class="cls-5" x="129.65" y="59.4" width="4.74" height="4.67"/><rect class="cls-5" x="129.65" y="65.21" width="4.74" height="4.67"/><rect class="cls-5" x="129.65" y="71.01" width="4.74" height="4.67"/><rect class="cls-5" x="129.65" y="76.82" width="4.74" height="4.67"/><rect class="cls-5" x="129.65" y="82.63" width="4.74" height="4.67"/><rect class="cls-5" x="135.66" y="59.4" width="4.74" height="4.67"/><rect class="cls-5" x="135.66" y="71.01" width="4.74" height="4.67"/><rect class="cls-5" x="135.66" y="76.82" width="4.74" height="4.67"/><rect class="cls-5" x="135.66" y="82.63" width="4.74" height="4.67"/><rect class="cls-5" x="141.64" y="59.4" width="4.74" height="4.67"/><rect class="cls-5" x="141.64" y="65.21" width="4.74" height="4.67"/><rect class="cls-5" x="141.64" y="71.01" width="4.74" height="4.67"/><rect class="cls-5" x="141.64" y="76.82" width="4.74" height="4.67"/><rect class="cls-5" x="141.64" y="82.63" width="4.74" height="4.67"/><rect class="cls-5" x="147.66" y="59.4" width="4.74" height="4.67"/><rect class="cls-5" x="3.52" y="53.49" width="4.74" height="4.67"/><rect class="cls-5" x="9.5" y="53.49" width="4.74" height="4.67"/><rect class="cls-5" x="15.51" y="53.49" width="4.74" height="4.67"/><rect class="cls-5" x="21.49" y="53.49" width="4.74" height="4.67"/><rect class="cls-5" x="27.59" y="53.49" width="4.74" height="4.67"/><rect class="cls-5" x="33.57" y="53.49" width="4.74" height="4.67"/><rect class="cls-5" x="39.58" y="53.49" width="4.74" height="4.67"/><rect class="cls-5" x="45.56" y="53.49" width="4.74" height="4.67"/><rect class="cls-5" x="51.55" y="53.49" width="4.74" height="4.67"/><rect class="cls-5" x="57.53" y="53.49" width="4.74" height="4.67"/><rect class="cls-5" x="63.54" y="53.49" width="4.74" height="4.67"/><rect class="cls-5" x="69.52" y="53.49" width="4.74" height="4.67"/><rect class="cls-5" x="75.62" y="53.49" width="4.74" height="4.67"/><rect class="cls-5" x="81.6" y="53.49" width="4.74" height="4.67"/><rect class="cls-5" x="87.61" y="53.49" width="4.74" height="4.67"/><rect class="cls-5" x="93.59" y="53.49" width="4.74" height="4.67"/><rect class="cls-5" x="99.6" y="53.49" width="4.74" height="4.67"/><rect class="cls-5" x="105.58" y="53.49" width="4.74" height="4.67"/><rect class="cls-5" x="111.59" y="53.49" width="4.74" height="4.67"/><rect class="cls-5" x="117.57" y="53.49" width="4.74" height="4.67"/><rect class="cls-5" x="123.67" y="53.49" width="4.74" height="4.67"/><rect class="cls-5" x="129.65" y="53.49" width="4.74" height="4.67"/><rect class="cls-5" x="135.66" y="53.49" width="4.74" height="4.67"/><rect class="cls-5" x="141.64" y="53.49" width="4.74" height="4.67"/><rect class="cls-5" x="147.66" y="53.49" width="4.74" height="4.67"/><rect class="cls-5" x="147.66" y="65.21" width="4.74" height="4.67"/><rect class="cls-5" x="147.66" y="71.01" width="4.74" height="4.67"/><rect class="cls-5" x="147.66" y="76.82" width="4.74" height="4.67"/><rect class="cls-5" x="147.66" y="82.63" width="4.74" height="4.67"/><rect class="cls-5" x="153.78" y="59.4" width="4.74" height="4.67"/><rect class="cls-5" x="153.78" y="65.21" width="4.74" height="4.67"/><rect class="cls-5" x="153.78" y="71.01" width="4.74" height="4.67"/><rect class="cls-5" x="153.78" y="76.82" width="4.74" height="4.67"/><rect class="cls-5" x="153.78" y="82.63" width="4.74" height="4.67"/><rect class="cls-5" x="159.77" y="59.4" width="4.74" height="4.67"/><rect class="cls-5" x="159.77" y="65.21" width="4.74" height="4.67"/><rect class="cls-5" x="159.77" y="71.01" width="4.74" height="4.67"/><rect class="cls-5" x="159.77" y="76.82" width="4.74" height="4.67"/><rect class="cls-5" x="159.77" y="82.63" width="4.74" height="4.67"/><rect class="cls-5" x="165.78" y="59.4" width="4.74" height="4.67"/><rect class="cls-5" x="153.78" y="53.49" width="4.74" height="4.67"/><rect class="cls-5" x="159.77" y="53.49" width="4.74" height="4.67"/><rect class="cls-5" x="165.78" y="53.49" width="4.74" height="4.67"/><rect class="cls-5" x="165.78" y="65.21" width="4.74" height="4.67"/><rect class="cls-5" x="165.78" y="71.01" width="4.74" height="4.67"/><rect class="cls-5" x="165.78" y="76.82" width="4.74" height="4.67"/><rect class="cls-5" x="165.78" y="82.63" width="4.74" height="4.67"/><g class="cls-6"><path class="cls-7" d="M119.24,103.73a2.53,2.53,0,0,0-2.25,1v9.42h.29v1.62h17.37v-1.62h.41v-9.43a2.54,2.54,0,0,0-2.24-1h-.76v-.81l-.09,0-.14-.06v-.74c.15-.4.16-.78.1-.82-.25-.15-.91-.55-3.79-.55h-.39c-.7,0-1.31,0-1.84.07h0c-.53,0-1.15-.07-1.84-.07h-.39c-2.9,0-3.51.39-3.73.54a1.28,1.28,0,0,0,.09.8v1.67Z" transform="translate(-1 -27.07)"/></g></g><rect class="cls-8" x="34.25" y="116.01" width="6.38" height="2.7" transform="translate(-57.76 10.91) rotate(-32.19)"/><path class="cls-9" d="M29.74,115.75l-.72.46a5.47,5.47,0,0,0,5.72,1.35A5.47,5.47,0,0,1,29.74,115.75Z" transform="translate(-1 -27.07)"/><g class="cls-6"><path class="cls-7" d="M5.22,76.17H48.06a1.07,1.07,0,0,1,.93.65l2.07,5.64a1.07,1.07,0,0,0,.93.65h58.36a.44.44,0,0,0,.44-.65l-2.26-5.66a.44.44,0,0,1,.44-.65h37.28a.7.7,0,0,0,.69-.69v-8.8a.7.7,0,0,0-.69-.69H5.22a.7.7,0,0,0-.69.69v8.8A.7.7,0,0,0,5.22,76.17Z" transform="translate(-1 -27.07)"/></g><path class="cls-8" d="M24,100.52V99.08a3.62,3.62,0,0,0-3.61-3.61H18.54a3.62,3.62,0,0,0-3.61,3.61v15.45h2.31V99.08a1.3,1.3,0,0,1,1.3-1.3h1.88a1.3,1.3,0,0,1,1.3,1.3v1.45Z" transform="translate(-1 -27.07)"/><rect class="cls-8" x="13.71" y="81.04" width="2.96" height="6.42"/><path class="cls-8" d="M18.25,110.42a.43.43,0,0,0,0-.87H13.92a.43.43,0,1,0,0,.87Z" transform="translate(-1 -27.07)"/><path class="cls-8" d="M12.62,111.43a1.44,1.44,0,1,0,0-2.89h-.29a1.44,1.44,0,0,0,0,2.89Z" transform="translate(-1 -27.07)"/><path class="cls-8" d="M19.84,111.43a1.44,1.44,0,0,0,0-2.89h-.29a1.44,1.44,0,1,0,0,2.89Z" transform="translate(-1 -27.07)"/><path class="cls-10" d="M23.89,100.55a.58.58,0,0,0,0-1.16h-2a.58.58,0,1,0,0,1.16Z" transform="translate(-1 -27.07)"/><path class="cls-11" d="M10.62,118a3.32,3.32,0,0,0,3.23-2.58,4.43,4.43,0,0,0,4.9-.48,3.31,3.31,0,0,0,4.94.46,3.32,3.32,0,0,0,6.29,1,4.74,4.74,0,0,0,6.25-.09,3.32,3.32,0,1,0,1.55-4.1,4.76,4.76,0,0,0-9.41-.24,3.3,3.3,0,0,0-3.65.59A3.31,3.31,0,0,0,20.08,110a4.42,4.42,0,0,0-8.56,1.54,3.32,3.32,0,1,0-.9,6.51Z" transform="translate(-1 -27.07)"/><g class="cls-6"><path class="cls-7" d="M10.62,118a3.32,3.32,0,0,0,3.23-2.58,4.42,4.42,0,0,0,4.9-.48,3.31,3.31,0,0,0,4.94.46,3.32,3.32,0,0,0,6.29,1,4.74,4.74,0,0,0,6.25-.09,3.32,3.32,0,1,0,5.87-3H7.6a3.31,3.31,0,0,0,3,4.69Z" transform="translate(-1 -27.07)"/></g><path class="cls-12" d="M40.86,108.39l-13.4,8.43a8.1,8.1,0,0,0,13.4-8.43Z" transform="translate(-1 -27.07)"/><path class="cls-13" d="M13.83,116.41l1.65,1,1.65,1a7.76,7.76,0,0,1,.78-.74c.49-.37,1.94-1,2.44-1.37a7,7,0,0,0,2-2.52l-3.42-2-3.42-2a7.15,7.15,0,0,0-.57.88,1.45,1.45,0,0,0-2.06.62,2.13,2.13,0,0,0,.32,2.05,6.88,6.88,0,0,1,1,2.11v0A7.66,7.66,0,0,1,13.83,116.41Zm-.2-3.45c-.37-.69-.52-1-.29-1.59a.7.7,0,0,1,.44-.43,1.2,1.2,0,0,1,.86.08,5.61,5.61,0,0,0-.48,1.55,10.79,10.79,0,0,0,0,1.34C14,113.62,13.79,113.26,13.63,113Z" transform="translate(-1 -27.07)"/><circle class="cls-11" cx="36.87" cy="88.12" r="2.89"/><circle class="cls-11" cx="20.5" cy="88.19" r="2.89"/><path class="cls-10" d="M6.29,119.14h40c1.1-.25,2.84-1.22,2.84-2.39v-2.81H4.37v2.81A2.46,2.46,0,0,0,6.29,119.14Z" transform="translate(-1 -27.07)"/><g class="cls-14"><polygon class="cls-15" points="13.69 86.86 12.43 92.07 20.36 92.07 21.61 86.86 13.69 86.86"/></g><g class="cls-14"><polygon class="cls-15" points="23.89 86.86 22.63 92.07 25.24 92.07 26.5 86.86 23.89 86.86"/></g><rect class="cls-16" x="3.63" y="91.46" width="191.44" height="58.6"/><rect class="cls-16" x="3.48" y="38.9" width="190.2" height="2.59"/><rect class="cls-3" x="3.47" y="93.13" width="43.91" height="52.5"/><rect class="cls-3" x="99.38" y="93.13" width="43.91" height="52.5"/><rect class="cls-17" x="146.62" y="97.3" width="48.54" height="52.77"/><rect class="cls-18" x="9.33" y="0.06" width="186.21" height="38.83"/><rect class="cls-3" x="3.47" y="0.06" width="43.26" height="38.87"/><rect class="cls-3" x="48.65" y="0.06" width="49.94" height="31.03"/><rect class="cls-19" x="6.15" y="2.85" width="16.23" height="31.47"/><path class="cls-20" d="M22.8,62H24V29.34H6.57V62H22.8ZM7.73,30.5H22.8V60.81H7.73Z" transform="translate(-1 -27.07)"/><rect class="cls-20" x="50.8" y="2.74" width="45.5" height="24.05"/><rect class="cls-20" x="5.65" y="96.29" width="18.82" height="47.09"/><rect class="cls-20" x="101.88" y="96.26" width="38.73" height="13.93"/><rect class="cls-20" x="101.88" y="112.7" width="38.73" height="13.93"/><rect class="cls-20" x="101.88" y="129.41" width="38.73" height="13.93"/><rect class="cls-20" x="26.61" y="96.29" width="18.82" height="47.09"/><rect class="cls-19" x="27.89" y="2.85" width="16.4" height="31.47"/><path class="cls-20" d="M45.87,62V29.34H28.31V62H45.87ZM29.47,30.5H44.71V60.81H29.47Z" transform="translate(-1 -27.07)"/><rect class="cls-21" x="70.85" y="28.47" width="4.9" height="1.73" rx="0.65" ry="0.65"/><rect class="cls-3" x="100.43" y="0.06" width="43.48" height="38.87"/><rect class="cls-19" x="102.83" y="2.85" width="38.47" height="32.86"/><path class="cls-20" d="M142.87,63.36v-34H103.25v34h39.62ZM104.41,30.5h37.31V62.2H104.41Z" transform="translate(-1 -27.07)"/><rect class="cls-3" x="145.82" y="0.06" width="49.72" height="19.02"/><rect class="cls-16" x="118.84" y="36.72" width="9.24" height="1.73" rx="0.65" ry="0.65"/><rect class="cls-21" x="118.15" y="36.11" width="9.24" height="1.73" rx="0.65" ry="0.65"/><circle class="cls-8" cx="83.01" cy="71.27" r="1.01"/><path class="cls-8" d="M87.51,109.17h4.33a10.47,10.47,0,0,0,1.74-5.79A10.34,10.34,0,0,0,83.32,93,10.07,10.07,0,0,0,78,94.48l1,1a6.92,6.92,0,0,1,3.69-1.05,6.74,6.74,0,0,1,6.83,6.64,6.54,6.54,0,0,1-2,4.72Z" transform="translate(-1 -27.07)"/><polygon class="cls-8" points="86.25 83.83 77.58 78.63 75.27 74.59 72.96 74.59 75.85 83.83 86.25 83.83"/><path class="cls-22" d="M79.4,101.08a15.9,15.9,0,0,0-3.47,9.82H92.08a15.9,15.9,0,0,0-3.47-9.82Z" transform="translate(-1 -27.07)"/><g class="cls-23"><path class="cls-24" d="M87.72,101.08H85.41a14.51,14.51,0,0,1,3.17,9h2.32A14.52,14.52,0,0,0,87.72,101.08Z" transform="translate(-1 -27.07)"/></g><path class="cls-8" d="M84,98.77a6.23,6.23,0,0,0-4.6,2.31h9.2A6.23,6.23,0,0,0,84,98.77Z" transform="translate(-1 -27.07)"/><rect class="cls-8" x="76.14" y="83.83" width="13.58" height="1.44"/><polygon class="cls-8" points="70.48 85.25 54.88 85.25 54.31 86.69 71.06 86.69 70.48 85.25"/><polygon class="cls-8" points="74.97 85.25 74.39 86.69 91.14 86.69 90.57 85.25 74.97 85.25"/><g class="cls-14"><path class="cls-15" d="M81,101.08a15.9,15.9,0,0,0-3.47,9.82H79.7a15.9,15.9,0,0,1,3.47-9.82Z" transform="translate(-1 -27.07)"/></g><path class="cls-25" d="M76,110c0,.29,0,.8-.06,1.1H92.08c0-.3,0-.81-.06-1.1Z" transform="translate(-1 -27.07)"/><rect class="cls-26" x="50.26" y="90.02" width="46.22" height="55.61"/><rect class="cls-26" x="50.26" y="86.55" width="46.22" height="4.09" rx="0.65" ry="0.65"/><g class="cls-27"><rect class="cls-7" x="3.47" y="93.12" width="167.31" height="1.51"/></g><rect class="cls-28" x="53.9" y="96.86" width="38.42" height="9.24" rx="2.46" ry="2.46"/><rect class="cls-19" x="54.02" y="109.29" width="38.42" height="25.28" rx="2.46" ry="2.46"/><circle class="cls-26" cx="87.37" cy="128.21" r="2.02" transform="translate(-62.46 57.3) rotate(-39.32)"/><circle class="cls-26" cx="80.59" cy="101.13" r="2.02"/><circle class="cls-26" cx="74.82" cy="101.13" r="2.02"/><circle class="cls-26" cx="69.04" cy="101.13" r="2.02"/><circle class="cls-26" cx="58.06" cy="101.13" r="2.02"/><path class="cls-29" d="M93.44,159.19V138.82A2.46,2.46,0,0,0,91,136.37H83l-6,25.28H91A2.46,2.46,0,0,0,93.44,159.19Z" transform="translate(-1 -27.07)"/><path class="cls-29" d="M70.72,136.39,64.6,161.64h7.94l6.09-25.26C78.51,136.36,70.72,136.39,70.72,136.39Z" transform="translate(-1 -27.07)"/><rect class="cls-8" x="57.2" y="112.47" width="31.78" height="1.73" rx="0.65" ry="0.65"/><g class="cls-30"><rect class="cls-8" x="57.98" y="113.6" width="31.78" height="1.73" rx="0.65" ry="0.65"/></g><polygon class="cls-31" points="98.97 32.56 47.69 32.56 45.27 37.39 101.27 37.39 98.97 32.56"/><g class="cls-6"><path class="cls-7" d="M23.13,65a.53.53,0,1,0,0-1h-3.6a.53.53,0,1,0,0,1Z" transform="translate(-1 -27.07)"/></g><g class="cls-6"><path class="cls-7" d="M33.21,65a.53.53,0,1,0,0-1H29.6a.53.53,0,1,0,0,1Z" transform="translate(-1 -27.07)"/></g><path class="cls-21" d="M22.9,64.29a.53.53,0,1,0,0-1H19.3a.53.53,0,1,0,0,1Z" transform="translate(-1 -27.07)"/><path class="cls-21" d="M33,64.29a.53.53,0,1,0,0-1h-3.6a.53.53,0,1,0,0,1Z" transform="translate(-1 -27.07)"/><rect class="cls-9" x="135.11" y="64.71" width="5.82" height="5.82" rx="1.06" ry="1.06"/><path class="cls-32" d="M140.87,97.93a1.39,1.39,0,0,0,1.38-1.38v-3.7a1.39,1.39,0,0,0-1.38-1.38h-3.7a1.39,1.39,0,0,0-1.38,1.38v3.7a1.39,1.39,0,0,0,1.38,1.38Zm-4.44-1.38v-3.7a.73.73,0,0,1,.73-.73h3.7a.73.73,0,0,1,.73.73v3.7a.73.73,0,0,1-.73.73h-3.7A.73.73,0,0,1,136.43,96.55Z" transform="translate(-1 -27.07)"/><g class="cls-6"><circle class="cls-7" cx="138.48" cy="68.11" r="1.29"/></g><g class="cls-33"><path class="cls-7" d="M136.9,117.39c1.87-1.24,2.79-3.58,2.79-7.18V95.62H139v14.59c0,3.34-.81,5.5-2.47,6.6a8.19,8.19,0,0,1-4.59.93h-.08v.69H132A8.72,8.72,0,0,0,136.9,117.39Z" transform="translate(-1 -27.07)"/></g><rect class="cls-13" y="88.78" width="143.16" height="4.33"/><path class="cls-9" d="M91,162.19a3,3,0,0,0,3-3V138.82a3,3,0,0,0-3-3H57.47a3,3,0,0,0-3,3v20.36a3,3,0,0,0,3,3Zm-35.42-3V138.82a1.92,1.92,0,0,1,1.91-1.91H91a1.92,1.92,0,0,1,1.91,1.91v20.36A1.92,1.92,0,0,1,91,161.1H57.47A1.92,1.92,0,0,1,55.56,159.19Z" transform="translate(-1 -27.07)"/><path class="cls-26" d="M136.53,116.88c1.87-1.24,2.79-3.58,2.79-7.18V95.57h-.69v14.13c0,3.34-.81,5.5-2.47,6.6a8.15,8.15,0,0,1-4.59.93h-.08v.69h.16A8.72,8.72,0,0,0,136.53,116.88Z" transform="translate(-1 -27.07)"/><rect class="cls-34" x="113.58" y="86.55" width="17.83" height="2.37"/><path class="cls-9" d="M70.28,127.54v-1.36a.33.33,0,0,0-.65,0v1.36a.33.33,0,0,0,.65,0Z" transform="translate(-1 -27.07)"/><path class="cls-9" d="M59.32,127.54v-1.36a.33.33,0,1,0-.65,0v1.36a.33.33,0,1,0,.65,0Z" transform="translate(-1 -27.07)"/><path class="cls-9" d="M76.08,127.54v-1.36a.33.33,0,1,0-.65,0v1.36a.33.33,0,1,0,.65,0Z" transform="translate(-1 -27.07)"/><path class="cls-9" d="M81.89,127.54v-1.36a.33.33,0,0,0-.65,0v1.36a.33.33,0,0,0,.65,0Z" transform="translate(-1 -27.07)"/><path class="cls-9" d="M88.12,128.08l1-.86a.33.33,0,1,0-.41-.5l-1,.86a.33.33,0,1,0,.41.5Z" transform="translate(-1 -27.07)"/><rect class="cls-35" x="45.27" y="37.35" width="55.98" height="5.92"/><circle class="cls-8" cx="97.59" cy="40.25" r="1.36"/><circle class="cls-8" cx="93.69" cy="40.25" r="1.36"/><circle class="cls-8" cx="89.79" cy="40.25" r="1.36"/><g class="cls-33"><polygon class="cls-9" points="70.79 37.35 60.25 37.35 55.85 43.27 66.39 43.27 70.79 37.35"/></g><g class="cls-36"><polygon class="cls-9" points="69.41 32.58 60.28 37.29 70.83 37.29 79.94 32.58 69.41 32.58"/></g><path class="cls-31" d="M102.35,71.93a.93.93,0,1,0,0-1.85H46.59a.93.93,0,1,0,0,1.85Z" transform="translate(-1 -27.07)"/><rect class="cls-26" x="145.61" y="22.46" width="50.39" height="123.16" rx="2.32" ry="2.32"/><g class="cls-4"><path class="cls-37" d="M197,85.64V51.85a2.32,2.32,0,0,0-2.32-2.32h-2.27a2.32,2.32,0,0,1,2.32,2.32V85.64Z" transform="translate(-1 -27.07)"/></g><g class="cls-38"><path class="cls-39" d="M194.68,52.78a.93.93,0,0,0-.93-.93h-43.9a.93.93,0,0,0-.93.93V85.2h45.76Z" transform="translate(-1 -27.07)"/></g><rect class="cls-16" x="24.67" width="0.93" height="39.06"/><g class="cls-33"><polygon class="cls-29" points="8.12 4.82 21.8 4.82 21.8 3.43 6.73 3.43 6.73 33.74 8.12 33.74 8.12 4.82"/></g><g class="cls-33"><polygon class="cls-29" points="43.72 4.82 43.72 3.43 28.42 3.43 28.42 33.74 29.81 33.74 29.81 4.82 43.72 4.82"/></g><g class="cls-33"><polygon class="cls-29" points="140.73 4.82 140.73 3.43 103.33 3.43 103.33 35.13 104.72 35.13 104.72 4.82 140.73 4.82"/></g><polygon class="cls-40" points="15.01 4.83 8.58 33.73 14.6 33.73 21.03 4.83 15.01 4.83"/><polygon class="cls-40" points="36.84 4.83 30.41 33.73 36.43 33.73 42.87 4.83 36.84 4.83"/><polygon class="cls-40" points="114.19 4.83 107.76 35.12 118.85 35.12 125.28 4.83 114.19 4.83"/><g class="cls-36"><polygon class="cls-9" points="191.21 24.51 172.5 24.51 165.09 57.9 184.08 57.9 191.21 24.51"/></g><polygon class="cls-40" points="127.47 4.83 121.04 35.12 125.69 35.12 132.13 4.83 127.47 4.83"/><path class="cls-41" d="M129.59,104v-1.79s.34-.9,0-1.1-1.06-.58-3.91-.58-3.55.38-3.86.58,0,1.07,0,1.07V104Z" transform="translate(-1 -27.07)"/><path class="cls-42" d="M121.82,104.18h7.77a.22.22,0,0,0,.22-.22V102.2c.1-.29.33-1.06-.11-1.33s-1-.61-4-.61c-2.69,0-3.54.33-4,.61s-.19,1-.1,1.29V104A.22.22,0,0,0,121.82,104.18Zm.12-2.93c.23-.15.83-.54,3.74-.54s3.55.4,3.79.55c.08,0,.05.45-.09.84a.22.22,0,0,0,0,.08v1.58H122v-1.6a.22.22,0,0,0,0-.07C121.89,101.69,121.87,101.29,121.94,101.25Z" transform="translate(-1 -27.07)"/><path class="cls-41" d="M129.2,104v-1.79s.34-.9,0-1.1-1.06-.58-3.91-.58-3.55.38-3.86.58,0,1.07,0,1.07V104Z" transform="translate(-1 -27.07)"/><path class="cls-42" d="M121.43,104.18h7.77a.22.22,0,0,0,.22-.22V102.2c.1-.29.33-1.06-.11-1.33s-1-.61-4-.61c-2.69,0-3.54.33-4,.61s-.19,1-.1,1.29V104A.22.22,0,0,0,121.43,104.18Zm.12-2.93c.23-.15.83-.54,3.74-.54s3.55.4,3.79.55c.08,0,.05.45-.09.84a.22.22,0,0,0,0,.08v1.58h-7.33v-1.6a.22.22,0,0,0,0-.07C121.5,101.69,121.48,101.29,121.55,101.25Z" transform="translate(-1 -27.07)"/><g class="cls-43"><path class="cls-7" d="M129.82,104.65v-1.79l0-.07c-.38-.21-1.2-.53-3.82-.53-2.85,0-3.55.38-3.86.58a.29.29,0,0,0-.11.17v.46a2.94,2.94,0,0,0,.11.44v.74Z" transform="translate(-1 -27.07)"/></g><path class="cls-9" d="M130,104.83l.2-1.33H116.77a2.71,2.71,0,0,0-2.47,1.16l.77.81,8.74,1.45Z" transform="translate(-1 -27.07)"/><path class="cls-35" d="M130.35,103.49a2.54,2.54,0,0,0-2.41,1.16H116.14v9.73h16.67v-9.73A2.71,2.71,0,0,0,130.35,103.49Z" transform="translate(-1 -27.07)"/><rect class="cls-26" x="113.29" y="77.58" width="13.66" height="9.73"/><path class="cls-44" d="M126,104.36a.35.35,0,0,0,0-.69h-9.21a.35.35,0,1,0,0,.69Z" transform="translate(-1 -27.07)"/><g class="cls-45"><path class="cls-7" d="M129.13,103.48h-4.48l-.31.06a3.79,3.79,0,0,0,1.25.58A11.91,11.91,0,0,1,129.13,103.48Z" transform="translate(-1 -27.07)"/></g><path class="cls-41" d="M125.48,104v-1.79s.34-.9,0-1.1-1.06-.58-3.91-.58-3.55.38-3.86.58,0,1.07,0,1.07V104Z" transform="translate(-1 -27.07)"/><path class="cls-42" d="M117.71,104.18h7.77a.22.22,0,0,0,.22-.22V102.2c.1-.29.33-1.06-.11-1.33s-1-.61-4-.61c-2.69,0-3.54.33-4,.61s-.19,1-.1,1.29V104A.22.22,0,0,0,117.71,104.18Zm.12-2.93c.23-.15.83-.54,3.74-.54s3.55.4,3.79.55c.08,0,.05.45-.09.84a.22.22,0,0,0,0,.08v1.58h-7.33v-1.6a.22.22,0,0,0,0-.07C117.78,101.69,117.76,101.29,117.83,101.25Z" transform="translate(-1 -27.07)"/><path class="cls-41" d="M125.09,104v-1.79s.34-.9,0-1.1-1.06-.58-3.91-.58-3.55.38-3.86.58,0,1.07,0,1.07V104Z" transform="translate(-1 -27.07)"/><path class="cls-42" d="M117.32,104.18h7.77a.22.22,0,0,0,.22-.22V102.2c.1-.29.33-1.06-.11-1.33s-1-.61-4-.61c-2.69,0-3.54.33-4,.61s-.19,1-.1,1.29V104A.22.22,0,0,0,117.32,104.18Zm.12-2.93c.23-.15.83-.54,3.74-.54s3.55.4,3.79.55c.08,0,.05.45-.09.84a.22.22,0,0,0,0,.08v1.58h-7.33v-1.6a.22.22,0,0,0,0-.07C117.39,101.69,117.37,101.29,117.44,101.25Z" transform="translate(-1 -27.07)"/><g class="cls-45"><rect class="cls-7" x="128.88" y="78.35" width="1.39" height="7.02" rx="0.46" ry="0.46"/></g><g class="cls-6"><path class="cls-7" d="M131.75,113a.46.46,0,0,0,.46-.46V112c0-.25-.21,0-.46,0h-1.39c-.25,0-.46-.26-.46,0v.54a.46.46,0,0,0,.46.46Z" transform="translate(-1 -27.07)"/></g><rect class="cls-26" x="128.88" y="84.41" width="2.32" height="1" rx="0.46" ry="0.46"/><circle class="cls-26" cx="138.02" cy="67.62" r="1.29"/><g class="cls-30"><rect class="cls-16" x="116.87" y="99.02" width="9.24" height="1.73" rx="0.65" ry="0.65"/></g><rect class="cls-21" x="116.18" y="98.17" width="9.24" height="1.73" rx="0.65" ry="0.65"/><g class="cls-30"><rect class="cls-16" x="116.87" y="115.35" width="9.24" height="1.73" rx="0.65" ry="0.65"/></g><rect class="cls-21" x="116.18" y="114.5" width="9.24" height="1.73" rx="0.65" ry="0.65"/><g class="cls-30"><rect class="cls-16" x="116.87" y="132.6" width="9.24" height="1.73" rx="0.65" ry="0.65"/></g><rect class="cls-21" x="116.18" y="131.75" width="9.24" height="1.73" rx="0.65" ry="0.65"/><g class="cls-30"><rect class="cls-16" x="29.8" y="99.25" width="5.54" height="1.73" rx="0.65" ry="0.65"/></g><rect class="cls-21" x="29.1" y="98.4" width="5.54" height="1.73" rx="0.65" ry="0.65"/><g class="cls-30"><rect class="cls-16" x="16.6" y="99.25" width="5.54" height="1.73" rx="0.65" ry="0.65"/></g><rect class="cls-21" x="15.9" y="98.4" width="5.54" height="1.73" rx="0.65" ry="0.65"/><g class="cls-43"><ellipse class="cls-7" cx="171.15" cy="33.31" rx="5.21" ry="1.83"/></g><ellipse class="cls-19" cx="170.76" cy="32.92" rx="4.7" ry="1.65"/><g class="cls-36"><path class="cls-9" d="M173.92,60.42a.46.46,0,1,0,0-.93h-4.28a.46.46,0,0,0,0,.93Z" transform="translate(-1 -27.07)"/></g><path class="cls-26" d="M194.85,172.7a1.39,1.39,0,0,0,1.39-1.39V86.55H146.61v84.76A1.39,1.39,0,0,0,148,172.7Z" transform="translate(-1 -27.07)"/><path class="cls-9" d="M149.74,169.88V53.24a.58.58,0,0,1,.58-.58h43.62a.81.81,0,0,0,0-1.62H150.32a2.2,2.2,0,0,0-2.2,2.2V169.88a.81.81,0,0,0,1.62,0Z" transform="translate(-1 -27.07)"/><g class="cls-36"><polygon class="cls-9" points="183.92 59.48 164.68 59.48 146.92 143.43 166.17 143.43 183.92 59.48"/></g><rect class="cls-17" x="145.61" y="57.89" width="50.39" height="1.82"/><rect class="cls-9" x="145.61" y="59.75" width="50.39" height="0.7"/><g class="cls-46"><rect class="cls-8" x="150.79" y="34.75" width="2.43" height="23.14" rx="0.65" ry="0.65"/></g><g class="cls-46"><rect class="cls-8" x="150.79" y="63.23" width="2.43" height="53.72" rx="0.65" ry="0.65"/></g><rect class="cls-8" x="149.25" y="33.13" width="2.43" height="23.14" rx="0.65" ry="0.65"/><rect class="cls-8" x="149.25" y="61.61" width="2.43" height="53.72" rx="0.65" ry="0.65"/><g class="cls-4"><path class="cls-37" d="M195.61,172.7a1.39,1.39,0,0,0,1.39-1.39V87.71h-2.38V169a1.39,1.39,0,0,1-1.39,1.39H146.61v.93A1.39,1.39,0,0,0,148,172.7Z" transform="translate(-1 -27.07)"/></g><rect class="cls-20" x="148.07" y="2.74" width="45.04" height="14.1"/><rect class="cls-16" y="88.78" width="145.94" height="4.59"/><g class="cls-47"><polygon class="cls-20" points="22.85 88.78 9.09 88.78 8.04 93.37 21.8 93.37 22.85 88.78"/></g><g class="cls-47"><polygon class="cls-20" points="25.55 88.78 24.5 93.37 29.13 93.37 30.17 88.78 25.55 88.78"/></g></g></g></svg>