<svg xmlns="http://www.w3.org/2000/svg" xmlns:xlink="http://www.w3.org/1999/xlink" viewBox="0 0 200 163.75"><defs><style>.cls-1{isolation:isolate;}.cls-2{fill:url(#linear-gradient);}.cls-3{fill:#414042;}.cls-4{fill:#808285;}.cls-5{fill:#f1f2f2;}.cls-101,.cls-102,.cls-103,.cls-105,.cls-106,.cls-107,.cls-18,.cls-19,.cls-20,.cls-30,.cls-31,.cls-32,.cls-36,.cls-37,.cls-38,.cls-45,.cls-46,.cls-47,.cls-53,.cls-54,.cls-55,.cls-59,.cls-6,.cls-60,.cls-61,.cls-66,.cls-67,.cls-68,.cls-7,.cls-72,.cls-73,.cls-74,.cls-77,.cls-78,.cls-79,.cls-8,.cls-87,.cls-88,.cls-89,.cls-93,.cls-94,.cls-95{opacity:0.4;}.cls-100,.cls-101,.cls-102,.cls-103,.cls-105,.cls-106,.cls-107,.cls-18,.cls-19,.cls-20,.cls-30,.cls-31,.cls-32,.cls-36,.cls-37,.cls-38,.cls-39,.cls-44,.cls-45,.cls-46,.cls-47,.cls-51,.cls-53,.cls-54,.cls-55,.cls-59,.cls-6,.cls-60,.cls-61,.cls-66,.cls-67,.cls-68,.cls-7,.cls-72,.cls-73,.cls-74,.cls-77,.cls-78,.cls-79,.cls-8,.cls-87,.cls-88,.cls-89,.cls-93,.cls-94,.cls-95{mix-blend-mode:multiply;}.cls-6{fill:url(#linear-gradient-2);}.cls-7{fill:url(#linear-gradient-3);}.cls-8{fill:url(#linear-gradient-4);}.cls-14,.cls-9{fill:#f15a29;}.cls-10{opacity:0.6;}.cls-11{fill:#58595b;}.cls-12,.cls-40,.cls-96{font-size:4.17px;}.cls-12,.cls-15,.cls-48,.cls-50{fill:#bcbec0;}.cls-12,.cls-14,.cls-15,.cls-28,.cls-40,.cls-48,.cls-50,.cls-56,.cls-58,.cls-62,.cls-64,.cls-69,.cls-71,.cls-76,.cls-96{font-family:PTSans-Bold, PTSans Bold;font-weight:700;}.cls-13{letter-spacing:0.01em;}.cls-14,.cls-76{font-size:3.41px;}.cls-15{font-size:2.06px;}.cls-16{letter-spacing:0.01em;}.cls-17,.cls-28,.cls-40{fill:#594a42;}.cls-18{fill:url(#linear-gradient-5);}.cls-19{fill:url(#linear-gradient-6);}.cls-20{fill:url(#linear-gradient-7);}.cls-21,.cls-22{fill:#f7941e;}.cls-22,.cls-34,.cls-81,.cls-91{font-size:5.89px;font-family:MyriadPro-Regular, Myriad Pro;}.cls-23{letter-spacing:-0.01em;}.cls-24{letter-spacing:0.02em;}.cls-25{letter-spacing:-0.04em;}.cls-26{letter-spacing:0em;}.cls-27,.cls-86{font-size:4.75px;}.cls-28{font-size:0.71px;}.cls-29{font-size:1.63px;}.cls-30{fill:url(#linear-gradient-8);}.cls-31{fill:url(#linear-gradient-9);}.cls-32{fill:url(#linear-gradient-10);}.cls-33,.cls-34,.cls-44{fill:#a97c50;}.cls-35{fill:#8dc63f;}.cls-36{fill:url(#linear-gradient-11);}.cls-37{fill:url(#linear-gradient-12);}.cls-38{fill:url(#linear-gradient-13);}.cls-41{letter-spacing:0em;}.cls-42{letter-spacing:-0.01em;}.cls-43{letter-spacing:-0.01em;}.cls-45{fill:url(#linear-gradient-14);}.cls-46{fill:url(#linear-gradient-15);}.cls-47{fill:url(#linear-gradient-16);}.cls-48,.cls-56{font-size:6.2px;}.cls-49{letter-spacing:0.01em;}.cls-50,.cls-58{font-size:2.39px;}.cls-51{fill:#d1d3d4;}.cls-52{fill:#da1c5c;}.cls-53{fill:url(#linear-gradient-17);}.cls-54{fill:url(#linear-gradient-18);}.cls-55{fill:url(#linear-gradient-19);}.cls-56,.cls-58,.cls-62,.cls-64,.cls-69,.cls-71,.cls-92{fill:#fff;}.cls-57{letter-spacing:-0.08em;}.cls-59{fill:url(#linear-gradient-20);}.cls-60{fill:url(#linear-gradient-21);}.cls-61{fill:url(#linear-gradient-22);}.cls-62{font-size:6.2px;}.cls-63{letter-spacing:-0.08em;}.cls-64{font-size:2.39px;}.cls-65{fill:url(#linear-gradient-23);}.cls-66{fill:url(#linear-gradient-24);}.cls-67{fill:url(#linear-gradient-25);}.cls-68{fill:url(#linear-gradient-26);}.cls-69{font-size:6.2px;}.cls-70{letter-spacing:-0.08em;}.cls-71{font-size:2.39px;}.cls-72{fill:url(#linear-gradient-27);}.cls-73{fill:url(#linear-gradient-28);}.cls-74{fill:url(#linear-gradient-29);}.cls-100,.cls-75,.cls-76,.cls-96{fill:#1c75bc;}.cls-77{fill:url(#linear-gradient-30);}.cls-78{fill:url(#linear-gradient-31);}.cls-79{fill:url(#linear-gradient-32);}.cls-80,.cls-81{fill:#ee2a7b;}.cls-82{letter-spacing:0.02em;}.cls-83{letter-spacing:0em;}.cls-84{letter-spacing:-0.04em;}.cls-85{letter-spacing:0em;}.cls-86{letter-spacing:0em;}.cls-87{fill:url(#linear-gradient-33);}.cls-88{fill:url(#linear-gradient-34);}.cls-89{fill:url(#linear-gradient-35);}.cls-90,.cls-91{fill:#00a79d;}.cls-93{fill:url(#linear-gradient-36);}.cls-94{fill:url(#linear-gradient-37);}.cls-95{fill:url(#linear-gradient-38);}.cls-97{letter-spacing:-0.01em;}.cls-98{letter-spacing:-0.01em;}.cls-99{letter-spacing:-0.01em;}.cls-101{fill:url(#linear-gradient-39);}.cls-102{fill:url(#linear-gradient-40);}.cls-103{fill:#2e3192;}.cls-104{letter-spacing:0em;}.cls-105{fill:url(#linear-gradient-41);}.cls-106{fill:url(#linear-gradient-42);}.cls-107{fill:url(#linear-gradient-43);}</style><linearGradient id="linear-gradient" x1="100" y1="20.81" x2="100" y2="92.17" gradientUnits="userSpaceOnUse"><stop offset="0" stop-color="#414042"/><stop offset="1" stop-color="#808285" stop-opacity="0"/></linearGradient><linearGradient id="linear-gradient-2" x1="670.5" y1="52.81" x2="685.43" y2="52.81" gradientTransform="matrix(-1, 0, 0, 1, 848.11, -26.88)" gradientUnits="userSpaceOnUse"><stop offset="0" stop-color="#f1f2f2"/><stop offset="0.04" stop-color="#a7a9ac"/><stop offset="0.23" stop-color="#f1f2f2" stop-opacity="0"/></linearGradient><linearGradient id="linear-gradient-3" x1="162.68" y1="25.93" x2="177.6" y2="25.93" gradientTransform="matrix(1, 0, 0, 1, 0, 0)" xlink:href="#linear-gradient-2"/><linearGradient id="linear-gradient-4" x1="170.14" y1="51.25" x2="170.14" y2="13.71" gradientUnits="userSpaceOnUse"><stop offset="0" stop-color="#a7a9ac"/><stop offset="0.62" stop-color="#f1f2f2" stop-opacity="0"/></linearGradient><linearGradient id="linear-gradient-5" x1="685.38" y1="55.38" x2="693.55" y2="55.38" gradientTransform="matrix(-1, 0, 0, 1, 848.11, 0)" xlink:href="#linear-gradient-2"/><linearGradient id="linear-gradient-6" x1="154.55" y1="55.38" x2="162.73" y2="55.38" gradientTransform="matrix(1, 0, 0, 1, 0, 0)" xlink:href="#linear-gradient-2"/><linearGradient id="linear-gradient-7" x1="158.64" y1="78.19" x2="158.64" y2="44.36" xlink:href="#linear-gradient-4"/><linearGradient id="linear-gradient-8" x1="693.55" y1="55.38" x2="701.72" y2="55.38" gradientTransform="matrix(-1, 0, 0, 1, 848.11, 0)" xlink:href="#linear-gradient-2"/><linearGradient id="linear-gradient-9" x1="146.38" y1="55.38" x2="154.56" y2="55.38" gradientTransform="matrix(1, 0, 0, 1, 0, 0)" xlink:href="#linear-gradient-2"/><linearGradient id="linear-gradient-10" x1="150.47" y1="78.19" x2="150.47" y2="44.36" xlink:href="#linear-gradient-4"/><linearGradient id="linear-gradient-11" x1="454.49" y1="-188.25" x2="464.66" y2="-188.25" gradientTransform="matrix(1, 0, 0, -1, -318.36, -134.71)" xlink:href="#linear-gradient-2"/><linearGradient id="linear-gradient-12" x1="383.44" y1="-188.25" x2="393.62" y2="-188.25" gradientTransform="translate(529.74 -134.71) rotate(180)" xlink:href="#linear-gradient-2"/><linearGradient id="linear-gradient-13" x1="388.52" y1="-163.64" x2="388.52" y2="-200.13" gradientTransform="translate(529.74 -134.71) rotate(180)" xlink:href="#linear-gradient-4"/><linearGradient id="linear-gradient-14" x1="712.13" y1="62.21" x2="724.3" y2="62.21" gradientTransform="matrix(-1, 0, 0, 1, 848.11, 0)" xlink:href="#linear-gradient-2"/><linearGradient id="linear-gradient-15" x1="123.8" y1="62.21" x2="135.98" y2="62.21" gradientTransform="matrix(1, 0, 0, 1, 0, 0)" xlink:href="#linear-gradient-2"/><linearGradient id="linear-gradient-16" x1="129.89" y1="78.35" x2="129.89" y2="54.42" xlink:href="#linear-gradient-4"/><linearGradient id="linear-gradient-17" x1="724.3" y1="58.17" x2="734.47" y2="58.17" gradientTransform="matrix(-1, 0, 0, 1, 848.11, 0)" xlink:href="#linear-gradient-2"/><linearGradient id="linear-gradient-18" x1="113.63" y1="58.17" x2="123.81" y2="58.17" gradientTransform="matrix(1, 0, 0, 1, 0, 0)" xlink:href="#linear-gradient-2"/><linearGradient id="linear-gradient-19" x1="118.72" y1="78.26" x2="118.72" y2="48.47" xlink:href="#linear-gradient-4"/><linearGradient id="linear-gradient-20" x1="787.63" y1="-257.22" x2="797.81" y2="-257.22" gradientTransform="matrix(0.93, 0.36, 0.36, -0.93, -545, -467.04)" xlink:href="#linear-gradient-2"/><linearGradient id="linear-gradient-21" x1="50.77" y1="-257.2" x2="60.94" y2="-257.2" gradientTransform="translate(246.71 -161.7) rotate(-158.91)" xlink:href="#linear-gradient-2"/><linearGradient id="linear-gradient-22" x1="55.85" y1="-237.11" x2="55.85" y2="-266.9" gradientTransform="translate(246.71 -161.7) rotate(-158.91)" xlink:href="#linear-gradient-4"/><linearGradient id="linear-gradient-23" x1="64" y1="82.66" x2="64" y2="154.02" xlink:href="#linear-gradient"/><linearGradient id="linear-gradient-24" x1="867.46" y1="-251.76" x2="877.64" y2="-251.76" gradientTransform="matrix(0.98, -0.18, -0.18, -0.98, -787.98, 28.69)" xlink:href="#linear-gradient-2"/><linearGradient id="linear-gradient-25" x1="-30.08" y1="-252.27" x2="-19.9" y2="-252.27" gradientTransform="translate(45.84 -123.44) rotate(169.69)" xlink:href="#linear-gradient-2"/><linearGradient id="linear-gradient-26" x1="-24.99" y1="-232.18" x2="-24.99" y2="-261.97" gradientTransform="translate(45.84 -123.44) rotate(169.69)" xlink:href="#linear-gradient-4"/><linearGradient id="linear-gradient-27" x1="927.81" y1="367.4" x2="942.74" y2="367.4" gradientTransform="matrix(0, 1, 1, 0, -335.5, -828.29)" xlink:href="#linear-gradient-2"/><linearGradient id="linear-gradient-28" x1="-94.63" y1="367.4" x2="-79.71" y2="367.4" gradientTransform="translate(-335.5 19.81) rotate(-90)" xlink:href="#linear-gradient-2"/><linearGradient id="linear-gradient-29" x1="-87.17" y1="392.72" x2="-87.17" y2="355.18" gradientTransform="translate(-335.5 19.81) rotate(-90)" xlink:href="#linear-gradient-4"/><linearGradient id="linear-gradient-30" x1="741.12" y1="118.09" x2="749.29" y2="118.09" gradientTransform="matrix(-1, 0, 0, 1, 848.11, 0)" xlink:href="#linear-gradient-2"/><linearGradient id="linear-gradient-31" x1="98.81" y1="118.09" x2="106.99" y2="118.09" gradientTransform="matrix(1, 0, 0, 1, 0, 0)" xlink:href="#linear-gradient-2"/><linearGradient id="linear-gradient-32" x1="102.9" y1="140.91" x2="102.9" y2="107.08" xlink:href="#linear-gradient-4"/><linearGradient id="linear-gradient-33" x1="749.29" y1="118.09" x2="757.46" y2="118.09" gradientTransform="matrix(-1, 0, 0, 1, 848.11, 0)" xlink:href="#linear-gradient-2"/><linearGradient id="linear-gradient-34" x1="90.64" y1="118.09" x2="98.82" y2="118.09" gradientTransform="matrix(1, 0, 0, 1, 0, 0)" xlink:href="#linear-gradient-2"/><linearGradient id="linear-gradient-35" x1="94.73" y1="140.91" x2="94.73" y2="107.08" xlink:href="#linear-gradient-4"/><linearGradient id="linear-gradient-36" x1="757.54" y1="116.26" x2="767.71" y2="116.26" gradientTransform="matrix(-1, 0, 0, 1, 848.11, 0)" xlink:href="#linear-gradient-2"/><linearGradient id="linear-gradient-37" x1="80.39" y1="116.26" x2="90.57" y2="116.26" gradientTransform="matrix(1, 0, 0, 1, 0, 0)" xlink:href="#linear-gradient-2"/><linearGradient id="linear-gradient-38" x1="85.48" y1="140.87" x2="85.48" y2="104.38" xlink:href="#linear-gradient-4"/><linearGradient id="linear-gradient-39" x1="767.87" y1="124.93" x2="780.04" y2="124.93" gradientTransform="matrix(-1, 0, 0, 1, 848.11, 0)" xlink:href="#linear-gradient-2"/><linearGradient id="linear-gradient-40" x1="68.06" y1="124.93" x2="80.24" y2="124.93" gradientTransform="matrix(1, 0, 0, 1, 0, 0)" xlink:href="#linear-gradient-2"/><linearGradient id="linear-gradient-41" x1="780.04" y1="120.89" x2="790.21" y2="120.89" gradientTransform="matrix(-1, 0, 0, 1, 848.11, 0)" xlink:href="#linear-gradient-2"/><linearGradient id="linear-gradient-42" x1="57.89" y1="120.89" x2="68.07" y2="120.89" gradientTransform="matrix(1, 0, 0, 1, 0, 0)" xlink:href="#linear-gradient-2"/><linearGradient id="linear-gradient-43" x1="62.98" y1="140.98" x2="62.98" y2="111.19" xlink:href="#linear-gradient-4"/></defs><title>library</title><g class="cls-1"><g id="Layer_1" data-name="Layer 1"><g id="Library"><polygon class="cls-2" points="200 58.44 128.27 120.48 0 120.48 71.99 58.21 200 58.44"/><rect class="cls-3" x="72.25" y="51.95" width="127.75" height="6.49"/><rect class="cls-4" x="72.25" y="51.95" width="127.75" height="5.38"/><rect class="cls-5" x="162.68" width="14.93" height="51.86" rx="0.25" ry="0.25"/><rect class="cls-6" x="162.68" width="14.93" height="51.86" rx="0.25" ry="0.25"/><rect class="cls-7" x="162.68" width="14.93" height="51.86" rx="0.25" ry="0.25"/><rect class="cls-8" x="162.68" width="14.93" height="51.86" rx="0.25" ry="0.25"/><rect class="cls-9" x="162.68" y="10.79" width="14.93" height="1.19"/><g class="cls-10"><rect class="cls-11" x="162.68" y="42.22" width="14.93" height="4"/></g><rect class="cls-9" x="162.68" y="13.33" width="14.93" height="26.37"/><text class="cls-12" transform="translate(168.73 14.49) rotate(90)">ADVE<tspan class="cls-13" x="9.71" y="0">R</tspan><tspan x="11.99" y="0">TISING</tspan></text><text class="cls-14" transform="translate(163.93 7.36)">NO:1</text><text class="cls-15" transform="translate(163.93 9.43)">ADVE<tspan class="cls-16" x="4.8" y="0">R</tspan><tspan x="5.93" y="0">TISING</tspan></text><path class="cls-17" d="M162.73,78.52c0,.12-.06.22-.14.22h-7.9c-.08,0-.14-.1-.14-.22V32.23c0-.12.06-.22.14-.22h7.9c.08,0,.14.1.14.22Z" transform="translate(0 -26.88)"/><path class="cls-18" d="M154.55,78.52c0,.12.06.22.14.22h7.9c.08,0,.14-.1.14-.22V32.23c0-.12-.06-.22-.14-.22h-7.9c-.08,0-.14.1-.14.22Z" transform="translate(0 -26.88)"/><path class="cls-19" d="M162.73,78.52c0,.12-.06.22-.14.22h-7.9c-.08,0-.14-.1-.14-.22V32.23c0-.12.06-.22.14-.22h7.9c.08,0,.14.1.14.22Z" transform="translate(0 -26.88)"/><path class="cls-20" d="M154.55,78.52c0,.12.06.22.14.22h7.9c.08,0,.14-.1.14-.22V32.23c0-.12-.06-.22-.14-.22h-7.9c-.08,0-.14.1-.14.22Z" transform="translate(0 -26.88)"/><rect class="cls-21" x="155.56" y="7.9" width="6" height="7.92"/><text class="cls-22" transform="translate(157.13 21.23) rotate(90)">his<tspan class="cls-23" x="6.98" y="0">t</tspan><tspan x="8.9" y="0">o</tspan><tspan class="cls-24" x="12.13" y="0">r</tspan><tspan x="14.2" y="0">y </tspan><tspan class="cls-25" x="18.23" y="0">v</tspan><tspan class="cls-26" x="20.83" y="0">.</tspan><tspan class="cls-27" x="22.05" y="0">1</tspan></text><text class="cls-28" transform="translate(156.05 11.48)">the<tspan class="cls-29" x="0.99" y="0"> </tspan><tspan class="cls-29"><tspan x="0" y="1.43">WORLD</tspan></tspan></text><path class="cls-17" d="M154.56,78.52c0,.12-.06.22-.14.22h-7.9c-.08,0-.14-.1-.14-.22V32.23c0-.12.06-.22.14-.22h7.9c.08,0,.14.1.14.22Z" transform="translate(0 -26.88)"/><path class="cls-30" d="M146.38,78.52c0,.12.06.22.14.22h7.9c.08,0,.14-.1.14-.22V32.23c0-.12-.06-.22-.14-.22h-7.9c-.08,0-.14.1-.14.22Z" transform="translate(0 -26.88)"/><path class="cls-31" d="M154.56,78.52c0,.12-.06.22-.14.22h-7.9c-.08,0-.14-.1-.14-.22V32.23c0-.12.06-.22.14-.22h7.9c.08,0,.14.1.14.22Z" transform="translate(0 -26.88)"/><path class="cls-32" d="M146.38,78.52c0,.12.06.22.14.22h7.9c.08,0,.14-.1.14-.22V32.23c0-.12-.06-.22-.14-.22h-7.9c-.08,0-.14.1-.14.22Z" transform="translate(0 -26.88)"/><rect class="cls-33" x="147.4" y="7.9" width="6" height="7.92"/><text class="cls-34" transform="translate(148.97 21.23) rotate(90)">his<tspan class="cls-23" x="6.98" y="0">t</tspan><tspan x="8.9" y="0">o</tspan><tspan class="cls-24" x="12.13" y="0">r</tspan><tspan x="14.2" y="0">y </tspan><tspan class="cls-25" x="18.23" y="0">v</tspan><tspan class="cls-26" x="20.83" y="0">.</tspan><tspan class="cls-27" x="22.05" y="0">2</tspan></text><text class="cls-28" transform="translate(147.89 11.48)">the<tspan class="cls-29" x="0.99" y="0"> </tspan><tspan class="cls-29"><tspan x="0" y="1.43">WORLD</tspan></tspan></text><path class="cls-35" d="M136.13,28.58c0-.13.08-.24.17-.24h9.84c.09,0,.17.11.17.24V78.5c0,.13-.08.24-.17.24H136.3c-.09,0-.17-.11-.17-.24Z" transform="translate(0 -26.88)"/><path class="cls-36" d="M146.3,28.58c0-.13-.08-.24-.17-.24H136.3c-.09,0-.17.11-.17.24V78.5c0,.13.08.24.17.24h9.84c.09,0,.17-.11.17-.24Z" transform="translate(0 -26.88)"/><path class="cls-37" d="M136.13,28.58c0-.13.08-.24.17-.24h9.84c.09,0,.17.11.17.24V78.5c0,.13-.08.24-.17.24H136.3c-.09,0-.17-.11-.17-.24Z" transform="translate(0 -26.88)"/><path class="cls-38" d="M146.31,28.58c0-.13-.08-.24-.17-.24H136.3c-.09,0-.17.11-.17.24V78.5c0,.13.08.24.17.24h9.84c.09,0,.17-.11.17-.24Z" transform="translate(0 -26.88)"/><g class="cls-39"><text class="cls-40" transform="translate(142.33 40.96) rotate(-90)">t<tspan class="cls-41" x="1.38" y="0">r</tspan><tspan class="cls-42" x="2.72" y="0">a</tspan><tspan class="cls-43" x="4.7" y="0">v</tspan><tspan x="6.67" y="0">el guide book</tspan></text></g><rect class="cls-44" x="136.13" y="42.46" width="10.18" height="3.65"/><rect class="cls-44" x="136.13" y="7.96" width="10.18" height="1.07"/><rect class="cls-44" x="136.13" y="6.46" width="10.18" height="1.07"/><path class="cls-11" d="M136,78.59a.18.18,0,0,1-.2.16H124a.18.18,0,0,1-.2-.16V45.83a.18.18,0,0,1,.2-.16h11.77a.18.18,0,0,1,.2.16Z" transform="translate(0 -26.88)"/><path class="cls-45" d="M123.8,78.59a.18.18,0,0,0,.2.16h11.77a.18.18,0,0,0,.2-.16V45.83a.18.18,0,0,0-.2-.16H124a.18.18,0,0,0-.2.16Z" transform="translate(0 -26.88)"/><path class="cls-46" d="M136,78.59a.18.18,0,0,1-.2.16H124a.18.18,0,0,1-.2-.16V45.83a.18.18,0,0,1,.2-.16h11.77a.18.18,0,0,1,.2.16Z" transform="translate(0 -26.88)"/><path class="cls-47" d="M123.8,78.59a.18.18,0,0,0,.2.16h11.77a.18.18,0,0,0,.2-.16V45.83a.18.18,0,0,0-.2-.16H124a.18.18,0,0,0-.2.16Z" transform="translate(0 -26.88)"/><text class="cls-48" transform="translate(128.83 23.09) rotate(90)">G<tspan class="cls-49" x="4" y="0">R</tspan><tspan x="7.37" y="0">APHIC</tspan></text><text class="cls-50" transform="translate(126.45 23.17) rotate(90)">DESIGN</text><rect class="cls-51" x="123.8" y="19.69" width="12.18" height="0.94"/><rect class="cls-51" x="123.8" y="21.13" width="12.18" height="0.94"/><rect class="cls-51" x="123.8" y="22.56" width="12.18" height="0.94"/><rect class="cls-51" x="123.8" y="24" width="12.18" height="0.94"/><rect class="cls-51" x="123.8" y="25.44" width="12.18" height="0.94"/><rect class="cls-51" x="123.8" y="26.88" width="12.18" height="0.94"/><rect class="cls-51" x="123.8" y="28.31" width="12.18" height="0.94"/><rect class="cls-51" x="123.8" y="29.75" width="12.18" height="0.94"/><rect class="cls-51" x="123.8" y="31.19" width="12.18" height="0.94"/><rect class="cls-51" x="123.8" y="32.63" width="12.18" height="0.94"/><rect class="cls-51" x="123.8" y="34.06" width="12.18" height="0.94"/><rect class="cls-51" x="123.8" y="35.5" width="12.18" height="0.94"/><rect class="cls-51" x="123.8" y="36.94" width="12.18" height="0.94"/><rect class="cls-51" x="123.8" y="38.38" width="12.18" height="0.94"/><rect class="cls-51" x="123.8" y="39.81" width="12.18" height="0.94"/><rect class="cls-51" x="123.8" y="41.25" width="12.18" height="0.94"/><rect class="cls-51" x="123.8" y="42.69" width="12.18" height="0.94"/><rect class="cls-51" x="123.8" y="44.13" width="12.18" height="0.94"/><rect class="cls-51" x="123.8" y="45.56" width="12.18" height="0.94"/><rect class="cls-51" x="123.8" y="47" width="12.18" height="0.94"/><rect class="cls-51" x="123.8" y="48.44" width="12.18" height="0.94"/><rect class="cls-51" x="123.8" y="49.88" width="12.18" height="0.94"/><path class="cls-52" d="M123.81,78.55a.19.19,0,0,1-.17.2H113.8a.18.18,0,0,1-.17-.2V37.79a.18.18,0,0,1,.17-.2h9.84a.18.18,0,0,1,.17.2Z" transform="translate(0 -26.88)"/><path class="cls-53" d="M113.63,78.55a.18.18,0,0,0,.17.2h9.84a.19.19,0,0,0,.17-.2V37.79a.18.18,0,0,0-.17-.2H113.8a.18.18,0,0,0-.17.2Z" transform="translate(0 -26.88)"/><path class="cls-54" d="M123.81,78.55a.18.18,0,0,1-.17.2H113.8a.19.19,0,0,1-.17-.2V37.79a.19.19,0,0,1,.17-.2h9.84a.18.18,0,0,1,.17.2Z" transform="translate(0 -26.88)"/><path class="cls-55" d="M113.63,78.55a.19.19,0,0,0,.17.2h9.84a.18.18,0,0,0,.17-.2V37.79a.18.18,0,0,0-.17-.2H113.8a.19.19,0,0,0-.17.2Z" transform="translate(0 -26.88)"/><text class="cls-56" transform="translate(117.46 19.4) rotate(90)"><tspan class="cls-57">F</tspan><tspan x="2.54" y="0">ASHION</tspan></text><text class="cls-58" transform="translate(115.07 19.49) rotate(90)">DESIGN</text><path class="cls-21" d="M104.64,37.32a.19.19,0,0,1,.23-.12L114,40.74a.18.18,0,0,1,.09.25L99.47,79a.19.19,0,0,1-.23.12L90.06,75.6a.18.18,0,0,1-.09-.25Z" transform="translate(0 -26.88)"/><path class="cls-59" d="M114.14,41a.18.18,0,0,0-.09-.25l-9.18-3.54a.19.19,0,0,0-.23.12L90,75.35a.18.18,0,0,0,.09.25l9.18,3.54a.19.19,0,0,0,.23-.12Z" transform="translate(0 -26.88)"/><path class="cls-60" d="M104.64,37.32a.19.19,0,0,1,.23-.12L114,40.74a.19.19,0,0,1,.09.25L99.47,79a.19.19,0,0,1-.23.12L90.06,75.6a.18.18,0,0,1-.09-.25Z" transform="translate(0 -26.88)"/><path class="cls-61" d="M114.14,41a.19.19,0,0,0-.09-.25l-9.18-3.54a.19.19,0,0,0-.23.12L90,75.35a.18.18,0,0,0,.09.25l9.18,3.54a.19.19,0,0,0,.23-.12Z" transform="translate(0 -26.88)"/><text class="cls-62" transform="matrix(0.36, -0.93, 0.93, 0.36, 98.95, 42.82)"><tspan class="cls-63">F</tspan><tspan x="2.54" y="0">ASHION</tspan></text><text class="cls-64" transform="translate(101.2 43.6) rotate(-68.91)">DESIGN</text><g id="library-2" data-name="library"><polygon class="cls-65" points="77.75 163.75 128 120.28 0 120.06 0 163.75 77.75 163.75"/><rect class="cls-3" y="114.66" width="127.75" height="6.49"/><rect class="cls-4" y="114.66" width="127.75" height="5.38"/><path class="cls-21" d="M106.9,101.15a.19.19,0,0,1,.13-.22l9.68-1.76a.19.19,0,0,1,.2.16l7.29,40.1a.18.18,0,0,1-.13.22l-9.68,1.76a.19.19,0,0,1-.2-.16Z" transform="translate(0 -26.88)"/><path class="cls-66" d="M116.91,99.33a.19.19,0,0,0-.2-.16L107,100.93a.19.19,0,0,0-.13.22l7.29,40.1a.19.19,0,0,0,.2.16l9.68-1.76a.18.18,0,0,0,.13-.22Z" transform="translate(0 -26.88)"/><path class="cls-67" d="M106.9,101.15a.19.19,0,0,1,.13-.22l9.68-1.76a.19.19,0,0,1,.2.16l7.29,40.1a.18.18,0,0,1-.13.22l-9.68,1.76a.19.19,0,0,1-.2-.16Z" transform="translate(0 -26.88)"/><path class="cls-68" d="M116.91,99.33a.19.19,0,0,0-.2-.16L107,100.93a.19.19,0,0,0-.13.22l7.29,40.1a.19.19,0,0,0,.2.16l9.68-1.76a.18.18,0,0,0,.13-.22Z" transform="translate(0 -26.88)"/><text class="cls-69" transform="translate(118.92 104.86) rotate(-100.31)"><tspan class="cls-70">F</tspan><tspan x="2.54" y="0">ASHION</tspan></text><text class="cls-71" transform="translate(121.27 104.37) rotate(-100.31)">DESIGN</text><rect class="cls-5" x="5.97" y="99.52" width="51.86" height="14.93" rx="0.25" ry="0.25"/><rect class="cls-72" x="5.97" y="99.52" width="51.86" height="14.93" rx="0.25" ry="0.25"/><rect class="cls-73" x="5.97" y="99.52" width="51.86" height="14.93" rx="0.25" ry="0.25"/><rect class="cls-74" x="5.97" y="99.52" width="51.86" height="14.93" rx="0.25" ry="0.25"/><rect class="cls-75" x="16.76" y="99.52" width="1.19" height="14.93"/><g class="cls-10"><rect class="cls-11" x="48.18" y="99.52" width="4" height="14.93"/></g><rect class="cls-75" x="19.29" y="99.52" width="26.37" height="14.93"/><text class="cls-12" transform="translate(20.45 108.39)">ADVE<tspan class="cls-13" x="9.71" y="0">R</tspan><tspan x="11.99" y="0">TISING</tspan></text><text class="cls-76" transform="translate(13.33 113.19) rotate(-90)">NO:1</text><text class="cls-15" transform="translate(15.39 113.19) rotate(-90)">ADVE<tspan class="cls-16" x="4.8" y="0">R</tspan><tspan x="5.93" y="0">TISING</tspan></text><path class="cls-17" d="M107,141.24c0,.12-.06.22-.14.22h-7.9c-.08,0-.14-.1-.14-.22V94.95c0-.12.06-.22.14-.22h7.9c.08,0,.14.1.14.22Z" transform="translate(0 -26.88)"/><path class="cls-77" d="M98.81,141.24c0,.12.06.22.14.22h7.9c.08,0,.14-.1.14-.22V94.95c0-.12-.06-.22-.14-.22h-7.9c-.08,0-.14.1-.14.22Z" transform="translate(0 -26.88)"/><path class="cls-78" d="M107,141.24c0,.12-.06.22-.14.22h-7.9c-.08,0-.14-.1-.14-.22V94.95c0-.12.06-.22.14-.22h7.9c.08,0,.14.1.14.22Z" transform="translate(0 -26.88)"/><path class="cls-79" d="M98.81,141.24c0,.12.06.22.14.22h7.9c.08,0,.14-.1.14-.22V94.95c0-.12-.06-.22-.14-.22h-7.9c-.08,0-.14.1-.14.22Z" transform="translate(0 -26.88)"/><rect class="cls-80" x="99.82" y="70.61" width="6" height="7.92"/><text class="cls-81" transform="translate(101.39 82.95) rotate(90)">his<tspan class="cls-23" x="6.98" y="0">t</tspan><tspan x="8.9" y="0">o</tspan><tspan class="cls-82" x="12.13" y="0">r</tspan><tspan class="cls-83" x="14.2" y="0">y </tspan><tspan class="cls-84" x="18.23" y="0">v</tspan><tspan class="cls-85" x="20.83" y="0">.</tspan><tspan class="cls-86" x="22.05" y="0">4</tspan></text><text class="cls-28" transform="translate(100.31 74.19)">the<tspan class="cls-29" x="0.99" y="0"> </tspan><tspan class="cls-29"><tspan x="0" y="1.43">WORLD</tspan></tspan></text><path class="cls-17" d="M98.82,141.24c0,.12-.06.22-.14.22h-7.9c-.08,0-.14-.1-.14-.22V94.95c0-.12.06-.22.14-.22h7.9c.08,0,.14.1.14.22Z" transform="translate(0 -26.88)"/><path class="cls-87" d="M90.64,141.24c0,.12.06.22.14.22h7.9c.08,0,.14-.1.14-.22V94.95c0-.12-.06-.22-.14-.22h-7.9c-.08,0-.14.1-.14.22Z" transform="translate(0 -26.88)"/><path class="cls-88" d="M98.82,141.24c0,.12-.06.22-.14.22h-7.9c-.08,0-.14-.1-.14-.22V94.95c0-.12.06-.22.14-.22h7.9c.08,0,.14.1.14.22Z" transform="translate(0 -26.88)"/><path class="cls-89" d="M90.64,141.24c0,.12.06.22.14.22h7.9c.08,0,.14-.1.14-.22V94.95c0-.12-.06-.22-.14-.22h-7.9c-.08,0-.14.1-.14.22Z" transform="translate(0 -26.88)"/><rect class="cls-90" x="91.66" y="70.61" width="6" height="7.92"/><text class="cls-91" transform="translate(93.23 82.95) rotate(90)">his<tspan class="cls-23" x="6.98" y="0">t</tspan><tspan x="8.9" y="0">o</tspan><tspan class="cls-82" x="12.13" y="0">r</tspan><tspan class="cls-83" x="14.2" y="0">y </tspan><tspan class="cls-84" x="18.23" y="0">v</tspan><tspan class="cls-85" x="20.83" y="0">.</tspan><tspan class="cls-86" x="22.05" y="0">3</tspan></text><text class="cls-28" transform="translate(92.15 74.19)">the<tspan class="cls-29" x="0.99" y="0"> </tspan><tspan class="cls-29"><tspan x="0" y="1.43">WORLD</tspan></tspan></text><path class="cls-92" d="M90.57,141.22c0,.13-.08.24-.17.24H80.56c-.09,0-.17-.11-.17-.24V91.3c0-.13.08-.24.17-.24H90.4c.09,0,.17.11.17.24Z" transform="translate(0 -26.88)"/><path class="cls-93" d="M80.39,141.22c0,.13.08.24.17.24H90.4c.09,0,.17-.11.17-.24V91.3c0-.13-.08-.24-.17-.24H80.56c-.09,0-.17.11-.17.24Z" transform="translate(0 -26.88)"/><path class="cls-94" d="M90.57,141.22c0,.13-.08.24-.17.24H80.56c-.09,0-.17-.11-.17-.24V91.3c0-.13.08-.24.17-.24H90.4c.09,0,.17.11.17.24Z" transform="translate(0 -26.88)"/><path class="cls-95" d="M80.39,141.22c0,.13.08.24.17.24H90.4c.09,0,.17-.11.17-.24V91.3c0-.13-.08-.24-.17-.24H80.56c-.09,0-.17.11-.17.24Z" transform="translate(0 -26.88)"/><g class="cls-39"><text class="cls-96" transform="translate(84.36 75.08) rotate(90)">t<tspan class="cls-97" x="1.38" y="0">r</tspan><tspan class="cls-98" x="2.72" y="0">a</tspan><tspan class="cls-99" x="4.7" y="0">v</tspan><tspan x="6.67" y="0">el guide book</tspan></text></g><rect class="cls-100" x="80.39" y="69.93" width="10.18" height="3.65"/><rect class="cls-100" x="80.39" y="107.55" width="10.18" height="1.53"/><path class="cls-11" d="M80.24,141.3a.18.18,0,0,1-.2.16H68.26a.18.18,0,0,1-.2-.16V108.55a.18.18,0,0,1,.2-.16H80a.18.18,0,0,1,.2.16Z" transform="translate(0 -26.88)"/><path class="cls-101" d="M68.06,141.3a.18.18,0,0,0,.2.16H80a.18.18,0,0,0,.2-.16V108.55a.18.18,0,0,0-.2-.16H68.26a.18.18,0,0,0-.2.16Z" transform="translate(0 -26.88)"/><path class="cls-102" d="M80.24,141.3a.18.18,0,0,1-.2.16H68.26a.18.18,0,0,1-.2-.16V108.55a.18.18,0,0,1,.2-.16H80a.18.18,0,0,1,.2.16Z" transform="translate(0 -26.88)"/><path class="cls-103" d="M68.06,141.3a.18.18,0,0,0,.2.16H80a.18.18,0,0,0,.2-.16V108.55a.18.18,0,0,0-.2-.16H68.26a.18.18,0,0,0-.2.16Z" transform="translate(0 -26.88)"/><text class="cls-48" transform="translate(73.09 85.81) rotate(90)">G<tspan class="cls-49" x="4" y="0">R</tspan><tspan class="cls-104" x="7.37" y="0">APHIC</tspan></text><text class="cls-50" transform="translate(70.71 85.89) rotate(90)">DESIGN</text><rect class="cls-51" x="68.06" y="82.4" width="12.18" height="0.94"/><rect class="cls-51" x="68.06" y="83.84" width="12.18" height="0.94"/><rect class="cls-51" x="68.06" y="85.28" width="12.18" height="0.94"/><rect class="cls-51" x="68.06" y="86.72" width="12.18" height="0.94"/><rect class="cls-51" x="68.06" y="88.15" width="12.18" height="0.94"/><rect class="cls-51" x="68.06" y="89.59" width="12.18" height="0.94"/><rect class="cls-51" x="68.06" y="91.03" width="12.18" height="0.94"/><rect class="cls-51" x="68.06" y="92.47" width="12.18" height="0.94"/><rect class="cls-51" x="68.06" y="93.9" width="12.18" height="0.94"/><rect class="cls-51" x="68.06" y="95.34" width="12.18" height="0.94"/><rect class="cls-51" x="68.06" y="96.78" width="12.18" height="0.94"/><rect class="cls-51" x="68.06" y="98.22" width="12.18" height="0.94"/><rect class="cls-51" x="68.06" y="99.65" width="12.18" height="0.94"/><rect class="cls-51" x="68.06" y="101.09" width="12.18" height="0.94"/><rect class="cls-51" x="68.06" y="102.53" width="12.18" height="0.94"/><rect class="cls-51" x="68.06" y="103.97" width="12.18" height="0.94"/><rect class="cls-51" x="68.06" y="105.4" width="12.18" height="0.94"/><rect class="cls-51" x="68.06" y="106.84" width="12.18" height="0.94"/><rect class="cls-51" x="68.06" y="108.28" width="12.18" height="0.94"/><rect class="cls-51" x="68.06" y="109.72" width="12.18" height="0.94"/><rect class="cls-51" x="68.06" y="111.15" width="12.18" height="0.94"/><rect class="cls-51" x="68.06" y="112.59" width="12.18" height="0.94"/><path class="cls-90" d="M68.07,141.27a.19.19,0,0,1-.17.2H58.06a.18.18,0,0,1-.17-.2V100.5a.18.18,0,0,1,.17-.2H67.9a.18.18,0,0,1,.17.2Z" transform="translate(0 -26.88)"/><path class="cls-105" d="M57.89,141.27a.18.18,0,0,0,.17.2H67.9a.19.19,0,0,0,.17-.2V100.5a.18.18,0,0,0-.17-.2H58.06a.18.18,0,0,0-.17.2Z" transform="translate(0 -26.88)"/><path class="cls-106" d="M68.07,141.27a.18.18,0,0,1-.17.2H58.06a.19.19,0,0,1-.17-.2V100.5a.18.18,0,0,1,.17-.2H67.9a.18.18,0,0,1,.17.2Z" transform="translate(0 -26.88)"/><path class="cls-107" d="M57.89,141.27a.19.19,0,0,0,.17.2H67.9a.18.18,0,0,0,.17-.2V100.5a.18.18,0,0,0-.17-.2H58.06a.18.18,0,0,0-.17.2Z" transform="translate(0 -26.88)"/><text class="cls-56" transform="translate(61.72 82.12) rotate(90)"><tspan class="cls-57">F</tspan><tspan x="2.54" y="0">ASHION</tspan></text><text class="cls-58" transform="translate(59.34 82.2) rotate(90)">DESIGN</text></g></g></g></g></svg>