<svg id="Layer_1" data-name="Layer 1" xmlns="http://www.w3.org/2000/svg" viewBox="0 0 193.75 170.5"><defs><style>.cls-1{fill:#6b6b6b;}</style></defs><title>parking</title><path class="cls-1" d="M34.26,55.45a26.88,26.88,0,0,0,3.4.18c5.92,0,11-1.44,14.38-4.66a14.16,14.16,0,0,0,4.06-10.5,12.91,12.91,0,0,0-4.72-10.24c-2.95-2.37-7.34-3.54-13.51-3.54a83,83,0,0,0-13.51.9V71.25h9.9Zm0-20.82a16,16,0,0,1,4.12-.39c5,0,7.83,2.43,7.83,6.5,0,4.51-3.28,7.22-8.6,7.22a14.47,14.47,0,0,1-3.34-.27Zm0,0" transform="translate(-3.25 -13)"/><path class="cls-1" d="M15.56,84.94H64.89A11.3,11.3,0,0,0,76.21,73.65V24.31A11.3,11.3,0,0,0,64.89,13H15.56A11.29,11.29,0,0,0,4.27,24.31V73.65A11.28,11.28,0,0,0,15.56,84.94ZM13.21,25a3,3,0,0,1,3-3h48a3,3,0,0,1,3,3V73a3.05,3.05,0,0,1-3,3.07h-48a3.06,3.06,0,0,1-3-3.07Zm0,0" transform="translate(-3.25 -13)"/><path d="M50,144a19.74,19.74,0,1,0,19.74,19.73A19.7,19.7,0,0,0,50,144Zm0,25.69a6,6,0,1,1,6-6,6,6,0,0,1-6,6Zm0,0" transform="translate(-3.25 -13)"/><path d="M193.72,147.58l-3.22-26.26a9.69,9.69,0,0,0-10.14-8.46l-7.07.39-22-19.79a11.48,11.48,0,0,0-7.7-2.95H99a44.11,44.11,0,0,0-27.53,9.69l-24.88,20-33.49,8.36a9.7,9.7,0,0,0-7.31,9.39v9.63a2.55,2.55,0,0,0-2.56,2.56v12.79a3.29,3.29,0,0,0,3.28,3.28H25.42c-.06-.82-.24-1.59-.24-2.44a24.84,24.84,0,0,1,49.67,0,23,23,0,0,1-.27,2.44h52.35a21.15,21.15,0,0,1-.25-2.44,24.82,24.82,0,0,1,49.65,0,21.1,21.1,0,0,1-.25,2.44h17.63a3.29,3.29,0,0,0,3.28-3.28v-12a3.25,3.25,0,0,0-3.28-3.31ZM127.5,115.29l-62.25,3.17,11.92-9.57A36.52,36.52,0,0,1,100,100.83h27.5Zm10.35-.51V100.85h4.06a5.73,5.73,0,0,1,3.79,1.45l12.7,11.43Zm0,0" transform="translate(-3.25 -13)"/><path d="M151.54,144a19.74,19.74,0,1,0,19.7,19.73A19.73,19.73,0,0,0,151.54,144Zm0,25.69a6,6,0,1,1,5.92-6,6,6,0,0,1-5.92,6Zm0,0" transform="translate(-3.25 -13)"/></svg>