<svg id="Layer_1" data-name="Layer 1" xmlns="http://www.w3.org/2000/svg" viewBox="0 0 188 163.18"><defs><style>.cls-1{fill:#363636;}.cls-2{fill:#2e2e2e;}.cls-3{fill:#525252;}.cls-4{fill:#343740;}.cls-5{fill:#dbdbdb;}.cls-6{fill:#cacaca;}.cls-7{fill:#7f7f7f;}.cls-8{fill:#d9212b;}.cls-9{fill:#288eb8;}</style></defs><title>printer</title><path class="cls-1" d="M194,170.47V83.25a11.5,11.5,0,0,0-11.5-11.5H180A156.81,156.81,0,0,1,35.39,167.89,157.61,157.61,0,0,1,6,165.14v5.33A11.46,11.46,0,0,0,6.94,175H193.06A11.46,11.46,0,0,0,194,170.47Z" transform="translate(-6 -18.47)"/><path class="cls-2" d="M6.94,174.71a11.51,11.51,0,0,0,10.56,6.94h165a11.51,11.51,0,0,0,10.56-6.94Z" transform="translate(-6 -18.47)"/><path class="cls-3" d="M180,71.75H17.5A11.5,11.5,0,0,0,6,83.25v81.89a157.61,157.61,0,0,0,29.39,2.75A156.81,156.81,0,0,0,180,71.75Z" transform="translate(-6 -18.47)"/><rect class="cls-4" x="23.73" y="28.78" width="97.98" height="46.54" rx="7.46" ry="7.46"/><polygon class="cls-5" points="52.02 0 33.22 20.37 33.22 75.32 112.22 75.32 112.22 0 52.02 0"/><polygon class="cls-6" points="52.02 20.37 52.02 0 33.22 20.37 52.02 20.37"/><path class="cls-2" d="M58.75,160.13H12a2,2,0,0,1-2-2V135.35a2,2,0,0,1,2-2H58.75a2,2,0,0,1,2,2v22.83A2,2,0,0,1,58.75,160.13ZM12,133.8a1.55,1.55,0,0,0-1.55,1.55v22.83A1.55,1.55,0,0,0,12,159.73H58.75a1.55,1.55,0,0,0,1.55-1.55V135.35a1.55,1.55,0,0,0-1.55-1.55Z" transform="translate(-6 -18.47)"/><circle class="cls-7" cx="36.13" cy="120.42" r="3.04"/><circle class="cls-7" cx="42.72" cy="120.42" r="3.04"/><circle class="cls-8" cx="49.45" cy="120.42" r="3.04"/><circle class="cls-1" cx="34.54" cy="125.66" r="1.45"/><circle class="cls-1" cx="37.69" cy="125.66" r="1.45"/><circle class="cls-1" cx="40.9" cy="125.66" r="1.45"/><circle class="cls-1" cx="34.54" cy="129.72" r="1.45"/><circle class="cls-1" cx="37.69" cy="129.72" r="1.45"/><circle class="cls-1" cx="40.9" cy="129.72" r="1.45"/><circle class="cls-1" cx="34.54" cy="133.78" r="1.45"/><circle class="cls-1" cx="37.69" cy="133.78" r="1.45"/><circle class="cls-1" cx="40.9" cy="133.78" r="1.45"/><rect class="cls-9" x="6.14" y="117.4" width="22.98" height="21.23" rx="2.04" ry="2.04"/></svg>