<svg id="Layer_1" data-name="Layer 1" xmlns="http://www.w3.org/2000/svg" viewBox="0 0 191 138.44"><defs><style>.cls-1{fill:#ff89b2;}.cls-2{fill:#cdb3fc;}.cls-3{fill:#ffc6a3;}.cls-4{fill:#fcc1d9;}</style></defs><title>wi-fi</title><path class="cls-1" d="M88.17,142.54a21.22,21.22,0,0,0,.09,7.68,23.62,23.62,0,0,0,1.26,4.7,16.65,16.65,0,0,0,4.32,4.87,17.21,17.21,0,0,0,7.12,1.89,18.81,18.81,0,0,0,8-1.12,26.8,26.8,0,0,0,5.32-4,11.16,11.16,0,0,0,1.75-3.75c1.5-5.72.54-12.7-4-16.82C103.69,128.57,91.42,133.49,88.17,142.54Zm16.23-5.39c-4.66-.69-9.92,3.18-11.1,7.56a.69.69,0,0,1-1.32-.39,10.48,10.48,0,0,1,5.93-6.82c2-.88,4.5-1.72,6.59-.7C104.67,136.88,104.59,137.18,104.41,137.15Zm3.61-.84c-3.5-2.77-9.27-1.39-12.59.91s-4.66,5.15-5.45,8.9c-.16.77-1.3.41-1.16-.34.86-4.52,3.09-8.3,7.39-10.36,3.42-1.65,9.18-2.76,12.13.5C108.51,136.12,108.25,136.49,108,136.31Z" transform="translate(-4 -30.62)"/><path class="cls-2" d="M164.77,98.62a66.52,66.52,0,0,0-7.38-6.17c-5.2-3.51-10.85-6.19-16.4-9.07-5.8-3-11.57-5.94-17.9-7.72a86.32,86.32,0,0,0-18.87-2.6c-12.7-.62-26.19,2.09-37.34,8.26C61.21,84.47,55.49,87.46,50,90.91a78.35,78.35,0,0,0-8.1,5.73c-1.82,1.49-3.35,3.28-5.13,4.81a84.1,84.1,0,0,0,6.57,6.45c1.44,1.26,3.38,2.56,4.86,4.09a24.92,24.92,0,0,1,4-3.66A71.28,71.28,0,0,1,58,104.06a107.91,107.91,0,0,1,13.65-7.85c9-4.18,18.7-6.89,28.65-6.69,10.92.21,22.12,2.16,32,7a112,112,0,0,1,14.56,8.74c3.31,2.31,7.25,4.83,9.47,8.34a1.24,1.24,0,0,1,.28-.27c4.53-3.14,8.41-6.88,12.63-10.35C167.63,101.74,166.22,99.94,164.77,98.62ZM164.3,104c-2.28-2.46-4.9-4.52-7.4-6.75s-5-4.38-8.13-5.65a.52.52,0,1,1,.42-.95,31.31,31.31,0,0,1,7.59,5.54c2.66,2.45,5.48,4.74,7.9,7.43C164.92,103.89,164.53,104.27,164.3,104Zm2.1-1c-2.14-2.89-5.83-4.93-8.51-7.32s-5.74-4.92-9.41-6a.43.43,0,0,1,.24-.83c3.82,1,6.69,4,9.67,6.37,2.07,1.67,4.12,3.35,6.22,5a5.35,5.35,0,0,1,2.13,2.7C166.8,103,166.51,103.12,166.4,103Z" transform="translate(-4 -30.62)"/><path class="cls-3" d="M139.5,120.29a64.14,64.14,0,0,0-10-8.19,48.78,48.78,0,0,0-24.26-7.69c-4.41-.22-9.05-.36-13.37.7a50.34,50.34,0,0,0-12.11,4.72,69,69,0,0,0-10.58,7.67,79.22,79.22,0,0,0-8.48,8.88h0c1.36,2,4.32,3.46,6,4.84a37.93,37.93,0,0,1,3.51,3.54c5-3.77,9.49-8.37,15.52-10.49A77.65,77.65,0,0,1,96,121.54a33.32,33.32,0,0,1,9.2-1,34.28,34.28,0,0,1,17.62,6.08c2.79,1.94,5.11,4.3,7.77,6.37a7.8,7.8,0,0,1,2.52,2.75l.06-.06c2.44-1.73,4.65-3.67,7-5.51,1.92-1.51,3.45-3.43,5.35-4.92-.75-.58-1.47-1.26-2.19-1.78A33.08,33.08,0,0,1,139.5,120.29Zm-34-13.34c-.52.54-1.08,1-1.63,1.55a.43.43,0,0,1-.6-.62c.49-.51,1-1,1.48-1.53S106,106.45,105.54,107Zm.92,2.35c-.52.24-1-.52-.44-.78a13.08,13.08,0,0,0,1.71-1.2c.48-.35.86-.84,1.35-1.17s.89.3.69.72a4,4,0,0,1-1.56,1.31A15.81,15.81,0,0,1,106.46,109.3Zm3.08.21a23.45,23.45,0,0,0,2.09-1.53c.21-.19.44-.36.63-.57s.28-.42.46-.62a.51.51,0,0,1,.84.24c.11.76-.59,1.16-1.12,1.57a26.62,26.62,0,0,1-2.51,1.61C109.48,110.51,109.12,109.81,109.54,109.51Zm2.61,1.88c1.32-1,3-1.87,4-3.21h0a.52.52,0,0,1,.73-.19l0,0a.59.59,0,0,1,.1.91,27.83,27.83,0,0,1-4.41,3.13C112.25,112.33,111.76,111.68,112.14,111.39Zm2.05,2.3c1.72-1.5,4.14-2.34,5.6-4.1.38-.45,1,.14.77.62-.49.88-1.54,1.22-2.37,1.69-1.25.71-2.54,1.35-3.75,2.13C114.25,114.16,114,113.84,114.2,113.68Zm2.28,1.81a35.51,35.51,0,0,0,3.48-2.28,30.58,30.58,0,0,0,3-2.05.82.82,0,0,1,.34-.22c.48-.18.89.57.49.88a29.37,29.37,0,0,1-3.47,2,33.16,33.16,0,0,1-3.63,2C116.44,115.93,116.25,115.61,116.48,115.5Zm2.7,1.58c2.09-1.57,4.76-2.68,6.59-4.55.45-.46,1.17.31.68.71-2.09,1.7-4.83,2.61-7.11,4.05C119.21,117.37,119.06,117.17,119.18,117.08Zm.93,1.81c2.77-1.22,6-2.43,8.33-4.4a.54.54,0,0,1,.76.78,11.46,11.46,0,0,1-3.74,2.12c-1.63.77-3.27,1.52-4.94,2.21C120,119.8,119.62,119.1,120.11,118.88Zm2.38,2.53c-.55.17-.75-.67-.22-.85,1.59-.53,3-1.34,4.56-2a15.54,15.54,0,0,0,3.37-1.62.53.53,0,0,1,.73.76c-.94,1-2.9,1.38-4.13,2A34.78,34.78,0,0,1,122.48,121.42Zm2.33.92a79.62,79.62,0,0,0,9.63-4.18.51.51,0,0,1,.5.9,39,39,0,0,1-5.42,2.29c-1.49.64-3,1.27-4.5,1.8C124.51,123.32,124.31,122.51,124.81,122.33Zm2.33,1.94a59.78,59.78,0,0,0,6.25-2.48,34.14,34.14,0,0,0,3.65-1.65.47.47,0,0,1,.3-.28l.39-.11a.54.54,0,0,1,.4,1,44.55,44.55,0,0,1-5.16,2.1,37.73,37.73,0,0,1-5.68,2A.3.3,0,0,1,127.15,124.28Zm2.22,2.13c3.12-1.87,6.8-2.47,10-4.21.5-.28.94.54.43.77-3.31,1.5-7,2-10.23,3.73A.16.16,0,0,1,129.37,126.41Zm12.61-.93c-2,.75-4.21,1.29-6.3,1.91-1.65.49-3.15,1.33-4.89,1.39-.52,0-.5-.77,0-.8,2-.12,4.31-1.37,6.23-2,1.41-.48,2.87-.86,4.28-1.38a.39.39,0,0,1,.38-.18l.16,0A.54.54,0,0,1,142,125.48Z" transform="translate(-4 -30.62)"/><path class="cls-4" d="M185.06,67.81a129.28,129.28,0,0,0-10.68-8.57c-5.72-4.3-11.76-8.63-18.41-11.38a116.5,116.5,0,0,0-20.69-6.62C120.18,38.1,104.37,38.1,89.12,40a142.7,142.7,0,0,0-21.74,4.06A107,107,0,0,0,46.75,52.6,148.29,148.29,0,0,0,28.68,64.41C23.15,68.46,16.61,71.8,11.9,76.85c2.33,1.77,4,4.25,6.14,6.19,1.58,1.4,3.19,2.71,4.88,4l.34.28a92.52,92.52,0,0,1,8.19-8c4.93-4.17,10.61-7.35,16.15-10.61a115.44,115.44,0,0,1,19.07-9.06c6.73-2.45,13.58-4.72,20.72-5.53a99.92,99.92,0,0,1,22.48.49c14.43,1.66,28,6,41.21,12A107.21,107.21,0,0,1,169.77,77a57.4,57.4,0,0,1,8,6.75,40.92,40.92,0,0,1,3,3.39c.26.34.55,1,.86,1.42a75.44,75.44,0,0,0,6.54-5.6c1.6-1.55,3.16-3.88,5.12-5.08C191.66,74,188.06,70.61,185.06,67.81ZM20.78,77.41l-.58.71a27.72,27.72,0,0,0-1.55,2.79h0a.26.26,0,0,1-.48-.14c.11-1.81,1.25-3.47,2.28-4.9,1.48-2,2.88-4.13,4.27-6.23.45-.68,1.55,0,1.08.66-1.62,2.32-3.43,4.55-5,6.91A.19.19,0,0,1,20.78,77.41Zm1.58,3.38c-.2.36-.73,0-.55-.33,2.18-4.26,5-8.17,7.3-12.34.33-.59,1.21,0,.89.54C27.71,72.86,24.67,76.6,22.36,80.79Zm8.89-9.55a61.6,61.6,0,0,0-4.3,7.15c-.18.34-.68,0-.51-.31a63.59,63.59,0,0,1,3.62-6.58c1.48-2.21,3.31-4.15,4.39-6.61.27-.62,1.29-.34,1,.3C34.51,67.55,32.72,69.22,31.25,71.24Zm1,3.49A146.65,146.65,0,0,1,42.51,57.65c.32-.47,1.15.06.84.55-3.58,5.6-7.41,11-10.67,16.75C32.52,75.23,32.07,75,32.22,74.73Zm8.56-7.59c1.34-2.67,2.91-5.22,4.48-7.76,1.4-2.27,2.55-4.74,4.16-6.86.43-.56,1.37,0,1,.58a151.1,151.1,0,0,0-9.16,14.3C41.06,67.69,40.63,67.43,40.78,67.14Zm6-4c-.22.32-.74,0-.52-.32,2.7-4.1,5.51-8.44,9.27-11.67.52-.45,1.26.3.75.77A69.48,69.48,0,0,0,46.82,63.14Zm4.77-2.36c3-4,6.65-7.65,10-11.37.45-.5,1.18.26.72.75C58.93,53.84,55.42,57.45,52,61.09,51.78,61.3,51.41,61,51.59,60.78ZM68.25,46.22c-1.94,2.25-3.64,4.7-5.53,7C61,55.3,59.5,57.82,57.53,59.65a.24.24,0,0,1-.33-.34c2-2.05,3.66-4.92,5.41-7.24,1.62-2.15,3.09-4.43,4.76-6.55A.57.57,0,1,1,68.25,46.22ZM187,81.32c-.49-1.93-2.21-3.37-3.52-4.79s-3-3-4.3-4.71a.59.59,0,1,1,.95-.71c2.23,3,6.91,6.11,7.36,10.15C187.5,81.54,187,81.58,187,81.32Zm1.85-2.05c-2.34-4.09-6.53-9-11-10.83-.66-.27-.34-1.34.31-1.06,4.78,2,8.92,7,10.95,11.74C189.18,79.29,188.93,79.44,188.83,79.27ZM190.48,78c-.53-2.09-2.32-2.87-3.67-4.3s-2.34-2.93-3.64-4.28c-2.69-2.78-6-4-9.26-5.95-.62-.36,0-1.29.57-.94,3.89,2.2,7.6,3.83,10.43,7.45a49.68,49.68,0,0,0,4,4.54A6.43,6.43,0,0,1,191,77.86.25.25,0,0,1,190.48,78Z" transform="translate(-4 -30.62)"/><path d="M104.09,164.86h.31c5.62-.35,10.74-3.08,13.46-8.11,5.3-9.81.39-23.1-10.24-26.45a18.75,18.75,0,0,0-13.12,1.08,1.26,1.26,0,0,0-.69.21l-.91.59-.83.49a17.34,17.34,0,0,0-7.81,13.6,16.63,16.63,0,0,0,2.27,9.67,15,15,0,0,0,2.77,4.39,14.51,14.51,0,0,0,7.72,4l.48.15A14,14,0,0,0,104.09,164.86Zm-10.24-5.07a16.65,16.65,0,0,1-4.32-4.87,23.62,23.62,0,0,1-1.26-4.7,21.22,21.22,0,0,1-.09-7.68c3.25-9,15.51-14,23.78-6.54,4.59,4.12,5.55,11.1,4,16.82a11.16,11.16,0,0,1-1.75,3.75,26.8,26.8,0,0,1-5.32,4,18.81,18.81,0,0,1-8,1.12A17.21,17.21,0,0,1,93.85,159.78Z" transform="translate(-4 -30.62)"/><path d="M190.84,71.14a46.64,46.64,0,0,0-7.2-7.58A174.68,174.68,0,0,0,167.3,51.22c-11.63-7.63-25.66-12-39.38-13.86-15-2-29.83-1.42-44.75.66a122.33,122.33,0,0,0-21.6,4.84,117.61,117.61,0,0,0-19.34,8.75C36.13,55,30.64,59.15,25,63.18c-5.24,3.74-11.49,6.9-15.64,11.93a1.64,1.64,0,0,0,.07,2.17A1.18,1.18,0,0,0,10,78.62c3,1.83,5.11,5,7.92,7.18a45.1,45.1,0,0,0,4.7,3.12,1.5,1.5,0,0,0,1.95,1.2,3.87,3.87,0,0,0,1.24.4c.49.07.65-.67.26-.89a6.44,6.44,0,0,1-.54-.37A77.17,77.17,0,0,1,36.93,78.72,154,154,0,0,1,54.31,68.23c13.23-7,27.83-12.17,42.93-11.91a124.56,124.56,0,0,1,44,8.73c13.62,5.38,27.1,11.92,37.45,22.53.55.57,1.12,1.4,1.77,2-.47.9.89,2.08,1.91,1.29a69.25,69.25,0,0,0,6.5-5.93c1.83-1.85,3.21-4.07,5-6a.73.73,0,0,0,1.12-.8C194.17,75.49,192.5,73.34,190.84,71.14ZM188.14,83a75.44,75.44,0,0,1-6.54,5.6c-.31-.41-.6-1.08-.86-1.42a40.92,40.92,0,0,0-3-3.39,57.4,57.4,0,0,0-8-6.75A107.21,107.21,0,0,0,151.1,66.59c-13.18-6-26.78-10.35-41.21-12a99.92,99.92,0,0,0-22.48-.49c-7.15.81-14,3.09-20.72,5.53a115.44,115.44,0,0,0-19.07,9.06c-5.54,3.26-11.22,6.45-16.15,10.61a92.52,92.52,0,0,0-8.19,8L22.92,87c-1.68-1.27-3.3-2.58-4.88-4-2.19-1.94-3.82-4.42-6.14-6.19,4.7-5,11.25-8.39,16.77-12.44A148.29,148.29,0,0,1,46.75,52.6a107,107,0,0,1,20.64-8.55A142.7,142.7,0,0,1,89.12,40c15.25-1.89,31.06-1.9,46.16,1.24A116.5,116.5,0,0,1,156,47.86c6.65,2.75,12.69,7.09,18.41,11.38a129.28,129.28,0,0,1,10.68,8.57c3,2.8,6.61,6.22,8.2,10.12C191.3,79.12,189.74,81.46,188.14,83Z" transform="translate(-4 -30.62)"/><path d="M146.3,123.45a13.41,13.41,0,0,0-2.24-2,54.77,54.77,0,0,1-4.68-4.51,52.93,52.93,0,0,0-10-7.86c-7.63-4.78-16.08-6.88-25-7.38a50.16,50.16,0,0,0-13.23.75C87,103.36,83,105.28,79.08,107s-7.22,4.67-10.59,7.32a77.59,77.59,0,0,0-9.86,9.9,1.58,1.58,0,0,0-.23.34,1,1,0,0,0-.66,1.39c.93,2.66,3.92,4.71,6.17,6.21a35.67,35.67,0,0,1,4.6,3.52A6.51,6.51,0,0,0,70,136.91a1.21,1.21,0,0,0,1.66.25c4.49-3.33,8.45-7.24,13.53-9.72a40.92,40.92,0,0,1,8.35-2.6,49.35,49.35,0,0,1,9.11-1.72,29.7,29.7,0,0,1,16.8,4.2,63.15,63.15,0,0,1,7.37,5.39,28.74,28.74,0,0,0,2.25,1.86c1.05.73,2.67,1.45,3.17,2.71a.72.72,0,0,0,.83.42.94.94,0,0,0,1.31.11c4.64-3.33,9.21-7,12.58-11.62h0l.28.12c.58.21.88-.62.42-.95S146.72,124,146.3,123.45Zm-6.09,6.77c-2.34,1.84-4.56,3.78-7,5.51l-.06.06a7.8,7.8,0,0,0-2.52-2.75c-2.66-2.07-5-4.43-7.77-6.37a34.28,34.28,0,0,0-17.62-6.08,33.32,33.32,0,0,0-9.2,1,77.65,77.65,0,0,0-10.32,2.74c-6,2.13-10.53,6.72-15.52,10.49a37.93,37.93,0,0,0-3.51-3.54c-1.69-1.37-4.65-2.82-6-4.84h0a79.22,79.22,0,0,1,8.48-8.88,69,69,0,0,1,10.58-7.67,50.34,50.34,0,0,1,12.11-4.72c4.32-1.06,9-.93,13.37-.7a48.78,48.78,0,0,1,24.26,7.69,64.14,64.14,0,0,1,10,8.19,33.08,33.08,0,0,0,3.87,3.23c.72.51,1.44,1.19,2.19,1.78C143.66,126.79,142.13,128.72,140.21,130.22Z" transform="translate(-4 -30.62)"/><path d="M170.92,103.07l.08-.1c.36-.5-.24-1-.71-.81-.44-.62-.82-1.33-1.27-1.92a38.79,38.79,0,0,0-3.38-3.61,53,53,0,0,0-7-6.15c-5.34-3.77-11.32-6.54-17.08-9.58a98.87,98.87,0,0,0-17.7-7.64c-6.21-1.87-13.09-2.35-19.53-2.75a75.87,75.87,0,0,0-19.86,1.75,66.7,66.7,0,0,0-18.21,6.22c-6,3.18-12,6.18-17.72,9.74a89,89,0,0,0-7.41,5.1c-2.61,2-4.7,4.56-7.31,6.56-1.11.86-.39,2.2.69,2.53a63.66,63.66,0,0,0,6.67,6.43c2,1.64,4.18,3.05,6.22,4.62-.3,1.47,1.88,2.6,2.74,1.08,1-1.7,2.75-2.84,4.21-4.09a64.44,64.44,0,0,1,6.55-4.8,111.38,111.38,0,0,1,12.18-7,62.08,62.08,0,0,1,28.16-6.46,72.43,72.43,0,0,1,30.59,6.88,120.24,120.24,0,0,1,13.12,7.69c4,2.61,7.5,5.83,11.46,8.41a1,1,0,0,0,1.37.21,56.44,56.44,0,0,0,12.74-11.68A.57.57,0,0,0,170.92,103.07Zm-14.33,10.27a1.24,1.24,0,0,0-.28.27c-2.22-3.51-6.17-6-9.47-8.34a112,112,0,0,0-14.56-8.74c-9.85-4.86-21-6.81-32-7-10-.2-19.69,2.51-28.65,6.69A107.91,107.91,0,0,0,58,104.06a71.28,71.28,0,0,0-5.77,4.27,24.92,24.92,0,0,0-4,3.66c-1.48-1.52-3.42-2.83-4.86-4.09a84.1,84.1,0,0,1-6.57-6.45c1.78-1.53,3.31-3.32,5.13-4.81A78.35,78.35,0,0,1,50,90.91c5.49-3.46,11.21-6.44,16.89-9.58,11.15-6.17,24.64-8.88,37.34-8.26a86.32,86.32,0,0,1,18.87,2.6c6.33,1.78,12.1,4.7,17.9,7.72,5.55,2.88,11.2,5.56,16.4,9.07a66.52,66.52,0,0,1,7.38,6.17c1.45,1.32,2.86,3.12,4.45,4.37C165,106.46,161.12,110.21,156.59,113.34Z" transform="translate(-4 -30.62)"/><path d="M121.79,152.8c-3.9,8.14-11.77,14.63-21.26,13.21-.85-.13-.89,1.25,0,1.36A20.24,20.24,0,0,0,122,152.89C122,152.77,121.85,152.67,121.79,152.8Z" transform="translate(-4 -30.62)"/><path d="M121.29,159.24l-.37.42s0,.09,0,.08c-.66.23-1.51,1.58-2.1,2.15a18.47,18.47,0,0,1-4,2.63,39,39,0,0,1-7.83,3.38.56.56,0,0,0,.28,1.08c2.93-.35,6.31-2.39,8.82-3.86,2.29-1.34,4.51-3.14,5.45-5.69A.19.19,0,0,0,121.29,159.24Z" transform="translate(-4 -30.62)"/><path d="M119.8,164.18a26.46,26.46,0,0,1-6.86,3.81c-.66.22-.41,1.24.27,1.05a16.59,16.59,0,0,0,6.86-4.49C120.25,164.37,120,164,119.8,164.18Z" transform="translate(-4 -30.62)"/><path d="M95.42,137.22c3.32-2.3,9.09-3.68,12.59-.91.23.18.5-.19.31-.39-2.95-3.26-8.7-2.15-12.13-.5-4.3,2.07-6.53,5.84-7.39,10.36-.14.76,1,1.11,1.16.34C90.76,142.36,92.17,139.46,95.42,137.22Z" transform="translate(-4 -30.62)"/><path d="M104.41,137.15c.18,0,.26-.27.1-.35-2.09-1-4.6-.18-6.59.7A10.48,10.48,0,0,0,92,144.32a.69.69,0,0,0,1.32.39C94.49,140.33,99.74,136.46,104.41,137.15Z" transform="translate(-4 -30.62)"/><path d="M141.85,124.43l-.16,0a.39.39,0,0,0-.38.18c-1.4.52-2.86.9-4.28,1.38-1.92.64-4.23,1.89-6.23,2-.51,0-.54.82,0,.8,1.74-.06,3.24-.9,4.89-1.39,2.09-.62,4.25-1.16,6.3-1.91A.54.54,0,0,0,141.85,124.43Z" transform="translate(-4 -30.62)"/><path d="M139.32,122.2c-3.16,1.74-6.84,2.34-10,4.21a.16.16,0,0,0,.16.29c3.23-1.76,6.91-2.23,10.23-3.73C140.26,122.73,139.83,121.92,139.32,122.2Z" transform="translate(-4 -30.62)"/><path d="M138.13,120.74a.54.54,0,0,0-.4-1l-.39.11a.47.47,0,0,0-.3.28,34.14,34.14,0,0,1-3.65,1.65,59.78,59.78,0,0,1-6.25,2.48.3.3,0,0,0,.15.58,37.73,37.73,0,0,0,5.68-2A44.55,44.55,0,0,0,138.13,120.74Z" transform="translate(-4 -30.62)"/><path d="M134.94,119.05a.51.51,0,0,0-.5-.9,79.62,79.62,0,0,1-9.63,4.18c-.5.18-.31,1,.21.81,1.53-.52,3-1.16,4.5-1.8A39,39,0,0,0,134.94,119.05Z" transform="translate(-4 -30.62)"/><path d="M130.93,117.71a.53.53,0,0,0-.73-.76,15.54,15.54,0,0,1-3.37,1.62c-1.54.65-3,1.46-4.56,2-.53.18-.33,1,.22.85a34.78,34.78,0,0,0,4.31-1.75C128,119.1,130,118.75,130.93,117.71Z" transform="translate(-4 -30.62)"/><path d="M129.19,115.26a.54.54,0,0,0-.76-.78c-2.32,2-5.56,3.19-8.33,4.4-.49.21-.08.91.4.71,1.67-.69,3.31-1.44,4.94-2.21A11.46,11.46,0,0,0,129.19,115.26Z" transform="translate(-4 -30.62)"/><path d="M125.77,112.53c-1.82,1.87-4.5,3-6.59,4.55-.12.09,0,.29.16.21,2.28-1.44,5-2.36,7.11-4.05C126.94,112.84,126.21,112.07,125.77,112.53Z" transform="translate(-4 -30.62)"/><path d="M123.77,111.83c.4-.31,0-1.07-.49-.88a.82.82,0,0,0-.34.22,30.58,30.58,0,0,1-3,2.05,35.51,35.51,0,0,1-3.48,2.28c-.23.12,0,.43.19.34a33.16,33.16,0,0,0,3.63-2A29.37,29.37,0,0,0,123.77,111.83Z" transform="translate(-4 -30.62)"/><path d="M120.57,110.2c.26-.47-.4-1.07-.77-.62-1.46,1.76-3.88,2.59-5.6,4.1-.18.16,0,.48.26.34,1.21-.78,2.5-1.42,3.75-2.13C119,111.42,120.09,111.09,120.57,110.2Z" transform="translate(-4 -30.62)"/><path d="M117,108l0,0a.52.52,0,0,0-.73.19h0c-1,1.34-2.72,2.21-4,3.21-.38.29.1.94.5.68a27.83,27.83,0,0,0,4.41-3.13A.59.59,0,0,0,117,108Z" transform="translate(-4 -30.62)"/><path d="M113.57,107a.51.51,0,0,0-.84-.24c-.17.2-.27.43-.46.62s-.42.38-.63.57a23.45,23.45,0,0,1-2.09,1.53c-.42.3-.06,1,.4.71a26.62,26.62,0,0,0,2.51-1.61C113,108.2,113.68,107.79,113.57,107Z" transform="translate(-4 -30.62)"/><path d="M109.78,106.87c.2-.42-.22-1-.69-.72s-.87.82-1.35,1.17a13.08,13.08,0,0,1-1.71,1.2c-.52.26-.08,1,.44.78a15.81,15.81,0,0,0,1.76-1.12A4,4,0,0,0,109.78,106.87Z" transform="translate(-4 -30.62)"/><path d="M104.79,106.35c-.44.55-1,1-1.48,1.53a.43.43,0,0,0,.6.62c.54-.52,1.11-1,1.63-1.55S105.23,105.8,104.79,106.35Z" transform="translate(-4 -30.62)"/><path d="M144.08,132.42c-3.44,2.31-7.24,4.49-10.43,7.15a44.11,44.11,0,0,1-4.24-2.75c-1.35-.82-2.56-2.14-4-2.67-.19-.07-.37.21-.21.34a50,50,0,0,0,4.2,3.58c1.45.95,2.86,2.54,4.61,2.87a.6.6,0,0,0,.73-.57l9.73-7.49C144.69,132.68,144.36,132.24,144.08,132.42Z" transform="translate(-4 -30.62)"/><path d="M72.16,110c5.43-3.83,11.72-8.15,18.4-9.22.27,0,.21-.5-.06-.47-6.89.71-13.21,5.15-18.77,8.94A64.16,64.16,0,0,0,56.8,123.84c-.37.5.45,1,.82.5A65.05,65.05,0,0,1,72.16,110Z" transform="translate(-4 -30.62)"/><path d="M80.57,101.72c.34-.23,0-.77-.31-.56-9.22,5.67-18.47,12.32-24.76,21.31-.39.55.51,1.09.89.54C62.55,114.15,71.76,107.68,80.57,101.72Z" transform="translate(-4 -30.62)"/><path d="M78.66,37.19c4.87-.88,9.74-1.83,14.66-2.39a113.14,113.14,0,0,1,14.53-.45c4.79.07,9.57.27,14.35.37,4.58.1,9,1.42,13.52,1.69.15,0,.19-.23,0-.26-4.31-.88-8.34-2.06-12.75-2.39-5-.38-10.11-.46-15.14-.57A135.59,135.59,0,0,0,78.35,36C77.58,36.16,77.89,37.32,78.66,37.19Z" transform="translate(-4 -30.62)"/><path d="M83,34.22c2.49-.12,4.8-1,7.24-1.44a83.61,83.61,0,0,1,10.13-.93c6.66-.31,13.32.51,20,.28a.31.31,0,0,0,0-.63c-6.36-.29-12.71-1-19.08-.88a81.75,81.75,0,0,0-8.84.58c-3.16.38-6.25,1.57-9.42,1.71C82.17,33,82.14,34.26,83,34.22Z" transform="translate(-4 -30.62)"/><path d="M164.61,100.12c-2.1-1.62-4.16-3.3-6.22-5-3-2.4-5.85-5.39-9.67-6.37a.43.43,0,0,0-.24.83c3.67,1.11,6.58,3.52,9.41,6s6.37,4.42,8.51,7.32c.12.16.41.08.34-.14A5.35,5.35,0,0,0,164.61,100.12Z" transform="translate(-4 -30.62)"/><path d="M156.78,96.21a31.31,31.31,0,0,0-7.59-5.54.52.52,0,1,0-.42.95c3.17,1.27,5.62,3.4,8.13,5.65s5.11,4.29,7.4,6.75c.24.25.62-.12.39-.37C162.26,100.94,159.45,98.66,156.78,96.21Z" transform="translate(-4 -30.62)"/><path d="M173.48,103.25a.39.39,0,0,0,.21-.67c-1.31-1.27-2.22-2.88-3.51-4.13a37.25,37.25,0,0,1-3.63-3.52c-.15-.2-.43,0-.33.25a13.76,13.76,0,0,0,3,3.51c1.32,1.24,2.19,2.84,3.48,4.11-2,2.4-3.85,4.93-6.07,7.15a.32.32,0,0,0,.45.46A82.35,82.35,0,0,0,173.48,103.25Z" transform="translate(-4 -30.62)"/><path d="M176.44,103c-3.09-3.28-6-6.77-9.61-9.54-.19-.15-.45.17-.27.33,3.35,3,6,6.75,9.18,9.88a.49.49,0,0,0,.13.09c-2.09,2.81-6.44,4-7.61,7.47a.2.2,0,0,0,.36.16c2-3.2,5.73-4.39,7.9-7.4a.27.27,0,0,0-.05-.39A.44.44,0,0,0,176.44,103Z" transform="translate(-4 -30.62)"/><path d="M24.72,69.64c-1.39,2.1-2.79,4.19-4.27,6.23-1,1.43-2.18,3.09-2.28,4.9a.26.26,0,0,0,.48.14h0a27.72,27.72,0,0,1,1.55-2.79l.58-.71a.19.19,0,0,0,0-.2c1.58-2.36,3.38-4.59,5-6.91C26.27,69.63,25.17,69,24.72,69.64Z" transform="translate(-4 -30.62)"/><path d="M29.11,68.11c-2.34,4.17-5.12,8.08-7.3,12.34-.19.36.35.7.55.33,2.32-4.19,5.36-7.93,7.64-12.13C30.32,68.06,29.44,67.52,29.11,68.11Z" transform="translate(-4 -30.62)"/><path d="M34.44,64.89c-1.08,2.46-2.91,4.4-4.39,6.61a63.59,63.59,0,0,0-3.62,6.58c-.17.34.33.65.51.31a61.6,61.6,0,0,1,4.3-7.15c1.47-2,3.27-3.69,4.23-6C35.73,64.55,34.71,64.27,34.44,64.89Z" transform="translate(-4 -30.62)"/><path d="M42.51,57.65A146.65,146.65,0,0,0,32.22,74.73c-.15.3.3.5.46.22,3.27-5.8,7.1-11.16,10.67-16.75C43.66,57.71,42.83,57.17,42.51,57.65Z" transform="translate(-4 -30.62)"/><path d="M49.42,52.51c-1.61,2.12-2.77,4.6-4.16,6.86-1.57,2.54-3.13,5.09-4.48,7.76-.15.29.28.55.43.26a151.1,151.1,0,0,1,9.16-14.3C50.79,52.49,49.85,52,49.42,52.51Z" transform="translate(-4 -30.62)"/><path d="M56.31,51.92c.51-.47-.22-1.22-.75-.77C51.81,54.38,49,58.72,46.3,62.82c-.22.33.3.64.52.32A69.48,69.48,0,0,1,56.31,51.92Z" transform="translate(-4 -30.62)"/><path d="M61.61,49.41c-3.38,3.72-7,7.35-10,11.37-.17.23.2.52.39.31,3.44-3.65,6.95-7.25,10.36-10.93C62.79,49.67,62.07,48.91,61.61,49.41Z" transform="translate(-4 -30.62)"/><path d="M67.37,45.51c-1.66,2.12-3.13,4.4-4.76,6.55-1.75,2.32-3.37,5.19-5.41,7.24a.24.24,0,0,0,.33.34c2-1.83,3.47-4.36,5.19-6.43,1.89-2.29,3.6-4.75,5.53-7A.57.57,0,1,0,67.37,45.51Z" transform="translate(-4 -30.62)"/><path d="M115.37,60.31a86.1,86.1,0,0,1,14.68,3.3c2,.6,4.1,1.18,6.17,1.67,2.24.53,4.33,1.68,6.52,2.36,4.18,1.29,7.86,3.68,11.85,5.42.13.05.21-.15.1-.22-3.61-2-7-4.36-10.91-5.78-4.46-1.63-8.91-3-13.46-4.39a114.34,114.34,0,0,0-13.91-3.31c-4.46-.75-9-.13-13.43-.82a.61.61,0,1,0-.18,1.2C106.92,60.34,111.21,59.87,115.37,60.31Z" transform="translate(-4 -30.62)"/><path d="M174.47,62.51c-.62-.35-1.19.59-.57.94,3.28,1.9,6.57,3.17,9.26,5.95,1.31,1.35,2.36,2.91,3.64,4.28s3.15,2.21,3.67,4.3a.25.25,0,0,0,.48-.12,6.43,6.43,0,0,0-2.08-3.37,49.68,49.68,0,0,1-4-4.54C182.08,66.34,178.36,64.7,174.47,62.51Z" transform="translate(-4 -30.62)"/><path d="M178.16,67.38c-.65-.28-1,.79-.31,1.06,4.45,1.81,8.64,6.74,11,10.83.1.18.35,0,.27-.15C187.08,74.4,182.93,69.43,178.16,67.38Z" transform="translate(-4 -30.62)"/><path d="M179.16,71.82c1.28,1.69,2.87,3.15,4.3,4.71s3,2.86,3.52,4.79c.07.26.51.22.48-.06-.44-4-5.12-7.11-7.36-10.15A.59.59,0,1,0,179.16,71.82Z" transform="translate(-4 -30.62)"/><path d="M30.78,102.42c-.6-.32-1.15.59-.55.9,5.09,2.68,8.83,7.19,13.64,10.28.31.2.58-.27.29-.48C39.55,109.72,35.91,105.12,30.78,102.42Z" transform="translate(-4 -30.62)"/><path d="M12,82.42C10.48,80.78,9,78.35,7,77.24a.6.6,0,0,0-.63,1A20.23,20.23,0,0,1,8.57,80.4c1,.83,1.82,1.83,2.74,2.72,1.85,1.8,3.67,3.64,5.54,5.42a.2.2,0,0,0,.29-.28C15.51,86.26,13.82,84.3,12,82.42Z" transform="translate(-4 -30.62)"/><path d="M9.84,83.41C8.34,82,6,80.58,5.13,78.73c-.34-.71-1.4-.11-1.07.6C4.86,81,6.62,81.89,8,83.07c1.82,1.61,3.79,2.94,5.16,5a.27.27,0,0,0,.47-.26A14.42,14.42,0,0,0,9.84,83.41Z" transform="translate(-4 -30.62)"/></svg>